<svg width="35" height="40" viewBox="0 0 35 40" fill="none" xmlns="http://www.w3.org/2000/svg">
<path d="M5.25829 8.40916C4.7939 7.10888 3.36336 6.43126 2.06309 6.89565C0.762815 7.36003 0.0851922 8.79057 0.549576 10.0908L5.25829 8.40916ZM12.9039 37.25L10.5496 38.0908C10.9434 39.1936 12.05 39.8753 13.2121 39.7309C14.3742 39.5866 15.2804 38.6549 15.3925 37.4893L12.9039 37.25ZM33.6011 4.94474C34.8132 4.28358 35.2598 2.76499 34.5987 1.55287C33.9375 0.340749 32.4189 -0.105896 31.2068 0.555261L33.6011 4.94474ZM0.549576 10.0908L10.5496 38.0908L15.2583 36.4092L5.25829 8.40916L0.549576 10.0908ZM15.3925 37.4893C16.6087 24.8405 19.9851 17.4482 23.505 12.9064C27.0247 8.36485 30.8376 6.45208 33.6011 4.94474L31.2068 0.555261C28.4703 2.04792 23.7832 4.38515 19.5529 9.84357C15.3228 15.3018 11.6992 23.6595 10.4154 37.0107L15.3925 37.4893Z" fill="#3C7299"/>
</svg>
