<svg width="104" height="85" viewBox="0 0 104 85" fill="none" xmlns="http://www.w3.org/2000/svg">
<path d="M12 17.0161C8.01888 22.3379 5.45903 30.1574 7.40038 36.7067C10.7176 47.9 24.7942 48.7434 34.4354 50.0387C41.0799 50.9324 47.6865 56.1261 53.3692 59.3493C60.9427 63.6469 73.126 70.4271 81.8608 66.0241C89.1011 62.3767 92.9939 53.5531 95.2154 46.2331C98.6967 34.7713 99.0325 20.9447 91.4539 10.9589C81.1388 -2.59657 63.0936 -0.337332 48.1005 1.98215C38.0656 3.53601 28.3109 5.0497 19.3893 10.3388C16.5088 12.0601 13.9979 14.3291 12 17.0161Z" fill="#FFD942"/>
<path opacity="0.4" d="M12 17.0161C8.01888 22.3379 5.45903 30.1574 7.40038 36.7067C10.7176 47.9 24.7942 48.7434 34.4354 50.0387C41.0799 50.9324 47.6865 56.1261 53.3692 59.3493C60.9427 63.6469 73.126 70.4271 81.8608 66.0241C89.1011 62.3767 92.9939 53.5531 95.2154 46.2331C98.6967 34.7713 99.0325 20.9447 91.4539 10.9589C81.1388 -2.59657 63.0936 -0.337332 48.1005 1.98215C38.0656 3.53601 28.3109 5.0497 19.3893 10.3388C16.5088 12.0601 13.9979 14.3291 12 17.0161Z" fill="white"/>
<path d="M0.37207 80.9678C0.37207 81.8614 23.4234 82.5869 51.8721 82.5869C80.3208 82.5869 103.372 81.8614 103.372 80.9678C103.372 80.0741 80.3208 79.3486 51.8847 79.3486C23.4486 79.3486 0.37207 80.0741 0.37207 80.9678Z" fill="#FFD942"/>
<path opacity="0.6" d="M0.37207 80.9678C0.37207 81.8614 23.4234 82.5869 51.8721 82.5869C80.3208 82.5869 103.372 81.8614 103.372 80.9678C103.372 80.0741 80.3208 79.3486 51.8847 79.3486C23.4486 79.3486 0.37207 80.0741 0.37207 80.9678Z" fill="white"/>
<path d="M57.6835 0.76709H11.952V58.448H57.6835V0.76709Z" fill="white" stroke="#263238" stroke-width="0.5" stroke-linecap="round" stroke-linejoin="round"/>
<path d="M57.6835 0.76709H11.952V4.20867H57.6835V0.76709Z" fill="#263238" stroke="#263238" stroke-width="0.5" stroke-linecap="round" stroke-linejoin="round"/>
<path d="M20.9847 40.9966H13.2546V57.3108H20.9847V40.9966Z" fill="#FFD942"/>
<path opacity="0.6" d="M20.9847 40.9966H13.2546V57.3108H20.9847V40.9966Z" fill="white"/>
<path d="M29.4138 40.9966H21.6838V57.3108H29.4138V40.9966Z" fill="#FFD942"/>
<path opacity="0.6" d="M29.4138 40.9966H21.6838V57.3108H29.4138V40.9966Z" fill="white"/>
<path d="M38.3709 40.9966H30.6409V57.3108H38.3709V40.9966Z" fill="#FFD942"/>
<path opacity="0.6" d="M38.3709 40.9966H30.6409V57.3108H38.3709V40.9966Z" fill="white"/>
<path d="M47.3254 40.9966H39.5953V57.3108H47.3254V40.9966Z" fill="#FFD942"/>
<path opacity="0.6" d="M47.3254 40.9966H39.5953V57.3108H47.3254V40.9966Z" fill="white"/>
<path d="M56.4994 40.9966H48.7693V57.3108H56.4994V40.9966Z" fill="white" stroke="#263238" stroke-width="0.5" stroke-linecap="round" stroke-linejoin="round"/>
<path d="M56.3756 2.12769H13.257V6.08136H56.3756V2.12769Z" fill="#FFD942"/>
<path opacity="0.6" d="M56.3756 2.12769H13.257V6.08136H56.3756V2.12769Z" fill="white"/>
<path d="M55.7699 2.89575H14.0322V4.64541H55.7699V2.89575Z" fill="white"/>
<path d="M55.7674 2.89575H51.0415V4.64541H55.7674V2.89575Z" fill="#263238" stroke="#263238" stroke-width="0.5" stroke-linecap="round" stroke-linejoin="round"/>
<path d="M32.4485 9.62577H23.6127C23.5223 9.62577 23.4356 9.59007 23.3717 9.52652C23.3078 9.46296 23.2719 9.37676 23.2719 9.28688C23.2719 9.19701 23.3078 9.11081 23.3717 9.04726C23.4356 8.9837 23.5223 8.948 23.6127 8.948H32.4485C32.5389 8.948 32.6256 8.9837 32.6895 9.04726C32.7534 9.11081 32.7893 9.19701 32.7893 9.28688C32.7893 9.37676 32.7534 9.46296 32.6895 9.52652C32.6256 9.59007 32.5389 9.62577 32.4485 9.62577Z" fill="#263238"/>
<path d="M32.4486 11.9878H23.6128C23.5657 11.9918 23.5184 11.9861 23.4737 11.971C23.4289 11.9558 23.3879 11.9316 23.3531 11.8999C23.3183 11.8681 23.2905 11.8295 23.2715 11.7866C23.2525 11.7436 23.2427 11.6971 23.2427 11.6502C23.2427 11.6032 23.2525 11.5568 23.2715 11.5138C23.2905 11.4708 23.3183 11.4322 23.3531 11.4004C23.3879 11.3687 23.4289 11.3445 23.4737 11.3294C23.5184 11.3142 23.5657 11.3085 23.6128 11.3125H32.4486C32.5336 11.3198 32.6127 11.3586 32.6704 11.4211C32.7281 11.4836 32.7601 11.5653 32.7601 11.6502C32.7601 11.735 32.7281 11.8167 32.6704 11.8793C32.6127 11.9418 32.5336 11.9805 32.4486 11.9878Z" fill="#263238"/>
<path d="M32.4485 14.3526H23.6127C23.5223 14.3526 23.4356 14.3169 23.3717 14.2533C23.3078 14.1898 23.2719 14.1036 23.2719 14.0137C23.2719 13.9238 23.3078 13.8376 23.3717 13.7741C23.4356 13.7105 23.5223 13.6748 23.6127 13.6748H32.4485C32.5389 13.6748 32.6256 13.7105 32.6895 13.7741C32.7534 13.8376 32.7893 13.9238 32.7893 14.0137C32.7893 14.1036 32.7534 14.1898 32.6895 14.2533C32.6256 14.3169 32.5389 14.3526 32.4485 14.3526Z" fill="#263238"/>
<path d="M32.4486 16.7146H14.1106C14.0256 16.7073 13.9464 16.6685 13.8887 16.606C13.8311 16.5435 13.7991 16.4618 13.7991 16.3769C13.7991 16.2921 13.8311 16.2104 13.8887 16.1478C13.9464 16.0853 14.0256 16.0466 14.1106 16.0393H32.4486C32.5336 16.0466 32.6128 16.0853 32.6704 16.1478C32.7281 16.2104 32.7601 16.2921 32.7601 16.3769C32.7601 16.4618 32.7281 16.5435 32.6704 16.606C32.6128 16.6685 32.5336 16.7073 32.4486 16.7146Z" fill="#263238"/>
<path d="M32.4484 19.0794H14.1104C14.02 19.0794 13.9333 19.0437 13.8694 18.9801C13.8055 18.9166 13.7696 18.8304 13.7696 18.7405C13.7696 18.6506 13.8055 18.5644 13.8694 18.5009C13.9333 18.4373 14.02 18.4016 14.1104 18.4016H32.4484C32.5388 18.4016 32.6255 18.4373 32.6894 18.5009C32.7533 18.5644 32.7893 18.6506 32.7893 18.7405C32.7893 18.8304 32.7533 18.9166 32.6894 18.9801C32.6255 19.0437 32.5388 19.0794 32.4484 19.0794Z" fill="#263238"/>
<path d="M32.4484 21.4441H14.1104C14.02 21.4441 13.9333 21.4084 13.8694 21.3449C13.8055 21.2813 13.7696 21.1951 13.7696 21.1052C13.7696 21.0154 13.8055 20.9292 13.8694 20.8656C13.9333 20.8021 14.02 20.7664 14.1104 20.7664H32.4484C32.5388 20.7664 32.6255 20.8021 32.6894 20.8656C32.7533 20.9292 32.7893 21.0154 32.7893 21.1052C32.7893 21.1951 32.7533 21.2813 32.6894 21.3449C32.6255 21.4084 32.5388 21.4441 32.4484 21.4441Z" fill="#263238"/>
<path d="M32.4486 23.8061H14.1106C14.0256 23.7988 13.9464 23.7601 13.8887 23.6976C13.8311 23.6351 13.7991 23.5533 13.7991 23.4685C13.7991 23.3837 13.8311 23.3019 13.8887 23.2394C13.9464 23.1769 14.0256 23.1382 14.1106 23.1309H32.4486C32.5336 23.1382 32.6128 23.1769 32.6704 23.2394C32.7281 23.3019 32.7601 23.3837 32.7601 23.4685C32.7601 23.5533 32.7281 23.6351 32.6704 23.6976C32.6128 23.7601 32.5336 23.7988 32.4486 23.8061Z" fill="#263238"/>
<path d="M32.4486 25.9072H14.1106C14.0256 25.8999 13.9464 25.8612 13.8887 25.7987C13.8311 25.7361 13.7991 25.6544 13.7991 25.5696C13.7991 25.4847 13.8311 25.403 13.8887 25.3405C13.9464 25.278 14.0256 25.2392 14.1106 25.2319H32.4486C32.5336 25.2392 32.6128 25.278 32.6704 25.3405C32.7281 25.403 32.7601 25.4847 32.7601 25.5696C32.7601 25.6544 32.7281 25.7361 32.6704 25.7987C32.6128 25.8612 32.5336 25.8999 32.4486 25.9072Z" fill="#263238"/>
<path d="M32.4484 28.2796H14.1104C14.02 28.2796 13.9333 28.2439 13.8694 28.1803C13.8055 28.1168 13.7696 28.0306 13.7696 27.9407C13.7696 27.8508 13.8055 27.7646 13.8694 27.7011C13.9333 27.6375 14.02 27.6018 14.1104 27.6018H32.4484C32.5388 27.6018 32.6255 27.6375 32.6894 27.7011C32.7533 27.7646 32.7893 27.8508 32.7893 27.9407C32.7893 28.0306 32.7533 28.1168 32.6894 28.1803C32.6255 28.2439 32.5388 28.2796 32.4484 28.2796Z" fill="#263238"/>
<path d="M32.4486 30.634H14.1106C14.0256 30.6267 13.9464 30.588 13.8887 30.5255C13.8311 30.463 13.7991 30.3812 13.7991 30.2964C13.7991 30.2115 13.8311 30.1298 13.8887 30.0673C13.9464 30.0048 14.0256 29.966 14.1106 29.9587H32.4486C32.5336 29.966 32.6128 30.0048 32.6704 30.0673C32.7281 30.1298 32.7601 30.2115 32.7601 30.2964C32.7601 30.3812 32.7281 30.463 32.6704 30.5255C32.6128 30.588 32.5336 30.6267 32.4486 30.634Z" fill="#263238"/>
<path d="M32.4484 32.9988H14.1104C14.02 32.9988 13.9333 32.9631 13.8694 32.8996C13.8055 32.836 13.7696 32.7498 13.7696 32.6599C13.7696 32.57 13.8055 32.4839 13.8694 32.4203C13.9333 32.3567 14.02 32.321 14.1104 32.321H32.4484C32.5388 32.321 32.6255 32.3567 32.6894 32.4203C32.7533 32.4839 32.7893 32.57 32.7893 32.6599C32.7893 32.7498 32.7533 32.836 32.6894 32.8996C32.6255 32.9631 32.5388 32.9988 32.4484 32.9988Z" fill="#263238"/>
<path d="M32.4486 35.3611H14.1106C14.0256 35.3538 13.9464 35.315 13.8887 35.2525C13.8311 35.19 13.7991 35.1083 13.7991 35.0234C13.7991 34.9386 13.8311 34.8568 13.8887 34.7943C13.9464 34.7318 14.0256 34.6931 14.1106 34.6858H32.4486C32.5336 34.6931 32.6128 34.7318 32.6704 34.7943C32.7281 34.8568 32.7601 34.9386 32.7601 35.0234C32.7601 35.1083 32.7281 35.19 32.6704 35.2525C32.6128 35.315 32.5336 35.3538 32.4486 35.3611Z" fill="#263238"/>
<path d="M32.4486 37.7256H14.1106C14.0256 37.7183 13.9464 37.6795 13.8887 37.617C13.8311 37.5545 13.7991 37.4728 13.7991 37.3879C13.7991 37.3031 13.8311 37.2213 13.8887 37.1588C13.9464 37.0963 14.0256 37.0576 14.1106 37.0503H32.4486C32.5336 37.0576 32.6128 37.0963 32.6704 37.1588C32.7281 37.2213 32.7601 37.3031 32.7601 37.3879C32.7601 37.4728 32.7281 37.5545 32.6704 37.617C32.6128 37.6795 32.5336 37.7183 32.4486 37.7256Z" fill="#263238"/>
<path d="M56.0526 9.62577H37.7222C37.6318 9.62577 37.5451 9.59007 37.4812 9.52652C37.4173 9.46296 37.3813 9.37676 37.3813 9.28688C37.3813 9.19701 37.4173 9.11081 37.4812 9.04726C37.5451 8.9837 37.6318 8.948 37.7222 8.948H56.0526C56.143 8.948 56.2297 8.9837 56.2936 9.04726C56.3575 9.11081 56.3934 9.19701 56.3934 9.28688C56.3934 9.37676 56.3575 9.46296 56.2936 9.52652C56.2297 9.59007 56.143 9.62577 56.0526 9.62577Z" fill="#263238"/>
<path d="M56.0527 11.9878H37.7222C37.6752 11.9918 37.6278 11.9861 37.5831 11.971C37.5384 11.9558 37.4973 11.9316 37.4625 11.8999C37.4277 11.8681 37.3999 11.8295 37.3809 11.7866C37.3619 11.7436 37.3521 11.6971 37.3521 11.6502C37.3521 11.6032 37.3619 11.5568 37.3809 11.5138C37.3999 11.4708 37.4277 11.4322 37.4625 11.4004C37.4973 11.3687 37.5384 11.3445 37.5831 11.3294C37.6278 11.3142 37.6752 11.3085 37.7222 11.3125H56.0527C56.0997 11.3085 56.1471 11.3142 56.1918 11.3294C56.2365 11.3445 56.2776 11.3687 56.3124 11.4004C56.3472 11.4322 56.375 11.4708 56.394 11.5138C56.413 11.5568 56.4228 11.6032 56.4228 11.6502C56.4228 11.6971 56.413 11.7436 56.394 11.7866C56.375 11.8295 56.3472 11.8681 56.3124 11.8999C56.2776 11.9316 56.2365 11.9558 56.1918 11.971C56.1471 11.9861 56.0997 11.9918 56.0527 11.9878Z" fill="#263238"/>
<path d="M56.0526 14.3526H37.7222C37.6318 14.3526 37.5451 14.3169 37.4812 14.2533C37.4173 14.1898 37.3813 14.1036 37.3813 14.0137C37.3813 13.9238 37.4173 13.8376 37.4812 13.7741C37.5451 13.7105 37.6318 13.6748 37.7222 13.6748H56.0526C56.143 13.6748 56.2297 13.7105 56.2936 13.7741C56.3575 13.8376 56.3934 13.9238 56.3934 14.0137C56.3934 14.1036 56.3575 14.1898 56.2936 14.2533C56.2297 14.3169 56.143 14.3526 56.0526 14.3526Z" fill="#263238"/>
<path d="M56.0527 16.7146H37.7222C37.6752 16.7186 37.6278 16.7129 37.5831 16.6978C37.5384 16.6826 37.4973 16.6584 37.4625 16.6267C37.4277 16.5949 37.3999 16.5564 37.3809 16.5134C37.3619 16.4704 37.3521 16.4239 37.3521 16.377C37.3521 16.33 37.3619 16.2836 37.3809 16.2406C37.3999 16.1976 37.4277 16.159 37.4625 16.1273C37.4973 16.0955 37.5384 16.0713 37.5831 16.0562C37.6278 16.041 37.6752 16.0353 37.7222 16.0393H56.0527C56.0997 16.0353 56.1471 16.041 56.1918 16.0562C56.2365 16.0713 56.2776 16.0955 56.3124 16.1273C56.3472 16.159 56.375 16.1976 56.394 16.2406C56.413 16.2836 56.4228 16.33 56.4228 16.377C56.4228 16.4239 56.413 16.4704 56.394 16.5134C56.375 16.5564 56.3472 16.5949 56.3124 16.6267C56.2776 16.6584 56.2365 16.6826 56.1918 16.6978C56.1471 16.7129 56.0997 16.7186 56.0527 16.7146Z" fill="#263238"/>
<path d="M56.0526 19.0794H37.7222C37.6318 19.0794 37.5451 19.0437 37.4812 18.9801C37.4173 18.9166 37.3813 18.8304 37.3813 18.7405C37.3813 18.6506 37.4173 18.5644 37.4812 18.5009C37.5451 18.4373 37.6318 18.4016 37.7222 18.4016H56.0526C56.143 18.4016 56.2297 18.4373 56.2936 18.5009C56.3575 18.5644 56.3934 18.6506 56.3934 18.7405C56.3934 18.8304 56.3575 18.9166 56.2936 18.9801C56.2297 19.0437 56.143 19.0794 56.0526 19.0794Z" fill="#263238"/>
<path d="M56.0526 21.4441H37.7222C37.6774 21.4441 37.6331 21.4354 37.5917 21.4183C37.5504 21.4013 37.5128 21.3763 37.4812 21.3449C37.4495 21.3134 37.4244 21.276 37.4073 21.2349C37.3902 21.1938 37.3813 21.1497 37.3813 21.1052C37.3813 21.0607 37.3902 21.0167 37.4073 20.9756C37.4244 20.9344 37.4495 20.8971 37.4812 20.8656C37.5128 20.8341 37.5504 20.8092 37.5917 20.7922C37.6331 20.7751 37.6774 20.7664 37.7222 20.7664H56.0526C56.0974 20.7664 56.1417 20.7751 56.183 20.7922C56.2244 20.8092 56.262 20.8341 56.2936 20.8656C56.3253 20.8971 56.3504 20.9344 56.3675 20.9756C56.3846 21.0167 56.3934 21.0607 56.3934 21.1052C56.3934 21.1497 56.3846 21.1938 56.3675 21.2349C56.3504 21.276 56.3253 21.3134 56.2936 21.3449C56.262 21.3763 56.2244 21.4013 56.183 21.4183C56.1417 21.4354 56.0974 21.4441 56.0526 21.4441Z" fill="#263238"/>
<path d="M56.0527 23.8062H37.7222C37.6752 23.8102 37.6278 23.8045 37.5831 23.7893C37.5384 23.7742 37.4973 23.75 37.4625 23.7182C37.4277 23.6865 37.3999 23.6479 37.3809 23.6049C37.3619 23.5619 37.3521 23.5155 37.3521 23.4685C37.3521 23.4216 37.3619 23.3751 37.3809 23.3321C37.3999 23.2891 37.4277 23.2506 37.4625 23.2188C37.4973 23.1871 37.5384 23.1629 37.5831 23.1477C37.6278 23.1326 37.6752 23.1269 37.7222 23.1309H56.0527C56.0997 23.1269 56.1471 23.1326 56.1918 23.1477C56.2365 23.1629 56.2776 23.1871 56.3124 23.2188C56.3472 23.2506 56.375 23.2891 56.394 23.3321C56.413 23.3751 56.4228 23.4216 56.4228 23.4685C56.4228 23.5155 56.413 23.5619 56.394 23.6049C56.375 23.6479 56.3472 23.6865 56.3124 23.7182C56.2776 23.75 56.2365 23.7742 56.1918 23.7893C56.1471 23.8045 56.0997 23.8102 56.0527 23.8062Z" fill="#263238"/>
<path d="M56.3833 25.3953H37.702V38.3507H56.3833V25.3953Z" fill="#FFD942"/>
<path opacity="0.6" d="M56.3833 25.3953H37.702V38.3507H56.3833V25.3953Z" fill="white"/>
<path d="M20.5025 10.2958C20.5543 10.1386 20.5815 9.97432 20.5833 9.80884C20.5833 9.20386 19.9673 9.16872 19.3589 9.16872H19.2074V9.02563H21.8455V9.16872C21.1589 9.16872 20.9165 9.603 20.6944 10.2532L19.2907 14.4353C19.1847 14.744 19.0963 14.975 18.7656 14.975H18.7379L17.4983 10.9811L16.3371 14.4353C16.2285 14.744 16.1401 14.975 15.8094 14.975H15.7867L13.9842 9.16872H13.3506V9.02563H15.6706V9.16872H15.0117L16.3497 13.75H16.4027L17.4125 10.695L16.9404 9.16872H16.3068V9.02563H18.6268V9.16872H17.9654L19.3059 13.75H19.3589L20.5025 10.2958Z" fill="#263238"/>
<path d="M62.9117 7.54468H43.8719V58.3299H62.9117V7.54468Z" fill="#FFD942"/>
<path opacity="0.4" d="M62.9117 7.54468H43.8719V58.3299H62.9117V7.54468Z" fill="white"/>
<path d="M91.027 5.64453H45.2955V63.3254H91.027V5.64453Z" fill="white" stroke="#263238" stroke-width="0.5" stroke-linecap="round" stroke-linejoin="round"/>
<path d="M91.027 5.64453H45.2955V9.08611H91.027V5.64453Z" fill="#263238" stroke="#263238" stroke-width="0.5" stroke-linecap="round" stroke-linejoin="round"/>
<path d="M76.7588 13.8127H60.7004V43.6623H76.7588V13.8127Z" fill="#FFD942"/>
<path opacity="0.6" d="M76.7588 13.8127H60.7004V43.6623H76.7588V13.8127Z" fill="white"/>
<path d="M89.7221 45.8716H46.6035V62.1858H89.7221V45.8716Z" fill="#FFD942"/>
<path opacity="0.6" d="M89.7221 45.8716H46.6035V62.1858H89.7221V45.8716Z" fill="white"/>
<path d="M89.7221 7.00513H46.6035V10.9588H89.7221V7.00513Z" fill="#FFD942"/>
<path opacity="0.6" d="M89.7221 7.00513H46.6035V10.9588H89.7221V7.00513Z" fill="white"/>
<path d="M89.1161 7.77319H47.3784V9.52285H89.1161V7.77319Z" fill="white"/>
<path d="M89.1136 7.77319H84.3878V9.52285H89.1136V7.77319Z" fill="#263238" stroke="#263238" stroke-width="0.5" stroke-linecap="round" stroke-linejoin="round"/>
<path d="M58.0015 14.5007H46.9971C46.9501 14.5048 46.9027 14.499 46.858 14.4839C46.8133 14.4688 46.7722 14.4446 46.7374 14.4128C46.7026 14.3811 46.6748 14.3425 46.6558 14.2995C46.6368 14.2565 46.627 14.2101 46.627 14.1631C46.627 14.1161 46.6368 14.0697 46.6558 14.0267C46.6748 13.9837 46.7026 13.9451 46.7374 13.9134C46.7722 13.8816 46.8133 13.8574 46.858 13.8423C46.9027 13.8272 46.9501 13.8214 46.9971 13.8255H58.0015C58.0485 13.8214 58.0959 13.8272 58.1406 13.8423C58.1853 13.8574 58.2264 13.8816 58.2612 13.9134C58.296 13.9451 58.3237 13.9837 58.3428 14.0267C58.3618 14.0697 58.3716 14.1161 58.3716 14.1631C58.3716 14.2101 58.3618 14.2565 58.3428 14.2995C58.3237 14.3425 58.296 14.3811 58.2612 14.4128C58.2264 14.4446 58.1853 14.4688 58.1406 14.4839C58.0959 14.499 58.0485 14.5048 58.0015 14.5007Z" fill="#263238"/>
<path d="M58.0016 16.8653H46.9973C46.9069 16.8653 46.8202 16.8296 46.7563 16.766C46.6924 16.7025 46.6565 16.6163 46.6565 16.5264C46.6565 16.4365 46.6924 16.3503 46.7563 16.2868C46.8202 16.2232 46.9069 16.1875 46.9973 16.1875H58.0016C58.092 16.1875 58.1787 16.2232 58.2426 16.2868C58.3065 16.3503 58.3425 16.4365 58.3425 16.5264C58.3425 16.6163 58.3065 16.7025 58.2426 16.766C58.1787 16.8296 58.092 16.8653 58.0016 16.8653Z" fill="#263238"/>
<path d="M58.0015 19.2275H46.9971C46.9501 19.2316 46.9027 19.2258 46.858 19.2107C46.8133 19.1956 46.7722 19.1714 46.7374 19.1396C46.7026 19.1079 46.6748 19.0693 46.6558 19.0263C46.6368 18.9833 46.627 18.9369 46.627 18.8899C46.627 18.843 46.6368 18.7965 46.6558 18.7535C46.6748 18.7105 46.7026 18.6719 46.7374 18.6402C46.7722 18.6084 46.8133 18.5842 46.858 18.5691C46.9027 18.554 46.9501 18.5482 46.9971 18.5523H58.0015C58.0485 18.5482 58.0959 18.554 58.1406 18.5691C58.1853 18.5842 58.2264 18.6084 58.2612 18.6402C58.296 18.6719 58.3237 18.7105 58.3428 18.7535C58.3618 18.7965 58.3716 18.843 58.3716 18.8899C58.3716 18.9369 58.3618 18.9833 58.3428 19.0263C58.3237 19.0693 58.296 19.1079 58.2612 19.1396C58.2264 19.1714 58.1853 19.1956 58.1406 19.2107C58.0959 19.2258 58.0485 19.2316 58.0015 19.2275Z" fill="#263238"/>
<path d="M58.0016 21.5921H46.9973C46.9525 21.5921 46.9082 21.5833 46.8669 21.5663C46.8255 21.5493 46.788 21.5243 46.7563 21.4928C46.7247 21.4614 46.6996 21.424 46.6824 21.3829C46.6653 21.3418 46.6565 21.2977 46.6565 21.2532C46.6565 21.2087 46.6653 21.1646 46.6824 21.1235C46.6996 21.0824 46.7247 21.045 46.7563 21.0136C46.788 20.9821 46.8255 20.9571 46.8669 20.9401C46.9082 20.9231 46.9525 20.9143 46.9973 20.9143H58.0016C58.092 20.9143 58.1787 20.95 58.2426 21.0136C58.3065 21.0771 58.3425 21.1633 58.3425 21.2532C58.3425 21.3431 58.3065 21.4293 58.2426 21.4928C58.1787 21.5564 58.092 21.5921 58.0016 21.5921Z" fill="#263238"/>
<path d="M58.0015 23.9544H46.9971C46.9501 23.9584 46.9027 23.9527 46.858 23.9375C46.8133 23.9224 46.7722 23.8982 46.7374 23.8664C46.7026 23.8347 46.6748 23.7961 46.6558 23.7531C46.6368 23.7101 46.627 23.6637 46.627 23.6167C46.627 23.5698 46.6368 23.5233 46.6558 23.4803C46.6748 23.4373 46.7026 23.3987 46.7374 23.367C46.7722 23.3353 46.8133 23.311 46.858 23.2959C46.9027 23.2808 46.9501 23.275 46.9971 23.2791H58.0015C58.0485 23.275 58.0959 23.2808 58.1406 23.2959C58.1853 23.311 58.2264 23.3353 58.2612 23.367C58.296 23.3987 58.3237 23.4373 58.3428 23.4803C58.3618 23.5233 58.3716 23.5698 58.3716 23.6167C58.3716 23.6637 58.3618 23.7101 58.3428 23.7531C58.3237 23.7961 58.296 23.8347 58.2612 23.8664C58.2264 23.8982 58.1853 23.9224 58.1406 23.9375C58.0959 23.9527 58.0485 23.9584 58.0015 23.9544Z" fill="#263238"/>
<path d="M58.0015 26.3189H46.9971C46.9501 26.3229 46.9027 26.3172 46.858 26.302C46.8133 26.2869 46.7722 26.2627 46.7374 26.2309C46.7026 26.1992 46.6748 26.1606 46.6558 26.1176C46.6368 26.0746 46.627 26.0282 46.627 25.9812C46.627 25.9343 46.6368 25.8878 46.6558 25.8448C46.6748 25.8018 46.7026 25.7632 46.7374 25.7315C46.7722 25.6998 46.8133 25.6755 46.858 25.6604C46.9027 25.6453 46.9501 25.6396 46.9971 25.6436H58.0015C58.0485 25.6396 58.0959 25.6453 58.1406 25.6604C58.1853 25.6755 58.2264 25.6998 58.2612 25.7315C58.296 25.7632 58.3237 25.8018 58.3428 25.8448C58.3618 25.8878 58.3716 25.9343 58.3716 25.9812C58.3716 26.0282 58.3618 26.0746 58.3428 26.1176C58.3237 26.1606 58.296 26.1992 58.2612 26.2309C58.2264 26.2627 58.1853 26.2869 58.1406 26.302C58.0959 26.3172 58.0485 26.3229 58.0015 26.3189Z" fill="#263238"/>
<path d="M58.0016 28.6836H46.9973C46.9525 28.6836 46.9082 28.6749 46.8669 28.6578C46.8255 28.6408 46.788 28.6158 46.7563 28.5844C46.7247 28.5529 46.6996 28.5155 46.6824 28.4744C46.6653 28.4333 46.6565 28.3892 46.6565 28.3447C46.6565 28.3002 46.6653 28.2562 46.6824 28.2151C46.6996 28.1739 46.7247 28.1366 46.7563 28.1051C46.788 28.0736 46.8255 28.0487 46.8669 28.0317C46.9082 28.0146 46.9525 28.0059 46.9973 28.0059H58.0016C58.092 28.0059 58.1787 28.0416 58.2426 28.1051C58.3065 28.1687 58.3425 28.2549 58.3425 28.3447C58.3425 28.4346 58.3065 28.5208 58.2426 28.5844C58.1787 28.6479 58.092 28.6836 58.0016 28.6836Z" fill="#263238"/>
<path d="M58.0016 30.7898H46.9973C46.9069 30.7898 46.8202 30.7541 46.7563 30.6906C46.6924 30.627 46.6565 30.5408 46.6565 30.4509C46.6565 30.3611 46.6924 30.2749 46.7563 30.2113C46.8202 30.1478 46.9069 30.1121 46.9973 30.1121H58.0016C58.092 30.1121 58.1787 30.1478 58.2426 30.2113C58.3065 30.2749 58.3425 30.3611 58.3425 30.4509C58.3425 30.5408 58.3065 30.627 58.2426 30.6906C58.1787 30.7541 58.092 30.7898 58.0016 30.7898Z" fill="#263238"/>
<path d="M58.0015 33.147H46.9971C46.9501 33.151 46.9027 33.1453 46.858 33.1301C46.8133 33.115 46.7722 33.0908 46.7374 33.0591C46.7026 33.0273 46.6748 32.9887 46.6558 32.9457C46.6368 32.9028 46.627 32.8563 46.627 32.8093C46.627 32.7624 46.6368 32.7159 46.6558 32.6729C46.6748 32.63 46.7026 32.5914 46.7374 32.5596C46.7722 32.5279 46.8133 32.5037 46.858 32.4885C46.9027 32.4734 46.9501 32.4677 46.9971 32.4717H58.0015C58.0485 32.4677 58.0959 32.4734 58.1406 32.4885C58.1853 32.5037 58.2264 32.5279 58.2612 32.5596C58.296 32.5914 58.3237 32.63 58.3428 32.6729C58.3618 32.7159 58.3716 32.7624 58.3716 32.8093C58.3716 32.8563 58.3618 32.9028 58.3428 32.9457C58.3237 32.9887 58.296 33.0273 58.2612 33.0591C58.2264 33.0908 58.1853 33.115 58.1406 33.1301C58.0959 33.1453 58.0485 33.151 58.0015 33.147Z" fill="#263238"/>
<path d="M58.0016 35.5115H46.9973C46.9069 35.5115 46.8202 35.4758 46.7563 35.4123C46.6924 35.3487 46.6565 35.2625 46.6565 35.1726C46.6565 35.0827 46.6924 34.9965 46.7563 34.933C46.8202 34.8694 46.9069 34.8337 46.9973 34.8337H58.0016C58.092 34.8337 58.1787 34.8694 58.2426 34.933C58.3065 34.9965 58.3425 35.0827 58.3425 35.1726C58.3425 35.2625 58.3065 35.3487 58.2426 35.4123C58.1787 35.4758 58.092 35.5115 58.0016 35.5115Z" fill="#263238"/>
<path d="M58.0015 37.8738H46.9971C46.9501 37.8778 46.9027 37.8721 46.858 37.857C46.8133 37.8418 46.7722 37.8176 46.7374 37.7859C46.7026 37.7541 46.6748 37.7155 46.6558 37.6725C46.6368 37.6296 46.627 37.5831 46.627 37.5362C46.627 37.4892 46.6368 37.4427 46.6558 37.3998C46.6748 37.3568 46.7026 37.3182 46.7374 37.2864C46.7722 37.2547 46.8133 37.2305 46.858 37.2153C46.9027 37.2002 46.9501 37.1945 46.9971 37.1985H58.0015C58.0485 37.1945 58.0959 37.2002 58.1406 37.2153C58.1853 37.2305 58.2264 37.2547 58.2612 37.2864C58.296 37.3182 58.3237 37.3568 58.3428 37.3998C58.3618 37.4427 58.3716 37.4892 58.3716 37.5362C58.3716 37.5831 58.3618 37.6296 58.3428 37.6725C58.3237 37.7155 58.296 37.7541 58.2612 37.7859C58.2264 37.8176 58.1853 37.8418 58.1406 37.857C58.0959 37.8721 58.0485 37.8778 58.0015 37.8738Z" fill="#263238"/>
<path d="M58.0016 40.2383H46.9973C46.9069 40.2383 46.8202 40.2026 46.7563 40.1391C46.6924 40.0755 46.6565 39.9893 46.6565 39.8994C46.6565 39.8096 46.6924 39.7234 46.7563 39.6598C46.8202 39.5962 46.9069 39.5605 46.9973 39.5605H58.0016C58.092 39.5605 58.1787 39.5962 58.2426 39.6598C58.3065 39.7234 58.3425 39.8096 58.3425 39.8994C58.3425 39.9893 58.3065 40.0755 58.2426 40.1391C58.1787 40.2026 58.092 40.2383 58.0016 40.2383Z" fill="#263238"/>
<path d="M58.0015 42.6006H46.9971C46.9501 42.6046 46.9027 42.5989 46.858 42.5838C46.8133 42.5686 46.7722 42.5444 46.7374 42.5127C46.7026 42.4809 46.6748 42.4423 46.6558 42.3994C46.6368 42.3564 46.627 42.3099 46.627 42.263C46.627 42.216 46.6368 42.1696 46.6558 42.1266C46.6748 42.0836 46.7026 42.045 46.7374 42.0132C46.7722 41.9815 46.8133 41.9573 46.858 41.9422C46.9027 41.927 46.9501 41.9213 46.9971 41.9253H58.0015C58.0485 41.9213 58.0959 41.927 58.1406 41.9422C58.1853 41.9573 58.2264 41.9815 58.2612 42.0132C58.296 42.045 58.3237 42.0836 58.3428 42.1266C58.3618 42.1696 58.3716 42.216 58.3716 42.263C58.3716 42.3099 58.3618 42.3564 58.3428 42.3994C58.3237 42.4423 58.296 42.4809 58.2612 42.5127C58.2264 42.5444 58.1853 42.5686 58.1406 42.5838C58.0959 42.5989 58.0485 42.6046 58.0015 42.6006Z" fill="#263238"/>
<path d="M58.0015 44.9653H46.9971C46.9501 44.9694 46.9027 44.9636 46.858 44.9485C46.8133 44.9334 46.7722 44.9092 46.7374 44.8774C46.7026 44.8457 46.6748 44.8071 46.6558 44.7641C46.6368 44.7211 46.627 44.6747 46.627 44.6277C46.627 44.5807 46.6368 44.5343 46.6558 44.4913C46.6748 44.4483 46.7026 44.4097 46.7374 44.378C46.7722 44.3462 46.8133 44.322 46.858 44.3069C46.9027 44.2918 46.9501 44.286 46.9971 44.2901H58.0015C58.0485 44.286 58.0959 44.2918 58.1406 44.3069C58.1853 44.322 58.2264 44.3462 58.2612 44.378C58.296 44.4097 58.3237 44.4483 58.3428 44.4913C58.3618 44.5343 58.3716 44.5807 58.3716 44.6277C58.3716 44.6747 58.3618 44.7211 58.3428 44.7641C58.3237 44.8071 58.296 44.8457 58.2612 44.8774C58.2264 44.9092 58.1853 44.9334 58.1406 44.9485C58.0959 44.9636 58.0485 44.9694 58.0015 44.9653Z" fill="#263238"/>
<path d="M89.6387 14.5007H78.647C78.5999 14.5048 78.5525 14.499 78.5078 14.4839C78.4631 14.4688 78.4221 14.4446 78.3873 14.4128C78.3525 14.3811 78.3247 14.3425 78.3057 14.2995C78.2867 14.2565 78.2769 14.2101 78.2769 14.1631C78.2769 14.1161 78.2867 14.0697 78.3057 14.0267C78.3247 13.9837 78.3525 13.9451 78.3873 13.9134C78.4221 13.8816 78.4631 13.8574 78.5078 13.8423C78.5525 13.8272 78.5999 13.8214 78.647 13.8255H89.6513C89.6984 13.8214 89.7457 13.8272 89.7905 13.8423C89.8352 13.8574 89.8762 13.8816 89.911 13.9134C89.9458 13.9451 89.9736 13.9837 89.9926 14.0267C90.0116 14.0697 90.0214 14.1161 90.0214 14.1631C90.0214 14.2101 90.0116 14.2565 89.9926 14.2995C89.9736 14.3425 89.9458 14.3811 89.911 14.4128C89.8762 14.4446 89.8352 14.4688 89.7905 14.4839C89.7457 14.499 89.6984 14.5048 89.6513 14.5007H89.6387Z" fill="#263238"/>
<path d="M89.6389 16.8653H78.6471C78.6024 16.8653 78.5581 16.8565 78.5167 16.8395C78.4754 16.8224 78.4378 16.7975 78.4062 16.766C78.3745 16.7345 78.3494 16.6972 78.3323 16.6561C78.3152 16.615 78.3063 16.5709 78.3063 16.5264C78.3063 16.4819 78.3152 16.4378 78.3323 16.3967C78.3494 16.3556 78.3745 16.3182 78.4062 16.2868C78.4378 16.2553 78.4754 16.2303 78.5167 16.2133C78.5581 16.1963 78.6024 16.1875 78.6471 16.1875H89.6515C89.7419 16.1875 89.8286 16.2232 89.8925 16.2868C89.9564 16.3503 89.9923 16.4365 89.9923 16.5264C89.9923 16.6163 89.9564 16.7025 89.8925 16.766C89.8286 16.8296 89.7419 16.8653 89.6515 16.8653H89.6389Z" fill="#263238"/>
<path d="M89.6387 19.2275H78.647C78.5999 19.2316 78.5525 19.2258 78.5078 19.2107C78.4631 19.1956 78.4221 19.1714 78.3873 19.1396C78.3525 19.1079 78.3247 19.0693 78.3057 19.0263C78.2867 18.9833 78.2769 18.9369 78.2769 18.8899C78.2769 18.843 78.2867 18.7965 78.3057 18.7535C78.3247 18.7105 78.3525 18.6719 78.3873 18.6402C78.4221 18.6084 78.4631 18.5842 78.5078 18.5691C78.5525 18.554 78.5999 18.5482 78.647 18.5523H89.6513C89.6984 18.5482 89.7457 18.554 89.7905 18.5691C89.8352 18.5842 89.8762 18.6084 89.911 18.6402C89.9458 18.6719 89.9736 18.7105 89.9926 18.7535C90.0116 18.7965 90.0214 18.843 90.0214 18.8899C90.0214 18.9369 90.0116 18.9833 89.9926 19.0263C89.9736 19.0693 89.9458 19.1079 89.911 19.1396C89.8762 19.1714 89.8352 19.1956 89.7905 19.2107C89.7457 19.2258 89.6984 19.2316 89.6513 19.2275H89.6387Z" fill="#263238"/>
<path d="M89.6389 21.5921H78.6471C78.6024 21.5921 78.5581 21.5833 78.5167 21.5663C78.4754 21.5493 78.4378 21.5243 78.4062 21.4928C78.3745 21.4614 78.3494 21.424 78.3323 21.3829C78.3152 21.3418 78.3063 21.2977 78.3063 21.2532C78.3063 21.2087 78.3152 21.1646 78.3323 21.1235C78.3494 21.0824 78.3745 21.045 78.4062 21.0136C78.4378 20.9821 78.4754 20.9571 78.5167 20.9401C78.5581 20.9231 78.6024 20.9143 78.6471 20.9143H89.6515C89.7419 20.9143 89.8286 20.95 89.8925 21.0136C89.9564 21.0771 89.9923 21.1633 89.9923 21.2532C89.9923 21.3431 89.9564 21.4293 89.8925 21.4928C89.8286 21.5564 89.7419 21.5921 89.6515 21.5921H89.6389Z" fill="#263238"/>
<path d="M89.6387 23.9544H78.647C78.5999 23.9584 78.5525 23.9527 78.5078 23.9375C78.4631 23.9224 78.4221 23.8982 78.3873 23.8664C78.3525 23.8347 78.3247 23.7961 78.3057 23.7531C78.2867 23.7101 78.2769 23.6637 78.2769 23.6167C78.2769 23.5698 78.2867 23.5233 78.3057 23.4803C78.3247 23.4373 78.3525 23.3987 78.3873 23.367C78.4221 23.3353 78.4631 23.311 78.5078 23.2959C78.5525 23.2808 78.5999 23.275 78.647 23.2791H89.6513C89.6984 23.275 89.7457 23.2808 89.7905 23.2959C89.8352 23.311 89.8762 23.3353 89.911 23.367C89.9458 23.3987 89.9736 23.4373 89.9926 23.4803C90.0116 23.5233 90.0214 23.5698 90.0214 23.6167C90.0214 23.6637 90.0116 23.7101 89.9926 23.7531C89.9736 23.7961 89.9458 23.8347 89.911 23.8664C89.8762 23.8982 89.8352 23.9224 89.7905 23.9375C89.7457 23.9527 89.6984 23.9584 89.6513 23.9544H89.6387Z" fill="#263238"/>
<path d="M89.6387 26.3189H78.647C78.5999 26.3229 78.5525 26.3172 78.5078 26.302C78.4631 26.2869 78.4221 26.2627 78.3873 26.2309C78.3525 26.1992 78.3247 26.1606 78.3057 26.1176C78.2867 26.0746 78.2769 26.0282 78.2769 25.9812C78.2769 25.9343 78.2867 25.8878 78.3057 25.8448C78.3247 25.8018 78.3525 25.7632 78.3873 25.7315C78.4221 25.6998 78.4631 25.6755 78.5078 25.6604C78.5525 25.6453 78.5999 25.6396 78.647 25.6436H89.6513C89.6984 25.6396 89.7457 25.6453 89.7905 25.6604C89.8352 25.6755 89.8762 25.6998 89.911 25.7315C89.9458 25.7632 89.9736 25.8018 89.9926 25.8448C90.0116 25.8878 90.0214 25.9343 90.0214 25.9812C90.0214 26.0282 90.0116 26.0746 89.9926 26.1176C89.9736 26.1606 89.9458 26.1992 89.911 26.2309C89.8762 26.2627 89.8352 26.2869 89.7905 26.302C89.7457 26.3172 89.6984 26.3229 89.6513 26.3189H89.6387Z" fill="#263238"/>
<path d="M89.6389 28.6836H78.6471C78.6024 28.6836 78.5581 28.6749 78.5167 28.6578C78.4754 28.6408 78.4378 28.6158 78.4062 28.5844C78.3745 28.5529 78.3494 28.5155 78.3323 28.4744C78.3152 28.4333 78.3063 28.3892 78.3063 28.3447C78.3063 28.3002 78.3152 28.2562 78.3323 28.2151C78.3494 28.1739 78.3745 28.1366 78.4062 28.1051C78.4378 28.0736 78.4754 28.0487 78.5167 28.0317C78.5581 28.0146 78.6024 28.0059 78.6471 28.0059H89.6515C89.7419 28.0059 89.8286 28.0416 89.8925 28.1051C89.9564 28.1687 89.9923 28.2549 89.9923 28.3447C89.9923 28.4346 89.9564 28.5208 89.8925 28.5844C89.8286 28.6479 89.7419 28.6836 89.6515 28.6836H89.6389Z" fill="#263238"/>
<path d="M89.7297 30.27H78.3719V43.2255H89.7297V30.27Z" fill="#FFD942"/>
<path opacity="0.6" d="M89.7297 30.27H78.3719V43.2255H89.7297V30.27Z" fill="white"/>
<path d="M95.3921 53.7313C95.3239 51.1809 95.5234 46.828 93.2715 45.0357C91.2948 43.4618 89.7574 45.598 89.2045 47.3201C87.859 51.4997 88.0029 67.229 88.3512 70.3969C88.3512 70.3969 88.0079 67.224 85.5011 68.5845C82.9942 69.9451 86.7633 77.0868 86.7633 77.0868C86.7633 77.0868 83.7996 74.933 82.4313 76.7454C81.063 78.5578 84.1429 80.6012 84.1429 80.6012C84.1429 80.6012 81.2927 79.8079 81.2927 80.6012C81.2927 81.3944 82.2041 82.0747 84.827 82.4161H98.9643C98.9643 82.4161 101.236 81.161 100.789 79.8079C100.343 78.4549 97.9292 79.2381 97.9292 79.2381C97.9292 79.2381 101.577 74.8175 101.347 72.8896C101.118 70.9618 96.4448 73.2285 96.4448 73.2285C96.4448 73.2285 100.095 64.046 99.4111 59.9643C98.8709 56.7486 96.3615 58.9602 94.9958 60.1852C95.3169 58.0495 95.4495 55.89 95.3921 53.7313Z" fill="#FFD942"/>
<path opacity="0.1" d="M95.3921 53.7313C95.3239 51.1809 95.5234 46.828 93.2715 45.0357C91.2948 43.4618 89.7574 45.598 89.2045 47.3201C87.859 51.4997 88.0029 67.229 88.3512 70.3969C88.3512 70.3969 88.0079 67.224 85.5011 68.5845C82.9942 69.9451 86.7633 77.0868 86.7633 77.0868C86.7633 77.0868 83.7996 74.933 82.4313 76.7454C81.063 78.5578 84.1429 80.6012 84.1429 80.6012C84.1429 80.6012 81.2927 79.8079 81.2927 80.6012C81.2927 81.3944 82.2041 82.0747 84.827 82.4161H98.9643C98.9643 82.4161 101.236 81.161 100.789 79.8079C100.343 78.4549 97.9292 79.2381 97.9292 79.2381C97.9292 79.2381 101.577 74.8175 101.347 72.8896C101.118 70.9618 96.4448 73.2285 96.4448 73.2285C96.4448 73.2285 100.095 64.046 99.4111 59.9643C98.8709 56.7486 96.3615 58.9602 94.9958 60.1852C95.3169 58.0495 95.4495 55.89 95.3921 53.7313Z" fill="black"/>
<path d="M90.8454 82.1125L91.8855 51.1233" stroke="#FFD942" stroke-width="0.5" stroke-linecap="round" stroke-linejoin="round"/>
<path d="M91.4285 69.2648L96.7881 64.2744" stroke="#FFD942" stroke-width="0.5" stroke-linecap="round" stroke-linejoin="round"/>
<path d="M93.9379 66.9957L95.0765 63.8228" stroke="#FFD942" stroke-width="0.5" stroke-linecap="round" stroke-linejoin="round"/>
<path d="M86.9829 73.1182L91.0095 77.3881" stroke="#FFD942" stroke-width="0.5" stroke-linecap="round" stroke-linejoin="round"/>
<path d="M97.9294 75.6133L91.088 79.1277" stroke="#FFD942" stroke-width="0.5" stroke-linecap="round" stroke-linejoin="round"/>
<path d="M94.4808 77.3455L96.7882 77.5413" stroke="#FFD942" stroke-width="0.5" stroke-linecap="round" stroke-linejoin="round"/>
<path d="M43.9577 82.5367C43.9577 83.4705 35.0083 84.2286 23.9711 84.2286C12.934 84.2286 3.98206 83.4755 3.98206 82.5367C3.98206 81.5978 12.9314 80.8447 23.9711 80.8447C35.0108 80.8447 43.9577 81.6028 43.9577 82.5367Z" fill="#263238"/>
<path d="M14.0195 51.4621C14.0195 51.4621 15.5645 50.6839 16.236 51.3517C16.9075 52.0194 16.6374 59.1636 16.8394 61.4329C16.9617 62.7864 17.2128 64.1253 17.5892 65.4317C17.5892 65.4317 15.3726 65.0326 13.6938 64.1766C13.6938 64.1766 12.217 57.0475 14.0195 51.4621Z" fill="#263238" stroke="#263238" stroke-width="0.5" stroke-linecap="round" stroke-linejoin="round"/>
<path d="M44.7808 67.6407C44.5991 67.6405 44.4228 67.5793 44.2806 67.4669C44.1383 67.3545 44.0385 67.1976 43.9972 67.0217C43.956 66.8458 43.9758 66.6611 44.0534 66.4978C44.131 66.3345 44.2619 66.202 44.4248 66.122L51.7232 62.8587L57.3882 56.3797C57.5258 56.2172 57.7226 56.1158 57.9354 56.0977C58.1482 56.0795 58.3596 56.1462 58.5229 56.283C58.6863 56.4198 58.7883 56.6156 58.8065 56.8272C58.8248 57.0388 58.7577 57.2489 58.6201 57.4114L52.8466 64.0184C52.7774 64.1028 52.6915 64.172 52.5941 64.2217L45.1418 67.5579C45.03 67.6142 44.9061 67.6426 44.7808 67.6407Z" fill="white" stroke="#263238" stroke-width="0.5" stroke-linecap="round" stroke-linejoin="round"/>
<path d="M49.7717 64.8117L50.572 64.4502" stroke="#263238" stroke-width="0.5" stroke-linecap="round" stroke-linejoin="round"/>
<path d="M46.0809 66.4809L49.2441 65.05" stroke="#263238" stroke-width="0.5" stroke-linecap="round" stroke-linejoin="round"/>
<path d="M56.8984 58.4958L54.7904 60.8655" stroke="#263238" stroke-width="0.5" stroke-linecap="round" stroke-linejoin="round"/>
<path d="M54.4495 61.2043L53.9724 61.744" stroke="#263238" stroke-width="0.5" stroke-linecap="round" stroke-linejoin="round"/>
<path d="M45.7528 70.5191C46.6456 66.7752 44.317 63.0205 40.5519 62.1328C36.7868 61.245 33.0108 63.5604 32.118 67.3043C31.2253 71.0482 33.5538 74.8029 37.3189 75.6906C41.0841 76.5784 44.86 74.263 45.7528 70.5191Z" fill="#FFD942" stroke="#263238" stroke-width="0.5" stroke-linecap="round" stroke-linejoin="round"/>
<path d="M21.4238 43.1255C21.4238 43.1255 22.4336 45.4801 22.6457 45.9395C22.8577 46.3988 23.0597 46.5244 23.0117 46.6699C22.9637 46.8155 22.4487 46.9837 22.4487 46.9837C22.5203 47.7082 22.3938 48.4384 22.0827 49.0974C21.5778 50.1015 20.5932 50.6261 20.4973 51.2562C20.4408 51.8621 20.4324 52.4715 20.4721 53.0787L18.9826 51.8637C18.9826 51.8637 19.3966 50.6738 19.0306 49.8003C18.7202 49.0853 18.1671 48.5016 17.4679 48.151C16.5973 47.5829 15.9779 46.7056 15.7361 45.6985C15.5164 44.5312 16.1981 43.2936 17.1018 42.4201C18.0056 41.5465 19.7879 41.7172 19.9848 41.79C20.1817 41.8628 19.4951 41.2879 20.106 41.1574C20.7169 41.0269 21.083 41.9105 21.1158 42.0561C21.1486 42.2017 21.3354 41.426 21.5323 41.9356C21.7293 42.4452 21.4238 43.1255 21.4238 43.1255Z" fill="white"/>
<g style="mix-blend-mode:multiply" opacity="0.5">
<path d="M19.6036 52.3782C19.5948 52.2098 19.5754 52.0422 19.5456 51.8762C19.4471 51.4344 20.0505 50.0587 20.2373 48.4396C20.4241 46.8205 19.1492 44.5588 19.1492 44.5588L18.2151 41.8652C17.8003 41.9536 17.4163 42.1493 17.1018 42.4326C16.1981 43.3061 15.5164 44.5437 15.7361 45.711C15.9779 46.7181 16.5973 47.5954 17.4679 48.1635C18.1671 48.5141 18.7202 49.0978 19.0306 49.8127C19.3966 50.6863 18.9826 51.8762 18.9826 51.8762L19.6036 52.3782Z" fill="#FFD942"/>
</g>
<path d="M21.4238 43.1255C21.4238 43.1255 22.4336 45.4801 22.6457 45.9395C22.8577 46.3988 23.0597 46.5244 23.0117 46.6699C22.9637 46.8155 22.4487 46.9837 22.4487 46.9837C22.5203 47.7082 22.3938 48.4384 22.0827 49.0974C21.5778 50.1015 20.5932 50.6261 20.4973 51.2562C20.4408 51.8621 20.4324 52.4715 20.4721 53.0787L18.9826 51.8637C18.9826 51.8637 19.3966 50.6738 19.0306 49.8003C18.7202 49.0853 18.1671 48.5016 17.4679 48.151C16.5973 47.5829 15.9779 46.7056 15.7361 45.6985C15.5164 44.5312 16.1981 43.2936 17.1018 42.4201C18.0056 41.5465 19.7879 41.7172 19.9848 41.79C20.1817 41.8628 19.4951 41.2879 20.106 41.1574C20.7169 41.0269 21.083 41.9105 21.1158 42.0561C21.1486 42.2017 21.3354 41.426 21.5323 41.9356C21.7293 42.4452 21.4238 43.1255 21.4238 43.1255Z" stroke="#263238" stroke-width="0.5" stroke-linecap="round" stroke-linejoin="round"/>
<path d="M21.5198 44.378C21.5198 44.378 21.078 44.2575 20.9316 44.6291C20.8856 44.7142 20.8597 44.8085 20.8557 44.9051C20.8518 45.0016 20.87 45.0978 20.9089 45.1863" stroke="#263238" stroke-width="0.5" stroke-linecap="round" stroke-linejoin="round"/>
<path d="M22.0347 48.0782C22.0347 48.0782 21.5955 48.2966 21.3253 48.0054" stroke="#263238" stroke-width="0.5" stroke-linecap="round" stroke-linejoin="round"/>
<path d="M21.1741 46.0425L19.1393 46.9186" stroke="#263238" stroke-width="0.5" stroke-linecap="round" stroke-linejoin="round"/>
<path d="M18.2886 47.9829C18.0139 48.3852 17.8856 48.8688 17.9251 49.3535C17.9857 50.1819 17.9655 51.3115 17.5388 51.2111C17.1122 51.1107 17.7408 49.838 17.7408 49.3134C17.7156 48.9136 17.6234 48.5207 17.4681 48.1511" stroke="#263238" stroke-width="0.5" stroke-linecap="round" stroke-linejoin="round"/>
<path d="M22.6585 45.4048L22.1788 45.6106" stroke="#263238" stroke-width="0.5" stroke-linecap="round" stroke-linejoin="round"/>
<path d="M21.8734 45.8767C21.9365 46.0901 21.9365 46.2784 21.8734 46.2959C21.8103 46.3135 21.7093 46.1553 21.6462 45.942C21.5831 45.7286 21.5856 45.5403 21.6462 45.5203C21.7068 45.5002 21.8128 45.6608 21.8734 45.8767Z" fill="#263238"/>
<path d="M22.1282 45.8767C22.2973 46.3788 22.2544 46.8432 22.0323 46.9185C21.8101 46.9938 21.492 46.6449 21.3229 46.1453C21.1537 45.6458 21.1967 45.1764 21.4188 45.101C21.641 45.0257 21.9591 45.3747 22.1282 45.8767Z" stroke="#263238" stroke-width="0.5" stroke-linecap="round" stroke-linejoin="round"/>
<path d="M18.7557 47.8221C18.7557 47.8221 18.3543 47.3401 18.7153 47.3803C18.8287 47.4036 18.9336 47.4569 19.0189 47.5347C19.1043 47.6125 19.1668 47.7118 19.2 47.8221" stroke="#263238" stroke-width="0.5" stroke-linecap="round" stroke-linejoin="round"/>
<path d="M30.0428 56.0635L28.6265 57.0601L28.8462 58.2248L30.4593 57.5947L30.0428 56.0635Z" fill="white" stroke="#263238" stroke-width="0.5" stroke-linecap="round" stroke-linejoin="round"/>
<path d="M28.7728 56.7688L29.4089 59.1234C29.4089 59.1234 25.1274 61.0664 24.2817 61.6663C23.4359 62.2663 22.767 62.1031 22.767 62.1031L22.2065 59.382C22.2065 59.382 22.8149 59.6732 24.11 59.1159C25.4051 58.5586 28.7728 56.7688 28.7728 56.7688Z" fill="white" stroke="#263238" stroke-width="0.5" stroke-linecap="round" stroke-linejoin="round"/>
<path d="M30.8756 62.8962C30.7895 62.8873 30.7096 62.8479 30.6502 62.7852C30.5909 62.7226 30.5562 62.6408 30.5525 62.5548L29.987 53.2392C29.9812 53.19 29.9858 53.14 30.0003 53.0926C30.0148 53.0451 30.0389 53.0011 30.0712 52.9634C30.1036 52.9256 30.1434 52.8949 30.1882 52.873C30.233 52.8512 30.2818 52.8388 30.3316 52.8366C30.3815 52.8343 30.4312 52.8423 30.4778 52.86C30.5244 52.8777 30.5669 52.9047 30.6025 52.9395C30.6381 52.9742 30.6662 53.0158 30.6849 53.0618C30.7037 53.1077 30.7127 53.157 30.7115 53.2066L31.277 62.5197C31.2794 62.5672 31.2723 62.6147 31.2562 62.6594C31.2401 62.7042 31.2153 62.7454 31.1831 62.7806C31.151 62.8158 31.1122 62.8443 31.069 62.8646C31.0257 62.8849 30.9789 62.8965 30.9311 62.8988L30.8756 62.8962Z" fill="#263238" stroke="#263238" stroke-width="0.5" stroke-linecap="round" stroke-linejoin="round"/>
<path d="M29.7976 55.8423C29.7077 55.8385 29.6223 55.8017 29.5582 55.7389C29.494 55.6762 29.4555 55.592 29.4502 55.5026C29.4448 55.4133 29.473 55.3252 29.5293 55.2553C29.5855 55.1854 29.6658 55.1388 29.7547 55.1244L31.1709 54.9537C31.22 54.9438 31.2707 54.9442 31.3196 54.9547C31.3686 54.9652 31.4149 54.9856 31.4555 55.0148C31.4962 55.0439 31.5303 55.0811 31.5558 55.124C31.5813 55.1668 31.5977 55.2145 31.6038 55.264C31.6099 55.3134 31.6056 55.3636 31.5913 55.4113C31.577 55.4591 31.5529 55.5033 31.5206 55.5414C31.4882 55.5794 31.4483 55.6104 31.4033 55.6324C31.3584 55.6544 31.3093 55.6669 31.2593 55.6691L29.843 55.8398L29.7976 55.8423Z" fill="white" stroke="#263238" stroke-width="0.5" stroke-linecap="round" stroke-linejoin="round"/>
<path d="M29.871 56.5703C29.7811 56.5665 29.6958 56.5297 29.6316 56.4669C29.5674 56.4042 29.5289 56.32 29.5236 56.2306C29.5182 56.1413 29.5464 56.0532 29.6027 55.9833C29.6589 55.9134 29.7393 55.8668 29.8281 55.8524L31.2443 55.6817C31.34 55.6711 31.436 55.6983 31.5115 55.7575C31.5871 55.8167 31.6363 55.9031 31.6483 55.998C31.6539 56.0448 31.6502 56.0923 31.6374 56.1377C31.6246 56.1831 31.6029 56.2255 31.5736 56.2626C31.5443 56.2996 31.508 56.3306 31.4666 56.3537C31.4253 56.3768 31.3798 56.3915 31.3327 56.3971L29.9165 56.5678L29.871 56.5703Z" fill="white" stroke="#263238" stroke-width="0.5" stroke-linecap="round" stroke-linejoin="round"/>
<path d="M29.9493 57.2332C29.8607 57.2328 29.7755 57.1989 29.7111 57.1383C29.6468 57.0776 29.6081 56.9949 29.6029 56.9069C29.5978 56.8189 29.6266 56.7323 29.6834 56.6646C29.7403 56.597 29.8209 56.5535 29.9089 56.5429L31.2646 56.3797C31.3103 56.3737 31.3567 56.3767 31.4012 56.3887C31.4457 56.4006 31.4874 56.4213 31.5238 56.4494C31.5603 56.4775 31.5907 56.5125 31.6135 56.5523C31.6362 56.5922 31.6507 56.6362 31.6563 56.6817C31.6618 56.7272 31.6581 56.7734 31.6456 56.8175C31.633 56.8616 31.6118 56.9028 31.5831 56.9387C31.5544 56.9746 31.5189 57.0044 31.4785 57.0265C31.4381 57.0487 31.3937 57.0626 31.3479 57.0675L29.9922 57.2307L29.9493 57.2332Z" fill="white" stroke="#263238" stroke-width="0.5" stroke-linecap="round" stroke-linejoin="round"/>
<path d="M30.1765 57.8683C30.1066 57.8614 30.0419 57.8287 29.9952 57.7766C29.9485 57.7246 29.9231 57.657 29.924 57.5872C29.91 57.512 29.924 57.4342 29.9635 57.3686C30.003 57.3029 30.0653 57.2539 30.1386 57.2307L31.0979 57.0776C31.2343 57.06 31.3504 57.183 31.3706 57.3587C31.3858 57.4341 31.3723 57.5123 31.3326 57.5782C31.2929 57.6441 31.2299 57.693 31.156 57.7152L30.1992 57.8658L30.1765 57.8683Z" fill="white" stroke="#263238" stroke-width="0.5" stroke-linecap="round" stroke-linejoin="round"/>
<path d="M29.6562 56.7209C29.652 56.7895 29.6228 56.8541 29.5739 56.9027C29.5251 56.9512 29.4601 56.9803 29.3912 56.9845C29.3165 57.0048 29.2369 56.9971 29.1675 56.9629C29.0981 56.9286 29.0439 56.8702 29.015 56.7987L28.7929 55.8599C28.7626 55.7269 28.8762 55.5963 29.0453 55.5662C29.1196 55.5471 29.1984 55.5554 29.2671 55.5895C29.3358 55.6237 29.3897 55.6814 29.4189 55.752L29.6436 56.6933C29.6436 56.6933 29.6537 56.7109 29.6562 56.7209Z" fill="white" stroke="#263238" stroke-width="0.5" stroke-linecap="round" stroke-linejoin="round"/>
<path d="M18.445 51.1357C18.445 51.1357 20.1794 52.18 20.9847 53.4904C21.79 54.8007 22.4741 56.7537 22.8654 58.4682C23.2567 60.1827 23.5723 64.6585 23.8172 65.5823C23.9357 66.0725 24.1164 66.5457 24.3549 66.9906C22.9418 67.5122 21.4412 67.7594 19.9345 67.7186C17.5413 67.6207 17.1752 67.0383 17.1752 67.0383C17.1752 67.0383 16.3699 61.7466 16.4431 57.5445C16.5163 53.3423 18.445 51.1357 18.445 51.1357Z" fill="white"/>
<g style="mix-blend-mode:multiply" opacity="0.5">
<path d="M17.4226 55.8928C17.4226 55.8928 17.1701 56.2869 17.3721 55.2552C17.5355 54.5335 17.8016 53.8387 18.1623 53.1918L19.3463 54.5172L20.0885 54.5674L19.8916 54.9113L21.323 55.7949L20.6439 54.9992L20.6918 53.7842L19.5457 54.1356C19.5457 54.1356 18.8035 52.8102 18.6066 52.3784C18.4753 52.0822 18.9146 51.8312 19.2226 51.6982C18.973 51.5049 18.7135 51.3248 18.445 51.1584C18.445 51.1584 16.5163 53.3675 16.4431 57.5672C16.385 60.8983 16.8798 64.9122 17.0868 66.4334L20.8736 66.2251L17.4226 55.8928Z" fill="#FFD942"/>
</g>
<path d="M18.445 51.1357C18.445 51.1357 20.1794 52.18 20.9847 53.4904C21.79 54.8007 22.4741 56.7537 22.8654 58.4682C23.2567 60.1827 23.5723 64.6585 23.8172 65.5823C23.9357 66.0725 24.1164 66.5457 24.3549 66.9906C22.9418 67.5122 21.4412 67.7594 19.9345 67.7186C17.5413 67.6207 17.1752 67.0383 17.1752 67.0383C17.1752 67.0383 16.3699 61.7466 16.4431 57.5445C16.5163 53.3423 18.445 51.1357 18.445 51.1357Z" stroke="#263238" stroke-width="0.5" stroke-linecap="round" stroke-linejoin="round"/>
<path d="M17.9326 51.9866L19.7401 54.1454L20.6918 53.7814L20.6439 54.9964L22.0829 56.7209" stroke="#263238" stroke-width="0.5" stroke-linecap="round" stroke-linejoin="round"/>
<path d="M16.8219 56.563C16.8219 56.563 17.0238 58.5712 17.6272 59.0481" stroke="#263238" stroke-width="0.5" stroke-linecap="round" stroke-linejoin="round"/>
<path d="M16.9431 58.7292C16.9431 58.7292 17.1955 59.4823 17.8292 59.7334" stroke="#263238" stroke-width="0.5" stroke-linecap="round" stroke-linejoin="round"/>
<path d="M22.1838 57.6448L21.1361 58.0464L21.2977 58.4882L22.2646 58.1267" stroke="#263238" stroke-width="0.5" stroke-linecap="round" stroke-linejoin="round"/>
<path d="M29.2501 65.2083C29.1634 65.2081 29.0797 65.1771 29.014 65.121C28.9482 65.0648 28.9048 64.9872 28.8916 64.902L27.5839 56.4575C27.5768 56.4105 27.579 56.3626 27.5905 56.3165C27.602 56.2704 27.6225 56.227 27.6509 56.1887C27.6793 56.1505 27.7149 56.1182 27.7558 56.0937C27.7968 56.0692 27.8421 56.0529 27.8894 56.0458C27.9366 56.0387 27.9848 56.0409 28.0312 56.0524C28.0775 56.0638 28.1212 56.0842 28.1596 56.1124C28.1981 56.1406 28.2306 56.1761 28.2552 56.2168C28.2799 56.2574 28.2963 56.3026 28.3034 56.3495L29.6111 64.7941C29.6249 64.8889 29.6005 64.9852 29.5434 65.0623C29.4862 65.1393 29.4008 65.1909 29.3056 65.2058L29.2501 65.2083Z" fill="#263238" stroke="#263238" stroke-width="0.5" stroke-linecap="round" stroke-linejoin="round"/>
<path d="M21.4239 43.1254C21.4239 43.1254 21.7168 42.4451 21.5224 41.9355C21.328 41.426 21.1311 42.2016 21.1059 42.056C21.0806 41.9104 20.7171 41.0369 20.0961 41.1574C19.475 41.2779 20.1693 41.8628 19.9749 41.79C19.7805 41.7172 17.9957 41.5389 17.0919 42.42C16.1881 43.3011 15.5065 44.5312 15.7261 45.6984C15.9679 46.7056 16.5874 47.5828 17.4579 48.151C17.9149 48.384 18.3134 48.716 18.6243 49.1224C18.8866 48.9129 19.1261 48.6765 19.3387 48.4171C19.2118 48.4573 19.0771 48.4674 18.9456 48.4465C18.814 48.4256 18.6893 48.3742 18.5813 48.2966C18.19 48.028 17.9957 47.2523 18.4854 46.8632C18.9752 46.4741 19.4473 47.3577 19.4473 47.3577C19.9522 47.6263 19.7628 46.9209 19.5684 46.6046C19.374 46.2884 19.6416 45.947 19.7149 45.4876C19.7881 45.0282 19.1544 44.855 19.2276 44.3931C19.3008 43.9312 21.4239 43.1254 21.4239 43.1254Z" fill="#263238" stroke="#263238" stroke-width="0.5" stroke-linecap="round" stroke-linejoin="round"/>
<path d="M20.2477 43.4518C20.2477 43.4518 19.3616 43.01 18.7961 43.7028C18.2306 44.3957 18.3543 45.5479 17.91 46.2281C17.8061 46.4156 17.6616 46.5776 17.487 46.7027C17.3123 46.8277 17.1119 46.9126 16.9002 46.9511" stroke="white" stroke-width="0.5" stroke-linecap="round" stroke-linejoin="round"/>
<path d="M16.3775 45.7387C16.6444 45.7671 16.9119 45.6906 17.1228 45.5255C17.3337 45.3604 17.4712 45.1197 17.5059 44.855C17.7079 43.8509 18.8363 42.41 19.9673 42.3699C21.0983 42.3297 21.015 43.123 21.015 43.123" stroke="white" stroke-width="0.5" stroke-linecap="round" stroke-linejoin="round"/>
<path d="M26.1372 59.7057L26.8441 59.2438C26.8441 59.2438 27.455 58.1268 27.503 58.054C27.5509 57.9812 29.0429 57.2532 29.1641 57.3511C29.2328 57.4107 29.2862 57.4858 29.32 57.57C29.3538 57.6543 29.367 57.7453 29.3585 57.8356C29.3105 57.9586 29.1389 58.0866 29.1389 58.2021C29.1389 58.3175 29.3358 59.2438 29.3358 59.4873C29.3358 59.7308 28.326 60.1425 27.9195 60.2655C27.5131 60.3885 26.9678 60.386 26.8441 60.4839L26.5033 60.75L26.1372 59.7057Z" fill="white" stroke="#263238" stroke-width="0.5" stroke-linecap="round" stroke-linejoin="round"/>
<path d="M17.9327 54.8032C17.9327 54.8032 17.2991 54.9714 17.5187 56.7437C17.7383 58.5159 19.5206 64.4878 20.1543 65.2183C20.7879 65.9488 26.9705 61.8671 26.9705 61.8671L26.2131 59.5351C26.2131 59.5351 22.0376 61.1617 21.6968 61.2345C21.356 61.3073 20.3765 56.0157 20.0356 55.3605" fill="white"/>
<g style="mix-blend-mode:multiply" opacity="0.5">
<path d="M26.8568 61.528C25.5718 61.9322 22.598 62.8535 22.2117 62.8133C21.7068 62.7656 21.5705 62.4694 21.2726 62.0778C20.9747 61.6862 20.5329 63.2551 20.1366 63.4032C19.7402 63.5513 20.0381 61.646 20.1871 61.2419C20.336 60.8377 19.8412 61.4402 19.8412 61.4402C19.8412 61.4402 18.8541 59.432 18.3593 58.0513C18.0456 57.15 17.7984 56.2271 17.6196 55.29L17.5085 55.5611C17.4528 55.9499 17.4528 56.3446 17.5085 56.7334C17.7282 58.5057 19.5105 64.4776 20.1441 65.2081C20.7778 65.9386 26.9603 61.8569 26.9603 61.8569L26.8568 61.528Z" fill="#FFD942"/>
</g>
<path d="M17.9327 54.8032C17.9327 54.8032 17.2991 54.9714 17.5187 56.7437C17.7383 58.5159 19.5206 64.4878 20.1543 65.2183C20.7879 65.9488 26.9705 61.8671 26.9705 61.8671L26.2131 59.5351C26.2131 59.5351 22.0376 61.1617 21.6968 61.2345C21.356 61.3073 20.3765 56.0157 20.0356 55.3605" stroke="#263238" stroke-width="0.5" stroke-linecap="round" stroke-linejoin="round"/>
<path d="M21.6943 61.2346C21.4454 61.3947 21.2318 61.6034 21.0664 61.8481C20.9011 62.0928 20.7875 62.3683 20.7324 62.6579" stroke="#263238" stroke-width="0.5" stroke-linecap="round" stroke-linejoin="round"/>
<path d="M20.7726 61.7742C20.603 61.9425 20.4691 62.1431 20.3789 62.3638C20.2887 62.5846 20.244 62.8211 20.2475 63.0594" stroke="#263238" stroke-width="0.5" stroke-linecap="round" stroke-linejoin="round"/>
<path d="M14.479 63.7473C14.479 63.7473 13.8075 61.5207 13.8958 56.8917C13.9842 52.2628 14.2543 51.8185 14.0296 51.462C13.8049 51.1056 9.73796 53.4878 6.70855 56.9595C4.77983 59.1786 2.3159 62.4645 2.15434 67.6407C2.02054 71.7801 3.99975 75.1263 5.24181 76.0526C7.39017 77.6542 10.3236 77.5437 10.6367 77.5437H40.6178C40.6178 77.5437 42.5414 76.876 42.9883 75.1414C43.4351 73.4068 44.9574 68.4641 41.7816 62.5449C39.6963 58.6615 35.9626 54.4894 35.334 54.8007C34.7054 55.1119 32.3576 59.5702 29.159 62.3666C26.1372 65.0099 20.3863 66.9504 14.479 63.7473Z" fill="#FFD942" stroke="#263238" stroke-width="0.5" stroke-linecap="round" stroke-linejoin="round"/>
<path d="M41.7894 62.5448C41.3425 61.7164 40.8225 60.8754 40.2747 60.0671C38.5227 60.6671 34.13 62.4594 31.6913 66.0391C29.5985 69.1116 30.9895 73.9866 35.3519 77.5436H40.6205C40.6205 77.5436 42.5442 76.8759 42.991 75.1388C43.4379 73.4017 44.9576 68.464 41.7894 62.5448Z" fill="white" stroke="#263238" stroke-width="0.5" stroke-linecap="round" stroke-linejoin="round"/>
<path d="M42.751 71.9106C42.7039 72.3458 42.6341 72.7918 42.5415 73.2486" stroke="#263238" stroke-width="0.5" stroke-linecap="round" stroke-linejoin="round"/>
<path d="M41.2491 63.3005C41.2491 63.3005 43.0642 66.4108 42.8319 70.9468" stroke="#263238" stroke-width="0.5" stroke-linecap="round" stroke-linejoin="round"/>
<path d="M13.7671 76.9111V72.4604C11.4319 71.7074 9.92478 70.8137 8.51862 69.9753C6.49902 68.7729 5.08529 65.5321 6.03451 63.4335C6.90546 61.4956 9.31637 60.6296 10.5988 61.4956C11.8504 62.3134 13.1429 63.0674 14.4714 63.7548C14.4714 63.7548 13.7999 61.5282 13.8883 56.8993C13.9766 52.2704 14.2467 51.826 14.0221 51.4696C13.7974 51.1131 9.73039 53.4954 6.70098 56.9671C4.77983 59.1786 2.3159 62.4646 2.15434 67.6407C2.02054 71.7802 3.99975 75.1263 5.24181 76.0526C7.39017 77.6542 10.3236 77.5437 10.6367 77.5437H13.7671C13.7671 77.3153 13.7671 77.1019 13.7671 76.9111Z" fill="white" stroke="#263238" stroke-width="0.5" stroke-linecap="round" stroke-linejoin="round"/>
<path d="M3.10617 68.5117C3.12903 69.0597 3.18807 69.6056 3.28289 70.1459" stroke="#263238" stroke-width="0.5" stroke-linecap="round" stroke-linejoin="round"/>
<path d="M10.3238 54.8232C9.59676 55.4709 8.51122 56.2315 7.83718 57.0072C5.90593 59.2263 3.26781 62.3967 3.1012 67.5729" stroke="#263238" stroke-width="0.5" stroke-linecap="round" stroke-linejoin="round"/>
<path d="M20.745 77.009C20.745 79.4565 16.9583 79.6799 12.2627 79.6799C7.5671 79.6799 3.78033 79.5895 3.78033 77.009C3.78033 73.4444 7.5671 69.9802 12.2627 69.9802C16.9583 69.9802 20.745 73.4444 20.745 77.009Z" fill="#FFD942" stroke="#263238" stroke-width="0.5" stroke-linecap="round" stroke-linejoin="round"/>
<path d="M12.2524 69.9778C7.91782 69.9778 4.34817 72.9449 3.83569 76.2108C4.3406 78.2667 7.91782 78.3445 12.2524 78.3445C16.587 78.3445 20.1466 78.1537 20.6666 76.1957C20.1566 72.9349 16.5895 69.9778 12.2524 69.9778Z" fill="#263238" stroke="#263238" stroke-width="0.5" stroke-linecap="round" stroke-linejoin="round"/>
<path d="M42.6753 77.2701C42.6753 79.4867 39.2369 79.69 34.9957 79.69C30.7546 79.69 27.3137 79.6097 27.3137 77.2701C27.3137 74.0445 30.752 70.9016 34.9957 70.9016C39.2394 70.9016 42.6753 74.0445 42.6753 77.2701Z" fill="#FFD942" stroke="#263238" stroke-width="0.5" stroke-linecap="round" stroke-linejoin="round"/>
<path d="M34.9958 70.9016C31.0701 70.9016 27.8363 73.5901 27.3743 76.5497C27.8363 78.4098 31.0701 78.4801 34.9958 78.4801C38.9214 78.4801 42.1426 78.3069 42.6147 76.5347C42.1426 73.5826 38.9138 70.9016 34.9958 70.9016Z" fill="#263238" stroke="#263238" stroke-width="0.5" stroke-linecap="round" stroke-linejoin="round"/>
<path d="M64.8986 50.8722C64.5984 50.7605 64.3551 50.535 64.222 50.245C64.089 49.9551 64.0772 49.6245 64.1892 49.3259L67.5973 40.2663C67.6528 40.118 67.7372 39.982 67.8456 39.866C67.954 39.7501 68.0843 39.6566 68.229 39.5907C68.3738 39.5249 68.5301 39.488 68.6892 39.4822C68.8483 39.4765 69.007 39.5019 69.1562 39.5572C69.3053 39.6124 69.4421 39.6963 69.5587 39.8041C69.6753 39.9118 69.7694 40.0414 69.8356 40.1853C69.9018 40.3293 69.9389 40.4848 69.9447 40.643C69.9505 40.8011 69.9249 40.9589 69.8693 41.1073L66.4612 50.1668C66.4057 50.3155 66.3211 50.4518 66.2123 50.5678C66.1036 50.6839 65.9728 50.7774 65.8276 50.8429C65.6823 50.9085 65.5254 50.9448 65.366 50.9499C65.2066 50.9549 65.0477 50.9285 64.8986 50.8722Z" fill="white" stroke="#263238" stroke-width="0.5" stroke-linecap="round" stroke-linejoin="round"/>
<path d="M68.8215 41.8979L66.908 46.8984" stroke="#263238" stroke-width="0.5" stroke-linecap="round" stroke-linejoin="round"/>
<path d="M59.7132 64.6786C59.4488 64.5806 59.2064 64.4317 58.9998 64.2405C58.7933 64.0493 58.6266 63.8195 58.5094 63.5643C58.3922 63.309 58.3267 63.0333 58.3167 62.7529C58.3066 62.4724 58.3523 62.1928 58.451 61.9299L63.3157 48.9945C63.5166 48.4635 63.9213 48.0337 64.4409 47.7994C64.9605 47.5652 65.5524 47.5459 66.0863 47.7456C66.6203 47.9453 67.0526 48.3478 67.2881 48.8645C67.5237 49.3811 67.5431 49.9697 67.3423 50.5006L62.4675 63.4235C62.2683 63.9521 61.8668 64.3808 61.3507 64.616C60.8346 64.8512 60.2459 64.8737 59.7132 64.6786Z" fill="#263238" stroke="#263238" stroke-width="0.5" stroke-linecap="round" stroke-linejoin="round"/>
<path d="M77.7708 17.0288C75.3455 16.1269 72.7057 15.9605 70.1852 16.5505C67.6648 17.1405 65.3768 18.4604 63.6108 20.3433C61.8447 22.2263 60.6798 24.5877 60.2635 27.129C59.8471 29.6702 60.1979 32.2772 61.2715 34.6202C62.3452 36.9632 64.0934 38.937 66.2952 40.292C68.497 41.647 71.0534 42.3224 73.6412 42.2327C76.229 42.143 78.732 41.2923 80.8335 39.7881C82.9351 38.284 84.5409 36.1939 85.4479 33.7823C86.6634 30.5483 86.5375 26.9667 85.0979 23.825C83.6583 20.6832 81.0227 18.2387 77.7708 17.0288ZM69.392 39.3049C67.3868 38.5588 65.6492 37.2383 64.3987 35.5103C63.1483 33.7823 62.4413 31.7244 62.367 29.5968C62.2927 27.4693 62.8546 25.3676 63.9815 23.5575C65.1085 21.7475 66.7499 20.3103 68.6982 19.4279C70.6465 18.5454 72.8142 18.2572 74.9273 18.5997C77.0403 18.9422 79.0037 19.9001 80.5693 21.3521C82.1349 22.8042 83.2323 24.6853 83.7228 26.7576C84.2132 28.8298 84.0747 31.0001 83.3248 32.9941C82.3184 35.6678 80.2853 37.8347 77.6725 39.0181C75.0597 40.2016 72.0812 40.3047 69.392 39.3049Z" fill="#263238" stroke="#263238" stroke-width="0.5" stroke-linecap="round" stroke-linejoin="round"/>
<path d="M64.4061 25.2674C64.9314 24.1157 65.6811 23.079 66.6119 22.2172C67.5427 21.3555 68.6361 20.6857 69.8288 20.2468" stroke="#263238" stroke-width="0.5" stroke-linecap="round" stroke-linejoin="round"/>
<path d="M63.5403 29.2538C63.5377 28.2773 63.6858 27.3063 63.9796 26.3745" stroke="#263238" stroke-width="0.5" stroke-linecap="round" stroke-linejoin="round"/>
<path d="M60.7735 31.9095C60.1217 28.9239 60.5801 25.8045 62.0639 23.1292C63.5478 20.454 65.9564 18.4041 68.8437 17.3594C71.731 16.3146 74.9013 16.3459 77.7672 17.4472C80.6331 18.5486 83.0004 20.6455 84.4307 23.3495" stroke="white" stroke-width="0.5" stroke-miterlimit="10"/>
<path d="M85.7991 27.7173C86.1692 30.7254 85.4393 33.7655 83.7426 36.283C82.046 38.8005 79.4957 40.6276 76.557 41.4308C73.6183 42.2341 70.4871 41.9601 67.7347 40.6587C64.9823 39.3573 62.7921 37.1154 61.5638 34.3419" stroke="white" stroke-width="0.5" stroke-miterlimit="10"/>
<path d="M84.9406 24.4417C85.2701 25.2403 85.5163 26.0706 85.6752 26.9193" stroke="white" stroke-width="0.5" stroke-miterlimit="10"/>
<path d="M22.3505 73.6025C24.3624 73.6025 25.9934 71.9808 25.9934 69.9802C25.9934 67.9797 24.3624 66.3579 22.3505 66.3579C20.3386 66.3579 18.7076 67.9797 18.7076 69.9802C18.7076 71.9808 20.3386 73.6025 22.3505 73.6025Z" fill="#263238"/>
<path d="M22.3503 73.0379C24.0485 73.0379 25.4252 71.669 25.4252 69.9804C25.4252 68.2917 24.0485 66.9229 22.3503 66.9229C20.6521 66.9229 19.2755 68.2917 19.2755 69.9804C19.2755 71.669 20.6521 73.0379 22.3503 73.0379Z" fill="white" stroke="#263238" stroke-width="0.5" stroke-linecap="round" stroke-linejoin="round"/>
<path d="M21.4165 70.8839C21.3899 70.8567 21.3749 70.8202 21.3749 70.7822C21.3749 70.7442 21.3899 70.7077 21.4165 70.6806L22.2496 69.8522C22.277 69.8256 22.3137 69.8108 22.3519 69.8108C22.3901 69.8108 22.4268 69.8256 22.4541 69.8522C22.468 69.8655 22.4791 69.8815 22.4866 69.8992C22.4942 69.9169 22.4981 69.9359 22.4981 69.9551C22.4981 69.9743 22.4942 69.9933 22.4866 70.011C22.4791 70.0287 22.468 70.0447 22.4541 70.058L21.6236 70.8839C21.6101 70.8977 21.5941 70.9087 21.5763 70.9162C21.5585 70.9237 21.5394 70.9276 21.5201 70.9276C21.5007 70.9276 21.4816 70.9237 21.4638 70.9162C21.4461 70.9087 21.43 70.8977 21.4165 70.8839Z" fill="#263238"/>
<path d="M20.1492 72.1443C20.1244 72.1208 20.1046 72.0926 20.0911 72.0613C20.0776 72.03 20.0706 71.9963 20.0706 71.9623C20.0706 71.9282 20.0776 71.8945 20.0911 71.8633C20.1046 71.832 20.1244 71.8037 20.1492 71.7803L21.3357 70.6005C21.3594 70.5754 21.3879 70.5554 21.4196 70.5417C21.4513 70.528 21.4855 70.521 21.52 70.521C21.5546 70.521 21.5888 70.528 21.6205 70.5417C21.6522 70.5554 21.6807 70.5754 21.7043 70.6005C21.7291 70.6239 21.7489 70.6521 21.7624 70.6834C21.7759 70.7147 21.7829 70.7484 21.7829 70.7825C21.7829 70.8165 21.7759 70.8502 21.7624 70.8815C21.7489 70.9128 21.7291 70.941 21.7043 70.9645L20.5178 72.1443C20.4942 72.1694 20.4656 72.1893 20.4339 72.203C20.4022 72.2167 20.3681 72.2237 20.3335 72.2237C20.299 72.2237 20.2648 72.2167 20.2331 72.203C20.2014 72.1893 20.1728 72.1694 20.1492 72.1443Z" fill="#263238"/>
<path d="M24.5368 70.0306C24.7584 69.8105 24.9094 69.5301 24.9707 69.2247C25.032 68.9193 25.0008 68.6027 24.881 68.315C24.7613 68.0272 24.5584 67.7813 24.2981 67.6082C24.0377 67.4351 23.7316 67.3428 23.4184 67.3428C23.1052 67.3428 22.7991 67.4351 22.5388 67.6082C22.2784 67.7813 22.0755 68.0272 21.9558 68.315C21.8361 68.6027 21.8049 68.9193 21.8661 69.2247C21.9274 69.5301 22.0784 69.8105 22.3001 70.0306C22.5968 70.3252 22.999 70.4907 23.4184 70.4907C23.8378 70.4907 24.24 70.3252 24.5368 70.0306Z" fill="#263238"/>
<path d="M24.2337 69.7266C24.3943 69.5664 24.5036 69.3624 24.5476 69.1405C24.5917 68.9185 24.5687 68.6886 24.4815 68.4796C24.3942 68.2707 24.2467 68.0922 24.0574 67.9666C23.8682 67.841 23.6458 67.7739 23.4183 67.7739C23.1908 67.7739 22.9684 67.841 22.7792 67.9666C22.5899 68.0922 22.4424 68.2707 22.3551 68.4796C22.2679 68.6886 22.2449 68.9185 22.2889 69.1405C22.333 69.3624 22.4423 69.5664 22.6029 69.7266C22.7098 69.8333 22.8369 69.918 22.9768 69.9758C23.1168 70.0335 23.2668 70.0633 23.4183 70.0633C23.5698 70.0633 23.7198 70.0335 23.8598 69.9758C23.9997 69.918 24.1268 69.8333 24.2337 69.7266Z" fill="white"/>
<path d="M67.539 57.0625C67.539 57.3814 67.4116 57.6872 67.1849 57.9127C66.9581 58.1382 66.6505 58.2649 66.3298 58.2649H57.8045C57.6412 58.2723 57.4781 58.2468 57.3251 58.1897C57.172 58.1327 57.0322 58.0455 56.914 57.9332C56.7958 57.8209 56.7017 57.686 56.6375 57.5365C56.5732 57.3871 56.54 57.2263 56.54 57.0637C56.54 56.9012 56.5732 56.7404 56.6375 56.5909C56.7017 56.4415 56.7958 56.3066 56.914 56.1943C57.0322 56.082 57.172 55.9948 57.3251 55.9377C57.4781 55.8807 57.6412 55.8552 57.8045 55.8626H66.3298C66.6501 55.8626 66.9573 55.9889 67.184 56.2139C67.4107 56.4388 67.5384 56.744 67.539 57.0625Z" fill="#FFD942" stroke="#263238" stroke-width="0.5" stroke-linecap="round" stroke-linejoin="round"/>
<path d="M62.4371 57.8933C62.808 57.8933 63.1086 57.5944 63.1086 57.2256C63.1086 56.8568 62.808 56.5579 62.4371 56.5579C62.0662 56.5579 61.7656 56.8568 61.7656 57.2256C61.7656 57.5944 62.0662 57.8933 62.4371 57.8933Z" fill="white" stroke="#263238" stroke-width="0.5" stroke-linecap="round" stroke-linejoin="round"/>
<path d="M52.2306 65.0626C53.1341 65.0626 53.8665 64.3343 53.8665 63.436C53.8665 62.5376 53.1341 61.8093 52.2306 61.8093C51.3271 61.8093 50.5947 62.5376 50.5947 63.436C50.5947 64.3343 51.3271 65.0626 52.2306 65.0626Z" fill="#FFD942" stroke="#263238" stroke-width="0.5" stroke-linecap="round" stroke-linejoin="round"/>
<path d="M52.8442 63.436C52.8447 63.3152 52.8091 63.1971 52.742 63.0964C52.6749 62.9958 52.5793 62.9172 52.4672 62.8706C52.3552 62.8241 52.2317 62.8117 52.1126 62.8349C51.9934 62.8582 51.8839 62.916 51.7978 63.0013C51.7118 63.0865 51.6531 63.1952 51.6292 63.3135C51.6053 63.4319 51.6173 63.5547 51.6637 63.6663C51.7101 63.7779 51.7887 63.8734 51.8896 63.9405C51.9906 64.0076 52.1093 64.0435 52.2307 64.0435C52.393 64.0435 52.5486 63.9796 52.6636 63.8657C52.7786 63.7519 52.8435 63.5973 52.8442 63.436Z" fill="white" stroke="#263238" stroke-width="0.5" stroke-linecap="round" stroke-linejoin="round"/>
<path d="M57.8048 58.7191C58.7083 58.7191 59.4407 57.9909 59.4407 57.0925C59.4407 56.1941 58.7083 55.4658 57.8048 55.4658C56.9014 55.4658 56.1689 56.1941 56.1689 57.0925C56.1689 57.9909 56.9014 58.7191 57.8048 58.7191Z" fill="#FFD942" stroke="#263238" stroke-width="0.5" stroke-linecap="round" stroke-linejoin="round"/>
<path d="M57.8047 57.7202C58.1533 57.7202 58.4358 57.4393 58.4358 57.0927C58.4358 56.7461 58.1533 56.4651 57.8047 56.4651C57.4561 56.4651 57.1736 56.7461 57.1736 57.0927C57.1736 57.4393 57.4561 57.7202 57.8047 57.7202Z" fill="white" stroke="#263238" stroke-width="0.5" stroke-linecap="round" stroke-linejoin="round"/>
</svg>
