<svg width="104" height="85" viewBox="0 0 104 85" fill="none" xmlns="http://www.w3.org/2000/svg">
<path d="M13.6016 29.6257C18.0236 29.6257 21.6084 26.2472 21.6084 22.0796C21.6084 17.912 18.0236 14.5334 13.6016 14.5334C9.17957 14.5334 5.5948 17.912 5.5948 22.0796C5.5948 26.2472 9.17957 29.6257 13.6016 29.6257Z" fill="white" stroke="#2E353A" stroke-width="0.5" stroke-linecap="round" stroke-linejoin="round"/>
<path d="M13.0064 28.876C17.4284 28.876 21.0132 25.4975 21.0132 21.3298C21.0132 17.1622 17.4284 13.7837 13.0064 13.7837C8.58434 13.7837 4.99957 17.1622 4.99957 21.3298C4.99957 25.4975 8.58434 28.876 13.0064 28.876Z" fill="white" stroke="#2E353A" stroke-width="0.5" stroke-linecap="round" stroke-linejoin="round"/>
<path d="M13.0059 28.1266C16.9887 28.1266 20.2174 25.0836 20.2174 21.33C20.2174 17.5764 16.9887 14.5334 13.0059 14.5334C9.02313 14.5334 5.79445 17.5764 5.79445 21.33C5.79445 25.0836 9.02313 28.1266 13.0059 28.1266Z" fill="#2E353A" stroke="#2E353A" stroke-width="0.5" stroke-linecap="round" stroke-linejoin="round"/>
<path d="M12.1596 16.2206C12.1596 16.2206 11.3643 14.3455 9.97301 13.0343C8.58173 11.7231 2.90996 10.8773 2.90996 10.8773C3.82582 11.7099 4.65867 12.6199 5.39802 13.596C6.68959 15.2831 10.9631 19.1272 10.9631 19.1272C10.9631 19.1272 8.87622 17.44 6.98408 17.2521C5.09194 17.0642 0.319864 18.0017 0.027696 18.0017C-0.264472 18.0017 1.81781 18.7513 3.31111 19.4069C4.80441 20.0625 10.5713 20.6263 10.5713 20.6263C10.5713 20.6263 8.08551 21.282 6.39742 21.8458C4.70934 22.4096 3.10937 26.5313 3.10937 26.5313C3.10937 26.5313 5.29832 24.6562 7.18813 24.1885C9.07795 23.7208 11.7631 22.8773 11.7631 22.8773C11.7631 22.8773 10.0727 24.6584 9.6762 25.8778C9.27969 27.0973 9.57649 29.9077 9.57649 29.9077C9.57649 29.9077 10.4715 27.2852 11.566 26.2515C12.6605 25.2178 13.85 23.4499 13.85 23.4499C14.401 24.2962 14.8995 25.1718 15.3433 26.0723C16.1387 27.6655 16.6349 30.006 16.6349 30.006C16.6349 30.006 17.9288 27.3836 17.8291 26.0723C17.7294 24.7611 16.2384 22.4162 16.2384 22.4162C16.2384 22.4162 17.2332 21.7606 18.7241 22.3222C20.2151 22.8838 22.8029 25.2288 22.8029 25.2288C22.8029 25.2288 22.2046 22.1343 21.2099 20.917C20.2151 19.6997 15.9393 19.3217 15.9393 19.3217C15.9393 19.3217 18.3276 18.0104 19.8186 17.7285C21.3096 17.4466 23.2968 18.1044 23.2968 18.1044C23.2968 18.1044 21.0105 15.1039 19.2204 14.9159C17.4302 14.728 14.7451 17.3461 14.7451 17.3461L15.5427 13.596C15.7398 12.6584 15.3433 10.3179 15.3433 10.3179C15.3433 10.3179 14.2489 10.8795 12.955 12.6606C12.5763 13.1736 12.3108 13.7531 12.1742 14.3646C12.0375 14.9761 12.0326 15.6072 12.1596 16.2206Z" fill="#FFD942"/>
<path opacity="0.5" d="M12.1596 16.2206C12.1596 16.2206 11.3643 14.3455 9.97301 13.0343C8.58173 11.7231 2.90996 10.8773 2.90996 10.8773C3.82582 11.7099 4.65867 12.6199 5.39802 13.596C6.68959 15.2831 10.9631 19.1272 10.9631 19.1272C10.9631 19.1272 8.87622 17.44 6.98408 17.2521C5.09194 17.0642 0.319864 18.0017 0.027696 18.0017C-0.264472 18.0017 1.81781 18.7513 3.31111 19.4069C4.80441 20.0625 10.5713 20.6263 10.5713 20.6263C10.5713 20.6263 8.08551 21.282 6.39742 21.8458C4.70934 22.4096 3.10937 26.5313 3.10937 26.5313C3.10937 26.5313 5.29832 24.6562 7.18813 24.1885C9.07795 23.7208 11.7631 22.8773 11.7631 22.8773C11.7631 22.8773 10.0727 24.6584 9.6762 25.8778C9.27969 27.0973 9.57649 29.9077 9.57649 29.9077C9.57649 29.9077 10.4715 27.2852 11.566 26.2515C12.6605 25.2178 13.85 23.4499 13.85 23.4499C14.401 24.2962 14.8995 25.1718 15.3433 26.0723C16.1387 27.6655 16.6349 30.006 16.6349 30.006C16.6349 30.006 17.9288 27.3836 17.8291 26.0723C17.7294 24.7611 16.2384 22.4162 16.2384 22.4162C16.2384 22.4162 17.2332 21.7606 18.7241 22.3222C20.2151 22.8838 22.8029 25.2288 22.8029 25.2288C22.8029 25.2288 22.2046 22.1343 21.2099 20.917C20.2151 19.6997 15.9393 19.3217 15.9393 19.3217C15.9393 19.3217 18.3276 18.0104 19.8186 17.7285C21.3096 17.4466 23.2968 18.1044 23.2968 18.1044C23.2968 18.1044 21.0105 15.1039 19.2204 14.9159C17.4302 14.728 14.7451 17.3461 14.7451 17.3461L15.5427 13.596C15.7398 12.6584 15.3433 10.3179 15.3433 10.3179C15.3433 10.3179 14.2489 10.8795 12.955 12.6606C12.5763 13.1736 12.3108 13.7531 12.1742 14.3646C12.0375 14.9761 12.0326 15.6072 12.1596 16.2206Z" fill="black"/>
<path d="M14.1186 13.3665C14.1882 13.0977 14.2647 12.8289 14.3505 12.5645" stroke="#2E353A" stroke-width="0.5" stroke-linecap="round" stroke-linejoin="round"/>
<path d="M7.47543 13.3665C8.40295 14.0068 9.56235 14.8962 10.1699 15.6589C11.2643 17.0641 13.4533 20.0647 13.4533 20.0647C13.3906 18.0493 13.5601 16.0335 13.9588 14.0527" stroke="#2E353A" stroke-width="0.5" stroke-linecap="round" stroke-linejoin="round"/>
<path d="M6.09357 12.4705C6.09357 12.4705 6.38342 12.6453 6.81703 12.9272" stroke="#2E353A" stroke-width="0.5" stroke-linecap="round" stroke-linejoin="round"/>
<path d="M13.4538 20.0647C13.4538 20.0647 17.2335 16.5025 18.8242 16.2206C20.4149 15.9387 21.8085 17.0642 21.8085 17.0642" stroke="#2E353A" stroke-width="0.5" stroke-linecap="round" stroke-linejoin="round"/>
<path d="M6.69905 23.0435C5.77153 23.5942 5.69501 23.9176 5.69501 23.9176" stroke="#2E353A" stroke-width="0.5" stroke-linecap="round" stroke-linejoin="round"/>
<path d="M21.7087 23.3448C21.7087 23.3448 21.1127 21.9374 19.0235 21.2818C16.9343 20.6262 13.6555 20.5322 13.6555 20.5322C13.6555 20.5322 9.05269 21.9527 7.36925 22.6936" stroke="#2E353A" stroke-width="0.5" stroke-linecap="round" stroke-linejoin="round"/>
<path d="M11.6427 19.9968C12.7558 20.3028 13.6531 20.5322 13.6531 20.5322" stroke="#2E353A" stroke-width="0.5" stroke-linecap="round" stroke-linejoin="round"/>
<path d="M4.63765 18.3315C5.71821 18.3927 7.10948 18.5326 7.88396 18.8451C8.51467 19.1008 9.75755 19.4701 10.9309 19.8001" stroke="#2E353A" stroke-width="0.5" stroke-linecap="round" stroke-linejoin="round"/>
<path d="M3.10922 18.2834C3.10922 18.2834 3.47327 18.2834 4.00891 18.3031" stroke="#2E353A" stroke-width="0.5" stroke-linecap="round" stroke-linejoin="round"/>
<path d="M13.4535 21.094C13.4535 21.094 10.671 25.0277 10.4693 25.9696C10.3498 26.5253 10.283 27.0899 10.2698 27.6567" stroke="#2E353A" stroke-width="0.5" stroke-linecap="round" stroke-linejoin="round"/>
<path d="M14.6914 22.333C15.227 22.9886 15.8693 23.8628 16.1383 24.5621C16.4514 25.4153 16.6842 26.2929 16.834 27.1846" stroke="#2E353A" stroke-width="0.5" stroke-linecap="round" stroke-linejoin="round"/>
<path d="M13.8502 21.3757C13.8502 21.3757 14.082 21.6074 14.3812 21.9636" stroke="#2E353A" stroke-width="0.5" stroke-linecap="round" stroke-linejoin="round"/>
<path d="M10.8962 17.0291C10.8962 17.0291 10.3838 15.0622 10.7014 13.2374C11.0191 11.4126 15.1071 7.60352 15.1071 7.60352C14.8799 8.78316 14.7674 9.97989 14.7709 11.1788C14.7709 13.2593 13.6695 18.7315 13.6695 18.7315C13.6695 18.7315 14.3211 16.2139 15.7402 15.0163C17.1593 13.8188 21.6183 11.9568 21.8595 11.7973C22.1006 11.6377 20.8694 13.3904 20.0647 14.7454C19.2601 16.1003 14.917 19.7346 14.917 19.7346C14.917 19.7346 17.3425 18.8998 19.063 18.4234C20.7836 17.947 24.6281 20.4252 24.6281 20.4252C24.6281 20.4252 21.6902 20.1061 19.8653 20.7639C18.0404 21.4217 15.3367 22.2128 15.3367 22.2128C15.3367 22.2128 17.8132 22.7308 18.8891 23.5022C19.965 24.2736 21.4676 26.7278 21.4676 26.7278C21.4676 26.7278 19.1163 25.0866 17.5883 24.8506C16.0602 24.6146 13.9895 23.8256 13.9895 23.8256C14.068 24.8156 14.2058 25.8006 14.4022 26.7759C14.7431 28.5089 15.7935 30.6856 15.7935 30.6856C15.7935 30.6856 13.1199 29.2651 12.3872 28.144C11.6545 27.0229 11.4179 24.2999 11.4179 24.2999C11.4179 24.2999 10.2029 24.313 9.33103 25.5893C8.45916 26.8655 7.81685 30.1917 7.81685 30.1917C7.81685 30.1917 6.38848 27.3507 6.44181 25.8209C6.49514 24.2911 9.73682 21.6293 9.73682 21.6293C9.73682 21.6293 6.98673 21.8763 5.60009 22.4663C4.21345 23.0564 3.00304 24.6845 3.00304 24.6845C3.00304 24.6845 3.00304 20.9912 4.3433 19.8548C5.68356 18.7184 9.4887 19.374 9.4887 19.374L6.52065 16.7668C5.77863 16.1112 4.6517 13.9914 4.6517 13.9914C4.6517 13.9914 5.88994 13.8472 8.04178 14.5836C8.66725 14.79 9.24228 15.1129 9.73265 15.533C10.223 15.9531 10.6187 16.4619 10.8962 17.0291Z" fill="#FFD942"/>
<path d="M7.538 15.7879C7.30612 15.6065 7.08816 15.4317 6.85628 15.2612" stroke="#2E353A" stroke-width="0.5" stroke-linecap="round" stroke-linejoin="round"/>
<path d="M12.9341 12.136C12.5747 13.1675 12.1735 14.5246 12.1642 15.4774C12.1457 17.2258 12.2245 20.86 12.2245 20.86C11.0277 19.1891 9.64135 17.6458 8.0901 16.2576" stroke="#2E353A" stroke-width="0.5" stroke-linecap="round" stroke-linejoin="round"/>
<path d="M13.5042 10.6477C13.5042 10.6477 13.3743 10.9493 13.1981 11.4148" stroke="#2E353A" stroke-width="0.5" stroke-linecap="round" stroke-linejoin="round"/>
<path d="M12.2247 20.8599C12.2247 20.8599 6.94944 20.0448 5.48396 20.6917C4.01848 21.3385 3.58255 23.0126 3.58255 23.0126" stroke="#2E353A" stroke-width="0.5" stroke-linecap="round" stroke-linejoin="round"/>
<path d="M19.5564 19.5662C20.6439 19.5094 20.9036 19.717 20.9036 19.717" stroke="#2E353A" stroke-width="0.5" stroke-linecap="round" stroke-linejoin="round"/>
<path d="M7.55017 28.0632C7.55017 28.0632 7.16525 26.5924 8.4545 24.9118C9.74375 23.2313 12.3547 21.3518 12.3547 21.3518C12.3547 21.3518 16.9714 19.9729 18.7963 19.6516" stroke="#2E353A" stroke-width="0.5" stroke-linecap="round" stroke-linejoin="round"/>
<path d="M13.6554 19.811C12.9412 20.6699 12.3569 21.3517 12.3569 21.3517" stroke="#2E353A" stroke-width="0.5" stroke-linecap="round" stroke-linejoin="round"/>
<path d="M18.3136 14.6077C17.4742 15.2633 16.4307 16.1374 15.9948 16.8084C15.64 17.3634 14.8586 18.3381 14.1096 19.2582" stroke="#2E353A" stroke-width="0.5" stroke-linecap="round" stroke-linejoin="round"/>
<path d="M19.5237 13.7271C19.5237 13.7271 19.2292 13.9281 18.8049 14.2384" stroke="#2E353A" stroke-width="0.5" stroke-linecap="round" stroke-linejoin="round"/>
<path d="M12.8624 21.7014C12.8624 21.7014 17.5625 23.3667 18.3022 24.0201C18.7433 24.4056 19.1469 24.8277 19.508 25.2811" stroke="#2E353A" stroke-width="0.5" stroke-linecap="round" stroke-linejoin="round"/>
<path d="M12.6232 23.384C12.5907 24.2101 12.6069 25.27 12.8272 25.9912C13.1006 26.8576 13.4552 27.6994 13.8869 28.5066" stroke="#2E353A" stroke-width="0.5" stroke-linecap="round" stroke-linejoin="round"/>
<path d="M12.7142 22.1384C12.7142 22.1384 12.6771 22.4488 12.6492 22.9077" stroke="#2E353A" stroke-width="0.5" stroke-linecap="round" stroke-linejoin="round"/>
<path d="M26.3695 27.0403H78.9296C79.5858 27.0403 80.2151 27.286 80.6791 27.7233C81.1431 28.1606 81.4038 28.7537 81.4038 29.3721V61.4973C81.4038 61.8322 81.3338 62.1638 81.1978 62.4733C81.0618 62.7827 80.8625 63.0638 80.6112 63.3006C80.3599 63.5375 80.0616 63.7253 79.7333 63.8535C79.405 63.9817 79.0531 64.0476 78.6977 64.0476H26.6014C26.246 64.0476 25.8941 63.9817 25.5658 63.8535C25.2375 63.7253 24.9392 63.5375 24.6879 63.3006C24.4366 63.0638 24.2373 62.7827 24.1013 62.4733C23.9653 62.1638 23.8953 61.8322 23.8953 61.4973V29.3721C23.8953 28.7537 24.156 28.1606 24.62 27.7233C25.084 27.286 25.7133 27.0403 26.3695 27.0403Z" fill="white" stroke="#2E353A" stroke-width="0.5" stroke-linecap="round" stroke-linejoin="round"/>
<path d="M45.606 30.6831H42.3689V32.6871H45.606V30.6831Z" fill="#2E353A"/>
<path d="M35.1177 43.0459H32.1125V45.8563H35.1177V43.0459Z" fill="#2E353A"/>
<path d="M48.3958 33.168H45.3675V35.9784H48.3958V33.168Z" fill="#2E353A"/>
<path d="M41.8567 30.6831H38.6196V32.6871H41.8567V30.6831Z" fill="#2E353A"/>
<path d="M51.9343 33.168H48.9059V35.9784H51.9343V33.168Z" fill="#2E353A"/>
<path d="M49.353 30.6831H46.116V32.6871H49.353V30.6831Z" fill="#2E353A"/>
<path d="M33.3022 39.7524H27.6073V42.5628H33.3022V39.7524Z" fill="#2E353A"/>
<path d="M41.316 33.168H38.2876V35.9784H41.316V33.168Z" fill="#2E353A"/>
<path d="M31.6025 43.0459H27.6073V45.8563H31.6025V43.0459Z" fill="#2E353A"/>
<path d="M53.1023 30.6831H49.8653V32.6871H53.1023V30.6831Z" fill="#2E353A"/>
<path d="M34.2368 33.168H31.2085V35.9784H34.2368V33.168Z" fill="#2E353A"/>
<path d="M34.3595 30.6831H31.1225V32.6871H34.3595V30.6831Z" fill="#2E353A"/>
<path d="M38.1096 30.6831H34.8726V32.6871H38.1096V30.6831Z" fill="#2E353A"/>
<path d="M37.7753 33.168H34.7469V35.9784H37.7753V33.168Z" fill="#2E353A"/>
<path d="M44.8544 33.168H41.8261V35.9784H44.8544V33.168Z" fill="#2E353A"/>
<path d="M68.0981 30.6831H64.8611V32.6871H68.0981V30.6831Z" fill="#2E353A"/>
<path d="M71.8452 30.6831H68.6081V32.6871H71.8452V30.6831Z" fill="#2E353A"/>
<path d="M69.6332 33.168H66.6048V35.9784H69.6332V33.168Z" fill="#2E353A"/>
<path d="M73.1739 33.168H70.1455V35.9784H73.1739V33.168Z" fill="#2E353A"/>
<path d="M78.7741 43.0459H74.3151V45.8563H78.7741V43.0459Z" fill="#2E353A"/>
<path d="M75.5952 30.6831H72.3582V32.6871H75.5952V30.6831Z" fill="#2E353A"/>
<path d="M30.6982 33.168H27.6073V35.9784H30.6982V33.168Z" fill="#2E353A"/>
<path d="M56.8524 30.6831H53.6154V32.6871H56.8524V30.6831Z" fill="#2E353A"/>
<path d="M60.5995 30.6831H57.3624V32.6871H60.5995V30.6831Z" fill="#2E353A"/>
<path d="M59.0156 33.168H55.9873V35.9784H59.0156V33.168Z" fill="#2E353A"/>
<path d="M66.0948 33.168H63.0664V35.9784H66.0948V33.168Z" fill="#2E353A"/>
<path d="M55.475 33.168H52.4466V35.9784H55.475V33.168Z" fill="#2E353A"/>
<path d="M62.5541 33.168H59.5257V35.9784H62.5541V33.168Z" fill="#2E353A"/>
<path d="M64.3488 30.6831H61.1117V32.6871H64.3488V30.6831Z" fill="#2E353A"/>
<path d="M59.7365 43.0459H56.7313V45.8563H59.7365V43.0459Z" fill="#2E353A"/>
<path d="M75.5047 39.7524H72.4995V42.5628H75.5047V39.7524Z" fill="#2E353A"/>
<path d="M71.9872 39.7524H68.982V42.5628H71.9872V39.7524Z" fill="#2E353A"/>
<path d="M73.8027 43.0459H70.7976V45.8563H73.8027V43.0459Z" fill="#2E353A"/>
<path d="M70.2875 43.0459H67.2823V45.8563H70.2875V43.0459Z" fill="#2E353A"/>
<path d="M63.2517 43.0459H60.2466V45.8563H63.2517V43.0459Z" fill="#2E353A"/>
<path d="M66.77 43.0459H63.7648V45.8563H66.77V43.0459Z" fill="#2E353A"/>
<path d="M68.4697 39.7524H65.4645V42.5628H68.4697V39.7524Z" fill="#2E353A"/>
<path d="M64.9536 39.7524H61.9485V42.5628H64.9536V39.7524Z" fill="#2E353A"/>
<path d="M78.7764 30.6831H76.1075V32.6871H78.7764V30.6831Z" fill="#2E353A"/>
<path d="M30.6124 30.6831H27.6073V32.6871H30.6124V30.6831Z" fill="#2E353A"/>
<path d="M78.7761 46.3372H27.6073V49.259H78.7761V46.3372Z" fill="#2E353A"/>
<path d="M78.7737 33.168H73.684V35.9784H78.7737V33.168Z" fill="#2E353A"/>
<path d="M78.7741 39.7524H76.0148V42.5628H78.7741V39.7524Z" fill="#2E353A"/>
<path d="M75.1657 39.25H74.6533V36.4614H71.6481V39.25H71.138V36.4614H68.1328V39.25H67.6204V36.4614H64.6152V39.25H64.1028V36.4614H61.0976V39.25H60.5875V36.4614H57.5823V39.25H57.0699V36.4614H54.0647V39.25H53.5522V36.4614H50.5471V39.25H50.037V36.4614H47.0318V39.25H46.5193V36.4614H43.5142V39.25H43.0017V36.4614H39.9966V39.25H39.4864V36.4614H36.4813V39.25H35.9688V36.4614H32.9637V39.25H32.4512V36.4614H27.6073V39.2718H78.7738V36.4614H75.1657V39.25Z" fill="#2E353A"/>
<path d="M50.8859 39.7524H47.8807V42.5628H50.8859V39.7524Z" fill="#2E353A"/>
<path d="M61.4362 39.7524H58.431V42.5628H61.4362V39.7524Z" fill="#2E353A"/>
<path d="M43.8531 39.7524H40.848V42.5628H43.8531V39.7524Z" fill="#2E353A"/>
<path d="M45.6687 43.0459H42.6636V45.8563H45.6687V43.0459Z" fill="#2E353A"/>
<path d="M47.3684 39.7524H44.3632V42.5628H47.3684V39.7524Z" fill="#2E353A"/>
<path d="M40.3356 39.7524H37.3305V42.5628H40.3356V39.7524Z" fill="#2E353A"/>
<path d="M38.636 43.0459H35.6308V45.8563H38.636V43.0459Z" fill="#2E353A"/>
<path d="M42.1512 43.0459H39.1461V45.8563H42.1512V43.0459Z" fill="#2E353A"/>
<path d="M54.4034 39.7524H51.3982V42.5628H54.4034V39.7524Z" fill="#2E353A"/>
<path d="M56.219 43.0459H53.2138V45.8563H56.219V43.0459Z" fill="#2E353A"/>
<path d="M57.9187 39.7524H54.9135V42.5628H57.9187V39.7524Z" fill="#2E353A"/>
<path d="M49.1862 43.0459H46.1811V45.8563H49.1862V43.0459Z" fill="#2E353A"/>
<path d="M52.7015 43.0459H49.6963V45.8563H52.7015V43.0459Z" fill="#2E353A"/>
<path d="M36.8174 39.7524H33.8122V42.5628H36.8174V39.7524Z" fill="#2E353A"/>
<path d="M84.6866 6.93457H20.303C19.9873 6.9348 19.6758 7.00347 19.3927 7.13525C19.1096 7.26703 18.8625 7.4584 18.6704 7.69457C18.4783 7.93074 18.3464 8.20538 18.285 8.49725C18.2235 8.78912 18.234 9.09042 18.3158 9.37783L23.0229 25.895C23.1403 26.3073 23.3985 26.6716 23.7578 26.9316C24.117 27.1916 24.5572 27.3326 25.0102 27.333H31.5816V28.4759H73.7118V27.3395H79.9725C80.4255 27.3392 80.8656 27.1981 81.2249 26.9382C81.5842 26.6782 81.8424 26.3139 81.9597 25.9015L86.6669 9.38439C86.7498 9.09708 86.7614 8.79565 86.7009 8.50342C86.6404 8.21119 86.5093 7.93601 86.3179 7.69917C86.1264 7.46232 85.8797 7.27017 85.5969 7.13759C85.314 7.005 85.0026 6.93554 84.6866 6.93457Z" fill="#2E353A" stroke="#2E353A" stroke-width="0.5" stroke-linecap="round" stroke-linejoin="round"/>
<path d="M77.4057 25.8754H27.584L22.601 8.97583H82.3864L77.4057 25.8754Z" fill="#FFD942" stroke="#2E353A" stroke-width="0.5" stroke-linecap="round" stroke-linejoin="round"/>
<path d="M30.8909 18.458V18.6765H30.0121V18.458H30.8909Z" fill="#2E353A"/>
<path d="M31.985 18.458V18.6765H31.1038V18.458H31.985Z" fill="#2E353A"/>
<path d="M33.0802 18.458V18.6765H32.206V18.458H33.0802Z" fill="#2E353A"/>
<path d="M34.1721 18.458V18.6765H33.2933V18.458H34.1721Z" fill="#2E353A"/>
<path d="M35.2669 18.458V18.6765H34.3858V18.458H35.2669Z" fill="#2E353A"/>
<path d="M36.3609 18.458V18.6765H35.4798V18.458H36.3609Z" fill="#2E353A"/>
<path d="M37.4533 18.458V18.6765H36.5745V18.458H37.4533Z" fill="#2E353A"/>
<path d="M38.536 19.6098L37.5668 17.1753H37.7987L38.7679 19.6098H38.536Z" fill="#2E353A"/>
<path d="M30.0048 14.9136V15.1321H29.126V14.9136H30.0048Z" fill="#2E353A"/>
<path d="M31.0995 14.9136V15.1321H30.2207V14.9136H31.0995Z" fill="#2E353A"/>
<path d="M32.2055 14.9136V15.1321H31.3244V14.9136H32.2055Z" fill="#2E353A"/>
<path d="M33.2883 14.9136V15.1321H32.4072V14.9136H33.2883Z" fill="#2E353A"/>
<path d="M34.3807 14.9136V15.1321H33.5019V14.9136H34.3807Z" fill="#2E353A"/>
<path d="M36.2308 14.9136V15.1321H35.3496V14.9136H36.2308Z" fill="#2E353A"/>
<path d="M37.3232 14.9136V15.1321H36.4444V14.9136H37.3232Z" fill="#2E353A"/>
<path d="M38.4179 14.9136V15.1321H37.5391V14.9136H38.4179Z" fill="#2E353A"/>
<path d="M39.512 14.9136V15.1321H38.6308V14.9136H39.512Z" fill="#2E353A"/>
<path d="M40.6044 14.9136V15.1321H39.7256V14.9136H40.6044Z" fill="#2E353A"/>
<path d="M41.6991 14.9136V15.1321H40.8203V14.9136H41.6991Z" fill="#2E353A"/>
<path d="M42.7932 14.9136V15.1321H41.912V14.9136H42.7932Z" fill="#2E353A"/>
<path d="M44.6416 14.9136V15.1321H43.7628V14.9136H44.6416Z" fill="#2E353A"/>
<path d="M45.7357 14.9136V15.1321H44.8545V14.9136H45.7357Z" fill="#2E353A"/>
<path d="M46.8304 14.9136V15.1321H45.9492V14.9136H46.8304Z" fill="#2E353A"/>
<path d="M48.6691 14.9136V15.1321H47.7903V14.9136H48.6691Z" fill="#2E353A"/>
<path d="M49.7726 14.9136V15.1321H48.9007V14.9136H49.7726Z" fill="#2E353A"/>
<path d="M50.8676 14.9136V15.1321H49.9865V14.9136H50.8676Z" fill="#2E353A"/>
<path d="M54.981 14.9136V15.1321H54.1022V14.9136H54.981Z" fill="#2E353A"/>
<path d="M56.075 14.9136V15.1321H55.1939V14.9136H56.075Z" fill="#2E353A"/>
<path d="M57.1698 14.9136V15.1321H56.2886V14.9136H57.1698Z" fill="#2E353A"/>
<path d="M58.2622 14.9136V15.1321H57.3834V14.9136H58.2622Z" fill="#2E353A"/>
<path d="M59.3563 14.9136V15.1321H58.4751V14.9136H59.3563Z" fill="#2E353A"/>
<path d="M61.2047 14.9136V15.1321H60.3258V14.9136H61.2047Z" fill="#2E353A"/>
<path d="M62.2993 14.9136V15.1321H61.4228V14.9136H62.2993Z" fill="#2E353A"/>
<path d="M63.3935 14.9136V15.1321H62.5123V14.9136H63.3935Z" fill="#2E353A"/>
<path d="M65.2419 14.9136V15.1321H64.363V14.9136H65.2419Z" fill="#2E353A"/>
<path d="M67.0919 14.9136V15.1321H66.2108V14.9136H67.0919Z" fill="#2E353A"/>
<path d="M81.7557 50.8303L79.2746 59.8516L81.6212 60.5007L81.7557 50.8303Z" fill="white" stroke="#2E353A" stroke-width="0.5" stroke-linecap="round" stroke-linejoin="round"/>
<path d="M82.8685 41.2956C82.5886 40.8902 82.4863 40.3982 82.5833 39.9232C82.7109 39.0337 83.8494 38.8305 83.8494 38.8305C83.8494 38.8305 84.0975 38.6535 85.0088 38.9791C85.9201 39.3047 92.9669 40.2051 97.47 40.7799C101.973 41.3546 103.432 40.9831 103.369 42.4408C103.306 43.8984 99.3552 56.9801 99.2949 57.391C99.2346 57.8018 82.8685 41.2956 82.8685 41.2956Z" fill="white" stroke="#2E353A" stroke-width="0.5" stroke-miterlimit="10"/>
<path d="M101.81 43.7161L82.8669 41.2959L79.8059 62.577L98.7488 64.9972L101.81 43.7161Z" fill="white" stroke="#2E353A" stroke-width="0.5" stroke-linecap="round" stroke-linejoin="round"/>
<path d="M98.2888 47.9609L99.3903 48.103" stroke="#2E353A" stroke-width="0.5" stroke-linecap="round" stroke-linejoin="round"/>
<path d="M91.39 47.0803L97.4165 47.8518" stroke="#2E353A" stroke-width="0.5" stroke-linecap="round" stroke-linejoin="round"/>
<path d="M84.0858 46.1472L90.5181 46.9689" stroke="#2E353A" stroke-width="0.5" stroke-linecap="round" stroke-linejoin="round"/>
<path d="M96.5638 49.6677L99.1191 49.9955" stroke="#2E353A" stroke-width="0.5" stroke-linecap="round" stroke-linejoin="round"/>
<path d="M83.8151 48.0396L93.9505 49.3333" stroke="#2E353A" stroke-width="0.5" stroke-linecap="round" stroke-linejoin="round"/>
<path d="M88.9582 50.6228L98.8479 51.886" stroke="#2E353A" stroke-width="0.5" stroke-linecap="round" stroke-linejoin="round"/>
<path d="M83.5414 49.9299L87.9401 50.4938" stroke="#2E353A" stroke-width="0.5" stroke-linecap="round" stroke-linejoin="round"/>
<path d="M92.2439 52.97L98.5742 53.7786" stroke="#2E353A" stroke-width="0.5" stroke-linecap="round" stroke-linejoin="round"/>
<path d="M86.8712 52.2815L91.5181 52.8759" stroke="#2E353A" stroke-width="0.5" stroke-linecap="round" stroke-linejoin="round"/>
<path d="M83.2699 51.8225L86.071 52.1809" stroke="#2E353A" stroke-width="0.5" stroke-linecap="round" stroke-linejoin="round"/>
<path d="M96.0373 55.3804L98.3028 55.6688" stroke="#2E353A" stroke-width="0.5" stroke-linecap="round" stroke-linejoin="round"/>
<path d="M82.9985 53.7151L94.5136 55.1859" stroke="#2E353A" stroke-width="0.5" stroke-linecap="round" stroke-linejoin="round"/>
<path d="M91.627 56.7419L98.0315 57.5615" stroke="#2E353A" stroke-width="0.5" stroke-linecap="round" stroke-linejoin="round"/>
<path d="M82.7248 55.6055L90.5368 56.6042" stroke="#2E353A" stroke-width="0.5" stroke-linecap="round" stroke-linejoin="round"/>
<path d="M93.6048 58.9229L97.7578 59.4517" stroke="#2E353A" stroke-width="0.5" stroke-linecap="round" stroke-linejoin="round"/>
<path d="M85.1827 57.8455L92.589 58.7917" stroke="#2E353A" stroke-width="0.5" stroke-linecap="round" stroke-linejoin="round"/>
<path d="M82.4534 57.498L84.3107 57.7341" stroke="#2E353A" stroke-width="0.5" stroke-linecap="round" stroke-linejoin="round"/>
<path d="M101.811 43.7168C101.811 43.7168 102.135 40.7491 103.295 41.9423" stroke="#2E353A" stroke-width="0.5" stroke-linecap="round" stroke-linejoin="round"/>
<path d="M95.3879 66.5783L95.367 68.4643L94.2007 66.9126L89.519 52.0717L90.7062 51.7373L95.3879 66.5783Z" fill="white" stroke="#2E353A" stroke-width="0.5" stroke-linecap="round" stroke-linejoin="round"/>
<path d="M90.2416 52.3715L89.5938 52.5496L94.1938 67.4137L94.8416 67.2356L90.2416 52.3715Z" fill="#FFD942" stroke="#2E353A" stroke-width="0.5" stroke-linecap="round" stroke-linejoin="round"/>
<path d="M95.388 66.5825L94.203 66.9147L95.3671 68.4641L95.388 66.5825Z" stroke="#2E353A" stroke-width="0.5" stroke-linecap="round" stroke-linejoin="round"/>
<path d="M94.7848 67.6883L95.3668 68.4641L95.3784 67.5222L94.7848 67.6883Z" fill="#2E353A" stroke="#2E353A" stroke-width="0.5" stroke-linecap="round" stroke-linejoin="round"/>
<path d="M89.5883 50.2426C89.4312 50.2872 89.2992 50.3884 89.221 50.5243C89.1428 50.6603 89.1248 50.8198 89.171 50.9682L89.5188 52.0718L90.706 51.7396L90.3582 50.636C90.3109 50.4879 90.2035 50.3635 90.0593 50.2898C89.9151 50.2161 89.7458 50.1992 89.5883 50.2426Z" fill="white" stroke="#2E353A" stroke-width="0.5" stroke-linecap="round" stroke-linejoin="round"/>
<path d="M89.5883 50.2426C89.4312 50.2872 89.2992 50.3884 89.221 50.5243C89.1428 50.6603 89.1248 50.8198 89.171 50.9682L89.3379 51.4948L90.5228 51.1627L90.3582 50.636C90.3109 50.4879 90.2035 50.3635 90.0593 50.2898C89.9151 50.2161 89.7458 50.1992 89.5883 50.2426Z" fill="#2E353A" stroke="#2E353A" stroke-width="0.5" stroke-linecap="round" stroke-linejoin="round"/>
<path d="M31.1978 41.4768C31.0494 41.6735 30.9033 41.8789 30.7572 42.0953" stroke="white" stroke-width="0.5" stroke-linecap="round" stroke-linejoin="round"/>
<path d="M33.6225 38.8457C32.9764 39.4101 32.3786 40.0218 31.8347 40.6749" stroke="white" stroke-width="0.5" stroke-linecap="round" stroke-linejoin="round"/>
<path d="M30.9911 40.0061C30.3576 40.8436 29.7836 41.7196 29.2729 42.6286" stroke="white" stroke-width="0.5" stroke-linecap="round" stroke-linejoin="round"/>
<path d="M47.345 44.8118C47.199 45.0085 47.0506 45.2139 46.9045 45.428" stroke="white" stroke-width="0.5" stroke-linecap="round" stroke-linejoin="round"/>
<path d="M49.7712 42.1807C49.1263 42.7455 48.5293 43.3571 47.9858 44.0098" stroke="white" stroke-width="0.5" stroke-linecap="round" stroke-linejoin="round"/>
<path d="M47.1414 43.3367C46.5082 44.1789 45.9343 45.0593 45.4232 45.9722" stroke="white" stroke-width="0.5" stroke-linecap="round" stroke-linejoin="round"/>
<path d="M70.4912 39.4028C70.2802 39.2673 70.0576 39.1318 69.828 38.9963" stroke="white" stroke-width="0.5" stroke-linecap="round" stroke-linejoin="round"/>
<path d="M73.3207 41.6495C72.7108 41.0509 72.0526 40.4977 71.352 39.9951" stroke="white" stroke-width="0.5" stroke-linecap="round" stroke-linejoin="round"/>
<path d="M72.0495 39.1845C71.1471 38.6005 70.2052 38.0727 69.2298 37.6045" stroke="white" stroke-width="0.5" stroke-linecap="round" stroke-linejoin="round"/>
<path d="M46.6405 52.9521C46.52 53.7739 46.3391 54.919 46.1582 55.5986" stroke="#2E353A" stroke-width="0.5" stroke-linecap="round" stroke-linejoin="round"/>
<path d="M46.7746 51.9536C46.7746 51.9536 46.7561 52.1088 46.7213 52.3601" stroke="#2E353A" stroke-width="0.5" stroke-linecap="round" stroke-linejoin="round"/>
<path d="M47.3938 54.2854C47.1406 55.0814 46.8308 55.8605 46.4663 56.6172" stroke="#2E353A" stroke-width="0.5" stroke-linecap="round" stroke-linejoin="round"/>
<path d="M58.9877 55.45C58.9877 55.45 59.143 57.3447 60.2236 58.3653" stroke="#2E353A" stroke-width="0.5" stroke-linecap="round" stroke-linejoin="round"/>
<path d="M58.8329 57.345C58.8329 57.345 59.2966 58.6562 60.2241 59.2397" stroke="#2E353A" stroke-width="0.5" stroke-linecap="round" stroke-linejoin="round"/>
<g style="mix-blend-mode:multiply">
<path d="M27.3362 67.4721C27.3362 67.4721 28.3657 66.6919 28.3657 59.985C28.3657 53.278 29.5506 48.3784 31.0114 46.2301C32.4723 44.0819 33.8381 43.2209 34.478 43.2209C35.118 43.2209 34.6589 43.9945 33.7476 45.1112C32.8363 46.2279 32.0155 46.8311 31.6491 48.2079C31.2827 49.5847 31.2851 51.3024 31.7419 51.1298C32.1987 50.9571 32.9268 47.5195 33.5644 46.2301C34.2021 44.9407 35.7557 43.3061 36.667 42.5325C37.5783 41.7588 39.5863 39.4379 40.4976 40.0389C41.4089 40.6399 40.864 41.501 40.3168 41.8441C39.7695 42.1872 37.5783 44.248 36.5765 45.5417C35.5748 46.8355 34.9348 50.0983 35.4821 50.1835C36.0293 50.2687 37.671 45.4565 38.5823 44.425C39.4936 43.3935 43.1434 40.5547 43.9642 40.4695C44.7851 40.3842 44.8778 41.5862 44.1474 42.1893C43.417 42.7925 40.9544 45.3691 40.1336 46.9163C39.3127 48.4636 38.9464 51.3024 39.6698 50.614C40.3933 49.9256 41.5851 47.089 42.5892 46.1427C43.5932 45.1964 46.603 42.1894 47.3334 42.5325C48.0639 42.8756 47.8807 43.7366 47.243 44.3376C46.6053 44.9386 44.1405 48.2079 43.5028 49.9256C42.8651 51.6433 42.1324 56.4599 42.4987 55.7737C42.8651 55.0875 44.05 51.5603 44.6877 50.0917C45.3254 48.6231 46.603 47.9435 46.7862 48.6297C46.9694 49.3159 46.603 49.6612 46.1462 51.2106C45.6894 52.7601 45.6825 56.8926 44.3236 59.2048C42.9648 61.5169 37.511 66.4646 36.7829 68.1823C36.2555 69.3655 35.6258 70.5057 34.9001 71.5915" fill="#FFD942"/>
</g>
<g style="mix-blend-mode:multiply">
<path d="M78.014 68.0534C78.014 68.0534 76.9589 66.6919 76.9589 59.985C76.9589 53.278 75.7717 48.3784 74.3132 46.2301C72.8547 44.0819 71.4843 43.2209 70.8466 43.2209C70.2089 43.2209 70.6634 43.9945 71.577 45.1112C72.4906 46.2279 73.3091 46.8311 73.6639 48.2079C74.0187 49.5847 74.0303 51.3024 73.5735 51.1298C73.1167 50.9571 72.3886 47.5195 71.7486 46.2301C71.1086 44.9407 69.5597 43.3061 68.6484 42.5325C67.7371 41.7588 65.729 39.4379 64.8154 40.0389C63.9018 40.6399 64.4514 41.501 64.9986 41.8441C65.5458 42.1872 67.7348 44.248 68.7388 45.5417C69.7428 46.8355 70.3805 50.0983 69.8333 50.1835C69.286 50.2687 67.6513 45.4565 66.74 44.4294C65.8287 43.4022 62.1766 40.559 61.3558 40.4738C60.5349 40.3886 60.4445 41.5906 61.1749 42.1937C61.9053 42.7969 64.3679 45.3735 65.1887 46.9207C66.0096 48.468 66.3736 51.3068 65.6525 50.6184C64.9313 49.93 63.7372 47.0934 62.7354 46.1471C61.7337 45.2008 58.7216 42.1937 57.9912 42.5368C57.2608 42.8799 57.4439 43.741 58.0816 44.342C58.7193 44.9429 61.1842 48.2123 61.8218 49.93C62.4595 51.6477 63.1899 56.4643 62.8259 55.7781C62.4618 55.0919 61.2746 51.5647 60.6369 50.0961C59.9993 48.6275 58.7216 47.9478 58.5384 48.6341C58.3552 49.3203 58.7216 49.6656 59.1761 51.215C59.6306 52.7644 59.6398 56.897 61.001 59.2091C62.3621 61.5213 67.6606 66.0341 68.391 67.754C69.1214 69.4739 70.4431 72.1838 70.4431 72.1838" fill="#FFD942"/>
</g>
<path d="M26.9884 69.1241C26.9884 69.1241 28.3565 64.9128 28.3565 58.1971C28.3565 51.4814 29.5414 46.5905 31.0023 44.4423C32.4631 42.2941 33.8289 41.433 34.4689 41.433C35.1089 41.433 34.6497 42.2066 33.7384 43.3234C32.8272 44.4401 32.0063 45.0433 31.6399 46.4179C31.2736 47.7925 31.2759 49.5146 31.7327 49.3419C32.1895 49.1693 32.9176 45.7317 33.5553 44.4423C34.1929 43.1529 35.7465 41.5182 36.6578 40.7446C37.5691 39.971 39.5772 37.6501 40.4885 38.2511C41.3997 38.8521 40.8548 39.7131 40.3076 40.0562C39.7604 40.3993 37.5691 42.4601 36.5674 43.7539C35.5657 45.0476 34.9257 48.3104 35.4729 48.3957C36.0201 48.4809 37.6618 43.6687 38.5731 42.635C39.4844 41.6013 43.1342 38.7668 43.9551 38.6816C44.7759 38.5964 44.8687 39.7983 44.1382 40.4015C43.4078 41.0047 40.9453 43.5813 40.1244 45.1285C39.3036 46.6758 38.9372 49.5146 39.6606 48.8262C40.3841 48.1378 41.576 45.3011 42.58 44.3549C43.584 43.4086 46.5938 40.4015 47.3243 40.7446C48.0547 41.0877 47.8715 41.9488 47.2338 42.5497C46.5962 43.1507 44.1313 46.4179 43.4936 48.1378C42.8559 49.8577 42.1232 54.6721 42.4896 53.9837C42.8559 53.2953 44.0408 49.7724 44.6785 48.3017C45.3162 46.8309 46.5938 46.1513 46.777 46.8397C46.9602 47.5281 46.5938 47.8712 46.137 49.4184C45.6802 50.9657 45.6733 55.1004 44.3145 57.4148C42.9557 59.7291 37.6549 66.0121 36.9245 67.732C36.194 69.4519 34.5523 73.2348 34.5523 73.2348" fill="white"/>
<path d="M26.9884 69.1241C26.9884 69.1241 28.3565 64.9128 28.3565 58.1971C28.3565 51.4814 29.5414 46.5905 31.0023 44.4423C32.4631 42.2941 33.8289 41.433 34.4689 41.433C35.1089 41.433 34.6497 42.2066 33.7384 43.3234C32.8272 44.4401 32.0063 45.0433 31.6399 46.4179C31.2736 47.7925 31.2759 49.5146 31.7327 49.3419C32.1895 49.1693 32.9176 45.7317 33.5553 44.4423C34.1929 43.1529 35.7465 41.5182 36.6578 40.7446C37.5691 39.971 39.5772 37.6501 40.4885 38.2511C41.3997 38.8521 40.8548 39.7131 40.3076 40.0562C39.7604 40.3993 37.5691 42.4601 36.5674 43.7539C35.5657 45.0476 34.9257 48.3104 35.4729 48.3957C36.0201 48.4809 37.6618 43.6687 38.5731 42.635C39.4844 41.6013 43.1342 38.7668 43.9551 38.6816C44.7759 38.5964 44.8687 39.7983 44.1382 40.4015C43.4078 41.0047 40.9453 43.5812 40.1244 45.1285C39.3036 46.6758 38.9372 49.5146 39.6606 48.8262C40.3841 48.1378 41.576 45.3011 42.58 44.3549C43.584 43.4086 46.5938 40.4015 47.3243 40.7446C48.0547 41.0877 47.8715 41.9488 47.2338 42.5497C46.5962 43.1507 44.1313 46.4179 43.4936 48.1378C42.8559 49.8577 42.1232 54.6721 42.4896 53.9837C42.8559 53.2953 44.0408 49.7724 44.6785 48.3017C45.3162 46.8309 46.5938 46.1513 46.777 46.8397C46.9602 47.5281 46.5938 47.8712 46.137 49.4184C45.6802 50.9657 45.6733 55.1004 44.3145 57.4148C42.9557 59.7291 37.6549 66.0121 36.9245 67.732C36.1941 69.4519 34.5523 73.2348 34.5523 73.2348" stroke="#2E353A" stroke-width="0.5" stroke-linecap="round" stroke-linejoin="round"/>
<path d="M78.3243 69.1241C78.3243 69.1241 76.9562 64.9128 76.9562 58.1971C76.9562 51.4814 75.7689 46.5905 74.3104 44.4423C72.8519 42.2941 71.4815 41.433 70.8438 41.433C70.2062 41.433 70.6606 42.2066 71.5742 43.3234C72.4878 44.4401 73.3064 45.0433 73.6612 46.4179C74.0159 47.7925 74.0275 49.5146 73.5707 49.3419C73.1139 49.1693 72.3858 45.7317 71.7458 44.4423C71.1058 43.1529 69.5569 41.5182 68.6456 40.7446C67.7343 39.971 65.7262 37.6501 64.8126 38.2511C63.899 38.8521 64.4486 39.7131 64.9958 40.0562C65.5431 40.3993 67.732 42.4601 68.736 43.7539C69.7401 45.0476 70.3777 48.3104 69.8305 48.3957C69.2833 48.4809 67.6416 43.6687 66.7303 42.635C65.819 41.6013 62.1669 38.7668 61.346 38.6816C60.5252 38.5964 60.4348 39.7983 61.1652 40.4015C61.8956 41.0047 64.3582 43.5813 65.179 45.1285C65.9999 46.6758 66.3639 49.5146 65.6428 48.8262C64.9216 48.1378 63.7274 45.3011 62.7257 44.3549C61.724 43.4086 58.7119 40.4015 57.9815 40.7446C57.251 41.0877 57.4342 41.9488 58.0719 42.5497C58.7096 43.1507 61.1744 46.4179 61.8121 48.1378C62.4498 49.8577 63.1802 54.6721 62.8162 53.9837C62.4521 53.2953 61.2649 49.7724 60.6272 48.3017C59.9895 46.8309 58.7119 46.1513 58.5287 46.8397C58.3455 47.5281 58.7119 47.8712 59.1664 49.4184C59.6209 50.9657 59.6301 55.1004 60.9913 57.4148C62.3524 59.7291 67.6508 66.0121 68.3813 67.732C69.1117 69.4519 70.7534 73.2348 70.7534 73.2348" fill="white"/>
<path d="M78.3243 69.1241C78.3243 69.1241 76.9562 64.9128 76.9562 58.1971C76.9562 51.4814 75.7689 46.5905 74.3104 44.4423C72.8519 42.2941 71.4815 41.433 70.8438 41.433C70.2062 41.433 70.6606 42.2066 71.5742 43.3234C72.4878 44.4401 73.3064 45.0433 73.6612 46.4179C74.0159 47.7925 74.0275 49.5146 73.5707 49.3419C73.1139 49.1693 72.3858 45.7317 71.7458 44.4423C71.1058 43.1529 69.5569 41.5182 68.6456 40.7446C67.7343 39.971 65.7262 37.6501 64.8126 38.2511C63.899 38.8521 64.4486 39.7131 64.9958 40.0562C65.5431 40.3993 67.732 42.4601 68.736 43.7539C69.7401 45.0476 70.3777 48.3104 69.8305 48.3957C69.2833 48.4809 67.6416 43.6687 66.7303 42.635C65.819 41.6013 62.1669 38.7668 61.346 38.6816C60.5252 38.5964 60.4348 39.7983 61.1652 40.4015C61.8956 41.0047 64.3582 43.5812 65.179 45.1285C65.9999 46.6758 66.3639 49.5146 65.6428 48.8262C64.9216 48.1378 63.7274 45.3011 62.7257 44.3549C61.724 43.4086 58.7119 40.4015 57.9815 40.7446C57.251 41.0877 57.4342 41.9488 58.0719 42.5497C58.7096 43.1507 61.1744 46.4179 61.8121 48.1378C62.4498 49.8577 63.1802 54.6721 62.8162 53.9837C62.4521 53.2953 61.2649 49.7724 60.6272 48.3017C59.9895 46.8309 58.7119 46.1513 58.5287 46.8397C58.3455 47.5281 58.7119 47.8712 59.1664 49.4184C59.6209 50.9657 59.6301 55.1004 60.9913 57.4148C62.3524 59.7291 67.6508 66.0121 68.3813 67.732C69.1117 69.4519 70.7534 73.2348 70.7534 73.2348" stroke="#2E353A" stroke-width="0.5" stroke-linecap="round" stroke-linejoin="round"/>
<path d="M21.2149 82.2364H35.1277C35.3086 81.5808 35.5358 80.8465 35.8233 80.051C36.9178 76.9608 40.4609 73.0971 40.4609 73.0971C37.9215 70.9893 34.9375 69.4118 31.7051 68.4684C26.3719 66.9212 22.4671 67.3757 22.4671 67.3757C23.1859 70.169 23.2649 73.0745 22.6989 75.8988C22.0033 79.0807 21.5396 81.0934 21.2149 82.2364Z" fill="#2E353A" stroke="#2E353A" stroke-width="0.5" stroke-linecap="round" stroke-linejoin="round"/>
<path d="M70.0954 82.2363H84.5508C84.087 81.1043 83.0853 78.6457 82.0836 76.1871C80.7155 72.8391 81.2627 68.3329 80.7155 68.3329C80.1683 68.3329 74.0211 67.946 71.016 68.8464C68.0108 69.7468 64.5929 72.3234 64.5929 72.3234C66.1402 74.0177 67.4703 75.8779 68.5557 77.8655C69.2535 79.2588 69.7704 80.7263 70.0954 82.2363Z" fill="#2E353A" stroke="#2E353A" stroke-width="0.5" stroke-linecap="round" stroke-linejoin="round"/>
<path d="M29.9057 70.0419C29.806 69.6704 28.322 70.2299 28.322 70.2299C28.322 70.2299 28.8182 68.4597 28.0275 68.4597C27.2368 68.4597 27.1371 69.7709 27.1371 69.7709C27.1371 69.7709 25.6531 69.2137 25.6531 70.0507C25.6531 70.8877 26.6409 70.8724 26.6409 70.8724C26.6409 70.8724 25.4536 72.271 26.3441 72.5486C27.2345 72.8261 27.8258 71.8034 27.8258 71.8034C27.8258 71.8034 28.4194 72.7365 29.2171 72.3628C30.0147 71.9891 29.4142 71.1521 29.4142 71.1521C29.4142 71.1521 30.0031 70.4156 29.9057 70.0419ZM27.9278 71.4406C27.8532 71.4249 27.7847 71.3897 27.7304 71.339C27.6761 71.2883 27.638 71.2242 27.6207 71.154C27.6034 71.0838 27.6074 71.0104 27.6324 70.9423C27.6574 70.8742 27.7023 70.8142 27.7619 70.769C27.8215 70.7239 27.8934 70.6956 27.9694 70.6873C28.0454 70.6791 28.1222 70.6912 28.1912 70.7223C28.2602 70.7535 28.3184 70.8023 28.3592 70.8633C28.4 70.9242 28.4216 70.9948 28.4217 71.0669C28.405 71.1766 28.3447 71.2762 28.253 71.3456C28.1613 71.415 28.0451 71.4489 27.9278 71.4406ZM32.0808 80.4881C31.9811 80.1166 30.497 80.676 30.497 80.676C30.497 80.676 30.9932 78.9059 30.2002 78.9059C29.4072 78.9059 29.3121 80.2171 29.3121 80.2171C29.3121 80.2171 27.8281 79.6576 27.8281 80.4946C27.8281 81.3316 28.8182 81.3338 28.8182 81.3338C28.8182 81.3338 27.631 82.7325 28.5214 83.0122C29.4118 83.2919 30.0031 82.2648 30.0031 82.2648C30.0031 82.2648 30.5967 83.198 31.3944 82.8243C32.1921 82.4506 31.5915 81.6136 31.5915 81.6136C31.5915 81.6136 32.1782 80.8509 32.0808 80.4881ZM30.1028 81.8867C30.0282 81.8711 29.9598 81.8359 29.9054 81.7852C29.8511 81.7345 29.8131 81.6703 29.7957 81.6002C29.7784 81.53 29.7824 81.4566 29.8074 81.3885C29.8324 81.3204 29.8773 81.2603 29.9369 81.2152C29.9965 81.1701 30.0685 81.1418 30.1444 81.1335C30.2204 81.1252 30.2973 81.1374 30.3662 81.1685C30.4352 81.1996 30.4934 81.2485 30.5342 81.3094C30.575 81.3704 30.5967 81.441 30.5967 81.513C30.58 81.6219 30.5192 81.7204 30.4272 81.788C30.3351 81.8556 30.2189 81.8871 30.1028 81.8758V81.8867ZM23.3783 81.8867C23.2786 81.513 21.7969 82.0725 21.7969 82.0725C21.7969 82.0725 22.2908 80.3023 21.5001 80.3023C20.7094 80.3023 20.6097 81.6136 20.6097 81.6136C20.6097 81.6136 19.1257 81.0541 19.1257 81.8933C19.1257 82.7325 20.1158 82.7325 20.1158 82.7325C20.1158 82.7325 18.9286 84.1289 19.819 84.4087C20.7094 84.6884 21.3007 83.6635 21.3007 83.6635C21.3007 83.6635 21.8943 84.5944 22.692 84.2229C23.4896 83.8514 22.8914 83.0122 22.8914 83.0122C22.8914 83.0122 23.478 82.2473 23.3806 81.8758L23.3783 81.8867ZM21.4004 83.2832C21.3257 83.2675 21.2572 83.2323 21.2028 83.1814C21.1484 83.1306 21.1104 83.0664 21.0932 82.9961C21.0759 82.9258 21.0801 82.8523 21.1053 82.7842C21.1304 82.716 21.1755 82.656 21.2354 82.611C21.2952 82.566 21.3673 82.5378 21.4434 82.5298C21.5195 82.5218 21.5965 82.5342 21.6654 82.5657C21.7343 82.5971 21.7923 82.6463 21.8328 82.7075C21.8734 82.7688 21.8947 82.8395 21.8943 82.9117C21.877 83.0197 21.8164 83.1174 21.7249 83.1845C21.6334 83.2516 21.5181 83.283 21.4027 83.2723L21.4004 83.2832ZM34.1538 74.6181H35.2413C36.032 74.6181 36.5259 75.4573 36.5259 75.4573C34.8471 75.9119 34.1561 74.6072 34.1561 74.6072L34.1538 74.6181ZM33.0663 81.8867H34.1538C34.9445 81.8867 35.4384 82.7259 35.4384 82.7259C33.7596 83.1805 33.0686 81.8758 33.0686 81.8758L33.0663 81.8867ZM23.5777 80.4881H24.6653C25.456 80.4881 25.9499 81.3273 25.9499 81.3273C24.2687 81.7818 23.5777 80.4881 23.5777 80.4881ZM28.8345 73.9123L29.4698 74.7449C29.9336 75.3524 29.4953 76.2178 29.4953 76.2178C28.1133 75.1929 28.8345 73.9013 28.8345 73.9013V73.9123ZM23.3946 76.6964L23.8908 75.7851C24.2548 75.1295 25.2705 75.0902 25.2705 75.0902C24.9296 76.7117 23.3946 76.6964 23.3946 76.6964Z" fill="white"/>
<path d="M76.4696 71.8122C76.3699 71.4407 74.8859 72.0001 74.8859 72.0001C74.8859 72.0001 75.3821 70.23 74.5914 70.23C73.8007 70.23 73.701 71.5412 73.701 71.5412C73.701 71.5412 72.2169 70.9839 72.2169 71.8209C72.2169 72.6579 73.2071 72.6601 73.2071 72.6601C73.2071 72.6601 72.0198 74.0588 72.9103 74.3385C73.8007 74.6182 74.392 73.5911 74.392 73.5911C74.392 73.5911 74.9856 74.5243 75.7832 74.1506C76.5809 73.7769 75.9803 72.9399 75.9803 72.9399C75.9803 72.9399 76.567 72.1837 76.4696 71.8122ZM74.4917 73.2109C74.417 73.1952 74.3486 73.16 74.2943 73.1093C74.2399 73.0586 74.2019 72.9945 74.1846 72.9243C74.1672 72.8541 74.1713 72.7807 74.1963 72.7126C74.2212 72.6445 74.2661 72.5844 74.3258 72.5393C74.3854 72.4942 74.4573 72.4659 74.5333 72.4576C74.6092 72.4493 74.6861 72.4615 74.7551 72.4926C74.824 72.5237 74.8823 72.5726 74.923 72.6336C74.9638 72.6945 74.9855 72.7651 74.9856 72.8371C74.9716 72.948 74.912 73.0492 74.8197 73.1191C74.7273 73.189 74.6095 73.2219 74.4917 73.2109ZM81.1142 79.0808C81.0168 78.7071 79.5327 79.2666 79.5327 79.2666C79.5327 79.2666 80.0266 77.4964 79.2359 77.4964C78.4452 77.4964 78.3478 78.8076 78.3478 78.8076C78.3478 78.8076 76.8638 78.2482 76.8638 79.0874C76.8638 79.9265 77.8516 79.9265 77.8516 79.9265C77.8516 79.9265 76.6667 81.323 77.5571 81.6027C78.4475 81.8825 79.0388 80.8575 79.0388 80.8575C79.0388 80.8575 79.6324 81.7885 80.4301 81.417C81.2278 81.0455 80.6272 80.2063 80.6272 80.2063C80.6272 80.2063 81.2139 79.4523 81.1142 79.0808ZM79.1385 80.4882C79.0638 80.4725 78.9953 80.4372 78.9409 80.3864C78.8866 80.3356 78.8486 80.2714 78.8313 80.2011C78.8141 80.1308 78.8183 80.0573 78.8434 79.9892C78.8686 79.921 78.9137 79.861 78.9735 79.816C79.0334 79.7709 79.1055 79.7428 79.1816 79.7348C79.2577 79.7268 79.3346 79.7392 79.4035 79.7707C79.4724 79.8021 79.5305 79.8513 79.571 79.9125C79.6115 79.9737 79.6328 80.0445 79.6324 80.1167C79.6179 80.2271 79.5581 80.3278 79.4658 80.3972C79.3735 80.4667 79.256 80.4993 79.1385 80.4882ZM76.1728 81.8868C76.0731 81.5131 74.5914 82.0726 74.5914 82.0726C74.5914 82.0726 75.0853 80.3024 74.2946 80.3024C73.5039 80.3024 73.4042 81.6137 73.4042 81.6137C73.4042 81.6137 71.9201 81.0542 71.9201 81.8934C71.9201 82.7326 72.9103 82.7326 72.9103 82.7326C72.9103 82.7326 71.723 84.129 72.6135 84.4088C73.5039 84.6885 74.0952 83.6636 74.0952 83.6636C74.0952 83.6636 74.6888 84.5945 75.4864 84.223C76.2841 83.8515 75.6859 83.0123 75.6859 83.0123C75.6859 83.0123 76.2632 82.2474 76.1728 81.8759V81.8868ZM74.1949 83.2833C74.1201 83.2676 74.0516 83.2324 73.9973 83.1815C73.9429 83.1307 73.9049 83.0665 73.8876 82.9962C73.8704 82.9259 73.8746 82.8524 73.8998 82.7843C73.9249 82.7161 73.97 82.6561 74.0299 82.6111C74.0897 82.5661 74.1618 82.5379 74.2379 82.5299C74.314 82.5219 74.3909 82.5343 74.4598 82.5658C74.5288 82.5972 74.5868 82.6464 74.6273 82.7076C74.6678 82.7688 74.6891 82.8396 74.6888 82.9118C74.6715 83.0202 74.6105 83.1182 74.5185 83.1854C74.4265 83.2526 74.3106 83.2837 74.1949 83.2724V83.2833ZM80.72 76.3884H81.8075C82.5982 76.3884 83.0921 77.2276 83.0921 77.2276C81.411 77.6821 80.72 76.3775 80.72 76.3775V76.3884ZM69.0541 81.6901H70.1416C70.9323 81.6901 71.4262 82.5272 71.4262 82.5272C69.7451 82.9948 69.0541 81.6901 69.0541 81.6901ZM75.3983 75.6803L76.0337 76.513C76.4974 77.1205 76.0592 77.9859 76.0592 77.9859C74.6772 76.9632 75.3983 75.6803 75.3983 75.6803ZM81.8283 80.8903L82.4614 81.7229C82.9251 82.3283 82.4869 83.1959 82.4869 83.1959C81.1049 82.1797 81.8283 80.8903 81.8283 80.8903ZM69.9492 78.4667L70.4454 77.5554C70.8094 76.8998 71.8367 76.8604 71.8367 76.8604C71.4935 78.482 69.9468 78.4667 69.9468 78.4667H69.9492Z" fill="white"/>
</svg>
