<svg width="105" height="85" viewBox="0 0 105 85" fill="none" xmlns="http://www.w3.org/2000/svg">
<path d="M47.8441 71.1413L30.3336 78.1684L10.0176 57.7905L23.3278 55.8591L47.8441 71.1413Z" fill="#FFD942"/>
<path opacity="0.5" d="M47.8441 71.1413L30.3336 78.1684L10.0176 57.7905L23.3278 55.8591L47.8441 71.1413Z" fill="white"/>
<path d="M69.3841 80.4528C71.7053 80.4528 73.5871 79.1942 73.5871 77.6415C73.5871 76.0888 71.7053 74.8301 69.3841 74.8301C67.0629 74.8301 65.1812 76.0888 65.1812 77.6415C65.1812 79.1942 67.0629 80.4528 69.3841 80.4528Z" fill="#FFD942"/>
<path opacity="0.5" d="M69.3841 80.4528C71.7053 80.4528 73.5871 79.1942 73.5871 77.6415C73.5871 76.0888 71.7053 74.8301 69.3841 74.8301C67.0629 74.8301 65.1812 76.0888 65.1812 77.6415C65.1812 79.1942 67.0629 80.4528 69.3841 80.4528Z" fill="white"/>
<path d="M52.9245 61.6797L78.5835 63.719L72.8885 60.7786L52.9245 61.6797Z" fill="#FFD942"/>
<path opacity="0.5" d="M52.9245 61.6797L78.5835 63.719L72.8885 60.7786L52.9245 61.6797Z" fill="white"/>
<path d="M58.7036 53.7513L51.091 53.1269L52.0472 51.9939H56.4261L58.7036 53.7513Z" fill="#FFD942"/>
<path opacity="0.5" d="M58.7036 53.7513L51.091 53.1269L52.0472 51.9939H56.4261L58.7036 53.7513Z" fill="white"/>
<path d="M83.3884 84.2287C86.3378 84.2287 88.7288 82.7742 88.7288 80.98C88.7288 79.1857 86.3378 77.7312 83.3884 77.7312C80.439 77.7312 78.048 79.1857 78.048 80.98C78.048 82.7742 80.439 84.2287 83.3884 84.2287Z" fill="#FFD942"/>
<path opacity="0.5" d="M83.3884 84.2287C86.3378 84.2287 88.7288 82.7742 88.7288 80.98C88.7288 79.1857 86.3378 77.7312 83.3884 77.7312C80.439 77.7312 78.048 79.1857 78.048 80.98C78.048 82.7742 80.439 84.2287 83.3884 84.2287Z" fill="white"/>
<path d="M51.7424 73.4363L48.866 78.1764L55.2361 79.4148L57.7027 74.6747L51.7424 73.4363Z" fill="white" stroke="#263238" stroke-width="0.5" stroke-linecap="round" stroke-linejoin="round"/>
<path d="M56.6754 68.0796L53.799 72.406L59.7567 74.2609L62.2233 69.9345L56.6754 68.0796Z" fill="#FFD942"/>
<path opacity="0.5" d="M56.6754 68.0796L53.799 72.406L59.7567 74.2609L62.2233 69.9345L56.6754 68.0796Z" fill="white" stroke="#263238" stroke-width="0.5" stroke-miterlimit="10"/>
<path d="M56.6754 68.0796L53.799 72.406L59.7567 74.2609L62.2233 69.9345L56.6754 68.0796Z" stroke="#263238" stroke-width="0.5" stroke-linecap="round" stroke-linejoin="round"/>
<path d="M63.0454 76.324L57.9073 77.7652L59.9615 81.0641L65.9218 79.6202L63.0454 76.324Z" fill="#FFD942" stroke="#263238" stroke-width="0.5" stroke-linecap="round" stroke-linejoin="round"/>
<path d="M77.703 75.478L78.2284 79.4804C78.2284 81.1377 80.2379 82.4841 82.7176 82.4841C85.1974 82.4841 87.2095 81.1377 87.2095 79.4804L87.7507 75.478H77.703Z" fill="#FFD942" stroke="#263238" stroke-width="0.5" stroke-linecap="round" stroke-linejoin="round"/>
<path d="M82.7237 78.8427C85.5019 78.8427 87.7541 77.3363 87.7541 75.478C87.7541 73.6197 85.5019 72.1133 82.7237 72.1133C79.9455 72.1133 77.6933 73.6197 77.6933 75.478C77.6933 77.3363 79.9455 78.8427 82.7237 78.8427Z" fill="#FFD942" stroke="#263238" stroke-width="0.5" stroke-linecap="round" stroke-linejoin="round"/>
<path d="M82.7239 78.3396C85.0872 78.3396 87.003 77.0585 87.003 75.4781C87.003 73.8978 85.0872 72.6167 82.7239 72.6167C80.3606 72.6167 78.4448 73.8978 78.4448 75.4781C78.4448 77.0585 80.3606 78.3396 82.7239 78.3396Z" fill="#FFD942" stroke="#263238" stroke-width="0.5" stroke-linecap="round" stroke-linejoin="round"/>
<path d="M82.7236 78.3421C85.0463 78.3421 86.9292 77.2922 86.9292 75.9971C86.9292 74.702 85.0463 73.6521 82.7236 73.6521C80.4009 73.6521 78.5181 74.702 78.5181 75.9971C78.5181 77.2922 80.4009 78.3421 82.7236 78.3421Z" fill="#263238" stroke="#263238" stroke-width="0.5" stroke-linecap="round" stroke-linejoin="round"/>
<path d="M84.2393 67.7975C83.509 67.3259 82.4005 67.368 81.9566 68.2402C81.2999 69.5102 81.7701 71.8631 81.5337 72.1924C81.2972 72.5218 80.5959 72.6167 80.2675 71.9105C79.9392 71.2044 79.9392 70.2637 79.5162 70.2163C79.0933 70.1689 78.5312 70.3586 78.4366 71.4415C78.342 72.5244 78.5312 73.747 79.2825 74.3109C80.0337 74.8747 80.8769 74.6876 81.1212 74.9248C81.3655 75.1619 81.1212 75.5308 81.1212 75.7732C81.1212 76.8271 82.4951 77.3541 83.3646 77.0906C84.6307 76.7138 84.4915 75.4412 84.678 74.9248C84.8645 74.4083 85.8995 74.3583 86.2751 73.5599C86.6507 72.7616 87.2129 71.1569 86.4143 70.5457C85.6158 69.9344 85.0063 70.2163 84.9144 70.875C84.8051 71.3981 84.6285 71.9047 84.389 72.3822C84.9512 71.2676 85.5028 68.6143 84.2393 67.7975Z" fill="#FFD942"/>
<path opacity="0.2" d="M84.2393 67.7975C83.509 67.3259 82.4005 67.368 81.9566 68.2402C81.2999 69.5102 81.7701 71.8631 81.5337 72.1924C81.2972 72.5218 80.5959 72.6167 80.2675 71.9105C79.9392 71.2044 79.9392 70.2637 79.5162 70.2163C79.0933 70.1689 78.5312 70.3586 78.4366 71.4415C78.342 72.5244 78.5312 73.747 79.2825 74.3109C80.0337 74.8747 80.8769 74.6876 81.1212 74.9248C81.3655 75.1619 81.1212 75.5308 81.1212 75.7732C81.1212 76.8271 82.4951 77.3541 83.3646 77.0906C84.6307 76.7138 84.4915 75.4412 84.678 74.9248C84.8645 74.4083 85.8995 74.3583 86.2751 73.5599C86.6507 72.7616 87.2129 71.1569 86.4143 70.5457C85.6158 69.9344 85.0063 70.2163 84.9144 70.875C84.8051 71.3981 84.6285 71.9047 84.389 72.3822C84.9512 71.2676 85.5028 68.6143 84.2393 67.7975Z" fill="black"/>
<path d="M84.2393 67.7975C83.509 67.3259 82.4005 67.368 81.9566 68.2402C81.2999 69.5102 81.7701 71.8631 81.5337 72.1924C81.2972 72.5218 80.5959 72.6167 80.2675 71.9105C79.9392 71.2044 79.9392 70.2637 79.5162 70.2163C79.0933 70.1689 78.5312 70.3586 78.4366 71.4415C78.342 72.5244 78.5312 73.747 79.2825 74.3109C80.0337 74.8747 80.8769 74.6876 81.1212 74.9248C81.3655 75.1619 81.1212 75.5308 81.1212 75.7732C81.1212 76.8271 82.4951 77.3541 83.3646 77.0906C84.6307 76.7138 84.4915 75.4412 84.678 74.9248C84.8645 74.4083 85.8995 74.3583 86.2751 73.5599C86.6507 72.7616 87.2129 71.1569 86.4143 70.5457C85.6158 69.9344 85.0063 70.2163 84.9144 70.875C84.8051 71.3981 84.6285 71.9047 84.389 72.3822C84.9512 71.2676 85.5028 68.6143 84.2393 67.7975Z" stroke="#263238" stroke-width="0.5" stroke-linecap="round" stroke-linejoin="round"/>
<path d="M83.0834 68.1453C82.8703 68.2859 82.6919 68.4734 82.5618 68.6934C82.4316 68.9134 82.3531 69.1603 82.3321 69.4153C82.2848 70.2637 82.3321 72.946 82.0037 73.3227C81.6754 73.6995 80.5958 73.6047 79.9023 72.946C79.2088 72.2872 79.5161 70.8776 79.5161 70.8776" stroke="#263238" stroke-width="0.5" stroke-linecap="round" stroke-linejoin="round"/>
<path d="M79.7242 73.7759C79.9675 73.9658 80.2489 74.1006 80.549 74.1711C81.3949 74.3582 82.0043 73.9366 82.1462 74.3582C82.288 74.7798 82.0043 76.2895 82.0043 76.2895" stroke="#263238" stroke-width="0.5" stroke-linecap="round" stroke-linejoin="round"/>
<path d="M79.2352 73.2754C79.3226 73.3991 79.423 73.513 79.5346 73.6153" stroke="#263238" stroke-width="0.5" stroke-linecap="round" stroke-linejoin="round"/>
<path d="M83.0675 75.5178C83.1149 74.8161 83.1201 74.1122 83.0832 73.4099C82.9992 72.3559 83.4878 70.3982 83.6086 69.5129" stroke="#263238" stroke-width="0.5" stroke-linecap="round" stroke-linejoin="round"/>
<path d="M82.989 76.6189C82.989 76.6189 83.0152 76.3317 83.0441 75.9102" stroke="#263238" stroke-width="0.5" stroke-linecap="round" stroke-linejoin="round"/>
<path d="M86.238 71.9026C86.2616 71.6733 86.2748 71.5337 86.2748 71.5337" stroke="#263238" stroke-width="0.5" stroke-linecap="round" stroke-linejoin="round"/>
<path d="M84.0209 75.7705C84.0209 75.7705 84.21 74.2186 84.5857 73.9261C84.9613 73.6337 86.0383 73.4545 86.1329 72.7484C86.1486 72.6377 86.1618 72.5323 86.1749 72.4348" stroke="#263238" stroke-width="0.5" stroke-linecap="round" stroke-linejoin="round"/>
<path d="M85.6185 70.9224C85.5201 70.9886 85.4416 71.0805 85.3916 71.1883C85.3416 71.296 85.322 71.4155 85.3348 71.5336C85.3541 71.8157 85.2942 72.0976 85.1619 72.3472C85.0296 72.5968 84.8301 72.8042 84.5862 72.9459" stroke="#263238" stroke-width="0.5" stroke-linecap="round" stroke-linejoin="round"/>
<path d="M83.6613 68.9753C83.6753 68.7118 83.6701 68.4476 83.6455 68.1848" stroke="#263238" stroke-width="0.5" stroke-linecap="round" stroke-linejoin="round"/>
<path d="M65.7721 67.9429L66.4683 75.2941V76.0714C66.4683 77.1253 67.9445 77.9606 69.7676 77.9606C71.5906 77.9606 73.0669 77.1148 73.0669 76.0714V75.2941L73.7 67.8665L65.7721 67.9429Z" fill="white" stroke="#263238" stroke-width="0.5" stroke-linecap="round" stroke-linejoin="round"/>
<path d="M73.0982 74.8963L73.4634 70.6147C72.9722 71.3814 71.5064 71.9321 69.7727 71.9321C67.947 71.9321 66.4208 71.3156 66.0137 70.4856L66.4287 74.87C67.1012 75.4312 68.3437 75.8106 69.7727 75.8106C71.2017 75.8106 72.4258 75.4496 73.0982 74.8963Z" fill="#FFD942" stroke="#263238" stroke-width="0.5" stroke-linecap="round" stroke-linejoin="round"/>
<path d="M65.9035 69.3288V69.2787L65.8693 68.9836L65.9035 69.3288Z" fill="white" stroke="#263238" stroke-width="0.5" stroke-linecap="round" stroke-linejoin="round"/>
<path d="M73.8262 66.8522C73.1275 65.9668 71.575 65.3477 69.7678 65.3477C67.9605 65.3477 66.408 65.9668 65.7067 66.8522H65.31V67.9061C65.31 69.3184 67.3064 70.4619 69.7756 70.4619C72.2449 70.4619 74.2413 69.3184 74.2413 67.9061V66.8522H73.8262Z" fill="#FFD942" stroke="#263238" stroke-width="0.5" stroke-linecap="round" stroke-linejoin="round"/>
<path opacity="0.2" d="M73.8262 66.8522C73.1275 65.9668 71.575 65.3477 69.7678 65.3477C67.9605 65.3477 66.408 65.9668 65.7067 66.8522H65.31V67.9061C65.31 69.3184 67.3064 70.4619 69.7756 70.4619C72.2449 70.4619 74.2413 69.3184 74.2413 67.9061V66.8522H73.8262Z" fill="black"/>
<path d="M69.7678 69.408C72.2297 69.408 74.2255 68.2637 74.2255 66.8522C74.2255 65.4407 72.2297 64.2964 69.7678 64.2964C67.3058 64.2964 65.31 65.4407 65.31 66.8522C65.31 68.2637 67.3058 69.408 69.7678 69.408Z" fill="white" stroke="#263238" stroke-width="0.5" stroke-linecap="round" stroke-linejoin="round"/>
<path d="M73.3141 65.4266C72.7021 64.6519 71.3466 64.1091 69.7679 64.1091C68.1892 64.1091 66.8337 64.6493 66.2217 65.4266H65.8828V66.3435C65.8828 67.5766 67.6244 68.5752 69.7758 68.5752C71.9272 68.5752 73.6688 67.5766 73.6688 66.3435V65.4266H73.3141Z" fill="#FFD942" stroke="#263238" stroke-width="0.5" stroke-linecap="round" stroke-linejoin="round"/>
<path d="M69.7676 67.6583C71.9176 67.6583 73.6605 66.6591 73.6605 65.4265C73.6605 64.194 71.9176 63.1948 69.7676 63.1948C67.6175 63.1948 65.8746 64.194 65.8746 65.4265C65.8746 66.6591 67.6175 67.6583 69.7676 67.6583Z" fill="white" stroke="#263238" stroke-width="0.5" stroke-linecap="round" stroke-linejoin="round"/>
<path d="M30.4751 43.7549C30.4751 43.7549 30.7799 43.552 32.7132 44.3662C34.6466 45.1803 35.4057 45.0038 37.2865 44.6718C39.5456 44.2766 41.4212 43.8813 41.6471 44.7983C42.0385 46.3792 40.4571 46.3607 37.6123 46.6664C34.7674 46.972 33.1177 46.0999 32.2036 45.6915C31.7828 45.5182 31.3754 45.3139 30.9847 45.0802L30.4751 43.7549Z" fill="white" stroke="#263238" stroke-width="0.5" stroke-linecap="round" stroke-linejoin="round"/>
<path d="M26.1042 44.5715C26.1042 44.5715 28.647 47.5278 29.7634 46.711C30.8798 45.8942 30.78 43.2462 29.7634 42.4294C28.7468 41.6126 25.902 43.1434 26.1042 44.5715Z" fill="white" stroke="#263238" stroke-width="0.5" stroke-linecap="round" stroke-linejoin="round"/>
<path d="M33.8352 36.414C33.8352 36.414 33.9376 39.1674 33.2257 41.0013C32.5139 42.8351 31.1926 44.0603 30.9903 45.08C30.788 46.0997 30.8879 47.5278 29.8713 47.9362C28.8547 48.3446 28.8547 47.6306 28.9571 46.8138C29.0596 45.997 29.2618 42.9405 29.2618 42.9405L25.9021 44.9773C25.9021 44.9773 26.8163 47.5278 24.8855 47.8335C22.9548 48.1391 20.6169 45.1828 20.3122 42.9484C20.0075 40.7141 21.2263 35.7079 23.362 34.3825C25.4976 33.0572 28.24 33.2627 29.6664 33.2627C31.0928 33.2627 33.2205 34.2745 33.8352 36.414Z" fill="white" stroke="#263238" stroke-width="0.5" stroke-linecap="round" stroke-linejoin="round"/>
<path d="M25.7314 33.5842C25.7314 33.5842 25.206 33.8477 24.2892 35.2943C23.3725 36.7408 25.206 37.9871 26.1911 37.331C27.1761 36.6749 26.3198 35.2943 27.0422 34.6355C27.4577 34.2819 27.7366 33.7934 27.8302 33.2549L25.7314 33.5842Z" fill="#263238"/>
<path d="M22.7838 35.6209C22.5489 35.7891 22.3517 36.0047 22.2047 36.2538C22.0577 36.5029 21.9641 36.78 21.9301 37.0675C21.8644 37.987 23.5062 36.277 23.7006 35.4866C23.895 34.6961 22.7838 35.6209 22.7838 35.6209Z" fill="#263238"/>
<path d="M28.6469 33.5604C28.4138 33.9852 28.3002 34.4655 28.3182 34.9501C28.3362 35.4346 28.4853 35.9051 28.7494 36.3112C29.6635 37.7393 31.6967 38.3506 32.5084 37.3309C33.3201 36.3112 33.6274 35.8027 33.3227 35.2942C33.018 34.7857 30.0707 32.7436 28.6469 33.5604Z" fill="#FFD942" stroke="#263238" stroke-width="0.5" stroke-linecap="round" stroke-linejoin="round"/>
<path d="M36.168 28.5643C35.7821 28.6063 35.3918 28.5643 35.0237 28.441C34.6555 28.3178 34.3183 28.1163 34.035 27.8502C33.0184 26.9333 32.1016 24.8939 31.6971 24.994C31.2926 25.0942 29.8583 28.0531 29.8583 28.0531C29.8583 28.0531 27.418 28.2586 27.2157 28.97C27.0134 29.6814 28.1298 33.0488 29.0545 34.4769C29.4857 35.113 30.0597 35.6387 30.7304 36.0116C31.401 36.3846 32.1497 36.5944 32.9159 36.6243C34.1348 36.6243 37.794 36.9299 38.3036 35.7047C38.8132 34.4795 38.4034 30.8118 38.4034 30.8118C38.4034 30.8118 40.0321 29.1808 39.3202 28.8752C38.6083 28.5695 36.168 28.5643 36.168 28.5643Z" fill="white" stroke="#263238" stroke-width="0.5" stroke-linecap="round" stroke-linejoin="round"/>
<path d="M35.6741 33.666C35.5506 33.5053 35.4324 33.3419 35.3169 33.1733C35.1251 32.8887 34.6707 32.4539 33.7959 32.7306C32.5508 33.1232 31.6944 34.3115 33.0762 35.2943C34.3764 36.2297 36.9875 35.3865 35.6741 33.666Z" fill="#263238"/>
<path d="M29.8658 28.0537C29.8658 28.0537 31.2895 28.8705 32.1012 28.5649C32.9129 28.2592 32.4059 24.7918 31.6967 24.9946C30.9874 25.1975 29.7633 26.7284 29.8658 28.0537Z" fill="white" stroke="#263238" stroke-width="0.5" stroke-linecap="round" stroke-linejoin="round"/>
<path d="M39.3198 28.8704C39.3198 28.8704 38.0063 28.7676 37.1841 29.6846C36.3619 30.6015 36.8794 31.5289 37.9985 31.7239C39.1175 31.9189 39.7243 28.8704 39.3198 28.8704Z" fill="white" stroke="#263238" stroke-width="0.5" stroke-linecap="round" stroke-linejoin="round"/>
<path d="M31.3926 34.5802C31.3926 34.5802 30.0792 33.5605 30.376 34.3746C30.6728 35.1888 31.1877 35.2942 31.6894 35.0887C32.1911 34.8832 31.3926 34.5802 31.3926 34.5802Z" fill="#FFD942" stroke="#263238" stroke-width="0.5" stroke-linecap="round" stroke-linejoin="round"/>
<path d="M30.6671 32.0244C30.5909 32.2878 30.3755 32.4723 30.1864 32.4196C29.9972 32.3669 29.9053 32.1034 29.9815 31.832C30.0577 31.5606 30.2731 31.3841 30.4622 31.4368C30.6513 31.4895 30.7433 31.7556 30.6671 32.0244Z" fill="#263238"/>
<path d="M33.8012 34.4301C33.5569 34.5724 33.2759 34.5513 33.1813 34.38C33.0867 34.2088 33.197 33.9585 33.444 33.8162C33.5342 33.7442 33.6483 33.7091 33.7632 33.7179C33.8782 33.7267 33.9856 33.7787 34.0639 33.8636C34.1585 34.0349 34.0429 34.2878 33.8012 34.4301Z" fill="white"/>
<path d="M24.6831 40.9012C24.6831 40.9012 24.3784 43.1435 24.7829 44.063C25.1874 44.9826 25.5972 48.4474 26.4116 48.5423C27.2259 48.6371 26.9185 46.6979 26.9185 46.4002C26.9185 46.1024 27.021 42.8326 27.021 42.8326C27.021 42.8326 27.7329 41.3017 28.1374 40.4875" fill="white"/>
<path d="M24.6831 40.9012C24.6831 40.9012 24.3784 43.1435 24.7829 44.063C25.1874 44.9826 25.5972 48.4474 26.4116 48.5423C27.2259 48.6371 26.9185 46.6979 26.9185 46.4002C26.9185 46.1024 27.021 42.8326 27.021 42.8326C27.021 42.8326 27.7329 41.3017 28.1374 40.4875" stroke="#263238" stroke-width="0.5" stroke-linecap="round" stroke-linejoin="round"/>
<path d="M21.3284 40.7984C21.3284 40.7984 24.0735 39.9816 24.3782 43.0407" stroke="#263238" stroke-width="0.5" stroke-linecap="round" stroke-linejoin="round"/>
<path d="M29.257 42.9484C29.257 42.9484 31.5949 41.7232 31.6974 39.0725" stroke="#263238" stroke-width="0.5" stroke-linecap="round" stroke-linejoin="round"/>
<path d="M1 47.1196L2.73109 46.7271" stroke="#263238" stroke-width="0.5" stroke-linecap="round" stroke-linejoin="round"/>
<path d="M15.4476 57.3666L29.4066 53.3958C29.8503 53.3486 30.2967 53.4566 30.6702 53.7015L53.3844 68.259C53.4812 68.3218 53.5564 68.4128 53.5999 68.5198C53.6434 68.6269 53.653 68.7447 53.6275 68.8574C53.602 68.9701 53.5426 69.0723 53.4573 69.15C53.372 69.2277 53.2649 69.2772 53.1507 69.2919L34.0483 75.2598L15.4476 57.3666Z" fill="#FFD942" stroke="#263238" stroke-width="0.5" stroke-linecap="round" stroke-linejoin="round"/>
<path d="M23.6095 58.2044L25.5875 59.5719L27.8729 58.9237L25.8975 57.5588L23.6095 58.2044Z" fill="#263238"/>
<path d="M24.8414 62.0276L22.866 60.6602L20.5781 61.3083L22.5561 62.6758L24.8414 62.0276Z" fill="#263238"/>
<path d="M28.5792 59.0425L30.5546 60.4073L32.8399 59.7591L30.8645 58.3943L28.5792 59.0425Z" fill="#263238"/>
<path d="M30.883 60.6338L32.8584 61.9986L35.1438 61.3504L33.1684 59.9856L30.883 60.6338Z" fill="#263238"/>
<path d="M25.9126 59.7959L27.888 61.1634L30.1734 60.5152L28.198 59.1504L25.9126 59.7959Z" fill="#263238"/>
<path d="M20.943 58.9607L22.9183 60.3282L25.2063 59.68L23.2283 58.3125L20.943 58.9607Z" fill="#263238"/>
<path d="M36.7171 67.6373L34.7391 66.2698L32.4563 66.9179L34.4317 68.2854L36.7171 67.6373Z" fill="#263238"/>
<path d="M34.0483 68.3934L32.0729 67.0259L29.7876 67.674L31.7656 69.0389L34.0483 68.3934Z" fill="#263238"/>
<path d="M27.1427 63.619L25.1673 62.2515L22.8819 62.8996L24.8573 64.2645L27.1427 63.619Z" fill="#263238"/>
<path d="M39.018 69.2286L37.0426 67.8638L34.7572 68.5093L36.7326 69.8768L39.018 69.2286Z" fill="#263238"/>
<path d="M29.4462 65.2105L27.4682 63.843L25.1828 64.4912L27.1608 65.856L29.4462 65.2105Z" fill="#263238"/>
<path d="M31.7474 66.8021L29.772 65.4346L27.4867 66.0827L29.4621 67.4502L31.7474 66.8021Z" fill="#263238"/>
<path d="M33.1839 62.2253L35.1593 63.5902L37.4447 62.942L35.4693 61.5771L33.1839 62.2253Z" fill="#263238"/>
<path d="M23.2468 60.552L25.2222 61.9195L27.5076 61.2714L25.5322 59.9065L23.2468 60.552Z" fill="#263238"/>
<path d="M41.6845 68.4725L39.7091 67.1077L37.4238 67.7558L39.3991 69.1207L41.6845 68.4725Z" fill="#263238"/>
<path d="M34.7789 63.6981L32.8035 62.3333L30.5181 62.9788L32.4935 64.3463L34.7789 63.6981Z" fill="#263238"/>
<path d="M29.8085 62.8628L27.8331 61.4954L25.5477 62.1435L27.5231 63.511L29.8085 62.8628Z" fill="#263238"/>
<path d="M20.2362 58.8447L19.0804 58.0437L17.5174 58.4837L18.4316 59.3559L20.2362 58.8447Z" fill="#263238"/>
<path d="M22.5375 60.4363L20.5621 59.0688L18.6892 59.6011L20.2364 61.0713L20.2522 61.0819L22.5375 60.4363Z" fill="#263238"/>
<path d="M28.2143 61.3899L30.1923 62.7547L32.4776 62.1065L30.4996 60.7417L28.2143 61.3899Z" fill="#263238"/>
<path d="M32.1123 64.4544L30.1369 63.0896L27.8516 63.7351L29.827 65.1026L32.1123 64.4544Z" fill="#263238"/>
<path d="M42.0494 66.1249L40.074 64.76L37.7887 65.4082L39.7641 66.773L42.0494 66.1249Z" fill="#263238"/>
<path d="M35.4848 63.8166L37.4628 65.1815L39.7482 64.5333L37.7728 63.1685L35.4848 63.8166Z" fill="#263238"/>
<path d="M39.3836 66.881L37.4082 65.5161L35.1229 66.1643L37.0983 67.5291L39.3836 66.881Z" fill="#263238"/>
<path d="M37.0798 65.2897L35.1044 63.9248L32.819 64.5703L34.797 65.9378L37.0798 65.2897Z" fill="#263238"/>
<path d="M34.4132 66.0458L32.4378 64.6809L30.1525 65.3264L32.1279 66.6939L34.4132 66.0458Z" fill="#263238"/>
<path d="M24.4762 64.3727L22.5008 63.0078L22.3248 63.0579L23.8826 64.5413L24.4762 64.3727Z" fill="#263238"/>
<path d="M42.013 68.699L39.7276 69.3471L42.0971 70.9834L44.3246 70.2957L42.013 68.699Z" fill="#263238"/>
<path d="M39.3442 69.4551L37.0589 70.1006L39.4992 71.7869L41.7241 71.0992L39.3442 69.4551Z" fill="#263238"/>
<path d="M29.0808 67.5555L27.1054 66.1907L25.9575 66.5148L27.5178 68.0008L29.0808 67.5555Z" fill="#263238"/>
<path d="M44.3537 67.7162L42.3757 66.3513L40.0903 66.9995L42.0683 68.3643L44.3537 67.7162Z" fill="#263238"/>
<path d="M31.382 69.1495L29.4066 67.782L27.7753 68.2457L29.333 69.7291L31.382 69.1495Z" fill="#263238"/>
<path d="M33.6862 70.741L31.7108 69.3735L29.5909 69.9743L31.1513 71.4577L33.6862 70.741Z" fill="#263238"/>
<path d="M36.3522 69.9849L34.3768 68.6174L32.0914 69.2656L34.0668 70.6331L36.3522 69.9849Z" fill="#263238"/>
<path d="M49.2599 67.8401L47.9465 67.0154L45.057 67.8348L47.2898 69.3788L49.0288 68.8519C49.1433 68.8418 49.2518 68.7956 49.3385 68.7199C49.4252 68.6442 49.4858 68.5428 49.5114 68.4304C49.5371 68.3179 49.5266 68.2002 49.4814 68.0942C49.4362 67.9881 49.3587 67.8992 49.2599 67.8401Z" fill="#263238"/>
<path d="M34.0112 70.9651L31.408 71.7029L33.4569 73.6526L36.5277 72.7041L34.0112 70.9651Z" fill="#263238"/>
<path d="M45.5094 65.4634L42.7591 66.2433L44.7345 67.6081L47.6109 66.794L45.5094 65.4634Z" fill="#263238"/>
<path d="M44.6788 67.9429L42.3934 68.591L44.6945 70.1825L46.9221 69.4948L44.6788 67.9429Z" fill="#263238"/>
<path d="M28.6185 56.468L30.4862 55.9384L29.2805 55.1743L27.4785 55.6802L28.6185 56.468Z" fill="#263238"/>
<path d="M39.1259 71.903L36.6777 70.2087L34.3923 70.8569L36.8983 72.5906L39.1259 71.903Z" fill="#263238"/>
<path d="M28.9441 56.6945L30.9195 58.0594L32.9343 57.4903L30.8328 56.1597L28.9441 56.6945Z" fill="#263238"/>
<path d="M33.5488 59.8775L35.5242 61.2424L37.8253 60.5916L35.7265 59.261L33.5488 59.8775Z" fill="#263238"/>
<path d="M31.2457 58.286L33.2237 59.6509L35.3804 59.0396L33.2789 57.709L31.2457 58.286Z" fill="#263238"/>
<path d="M35.8505 61.469L37.8258 62.8339L40.2714 62.1435L38.1726 60.8103L35.8505 61.469Z" fill="#263238"/>
<path d="M38.1536 63.0605L40.129 64.4254L42.7164 63.6929L40.6176 62.3623L38.1536 63.0605Z" fill="#263238"/>
<path d="M43.0637 63.9116L40.4552 64.652L42.4306 66.0169L45.1625 65.2449L43.0637 63.9116Z" fill="#263238"/>
<path d="M26.2783 57.4509L28.2537 58.8158L30.539 58.1676L28.5636 56.8027L26.2783 57.4509Z" fill="#263238"/>
<path d="M21.6623 62.4307L22.0669 62.8127L22.1719 62.7811L21.6623 62.4307Z" fill="#263238"/>
<path d="M20.6174 58.7366L22.9028 58.0884L21.7522 57.2927L19.4616 57.9356L20.6174 58.7366Z" fill="#263238"/>
<path d="M23.2832 57.9803L25.5686 57.3322L24.4233 56.5391L22.1327 57.1846L23.2832 57.9803Z" fill="#263238"/>
<path d="M24.8067 56.4339L25.952 57.2243L28.2373 56.5761L27.0947 55.7883L24.8067 56.4339Z" fill="#263238"/>
<path d="M26.777 65.9666L24.8016 64.5991L24.1397 64.7862L25.7 66.2696L26.777 65.9666Z" fill="#263238"/>
<path d="M34.0351 75.2598L27.9933 50.7267C27.8557 50.169 27.559 49.6636 27.1396 49.2723L10.8532 34.0402C10.784 33.9757 10.696 33.9352 10.6021 33.9246C10.5082 33.9141 10.4134 33.934 10.3317 33.9815C10.25 34.029 10.1856 34.1015 10.148 34.1884C10.1104 34.2754 10.1016 34.3721 10.1229 34.4644L15.4475 57.3665L34.0351 75.2598Z" fill="#FFD942" stroke="#263238" stroke-width="0.5" stroke-linecap="round" stroke-linejoin="round"/>
<path d="M24.9039 48.2686L26.7663 49.9022C26.7663 49.9022 27.3469 50.0181 27.9274 52.9349" stroke="#263238" stroke-width="0.5" stroke-linecap="round" stroke-linejoin="round"/>
<path d="M28.2771 54.4497L31.7104 69.3735" stroke="#263238" stroke-width="0.5" stroke-linecap="round" stroke-linejoin="round"/>
<path d="M18.2241 47.6019C19.0305 49.5675 18.957 51.4619 18.0586 51.8334C17.1602 52.2049 15.7759 50.9112 14.9694 48.9351C14.163 46.959 14.2365 45.075 15.1349 44.7062C16.0333 44.3373 17.4176 45.6363 18.2241 47.6019Z" fill="#FFD942"/>
<path opacity="0.6" d="M18.2241 47.6019C19.0305 49.5675 18.957 51.4619 18.0586 51.8334C17.1602 52.2049 15.7759 50.9112 14.9694 48.9351C14.163 46.959 14.2365 45.075 15.1349 44.7062C16.0333 44.3373 17.4176 45.6363 18.2241 47.6019Z" fill="white"/>
<path d="M17.636 50.8048C18.2746 50.541 18.327 49.1939 17.753 47.7958C17.1791 46.3978 16.1962 45.4782 15.5577 45.742C14.9191 46.0057 14.8667 47.3528 15.4407 48.7509C16.0146 50.1489 16.9975 51.0685 17.636 50.8048Z" stroke="#263238" stroke-width="0.5" stroke-miterlimit="10"/>
<path d="M19.4693 55.6618C19.8896 56.6815 19.7162 57.7196 19.0858 57.9805C18.4553 58.2413 17.6042 57.6248 17.1839 56.6077C16.7636 55.5907 16.9396 54.5499 17.5701 54.2891C18.2005 54.0282 19.0516 54.6448 19.4693 55.6618Z" fill="#263238"/>
<path d="M18.5998 57.3877C18.2032 57.3877 17.7724 57.0267 17.5491 56.4629C17.4234 56.1729 17.3797 55.8538 17.423 55.5407C17.4345 55.41 17.4799 55.2847 17.5545 55.177C17.6291 55.0694 17.7305 54.9831 17.8485 54.9267C18.2925 54.7423 18.8599 55.1296 19.1383 55.8068C19.4141 56.4839 19.2828 57.1585 18.8389 57.3429C18.7628 57.3731 18.6816 57.3883 18.5998 57.3877ZM18.0744 55.1454C18.0293 55.145 17.9846 55.154 17.9431 55.1718C17.8676 55.2123 17.8038 55.2717 17.7578 55.3441C17.7118 55.4166 17.6851 55.4997 17.6804 55.5855C17.6428 55.8541 17.6811 56.1279 17.7907 56.3759C18.0035 56.9029 18.4369 57.2349 18.7364 57.111C19.0359 56.9872 19.1068 56.4418 18.8914 55.9201C18.6944 55.459 18.3371 55.1454 18.0744 55.1454Z" fill="#FFD942"/>
<g opacity="0.5">
<path opacity="0.5" d="M18.5998 57.3877C18.2032 57.3877 17.7724 57.0267 17.5491 56.4629C17.4234 56.1729 17.3797 55.8538 17.423 55.5407C17.4345 55.41 17.4799 55.2847 17.5545 55.177C17.6291 55.0694 17.7305 54.9831 17.8485 54.9267C18.2925 54.7423 18.8599 55.1296 19.1383 55.8068C19.4141 56.4839 19.2828 57.1585 18.8389 57.3429C18.7628 57.3731 18.6816 57.3883 18.5998 57.3877ZM18.0744 55.1454C18.0293 55.145 17.9846 55.154 17.9431 55.1718C17.8676 55.2123 17.8038 55.2717 17.7578 55.3441C17.7118 55.4166 17.6851 55.4997 17.6804 55.5855C17.6428 55.8541 17.6811 56.1279 17.7907 56.3759C18.0035 56.9029 18.4369 57.2349 18.7364 57.111C19.0359 56.9872 19.1068 56.4418 18.8914 55.9201C18.6944 55.459 18.3371 55.1454 18.0744 55.1454Z" fill="white"/>
</g>
<path d="M24.153 55.9887L22.6583 58.36C22.6198 58.4177 22.5993 58.4856 22.5993 58.555C22.5993 58.6244 22.6198 58.6923 22.6583 58.75L25.8578 63.4295C25.8859 63.471 25.9223 63.5062 25.9647 63.5327C26.0071 63.5593 26.0546 63.5766 26.1042 63.5835C26.1537 63.5905 26.2041 63.5869 26.2522 63.5731C26.3002 63.5593 26.3449 63.5355 26.3832 63.5033L28.0407 62.1463C28.1068 62.0929 28.1514 62.0174 28.1664 61.9336C28.1813 61.8499 28.1656 61.7635 28.1222 61.6905L24.7572 56.0018C24.7271 55.9487 24.6838 55.9044 24.6315 55.8731C24.5792 55.8418 24.5197 55.8247 24.4588 55.8233C24.398 55.822 24.3378 55.8365 24.2842 55.8655C24.2306 55.8945 24.1854 55.9369 24.153 55.9887Z" fill="#263238"/>
<path d="M21.5529 59.132C21.5529 59.132 25.6928 58.4416 28.5376 64.291L29.2442 63.4189C29.2442 63.4189 26.5044 58.8421 24.2716 58.4337C22.0388 58.0253 21.2271 58.0227 21.2271 58.0227L21.5529 59.132Z" fill="#FFD942"/>
<path opacity="0.5" d="M21.5529 59.132C21.5529 59.132 25.6928 58.4416 28.5376 64.291L29.2442 63.4189C29.2442 63.4189 26.5044 58.8421 24.2716 58.4337C22.0388 58.0253 21.2271 58.0227 21.2271 58.0227L21.5529 59.132Z" fill="white"/>
<path d="M3.69795 46.5084L10.4542 44.9775" stroke="#263238" stroke-width="0.5" stroke-linecap="round" stroke-linejoin="round"/>
<path d="M46.5938 61.2634C45.7839 61.3916 44.9674 61.4734 44.1482 61.5085C42.8794 61.5585 42.3409 61.5585 42.5353 61.8536C42.7297 62.1487 44.248 62.4412 44.7839 62.5387C45.3198 62.6362 46.5938 61.2634 46.5938 61.2634Z" fill="white" stroke="#263238" stroke-width="0.5" stroke-miterlimit="10"/>
<path d="M94.2344 71.9215L91.9727 70.7358" stroke="#263238" stroke-width="0.5" stroke-linecap="round" stroke-linejoin="round"/>
<path d="M49.0553 44.2292C49.0553 44.2292 49.5308 43.394 49.7304 44.4294L49.0553 44.2292Z" fill="#263238"/>
<path d="M90.5729 70.0006L35.4302 41.1042" stroke="#263238" stroke-width="0.5" stroke-linecap="round" stroke-linejoin="round"/>
<path d="M36.8801 52.421L48.4671 59.9145L57.9973 56.0149L45.1599 49.47L36.8801 52.421Z" fill="#263238" stroke="#263238" stroke-width="0.5" stroke-linecap="round" stroke-linejoin="round"/>
<path d="M44.3269 50.8584L39.709 52.4946" stroke="white" stroke-width="0.5" stroke-linecap="round" stroke-linejoin="round"/>
<path d="M40.4343 53.04L48.7666 58.3097L55.557 55.6749" stroke="white" stroke-width="0.5" stroke-linecap="round" stroke-linejoin="round"/>
<path d="M84.6231 17.0112C84.6231 17.0112 91.2585 18.0652 93.3941 21.6328C95.5298 25.2003 94.0036 30.8073 93.2917 32.7439C92.6481 34.5014 94.5499 35.969 95.7189 36.9228C98.3457 39.0623 99.6986 42.0818 98.3326 45.3675C97.4815 47.4121 93.6962 48.3291 94.2085 50.79C94.7207 53.2509 96.9509 56.7026 94.106 59.2531C91.1035 61.9407 86.5985 60.5548 83.9664 58.0437C81.006 55.2192 79.9867 50.3052 81.5024 46.5084C83.3412 41.9211 84.3473 38.9648 82.6188 37.0229C80.8904 35.081 78.6549 33.8611 78.6549 31.1103C78.6549 28.3595 81.0953 27.5427 82.1119 24.7867C83.1284 22.0306 81.7047 19.1797 81.7047 19.1797L84.6231 17.0112Z" fill="#263238" stroke="#263238" stroke-width="0.5" stroke-linecap="round" stroke-linejoin="round"/>
<path d="M90.8377 21.7698C92.1196 22.742 93.2859 24.3783 92.8814 27.0395C92.0618 32.4409 88.0822 32.794 90.6565 36.1982C93.2308 39.6024 95.5739 38.0742 95.1037 42.3005C94.6335 46.5268 93.1152 48.0524 93.1152 48.0524" stroke="white" stroke-width="0.5" stroke-miterlimit="10"/>
<path d="M88.0925 20.4707C88.6057 20.5918 89.1042 20.7685 89.5793 20.9977" stroke="white" stroke-width="0.5" stroke-miterlimit="10"/>
<path d="M86.8056 21.999C86.8056 21.999 90.1995 22.937 91.2528 25.7537C92.3062 28.5703 88.1006 30.9206 87.859 32.6807" stroke="white" stroke-width="0.5" stroke-miterlimit="10"/>
<path d="M86.6559 67.948C86.6086 66.3328 86.5876 64.1775 86.6848 61.9036C86.8897 57.2136 92.4796 50.9927 92.6819 49.8729C92.8842 48.7531 92.3772 48.5555 92.3772 48.5555L81.2972 43.7627C76.1459 47.1564 74.8929 57.0265 74.5856 61.6322L86.6559 67.948Z" fill="#FFD942" stroke="#263238" stroke-width="0.5" stroke-linecap="round" stroke-linejoin="round"/>
<path d="M91.1743 48.8533C91.1743 48.8533 92.1042 49.4356 91.1743 50.3683C90.2444 51.301 87.6859 55.2665 86.6351 57.5983" stroke="#263238" stroke-width="0.5" stroke-linecap="round" stroke-linejoin="round"/>
<path d="M86.1757 58.7578C86.1757 58.7578 85.3614 60.6233 85.4796 62.4888C85.5978 64.3542 85.5952 66.1038 85.5952 66.1038" stroke="#263238" stroke-width="0.5" stroke-linecap="round" stroke-linejoin="round"/>
<path d="M64.4409 46.3212C64.9295 47.5965 65.5179 50.3394 65.1265 51.9071C64.9243 52.7213 64.2466 54.4313 63.645 55.8884L78.5838 63.7191C78.5681 60.5995 78.6075 55.6749 79.0041 54.7607C79.5899 53.3879 84.2815 40.4508 83.9951 37.5103C83.7088 34.5698 78.0348 30.354 78.0348 30.354L78.9043 23.1873L73.7268 26.3254C73.7268 26.3254 73.1384 29.1657 72.5526 29.8534C71.9668 30.5411 67.1781 31.5187 65.8095 33.2787C64.4409 35.0388 64.9295 40.435 64.9295 40.7274C64.9295 41.0199 63.9523 45.0565 64.4409 46.3212Z" fill="white"/>
<g style="mix-blend-mode:multiply" opacity="0.5">
<path d="M83.9873 37.4998C83.6931 34.5593 78.027 30.3435 78.027 30.3435L78.9043 23.1873L73.7268 26.3254C73.7268 26.3254 73.5561 27.1448 73.3091 28.0117C73.6428 27.9827 74.0158 27.9353 74.4334 27.8615C76.4088 27.511 77.4569 26.8075 77.4569 26.8075L76.4062 31.2394C76.4062 31.2394 81.7544 34.4012 83.1493 38.2375C83.3384 38.7645 83.5407 39.2572 83.7482 39.7473C83.925 39.0117 84.0054 38.2562 83.9873 37.4998Z" fill="#FFD942"/>
</g>
<path d="M64.4409 46.3212C64.9295 47.5965 65.5179 50.3394 65.1265 51.9071C64.9243 52.7213 64.2466 54.4313 63.645 55.8884L78.5838 63.7191C78.5681 60.5995 78.6075 55.6749 79.0041 54.7607C79.5899 53.3879 84.2815 40.4508 83.9951 37.5103C83.7088 34.5698 78.0348 30.354 78.0348 30.354L78.9043 23.1873L73.7268 26.3254C73.7268 26.3254 73.1384 29.1657 72.5526 29.8534C71.9668 30.5411 67.1781 31.5187 65.8095 33.2787C64.4409 35.0388 64.9295 40.435 64.9295 40.7274C64.9295 41.0199 63.9523 45.0565 64.4409 46.3212Z" stroke="#263238" stroke-width="0.5" stroke-linecap="round" stroke-linejoin="round"/>
<path d="M64.4409 46.3212C64.9295 47.5965 65.5179 50.3394 65.1265 51.9071C64.9243 52.7213 64.2466 54.4313 63.645 55.8884L78.5838 63.7191C78.5681 60.5995 78.6075 55.6749 79.0041 54.7606C79.5899 53.3879 84.2815 40.4508 83.9951 37.5103C83.8139 35.6791 81.5496 33.3578 79.8657 31.8638C78.2082 33.6265 74.6121 36.9148 71.9852 35.4498C69.6211 34.1324 69.7708 32.1299 70.1202 30.939C68.523 31.5292 66.6133 32.2827 65.8279 33.2945C64.4593 35.0599 64.9479 40.4508 64.9479 40.7432C64.9479 41.0357 63.9523 45.0565 64.4409 46.3212Z" fill="#263238" stroke="#263238" stroke-width="0.5" stroke-linecap="round" stroke-linejoin="round"/>
<path d="M73.1673 42.8381L69.9152 41.3073C69.9152 41.3073 68.9985 39.7791 68.4915 39.7791C67.9845 39.7791 67.6772 41.9212 67.6772 41.9212C67.6772 41.9212 65.9513 43.5522 66.5608 45.1831C67.1702 46.8141 69.4056 49.2619 72.1507 48.345C74.8957 47.428 74.0814 44.5745 74.0814 44.5745C74.0814 44.5745 75.2004 42.6379 75.2004 42.2295C75.2004 41.8211 73.1673 42.8381 73.1673 42.8381Z" fill="white" stroke="#263238" stroke-width="0.5" stroke-linecap="round" stroke-linejoin="round"/>
<path d="M66.2006 11.2277C66.2006 11.2277 66.8862 14.7584 66.7864 17.2088C66.6866 19.6592 65.712 20.6341 65.9983 21.717C66.2847 22.7999 69.8099 26.8154 71.9586 27.2054C74.1074 27.5953 79.1903 24.2649 80.6561 22.7946C82.1219 21.3244 82.3163 19.1691 82.1219 18.2864C81.9275 17.4037 81.1447 10.3476 78.2132 7.50462C75.2816 4.66161 67.5692 4.95672 66.2006 11.2277Z" fill="white"/>
<g style="mix-blend-mode:multiply" opacity="0.5">
<path d="M78.2293 7.50463C77.1339 6.45069 75.3687 5.81833 73.5168 5.77881L73.3959 9.43598C73.3959 9.43598 72.8128 13.051 74.9064 15.9651C77 18.8793 78.8598 19.6987 79.0909 20.8633C79.3221 22.0279 78.2713 23.1873 75.6025 25.1792C74.5588 25.9715 73.4406 26.6598 72.2638 27.2344C74.5517 27.3161 79.2669 24.2043 80.6697 22.7947C82.1354 21.3244 82.3298 19.1691 82.1354 18.2864C81.941 17.4038 81.153 10.3476 78.2293 7.50463Z" fill="#FFD942"/>
</g>
<path d="M66.2006 11.2277C66.2006 11.2277 66.8862 14.7584 66.7864 17.2088C66.6866 19.6592 65.712 20.6341 65.9983 21.717C66.2847 22.7999 69.8099 26.8154 71.9586 27.2054C74.1074 27.5953 79.1903 24.2649 80.6561 22.7946C82.1219 21.3244 82.3163 19.1691 82.1219 18.2864C81.9275 17.4037 81.1447 10.3476 78.2132 7.50462C75.2816 4.66161 67.5692 4.95672 66.2006 11.2277Z" stroke="#263238" stroke-width="0.5" stroke-linecap="round" stroke-linejoin="round"/>
<path d="M69.9149 18.4814C69.9149 18.4814 69.6207 20.3443 69.1269 20.9319C69.5103 21.2673 69.989 21.4737 70.4955 21.5221" stroke="#263238" stroke-width="0.5" stroke-linecap="round" stroke-linejoin="round"/>
<path d="M70.1095 23.1872C70.7461 23.4702 71.4399 23.6 72.1355 23.5661C72.831 23.5323 73.5091 23.3357 74.1154 22.9922" stroke="#263238" stroke-width="0.5" stroke-linecap="round" stroke-linejoin="round"/>
<path d="M73.6272 17.5011C73.6272 17.8279 73.4749 18.0914 73.2857 18.0914C73.0966 18.0914 72.9442 17.8279 72.9442 17.5011C72.9442 17.1744 73.0966 16.9136 73.2857 16.9136C73.4749 16.9136 73.6272 17.1771 73.6272 17.5011Z" fill="#263238"/>
<path d="M68.7907 16.7189C68.7907 17.043 68.6383 17.3065 68.4492 17.3065C68.26 17.3065 68.1077 17.043 68.1077 16.7189C68.1077 16.3948 68.26 16.1313 68.4492 16.1313C68.6383 16.1313 68.7907 16.3948 68.7907 16.7189Z" fill="#263238"/>
<path d="M67.4721 14.1708C67.7461 13.9992 68.0517 13.8847 68.3708 13.834C68.6898 13.7833 69.0158 13.7975 69.3293 13.8757" stroke="#263238" stroke-width="0.5" stroke-linecap="round" stroke-linejoin="round"/>
<path d="M72.0641 14.2682C72.0641 14.2682 72.6499 13.9731 73.9213 14.7583" stroke="#263238" stroke-width="0.5" stroke-linecap="round" stroke-linejoin="round"/>
<path d="M72.6493 8.58251C72.6493 8.58251 69.9148 10.8379 68.5462 12.2081C67.1776 13.5782 66.5918 14.561 64.5403 13.6809C62.4887 12.8009 61.0203 9.75765 63.7522 6.1321C66.4841 2.50655 71.7667 1.42626 76.9442 2.89651C82.1217 4.36675 84.2757 7.69984 84.6645 11.328C85.0532 14.9562 84.2704 18.9717 82.4317 20.052C80.5929 21.1323 76.4687 16.7189 75.003 13.9734C74.0845 12.2383 73.2977 10.4363 72.6493 8.58251Z" fill="#263238" stroke="#263238" stroke-width="0.5" stroke-linecap="round" stroke-linejoin="round"/>
<path d="M72.6495 8.58228C72.6495 8.58228 65.2707 9.6731 64.9213 11.3146C64.5719 12.9561 66.7943 12.4898 66.7943 12.4898" stroke="white" stroke-width="0.5" stroke-miterlimit="10"/>
<path d="M63.9709 9.66528C63.4718 10.735 63.8685 11.4333 63.8685 11.4333" stroke="white" stroke-width="0.5" stroke-miterlimit="10"/>
<path d="M80.018 5.09381C80.018 5.09381 72.8782 3.9213 72.8782 7.08839C72.8782 7.08839 68.5492 5.56281 65.7411 7.67596C65.3196 7.98415 64.933 8.33755 64.5879 8.7299" stroke="white" stroke-width="0.5" stroke-miterlimit="10"/>
<path d="M73.2381 7.79443C73.2381 7.79443 75.0585 13.686 78.8569 15.1905" stroke="white" stroke-width="0.5" stroke-miterlimit="10"/>
<path d="M77.0263 9.37817C78.4895 10.5902 80.583 11.7864 83.068 11.6679" stroke="white" stroke-width="0.5" stroke-miterlimit="10"/>
<path d="M74.7509 6.97241C75.0929 7.44436 75.4687 7.89082 75.8751 8.30828" stroke="white" stroke-width="0.5" stroke-miterlimit="10"/>
<path d="M65.5175 14.6609L76.9495 16.6212C76.9495 16.6212 76.9495 18.3655 76.4609 19.2561C75.9724 20.1467 75.3866 20.1572 74.1152 20.1572C72.8438 20.1572 71.0759 19.3667 70.9892 19.0795C70.787 18.3839 70.9236 16.089 70.9236 16.089L70.0121 15.9414C70.0121 15.9414 70.1303 18.6158 69.6417 18.9109C69.1531 19.206 65.9273 18.6158 65.3415 17.8333C64.7557 17.0507 65.1261 14.5608 65.5175 14.6609Z" stroke="#263238" stroke-width="0.5" stroke-linecap="round" stroke-linejoin="round"/>
<path d="M76.95 16.6212L82.033 15.7385V16.4236L76.95 17.6989V16.6212Z" fill="#FFD942" stroke="#263238" stroke-width="0.5" stroke-linecap="round" stroke-linejoin="round"/>
<path d="M85.7844 17.2313C86.1815 14.7529 85.2505 12.5418 83.705 12.2927C82.1594 12.0436 80.5846 13.8507 80.1875 16.3291C79.7904 18.8075 80.7214 21.0186 82.267 21.2678C83.8125 21.5169 85.3873 19.7097 85.7844 17.2313Z" fill="#FFD942" stroke="#263238" stroke-width="0.5" stroke-linecap="round" stroke-linejoin="round"/>
<path d="M86.6011 17.33C86.2675 19.4168 85.1091 20.9635 84.0189 20.787C82.9288 20.6104 82.3115 18.7792 82.6451 16.6924C82.9787 14.6056 84.1345 13.0616 85.2273 13.2381C86.3201 13.4146 86.9347 15.2459 86.6011 17.33Z" fill="#FFD942" stroke="#263238" stroke-width="0.5" stroke-linecap="round" stroke-linejoin="round"/>
<path d="M85.0585 8.58218C85.2474 11.3252 84.9494 14.08 84.1785 16.7186C84.1785 16.7186 84.0814 18.2995 85.5471 17.6013C87.0129 16.903 86.8185 10.9351 86.6215 8.48469C86.4245 6.03428 84.5726 6.71934 85.0585 8.58218Z" fill="white" stroke="#263238" stroke-width="0.5" stroke-linecap="round" stroke-linejoin="round"/>
<path d="M79.5901 3.97393C79.5901 3.97393 81.836 3.38635 83.005 5.44681C84.1739 7.50726 83.9821 9.36746 85.6318 9.56244C87.2815 9.75742 87.3918 7.89722 86.5118 5.5443C85.6318 3.19138 83.7773 1.42603 81.2345 1.23105C78.6917 1.03607 77.4413 3.09389 77.4413 3.09389C77.4413 3.09389 78.8073 3.28887 79.5901 3.97393Z" fill="#FFD942" stroke="#263238" stroke-width="0.5" stroke-linecap="round" stroke-linejoin="round"/>
<path d="M79.3929 40.6352L72.6498 56.0254C72.6498 56.0254 54.2776 59.4507 52.6175 59.4507C50.9573 59.4507 47.6265 60.6258 46.9487 61.0316C46.271 61.4373 39.6277 64.4964 40.907 64.6861C41.6951 64.8047 43.7335 63.6796 43.7335 63.6796C43.7335 63.6796 40.5077 65.2605 40.7993 65.7374C41.0909 66.2143 45.0023 64.2672 45.0023 64.2672C45.0023 64.2672 41.4271 66.375 42.16 66.4936C42.8272 66.6122 43.6337 66.2301 44.3193 65.7374C44.9172 65.3693 45.5611 65.0822 46.2342 64.8837C46.2342 64.8837 44.6581 65.9377 44.4716 66.4172C44.2851 66.8967 44.863 66.6122 45.4488 66.4172C46.545 65.943 47.6048 65.3882 48.6194 64.7572C49.0082 64.4621 50.1824 63.8746 50.9652 63.1895L52.5282 61.8167C52.5282 61.8167 62.983 62.1092 67.7638 61.9142C72.5447 61.7193 74.8983 61.2292 76.6583 59.4638C78.4183 57.6985 83.4014 46.5241 84.573 43.4861C85.7446 40.4481 84.9644 38.6828 83.7849 36.6355" fill="white"/>
<g style="mix-blend-mode:multiply" opacity="0.5">
<path d="M79.6662 50.7187C76.514 56.6656 73.853 58.531 71.0633 59.9407C68.2736 61.3503 52.925 61.6902 52.925 61.6902L53.5712 61.8457C56.3425 61.9142 63.8999 62.0749 67.7561 61.9168C72.5449 61.7218 74.8906 61.2318 76.6506 59.4664C78.4106 57.7011 83.3937 46.5267 84.5653 43.4887C85.1091 42.0817 85.2299 40.9487 85.0907 39.9316L84.4261 40.3506C83.0492 43.8997 81.4597 47.362 79.6662 50.7187Z" fill="#FFD942"/>
</g>
<path d="M79.3929 40.6352L72.6498 56.0254C72.6498 56.0254 54.2776 59.4507 52.6175 59.4507C50.9573 59.4507 47.6265 60.6258 46.9487 61.0316C46.271 61.4373 39.6277 64.4964 40.907 64.6861C41.6951 64.8047 43.7335 63.6796 43.7335 63.6796C43.7335 63.6796 40.5077 65.2605 40.7993 65.7374C41.0909 66.2143 45.0023 64.2672 45.0023 64.2672C45.0023 64.2672 41.4271 66.375 42.16 66.4936C42.8272 66.6122 43.6337 66.2301 44.3193 65.7374C44.9172 65.3693 45.5611 65.0822 46.2342 64.8837C46.2342 64.8837 44.6581 65.9377 44.4716 66.4172C44.2851 66.8967 44.863 66.6122 45.4488 66.4172C46.545 65.943 47.6048 65.3882 48.6194 64.7572C49.0082 64.4621 50.1824 63.8746 50.9652 63.1895L52.5282 61.8167C52.5282 61.8167 62.983 62.1092 67.7638 61.9142C72.5447 61.7193 74.8983 61.2292 76.6583 59.4638C78.4183 57.6985 83.4014 46.5241 84.573 43.4861C85.7446 40.4481 84.9644 38.6828 83.7849 36.6355" stroke="#263238" stroke-width="0.5" stroke-miterlimit="10"/>
<path d="M79.2798 40.2479L77.2282 45.5835C78.736 44.7772 81.5651 43.6943 83.8216 45.32C84.1394 44.5717 84.3995 43.9393 84.5729 43.4888C85.7471 40.4508 84.9643 38.6855 83.7848 36.6382" fill="#263238"/>
<path d="M79.2798 40.2479L77.2282 45.5835C78.736 44.7772 81.5651 43.6943 83.8216 45.32C84.1394 44.5717 84.3995 43.9393 84.5729 43.4888C85.7471 40.4508 84.9643 38.6855 83.7848 36.6382" stroke="#263238" stroke-width="0.5" stroke-linecap="round" stroke-linejoin="round"/>
<path d="M64.7611 47.3279C62.7778 47.9102 54.9446 50.2104 54.2169 50.3817C53.7663 50.4917 53.3092 50.5736 52.8484 50.6267C52.8484 50.6267 50.1112 49.4489 49.3783 48.9114C48.6454 48.3739 47.7654 48.7138 47.3267 48.9114C46.8881 49.109 46.5387 50.4792 47.3767 50.4792C48.2146 50.4792 48.3538 50.4291 49.2811 51.2143C50.2084 51.9995 50.211 52.3921 50.894 52.6845C51.577 52.977 52.7039 52.782 53.2897 52.6845C53.815 52.5976 62.8987 51.9916 65.1341 51.873C65.4257 50.6399 65.1341 48.7138 64.7611 47.3279Z" fill="white"/>
<g style="mix-blend-mode:multiply" opacity="0.5">
<path d="M65.0739 48.7451L53.2899 52.6974C53.8153 52.6104 62.8989 52.0044 65.1343 51.8859C65.334 51.0269 65.2604 49.8544 65.0739 48.7451Z" fill="#FFD942"/>
</g>
<path d="M64.7611 47.3279C62.7778 47.9102 54.9446 50.2104 54.2169 50.3817C53.7663 50.4917 53.3092 50.5736 52.8484 50.6267C52.8484 50.6267 50.1112 49.4489 49.3783 48.9114C48.6454 48.3739 47.7654 48.7138 47.3267 48.9114C46.8881 49.109 46.5387 50.4792 47.3767 50.4792C48.2146 50.4792 48.3538 50.4291 49.2811 51.2143C50.2084 51.9995 50.211 52.3921 50.894 52.6845C51.577 52.977 52.7039 52.782 53.2897 52.6845C53.815 52.5976 62.8987 51.9916 65.1341 51.873C65.4257 50.6399 65.1341 48.7138 64.7611 47.3279Z" stroke="#263238" stroke-width="0.5" stroke-linecap="round" stroke-linejoin="round"/>
<path d="M45.1759 50.5291C45.1759 50.5291 44.1488 51.1166 43.8624 51.8017C43.5761 52.4868 44.154 52.2918 44.351 52.1469C44.5481 52.0019 45.3781 51.3116 45.3781 51.3116L45.1759 50.5291Z" fill="white" stroke="#263238" stroke-width="0.5" stroke-linecap="round" stroke-linejoin="round"/>
<path d="M45.47 50.0364C45.2777 50.1601 45.1256 50.3375 45.0323 50.5467C44.9389 50.7559 44.9085 50.9879 44.9447 51.2142C45.0419 52.0468 45.9219 53.272 46.0217 52.7819C46.1215 52.2918 45.47 50.0364 45.47 50.0364Z" fill="white" stroke="#263238" stroke-width="0.5" stroke-linecap="round" stroke-linejoin="round"/>
<path d="M46.6909 49.3013C46.6909 49.3013 45.761 49.5463 45.4694 50.0364C45.1778 50.5265 45.6638 52.637 46.0079 52.7819C46.0809 52.8148 46.1604 52.8306 46.2404 52.8279C46.3204 52.8253 46.3988 52.8044 46.4695 52.7668C46.5402 52.7292 46.6014 52.6758 46.6484 52.6109C46.6954 52.5459 46.727 52.471 46.7408 52.392C46.838 52.0468 46.6909 49.3013 46.6909 49.3013Z" fill="white" stroke="#263238" stroke-width="0.5" stroke-linecap="round" stroke-linejoin="round"/>
<path d="M47.8657 48.8113C47.8657 48.8113 46.6416 48.8113 46.4971 49.4015C46.3526 49.9917 46.1057 52.537 46.35 52.9296C46.5943 53.3221 46.9857 53.1746 47.1801 52.6845C47.3744 52.1944 47.8657 48.8113 47.8657 48.8113Z" fill="white" stroke="#263238" stroke-width="0.5" stroke-linecap="round" stroke-linejoin="round"/>
<path d="M48.9767 44.2449L46.9698 53.4115L47.285 54.5814C47.2897 54.5993 47.2991 54.6157 47.3121 54.6288C47.3252 54.6419 47.3415 54.6514 47.3593 54.6562C47.3772 54.661 47.396 54.661 47.4138 54.6562C47.4317 54.6514 47.4479 54.6419 47.461 54.6288L48.3384 53.754L49.8041 44.4899L48.9767 44.2449Z" fill="#263238"/>
<path d="M50.9441 51.6436C50.9441 51.6436 49.8198 52.0862 48.9398 52.4788C48.0598 52.8714 47.1798 53.0664 47.277 53.6065C47.3742 54.1467 47.7656 53.9491 48.4013 53.7541C49.2736 53.4489 50.175 53.2353 51.0912 53.1164C52.3127 52.9689 53.2898 51.8412 53.2898 51.8412" fill="white"/>
<path d="M50.9441 51.6436C50.9441 51.6436 49.8198 52.0862 48.9398 52.4788C48.0598 52.8714 47.1798 53.0664 47.277 53.6065C47.3742 54.1467 47.7656 53.9491 48.4013 53.7541C49.2736 53.4489 50.175 53.2353 51.0912 53.1164C52.3127 52.9689 53.2898 51.8412 53.2898 51.8412" stroke="#263238" stroke-width="0.5" stroke-linecap="round" stroke-linejoin="round"/>
<path d="M46.9959 53.554L47.2008 54.4182C47.2109 54.4598 47.2316 54.4981 47.261 54.5292C47.2904 54.5603 47.3274 54.5831 47.3684 54.5954C47.4093 54.6077 47.4527 54.609 47.4943 54.5991C47.5359 54.5893 47.5742 54.5687 47.6054 54.5394L48.0861 54.0809" stroke="white" stroke-width="0.5" stroke-linecap="round" stroke-linejoin="round"/>
<path d="M46.9728 53.4116L48.0104 48.769" stroke="white" stroke-width="0.5" stroke-linecap="round" stroke-linejoin="round"/>
<path d="M11.0717 35.2075L24.3241 47.5702" stroke="#263238" stroke-width="0.5" stroke-linecap="round" stroke-linejoin="round"/>
</svg>
