<svg width="104" height="85" viewBox="0 0 104 85" fill="none" xmlns="http://www.w3.org/2000/svg">
<path opacity="0.3" d="M73.8907 20.5487C73.9337 20.5536 73.9776 20.5506 74.0189 20.5398C74.0601 20.529 74.0975 20.5107 74.1282 20.4865C74.1588 20.4623 74.1818 20.4327 74.1952 20.4003C74.2087 20.3678 74.2123 20.3333 74.2057 20.2995C74.1991 20.2658 74.1825 20.2337 74.1573 20.2059C74.132 20.1781 74.0988 20.1553 74.0604 20.1394C74.0219 20.1235 73.9792 20.1149 73.9358 20.1143C73.8923 20.1137 73.8493 20.1211 73.8101 20.136L72.7568 20.2648L72.7263 20.1076L73.7796 19.9788C73.8331 19.9585 73.877 19.9252 73.9047 19.8838C73.9324 19.8425 73.9425 19.7952 73.9334 19.749C73.9244 19.7028 73.8968 19.6601 73.8546 19.6272C73.8124 19.5943 73.7578 19.5728 73.699 19.5661L72.6429 19.6971L72.4178 18.5551L69.2551 16.3103L27.8259 76.1414L30.9998 77.8271L82.898 71.4728L82.32 68.5467L83.3733 68.4179C83.4166 68.4234 83.4609 68.4208 83.5027 68.4103C83.5444 68.3998 83.5824 68.3817 83.6135 68.3574C83.6447 68.3331 83.668 68.3034 83.6818 68.2707C83.6955 68.2379 83.6992 68.2031 83.6925 68.1691C83.6858 68.135 83.6689 68.1027 83.6433 68.0747C83.6177 68.0468 83.584 68.024 83.545 68.0082C83.506 67.9924 83.4628 67.9841 83.419 67.984C83.3751 67.9839 83.3318 67.9919 83.2927 68.0074L82.2366 68.1362L82.206 67.9768L83.2621 67.848C83.2963 67.844 83.3292 67.8347 83.3588 67.8207C83.3884 67.8066 83.4142 67.7881 83.4346 67.7661C83.4551 67.7442 83.4697 67.7193 83.4778 67.6928C83.4859 67.6664 83.4872 67.639 83.4817 67.6122C83.4682 67.5585 83.4295 67.5108 83.3735 67.4785C83.3174 67.4461 83.2479 67.4315 83.1787 67.4375L82.1254 67.5663L81.8197 66.0269L82.8758 65.898C82.9271 65.8775 82.969 65.845 82.9957 65.8049C83.0225 65.7649 83.0327 65.7193 83.0251 65.6745C83.0175 65.6297 82.9923 65.5879 82.9531 65.5547C82.914 65.5216 82.8627 65.4989 82.8063 65.4897L81.753 65.6185L81.7224 65.4613L82.7757 65.3325C82.8293 65.3121 82.8732 65.2789 82.9009 65.2375C82.9286 65.1961 82.9386 65.1489 82.9296 65.1027C82.9206 65.0565 82.8929 65.0138 82.8507 64.9809C82.8085 64.9479 82.754 64.9265 82.6952 64.9198L81.6391 65.0486L81.3361 63.5201L82.3894 63.389C82.4238 63.3853 82.4569 63.3762 82.4867 63.3623C82.5165 63.3483 82.5424 63.3298 82.5629 63.3077C82.5834 63.2857 82.5981 63.2607 82.606 63.2342C82.6139 63.2076 82.6149 63.1801 82.609 63.1532C82.5955 63.1 82.5573 63.0526 82.5018 63.0203C82.4464 62.988 82.3776 62.9731 82.3088 62.9785L81.2528 63.1074L81.2222 62.9501L82.2755 62.8213C82.3291 62.801 82.3729 62.7677 82.4006 62.7263C82.4283 62.685 82.4384 62.6377 82.4294 62.5915C82.4203 62.5454 82.3927 62.5027 82.3505 62.4697C82.3083 62.4368 82.2537 62.4154 82.1949 62.4086L81.1416 62.5374L80.8359 61.0089L81.8892 60.8801C81.9428 60.8598 81.9866 60.8265 82.0143 60.7851C82.042 60.7438 82.0521 60.6965 82.0431 60.6503C82.034 60.6041 82.0064 60.5614 81.9642 60.5285C81.922 60.4956 81.8674 60.4741 81.8086 60.4674L80.7553 60.5962L80.7219 60.439L81.778 60.3101C81.8458 60.2991 81.9058 60.2685 81.9464 60.2245C81.987 60.1805 82.0053 60.1262 81.9976 60.0721C81.9929 60.0451 81.9813 60.0191 81.9635 59.9957C81.9457 59.9723 81.9221 59.9519 81.8941 59.9358C81.8661 59.9197 81.8342 59.9082 81.8005 59.902C81.7667 59.8958 81.7316 59.895 81.6974 59.8996L80.6413 60.0285L80.3384 58.4999L81.3917 58.3711C81.4595 58.36 81.5195 58.3295 81.5601 58.2855C81.6007 58.2414 81.619 58.1871 81.6113 58.1331C81.6066 58.1061 81.595 58.0801 81.5772 58.0567C81.5594 58.0332 81.5358 58.0129 81.5078 57.9968C81.4798 57.9807 81.4479 57.9692 81.4142 57.963C81.3804 57.9567 81.3453 57.9559 81.3111 57.9606L80.255 58.0894L80.2245 57.93L81.2778 57.8012C81.3211 57.8067 81.3654 57.8041 81.4072 57.7936C81.4489 57.783 81.4869 57.7649 81.518 57.7406C81.5492 57.7164 81.5726 57.6867 81.5863 57.6539C81.6 57.6212 81.6037 57.5864 81.597 57.5523C81.5903 57.5183 81.5734 57.486 81.5478 57.458C81.5222 57.43 81.4885 57.4072 81.4495 57.3915C81.4105 57.3757 81.3673 57.3674 81.3235 57.3673C81.2796 57.3671 81.2363 57.3751 81.1972 57.3907L80.1439 57.5195L79.8382 55.98L80.8915 55.8512C80.9347 55.8567 80.9791 55.8541 81.0208 55.8436C81.0626 55.8331 81.1006 55.8149 81.1317 55.7907C81.1629 55.7664 81.1862 55.7367 81.2 55.704C81.2137 55.6712 81.2173 55.6364 81.2107 55.6024C81.204 55.5683 81.1871 55.536 81.1615 55.508C81.1359 55.4801 81.1022 55.4573 81.0632 55.4415C81.0242 55.4257 80.981 55.4174 80.9372 55.4173C80.8933 55.4172 80.85 55.4252 80.8109 55.4407L79.7576 55.5695L79.7242 55.4101L80.7803 55.2813C80.8236 55.2865 80.8678 55.2837 80.9094 55.2729C80.951 55.2622 80.9888 55.2439 81.0197 55.2195C81.0506 55.1951 81.0737 55.1653 81.0872 55.1326C81.1006 55.0998 81.1041 55.065 81.0972 55.0311C81.0903 54.9971 81.0732 54.9649 81.0475 54.937C81.0217 54.9092 80.9879 54.8866 80.9489 54.8709C80.9099 54.8553 80.8668 54.8471 80.823 54.8471C80.7792 54.8471 80.736 54.8552 80.6969 54.8708L79.6436 54.9996L79.3379 53.4601L80.394 53.3313C80.4373 53.3366 80.4815 53.3337 80.5231 53.323C80.5647 53.3122 80.6025 53.2939 80.6334 53.2695C80.6643 53.2451 80.6874 53.2154 80.7009 53.1826C80.7143 53.1499 80.7178 53.1151 80.7108 53.0811C80.7039 53.0471 80.6869 53.0149 80.6612 52.9871C80.6354 52.9592 80.6016 52.9366 80.5626 52.921C80.5236 52.9053 80.4804 52.8972 80.4366 52.8972C80.3929 52.8971 80.3497 52.9052 80.3106 52.9208L79.2573 53.0496L79.2267 52.8902L80.28 52.7614C80.3478 52.7508 80.4081 52.7208 80.4492 52.6772C80.4903 52.6336 80.5092 52.5795 80.5024 52.5256C80.4889 52.4719 80.4503 52.4242 80.3942 52.3919C80.3381 52.3596 80.2686 52.3449 80.1995 52.3509L79.1434 52.4797L78.8404 50.9512L79.8937 50.8223C79.9615 50.8118 80.0217 50.7817 80.0629 50.7381C80.104 50.6945 80.1229 50.6405 80.1161 50.5865C80.1026 50.5329 80.064 50.4852 80.0079 50.4528C79.9518 50.4205 79.8823 50.4059 79.8131 50.4118L78.7598 50.5407L78.7265 50.3834L79.7826 50.2546C79.8362 50.2341 79.88 50.2007 79.9076 50.1591C79.9351 50.1176 79.9449 50.0702 79.9356 50.024C79.9263 49.9777 79.8982 49.935 79.8557 49.9023C79.8131 49.8695 79.7582 49.8483 79.6992 49.8419L78.6459 49.9707L78.3402 48.4422L79.3963 48.3134C79.4499 48.2929 79.4937 48.2594 79.5212 48.2179C79.5488 48.1764 79.5586 48.129 79.5493 48.0827C79.5399 48.0365 79.5119 47.9938 79.4694 47.961C79.4268 47.9282 79.3719 47.9071 79.3129 47.9007L78.2596 48.0295L78.229 47.8723L79.2823 47.7434C79.3359 47.7231 79.3797 47.6898 79.4074 47.6485C79.4351 47.6071 79.4452 47.5599 79.4362 47.5137C79.4272 47.4675 79.3995 47.4248 79.3573 47.3919C79.3151 47.3589 79.2606 47.3375 79.2017 47.3307L78.1456 47.4618L77.8427 45.9332L78.896 45.8044C78.9496 45.7841 78.9934 45.7508 79.0211 45.7094C79.0488 45.6681 79.0589 45.6208 79.0499 45.5746C79.0409 45.5284 79.0132 45.4857 78.971 45.4528C78.9288 45.4199 78.8743 45.3985 78.8154 45.3917L77.7593 45.5205L77.7288 45.3633L78.7821 45.2345C78.8254 45.24 78.8697 45.2374 78.9115 45.2269C78.9532 45.2163 78.9912 45.1982 79.0223 45.1739C79.0535 45.1497 79.0769 45.12 79.0906 45.0872C79.1043 45.0545 79.108 45.0197 79.1013 44.9856C79.0946 44.9516 79.0777 44.9193 79.0521 44.8913C79.0265 44.8633 78.9928 44.8405 78.9538 44.8248C78.9148 44.809 78.8716 44.8007 78.8278 44.8006C78.7839 44.8004 78.7406 44.8084 78.7015 44.8239L77.6482 44.9528L77.3425 43.4133L78.3958 43.2845C78.4391 43.29 78.4834 43.2874 78.5252 43.2769C78.5669 43.2664 78.6049 43.2482 78.636 43.224C78.6672 43.1997 78.6906 43.17 78.7043 43.1373C78.718 43.1045 78.7217 43.0697 78.715 43.0357C78.7083 43.0016 78.6914 42.9693 78.6658 42.9413C78.6402 42.9134 78.6065 42.8906 78.5675 42.8748C78.5285 42.859 78.4853 42.8507 78.4415 42.8506C78.3976 42.8505 78.3543 42.8585 78.3152 42.874L77.2619 43.0028L77.2313 42.8434L78.2846 42.7146C78.337 42.6938 78.3797 42.6605 78.4066 42.6195C78.4334 42.5785 78.4431 42.5319 78.4341 42.4863C78.4252 42.4407 78.3981 42.3985 78.3568 42.3658C78.3154 42.3331 78.2619 42.3114 78.204 42.3041L77.1479 42.4329L76.845 40.9044L77.8983 40.7755C77.9507 40.7548 77.9934 40.7215 78.0203 40.6805C78.0471 40.6395 78.0568 40.5928 78.0478 40.5473C78.0389 40.5017 78.0118 40.4595 77.9705 40.4268C77.9291 40.394 77.8756 40.3724 77.8177 40.365L76.7616 40.4938L76.731 40.3344L77.7843 40.2056C77.8521 40.195 77.9124 40.165 77.9535 40.1214C77.9946 40.0778 78.0135 40.0238 78.0067 39.9698C77.9932 39.9161 77.9546 39.8685 77.8985 39.8361C77.8424 39.8038 77.7729 39.7891 77.7038 39.7951L76.6505 39.9239L76.3447 38.3845L77.398 38.2556C77.4413 38.2612 77.4857 38.2585 77.5274 38.248C77.5692 38.2375 77.6072 38.2194 77.6383 38.1951C77.6694 38.1708 77.6928 38.1411 77.7065 38.1084C77.7203 38.0757 77.7239 38.0409 77.7172 38.0068C77.7106 37.9728 77.6937 37.9404 77.6681 37.9125C77.6424 37.8845 77.6088 37.8617 77.5698 37.8459C77.5308 37.8302 77.4876 37.8219 77.4437 37.8217C77.3999 37.8216 77.3566 37.8296 77.3175 37.8451L76.2641 37.9739L76.2308 37.8167L77.2869 37.6879C77.3405 37.6674 77.3843 37.634 77.4119 37.5924C77.4394 37.5509 77.4492 37.5035 77.4399 37.4573C77.4305 37.411 77.4025 37.3683 77.36 37.3356C77.3174 37.3028 77.2625 37.2816 77.2035 37.2752L76.1502 37.404L75.8445 35.8755L76.9006 35.7445C76.953 35.7237 76.9957 35.6904 77.0226 35.6494C77.0494 35.6084 77.0591 35.5618 77.0501 35.5162C77.0412 35.4706 77.0141 35.4284 76.9727 35.3957C76.9314 35.363 76.8779 35.3413 76.82 35.334L75.7639 35.4628L75.7333 35.3056L76.7866 35.1767C76.8402 35.1564 76.884 35.1231 76.9117 35.0818C76.9394 35.0404 76.9495 34.9932 76.9405 34.947C76.9315 34.9008 76.9038 34.8581 76.8616 34.8252C76.8194 34.7922 76.7649 34.7708 76.706 34.764L75.6527 34.8929L75.347 33.3643L76.4003 33.2355C76.4433 33.2404 76.4872 33.2374 76.5285 33.2266C76.5697 33.2158 76.6071 33.1975 76.6378 33.1733C76.6684 33.1491 76.6914 33.1195 76.7048 33.0871C76.7183 33.0546 76.7219 33.0201 76.7153 32.9863C76.7087 32.9526 76.6921 32.9205 76.6669 32.8927C76.6416 32.8649 76.6084 32.8421 76.57 32.8262C76.5315 32.8103 76.4888 32.8017 76.4454 32.8011C76.4019 32.8005 76.3589 32.808 76.3197 32.8228L75.2664 32.9516L75.2331 32.7944L76.2892 32.6656C76.3324 32.6708 76.3767 32.668 76.4183 32.6572C76.4599 32.6465 76.4977 32.6282 76.5286 32.6038C76.5595 32.5794 76.5826 32.5496 76.596 32.5169C76.6095 32.4841 76.6129 32.4493 76.606 32.4154C76.5991 32.3814 76.5821 32.3492 76.5563 32.3213C76.5306 32.2935 76.4968 32.2709 76.4578 32.2552C76.4188 32.2396 76.3756 32.2314 76.3318 32.2314C76.288 32.2314 76.2448 32.2395 76.2058 32.2551L75.1525 32.3839L74.8468 30.8554L75.9029 30.7265C75.9553 30.7056 75.998 30.6722 76.0247 30.631C76.0514 30.5898 76.0608 30.543 76.0515 30.4974C76.0422 30.4518 76.0148 30.4096 75.9731 30.377C75.9314 30.3444 75.8776 30.3231 75.8195 30.316L74.7662 30.4448L74.7356 30.2854L75.7889 30.1566C75.8322 30.1621 75.8765 30.1595 75.9183 30.149C75.96 30.1385 75.998 30.1203 76.0292 30.0961C76.0603 30.0718 76.0837 30.0421 76.0974 30.0094C76.1111 29.9766 76.1148 29.9418 76.1081 29.9078C76.1014 29.8737 76.0846 29.8414 76.0589 29.8134C76.0333 29.7855 75.9996 29.7627 75.9606 29.7469C75.9216 29.7311 75.8784 29.7228 75.8346 29.7227C75.7907 29.7226 75.7475 29.7306 75.7083 29.7461L74.6522 29.8749L74.3493 28.3355L75.4026 28.2066C75.4459 28.2122 75.4902 28.2096 75.532 28.199C75.5737 28.1885 75.6117 28.1704 75.6429 28.1461C75.674 28.1218 75.6974 28.0921 75.7111 28.0594C75.7248 28.0267 75.7285 27.9919 75.7218 27.9578C75.7151 27.9238 75.6983 27.8914 75.6726 27.8635C75.647 27.8355 75.6133 27.8127 75.5743 27.7969C75.5353 27.7812 75.4921 27.7729 75.4483 27.7727C75.4044 27.7726 75.3612 27.7806 75.322 27.7961L74.2659 27.925L74.2353 27.7655L75.2914 27.6367C75.3439 27.6158 75.3865 27.5823 75.4132 27.5412C75.44 27.5 75.4494 27.4532 75.4401 27.4076C75.4308 27.362 75.4034 27.3198 75.3617 27.2872C75.32 27.2546 75.2662 27.2332 75.2081 27.2262L74.1548 27.355L73.849 25.8156L74.9051 25.6867C74.9576 25.6658 75.0002 25.6324 75.0269 25.5912C75.0537 25.55 75.0631 25.5033 75.0538 25.4576C75.0445 25.412 75.0171 25.3698 74.9754 25.3372C74.9337 25.3046 74.8799 25.2833 74.8218 25.2762L73.7684 25.4051L73.7379 25.2457L74.7912 25.1168C74.8589 25.1062 74.9192 25.0762 74.9603 25.0326C75.0014 24.989 75.0204 24.935 75.0135 24.881C75 24.8274 74.9614 24.7797 74.9053 24.7473C74.8492 24.715 74.7797 24.7003 74.7106 24.7063L73.6545 24.8351L73.3516 23.2957L74.4049 23.1669C74.4726 23.1563 74.5329 23.1263 74.574 23.0827C74.6151 23.0391 74.6341 22.985 74.6272 22.931C74.6137 22.8774 74.5751 22.8297 74.519 22.7974C74.4629 22.765 74.3934 22.7504 74.3243 22.7563L73.2682 22.8852L73.2376 22.7279L74.2909 22.5991C74.3445 22.5788 74.3883 22.5455 74.416 22.5042C74.4437 22.4628 74.4538 22.4155 74.4448 22.3694C74.4358 22.3232 74.4081 22.2805 74.3659 22.2475C74.3237 22.2146 74.2692 22.1932 74.2103 22.1864L73.157 22.3152L72.8513 20.7867L73.8907 20.5487Z" fill="black"/>
<path d="M29.5012 76.7111L77.6226 70.8285L66.8839 16.5984L18.7597 22.4941C18.4679 22.5298 18.1879 22.6103 17.9357 22.731C17.6835 22.8517 17.464 23.0103 17.2898 23.1976C17.1156 23.385 16.99 23.5975 16.9204 23.823C16.8507 24.0485 16.8383 24.2825 16.8838 24.5118L26.9444 75.2372C27.0355 75.6987 27.3558 76.1131 27.8351 76.3894C28.3143 76.6657 28.9135 76.7814 29.5012 76.7111Z" fill="#263238" stroke="#263238" stroke-width="0.5" stroke-miterlimit="10" stroke-linecap="round"/>
<path d="M30.3953 74.8157L27.6492 75.1516C27.4562 75.1752 27.2591 75.1376 27.1014 75.0471C26.9437 74.9566 26.8382 74.8205 26.8082 74.6689L25.8418 69.7927C25.8118 69.641 25.8596 69.4862 25.9749 69.3623C26.0901 69.2384 26.2633 69.1555 26.4563 69.1319L29.2023 68.7959L30.3953 74.8157Z" fill="white" stroke="#263238" stroke-width="0.5" stroke-miterlimit="10" stroke-linecap="round"/>
<path d="M29.1435 68.4878L26.3974 68.8237C26.2044 68.8473 26.0074 68.8098 25.8497 68.7192C25.6919 68.6287 25.5865 68.4926 25.5564 68.341L24.5901 63.4648C24.56 63.3131 24.6079 63.1583 24.7231 63.0344C24.8383 62.9105 25.0115 62.8276 25.2045 62.804L27.9506 62.468L29.1435 68.4878Z" fill="#FFD942" stroke="#263238" stroke-width="0.5" stroke-miterlimit="10" stroke-linecap="round"/>
<path d="M27.8865 62.1489L25.1404 62.4849C24.9474 62.5085 24.7504 62.4709 24.5927 62.3804C24.4349 62.2898 24.3295 62.1538 24.2994 62.0021L23.3331 57.1259C23.303 56.9743 23.3509 56.8195 23.4661 56.6955C23.5813 56.5716 23.7545 56.4887 23.9475 56.4651L26.6936 56.1292L27.8865 62.1489Z" fill="white" stroke="#263238" stroke-width="0.5" stroke-miterlimit="10" stroke-linecap="round"/>
<path d="M26.6355 55.8232L23.8894 56.1592C23.6964 56.1828 23.4994 56.1452 23.3417 56.0547C23.1839 55.9641 23.0784 55.8281 23.0484 55.6764L22.0821 50.8002C22.052 50.6486 22.0999 50.4938 22.2151 50.3698C22.3303 50.2459 22.5035 50.163 22.6965 50.1394L25.4426 49.8035L26.6355 55.8232Z" fill="#FFD942" stroke="#263238" stroke-width="0.5" stroke-miterlimit="10" stroke-linecap="round"/>
<path d="M21.453 43.8105L23.0955 43.6097L18.9073 22.4723L69.2548 16.3167L79.9935 70.5445L29.6488 76.6936L24.2878 49.6299L22.6453 49.8308C22.4534 49.8533 22.2578 49.8152 22.1016 49.7248C21.9453 49.6343 21.841 49.4989 21.8116 49.3482L20.8305 44.4722C20.8155 44.3966 20.8198 44.3194 20.8431 44.2451C20.8663 44.1708 20.9081 44.1008 20.966 44.0393C21.0239 43.9777 21.0968 43.9258 21.1804 43.8866C21.264 43.8473 21.3566 43.8215 21.453 43.8105Z" fill="white" stroke="#263238" stroke-width="0.5" stroke-miterlimit="10" stroke-linecap="round"/>
<path d="M26.8359 34.0192L27.0026 36.9824L45.7899 34.5738L45.2979 32.0933L26.8359 34.0192Z" fill="#FFD942"/>
<path d="M66.4567 19.6337C66.4844 19.7855 66.569 19.9274 66.6997 20.0413C66.8304 20.1552 67.0013 20.236 67.1906 20.2734C67.3799 20.3108 67.579 20.3031 67.7627 20.2513C67.9465 20.1995 68.1064 20.106 68.2223 19.9825C68.3381 19.8591 68.4046 19.7114 68.4133 19.5582C68.422 19.405 68.3725 19.2532 68.2711 19.1222C68.1697 18.9911 68.021 18.8867 67.8439 18.8223C67.6668 18.7579 67.4693 18.7363 67.2765 18.7603C67.0212 18.792 66.7921 18.9015 66.6387 19.0649C66.4853 19.2284 66.4199 19.4327 66.4567 19.6337Z" fill="#263238" stroke="#263238" stroke-width="0.5" stroke-miterlimit="10" stroke-linecap="round"/>
<path d="M67.5206 19.3935L70.4609 19.0332C70.5287 19.0221 70.5887 18.9916 70.6293 18.9476C70.6699 18.9036 70.6882 18.8492 70.6805 18.7952C70.6664 18.742 70.6275 18.6948 70.5715 18.6629C70.5155 18.631 70.4463 18.6167 70.3776 18.6227L67.4483 18.9786C67.3801 18.9892 67.3194 19.0196 67.2782 19.0636C67.237 19.1077 67.2184 19.1623 67.226 19.2166C67.2388 19.2694 67.2759 19.3167 67.3303 19.3493C67.3846 19.3819 67.4524 19.3977 67.5206 19.3935Z" fill="white" stroke="#263238" stroke-width="0.5" stroke-miterlimit="10" stroke-linecap="round"/>
<path d="M67.6432 19.9613L70.578 19.6032C70.6462 19.5926 70.7069 19.5623 70.7481 19.5182C70.7893 19.4741 70.8079 19.4195 70.8003 19.3652C70.7868 19.3116 70.7482 19.2639 70.6921 19.2315C70.636 19.1992 70.5665 19.1846 70.4974 19.1905L67.557 19.5508C67.4893 19.5619 67.4292 19.5924 67.3886 19.6364C67.348 19.6805 67.3298 19.7348 67.3375 19.7888C67.3516 19.8425 67.3909 19.89 67.4475 19.9219C67.5041 19.9539 67.574 19.9679 67.6432 19.9613Z" fill="white" stroke="#263238" stroke-width="0.5" stroke-miterlimit="10" stroke-linecap="round"/>
<path d="M66.9649 22.1514C66.9921 22.3028 67.076 22.4445 67.2058 22.5585C67.3357 22.6725 67.5056 22.7537 67.6942 22.7917C67.8828 22.8298 68.0815 22.823 68.2651 22.7723C68.4488 22.7216 68.6092 22.6292 68.726 22.5068C68.8428 22.3844 68.9108 22.2376 68.9214 22.0848C68.9319 21.9321 68.8845 21.7803 68.7852 21.6488C68.6859 21.5172 68.5392 21.4117 68.3635 21.3457C68.1879 21.2797 67.9913 21.2561 67.7986 21.2779C67.5408 21.3071 67.3082 21.4155 67.1519 21.5792C66.9956 21.743 66.9283 21.9487 66.9649 22.1514Z" fill="#263238" stroke="#263238" stroke-width="0.5" stroke-miterlimit="10" stroke-linecap="round"/>
<path d="M68.0285 21.9113L70.9661 21.5532C71.0343 21.5426 71.095 21.5122 71.1362 21.4682C71.1774 21.4241 71.196 21.3695 71.1884 21.3152C71.1749 21.2615 71.1363 21.2138 71.0802 21.1815C71.0241 21.1491 70.9546 21.1345 70.8855 21.1405L67.9451 21.5008C67.8774 21.5118 67.8173 21.5424 67.7767 21.5864C67.7361 21.6304 67.7179 21.6847 67.7256 21.7388C67.7397 21.792 67.7785 21.8392 67.8346 21.8711C67.8906 21.903 67.9597 21.9173 68.0285 21.9113Z" fill="white" stroke="#263238" stroke-width="0.5" stroke-miterlimit="10" stroke-linecap="round"/>
<path d="M68.1406 22.4723L71.081 22.1142C71.1487 22.1031 71.2087 22.0726 71.2493 22.0286C71.2899 21.9845 71.3082 21.9302 71.3005 21.8762C71.287 21.8226 71.2484 21.7749 71.1923 21.7425C71.1362 21.7102 71.0667 21.6955 70.9976 21.7015L68.06 22.0618C67.9918 22.0724 67.931 22.1027 67.8899 22.1468C67.8487 22.1909 67.8301 22.2455 67.8377 22.2998C67.8518 22.353 67.8906 22.4002 67.9467 22.4321C68.0027 22.464 68.0718 22.4783 68.1406 22.4723Z" fill="white" stroke="#263238" stroke-width="0.5" stroke-miterlimit="10" stroke-linecap="round"/>
<path d="M67.4542 24.6713C67.482 24.8231 67.5666 24.965 67.6973 25.0789C67.8279 25.1928 67.9988 25.2736 68.1881 25.311C68.3774 25.3484 68.5766 25.3407 68.7603 25.2889C68.944 25.2371 69.104 25.1436 69.2198 25.0201C69.3357 24.8967 69.4022 24.749 69.4109 24.5958C69.4196 24.4426 69.3701 24.2908 69.2687 24.1598C69.1673 24.0287 69.0186 23.9243 68.8414 23.8599C68.6643 23.7955 68.4668 23.7739 68.274 23.7979C68.0188 23.8296 67.7896 23.9391 67.6362 24.1025C67.4828 24.266 67.4174 24.4703 67.4542 24.6713Z" fill="#263238" stroke="#263238" stroke-width="0.5" stroke-miterlimit="10" stroke-linecap="round"/>
<path d="M68.5264 24.4376L71.4668 24.0795C71.5346 24.0685 71.5946 24.0379 71.6352 23.9939C71.6758 23.9499 71.694 23.8955 71.6864 23.8415C71.6729 23.7879 71.6343 23.7402 71.5782 23.7079C71.5221 23.6755 71.4526 23.6609 71.3834 23.6668L68.4459 24.0271C68.3776 24.0377 68.3169 24.0681 68.2757 24.1121C68.2346 24.1562 68.2159 24.2108 68.2235 24.2651C68.2376 24.3184 68.2765 24.3655 68.3325 24.3974C68.3885 24.4293 68.4577 24.4437 68.5264 24.4376Z" fill="white" stroke="#263238" stroke-width="0.5" stroke-miterlimit="10" stroke-linecap="round"/>
<path d="M68.6316 25.0011L71.5692 24.6408C71.6369 24.6302 71.6972 24.6002 71.7383 24.5566C71.7794 24.513 71.7984 24.459 71.7915 24.405C71.778 24.3514 71.7394 24.3037 71.6833 24.2713C71.6272 24.239 71.5577 24.2243 71.4886 24.2303L68.551 24.5906C68.4833 24.6012 68.423 24.6312 68.3819 24.6748C68.3408 24.7184 68.3218 24.7724 68.3287 24.8264C68.3422 24.8801 68.3808 24.9278 68.4369 24.9601C68.493 24.9924 68.5624 25.0071 68.6316 25.0011Z" fill="white" stroke="#263238" stroke-width="0.5" stroke-miterlimit="10" stroke-linecap="round"/>
<path d="M67.9512 27.1912C67.9784 27.3426 68.0623 27.4843 68.1922 27.5983C68.322 27.7123 68.4919 27.7935 68.6805 27.8315C68.8691 27.8696 69.0678 27.8628 69.2514 27.8121C69.4351 27.7614 69.5955 27.669 69.7123 27.5466C69.8291 27.4242 69.8971 27.2774 69.9077 27.1246C69.9182 26.9719 69.8708 26.8201 69.7715 26.6886C69.6722 26.557 69.5255 26.4515 69.3498 26.3855C69.1742 26.3195 68.9776 26.2959 68.7849 26.3177C68.5271 26.3469 68.2945 26.4553 68.1382 26.619C67.9819 26.7828 67.9146 26.9885 67.9512 27.1912Z" fill="#263238" stroke="#263238" stroke-width="0.5" stroke-miterlimit="10" stroke-linecap="round"/>
<path d="M69.0271 26.9511L71.9675 26.5908C72.0352 26.5802 72.0955 26.5502 72.1366 26.5066C72.1777 26.463 72.1967 26.4089 72.1898 26.3549C72.1763 26.3013 72.1377 26.2536 72.0816 26.2213C72.0255 26.1889 71.956 26.1743 71.8869 26.1803L68.9465 26.5406C68.9123 26.5445 68.8794 26.5538 68.8498 26.5679C68.8202 26.5819 68.7944 26.6005 68.774 26.6224C68.7536 26.6443 68.7389 26.6693 68.7308 26.6957C68.7227 26.7221 68.7214 26.7496 68.727 26.7764C68.7404 26.8296 68.7786 26.877 68.8341 26.9093C68.8896 26.9416 68.9584 26.9565 69.0271 26.9511Z" fill="white" stroke="#263238" stroke-width="0.5" stroke-miterlimit="10" stroke-linecap="round"/>
<path d="M69.1384 27.521L72.0788 27.1607C72.1132 27.1567 72.1464 27.1474 72.1762 27.1332C72.206 27.119 72.2319 27.1003 72.2524 27.0781C72.2729 27.0559 72.2875 27.0307 72.2953 27.004C72.3032 26.9774 72.3042 26.9497 72.2983 26.9227C72.2932 26.8958 72.2814 26.87 72.2635 26.8467C72.2456 26.8234 72.2221 26.8032 72.1941 26.7871C72.1662 26.7711 72.1345 26.7596 72.1009 26.7532C72.0672 26.7469 72.0323 26.7459 71.9982 26.7502L69.0578 27.1083C68.9901 27.1194 68.93 27.1499 68.8894 27.1939C68.8488 27.238 68.8306 27.2923 68.8382 27.3463C68.8517 27.3995 68.8899 27.4469 68.9454 27.4792C69.0009 27.5115 69.0697 27.5264 69.1384 27.521Z" fill="white" stroke="#263238" stroke-width="0.5" stroke-miterlimit="10" stroke-linecap="round"/>
<path d="M68.4517 29.7111C68.4795 29.8629 68.5641 30.0048 68.6948 30.1187C68.8255 30.2326 68.9963 30.3134 69.1856 30.3508C69.3749 30.3882 69.5741 30.3805 69.7578 30.3287C69.9415 30.2769 70.1015 30.1834 70.2173 30.0599C70.3332 29.9365 70.3997 29.7888 70.4084 29.6356C70.4171 29.4824 70.3676 29.3306 70.2662 29.1996C70.1648 29.0685 70.0161 28.9641 69.839 28.8997C69.6619 28.8352 69.4643 28.8136 69.2716 28.8376C69.0163 28.8694 68.7872 28.9789 68.6337 29.1423C68.4803 29.3058 68.4149 29.5101 68.4517 29.7111Z" fill="#263238" stroke="#263238" stroke-width="0.5" stroke-miterlimit="10" stroke-linecap="round"/>
<path d="M69.5242 29.471L72.4646 29.1107C72.5323 29.0996 72.5924 29.0691 72.633 29.025C72.6736 28.981 72.6918 28.9267 72.6841 28.8727C72.6791 28.8458 72.6673 28.8199 72.6494 28.7967C72.6315 28.7734 72.6079 28.7531 72.58 28.7371C72.552 28.7211 72.5203 28.7095 72.4867 28.7032C72.4531 28.6968 72.4182 28.6958 72.384 28.7001L69.4436 29.0583C69.3759 29.0693 69.3159 29.0999 69.2753 29.1439C69.2346 29.1879 69.2164 29.2422 69.2241 29.2963C69.2376 29.3495 69.2758 29.3968 69.3312 29.4291C69.3867 29.4614 69.4555 29.4763 69.5242 29.471Z" fill="white" stroke="#263238" stroke-width="0.5" stroke-miterlimit="10" stroke-linecap="round"/>
<path d="M69.6384 30.0407L72.576 29.6782C72.6442 29.6676 72.7049 29.6373 72.7461 29.5932C72.7872 29.5491 72.8059 29.4946 72.7983 29.4402C72.7842 29.387 72.7453 29.3398 72.6893 29.3079C72.6333 29.276 72.5641 29.2617 72.4954 29.2677L69.5578 29.6258C69.4895 29.6364 69.4288 29.6668 69.3877 29.7108C69.3465 29.7549 69.3279 29.8095 69.3354 29.8638C69.3483 29.9179 69.3867 29.9661 69.4428 29.9989C69.499 30.0317 69.5688 30.0466 69.6384 30.0407Z" fill="white" stroke="#263238" stroke-width="0.5" stroke-miterlimit="10" stroke-linecap="round"/>
<path d="M68.9492 32.2309C68.9791 32.3815 69.065 32.5219 69.1961 32.6342C69.3272 32.7466 69.4976 32.826 69.686 32.8624C69.8744 32.8989 70.0723 32.8908 70.2548 32.8391C70.4374 32.7874 70.5964 32.6945 70.7119 32.572C70.8273 32.4495 70.8941 32.3029 70.9039 32.1506C70.9136 31.9984 70.8658 31.8473 70.7666 31.7163C70.6673 31.5854 70.5209 31.4804 70.3459 31.4146C70.1709 31.3488 69.975 31.3251 69.783 31.3465C69.6539 31.3609 69.5298 31.3953 69.4179 31.4477C69.3059 31.5001 69.2083 31.5695 69.1307 31.6518C69.0532 31.734 68.9972 31.8276 68.966 31.927C68.9348 32.0264 68.9291 32.1297 68.9492 32.2309Z" fill="#263238" stroke="#263238" stroke-width="0.5" stroke-miterlimit="10" stroke-linecap="round"/>
<path d="M70.022 31.9909L72.9596 31.6306C73.0278 31.62 73.0885 31.5897 73.1297 31.5456C73.1709 31.5015 73.1895 31.4469 73.1819 31.3926C73.1678 31.3394 73.1289 31.2922 73.0729 31.2603C73.0169 31.2284 72.9477 31.2141 72.879 31.2201L69.9414 31.5782C69.8731 31.5888 69.8124 31.6192 69.7713 31.6632C69.7301 31.7073 69.7115 31.7619 69.719 31.8162C69.7325 31.8699 69.7712 31.9175 69.8272 31.9499C69.8833 31.9822 69.9528 31.9969 70.022 31.9909Z" fill="white" stroke="#263238" stroke-width="0.5" stroke-miterlimit="10" stroke-linecap="round"/>
<path d="M70.1382 32.5585L73.0785 32.2004C73.1468 32.1898 73.2075 32.1594 73.2486 32.1154C73.2898 32.0713 73.3084 32.0167 73.3009 31.9624C73.2874 31.9087 73.2488 31.861 73.1927 31.8287C73.1366 31.7964 73.0671 31.7817 72.9979 31.7877L70.0576 32.148C69.9898 32.1591 69.9298 32.1896 69.8892 32.2336C69.8486 32.2776 69.8303 32.332 69.838 32.386C69.8521 32.4388 69.8905 32.4856 69.9459 32.5175C70.0014 32.5494 70.0698 32.564 70.1382 32.5585Z" fill="white" stroke="#263238" stroke-width="0.5" stroke-miterlimit="10" stroke-linecap="round"/>
<path d="M69.4492 34.7487C69.477 34.9005 69.5616 35.0424 69.6923 35.1563C69.823 35.2702 69.9938 35.351 70.1831 35.3884C70.3724 35.4258 70.5716 35.4181 70.7553 35.3663C70.939 35.3145 71.099 35.221 71.2148 35.0975C71.3307 34.9741 71.3972 34.8264 71.4059 34.6732C71.4146 34.52 71.3651 34.3682 71.2637 34.2372C71.1623 34.1061 71.0136 34.0017 70.8365 33.9373C70.6594 33.8728 70.4619 33.8512 70.2691 33.8752C70.0138 33.907 69.7847 34.0165 69.6313 34.1799C69.4779 34.3434 69.4125 34.5477 69.4492 34.7487Z" fill="#263238" stroke="#263238" stroke-width="0.5" stroke-miterlimit="10" stroke-linecap="round"/>
<path d="M70.5225 34.5085L73.4629 34.1504C73.5311 34.1398 73.5918 34.1095 73.633 34.0654C73.6742 34.0213 73.6928 33.9667 73.6852 33.9124C73.6711 33.8592 73.6322 33.812 73.5762 33.7801C73.5202 33.7482 73.451 33.7338 73.3823 33.7399L70.4419 34.098C70.3742 34.1091 70.3141 34.1396 70.2735 34.1836C70.2329 34.2276 70.2147 34.282 70.2224 34.336C70.2271 34.363 70.2387 34.389 70.2564 34.4124C70.2742 34.4358 70.2978 34.4562 70.3258 34.4723C70.3538 34.4884 70.3857 34.4999 70.4195 34.5061C70.4533 34.5123 70.4883 34.5132 70.5225 34.5085Z" fill="white" stroke="#263238" stroke-width="0.5" stroke-miterlimit="10" stroke-linecap="round"/>
<path d="M70.6359 35.0783L73.5763 34.7202C73.644 34.7091 73.704 34.6785 73.7446 34.6345C73.7853 34.5905 73.8035 34.5362 73.7958 34.4821C73.7823 34.4285 73.7437 34.3808 73.6876 34.3485C73.6315 34.3161 73.562 34.3015 73.4929 34.3075L70.5553 34.6678C70.4871 34.6784 70.4263 34.7087 70.3852 34.7528C70.344 34.7968 70.3254 34.8514 70.333 34.9058C70.3471 34.959 70.3859 35.0062 70.442 35.0381C70.498 35.07 70.5671 35.0843 70.6359 35.0783Z" fill="white" stroke="#263238" stroke-width="0.5" stroke-miterlimit="10" stroke-linecap="round"/>
<path d="M69.9495 37.2687C69.9773 37.4205 70.0619 37.5624 70.1926 37.6763C70.3232 37.7902 70.4941 37.871 70.6834 37.9084C70.8727 37.9458 71.0719 37.9381 71.2556 37.8863C71.4393 37.8345 71.5993 37.741 71.7151 37.6176C71.831 37.4941 71.8975 37.3464 71.9062 37.1932C71.9149 37.04 71.8654 36.8882 71.764 36.7572C71.6626 36.6261 71.5139 36.5218 71.3368 36.4573C71.1596 36.3929 70.9621 36.3713 70.7694 36.3953C70.5141 36.427 70.2849 36.5365 70.1315 36.6999C69.9781 36.8634 69.9127 37.0677 69.9495 37.2687Z" fill="#263238" stroke="#263238" stroke-width="0.5" stroke-miterlimit="10" stroke-linecap="round"/>
<path d="M71.0217 37.0284L73.9621 36.666C74.0298 36.6549 74.0899 36.6243 74.1305 36.5803C74.1711 36.5363 74.1893 36.482 74.1817 36.4279C74.1682 36.3743 74.1296 36.3266 74.0735 36.2943C74.0174 36.2619 73.9479 36.2473 73.8787 36.2533L70.9412 36.6136C70.8729 36.6242 70.8122 36.6545 70.771 36.6986C70.7299 36.7426 70.7112 36.7972 70.7188 36.8516C70.7317 36.9056 70.7701 36.9538 70.8262 36.9866C70.8824 37.0194 70.9522 37.0343 71.0217 37.0284Z" fill="white" stroke="#263238" stroke-width="0.5" stroke-miterlimit="10" stroke-linecap="round"/>
<path d="M71.1332 37.5983L74.0708 37.238C74.1385 37.2274 74.1988 37.1974 74.2399 37.1538C74.281 37.1102 74.3 37.0561 74.2931 37.0022C74.2796 36.9485 74.241 36.9008 74.185 36.8685C74.1289 36.8362 74.0594 36.8215 73.9902 36.8275L71.0499 37.1878C70.9821 37.1988 70.9221 37.2294 70.8815 37.2734C70.8409 37.3174 70.8226 37.3718 70.8303 37.4258C70.8444 37.479 70.8833 37.5262 70.9393 37.5581C70.9953 37.59 71.0645 37.6043 71.1332 37.5983Z" fill="white" stroke="#263238" stroke-width="0.5" stroke-miterlimit="10" stroke-linecap="round"/>
<path d="M70.4472 39.7883C70.4745 39.9398 70.5584 40.0815 70.6882 40.1955C70.818 40.3095 70.988 40.3906 71.1766 40.4287C71.3651 40.4667 71.5638 40.46 71.7475 40.4093C71.9312 40.3585 72.0916 40.2662 72.2084 40.1438C72.3252 40.0214 72.3932 39.8746 72.4037 39.7218C72.4142 39.5691 72.3669 39.4173 72.2676 39.2857C72.1683 39.1541 72.0215 39.0487 71.8459 38.9827C71.6703 38.9167 71.4737 38.8931 71.281 38.9149C71.0231 38.9441 70.7906 39.0524 70.6343 39.2162C70.478 39.3799 70.4107 39.5857 70.4472 39.7883Z" fill="#263238" stroke="#263238" stroke-width="0.5" stroke-miterlimit="10" stroke-linecap="round"/>
<path d="M71.5227 39.5482L74.4686 39.1901C74.5369 39.1795 74.5976 39.1492 74.6387 39.1051C74.6799 39.061 74.6985 39.0065 74.6909 38.9521C74.6774 38.8985 74.6388 38.8508 74.5828 38.8184C74.5267 38.7861 74.4572 38.7715 74.388 38.7774L71.4477 39.1377C71.3799 39.1488 71.3199 39.1793 71.2793 39.2234C71.2387 39.2674 71.2204 39.3217 71.2281 39.3757C71.2421 39.4277 71.2797 39.4739 71.3339 39.5057C71.3882 39.5374 71.4553 39.5526 71.5227 39.5482Z" fill="white" stroke="#263238" stroke-width="0.5" stroke-miterlimit="10" stroke-linecap="round"/>
<path d="M71.6339 40.1181L74.5742 39.7578C74.642 39.7467 74.702 39.7162 74.7426 39.6722C74.7832 39.6282 74.8015 39.5738 74.7938 39.5198C74.7797 39.4666 74.7408 39.4194 74.6848 39.3875C74.6288 39.3556 74.5596 39.3413 74.4909 39.3473L71.5533 39.7076C71.4856 39.7182 71.4253 39.7482 71.3842 39.7918C71.3431 39.8354 71.3241 39.8894 71.3309 39.9434C71.3444 39.997 71.3831 40.0447 71.4391 40.0771C71.4952 40.1094 71.5647 40.1241 71.6339 40.1181Z" fill="white" stroke="#263238" stroke-width="0.5" stroke-miterlimit="10" stroke-linecap="round"/>
<path d="M70.947 42.3083C70.9748 42.4601 71.0594 42.6019 71.1901 42.7159C71.3208 42.8298 71.4916 42.9106 71.6809 42.948C71.8702 42.9854 72.0694 42.9777 72.2531 42.9259C72.4368 42.8741 72.5968 42.7805 72.7126 42.6571C72.8285 42.5337 72.895 42.386 72.9037 42.2328C72.9124 42.0796 72.8629 41.9278 72.7615 41.7967C72.6601 41.6657 72.5114 41.5613 72.3343 41.4969C72.1572 41.4324 71.9596 41.4108 71.7669 41.4348C71.5116 41.4666 71.2825 41.576 71.129 41.7395C70.9756 41.9029 70.9102 42.1072 70.947 42.3083Z" fill="#263238" stroke="#263238" stroke-width="0.5" stroke-miterlimit="10" stroke-linecap="round"/>
<path d="M72.0205 42.0681L74.9608 41.7078C75.0286 41.6967 75.0886 41.6661 75.1292 41.6221C75.1698 41.5781 75.1881 41.5238 75.1804 41.4698C75.1663 41.4165 75.1274 41.3694 75.0714 41.3375C75.0154 41.3055 74.9462 41.2912 74.8775 41.2972L71.9399 41.6575C71.8721 41.6681 71.8119 41.6981 71.7708 41.7417C71.7297 41.7853 71.7107 41.8394 71.7175 41.8934C71.731 41.947 71.7697 41.9947 71.8257 42.027C71.8818 42.0594 71.9513 42.074 72.0205 42.0681Z" fill="white" stroke="#263238" stroke-width="0.5" stroke-miterlimit="10" stroke-linecap="round"/>
<path d="M72.1337 42.6381L75.0713 42.2778C75.1396 42.2672 75.2003 42.2369 75.2414 42.1928C75.2826 42.1488 75.3012 42.0942 75.2937 42.0398C75.2795 41.9866 75.2407 41.9394 75.1847 41.9075C75.1286 41.8756 75.0595 41.8613 74.9907 41.8673L72.0504 42.2254C71.9826 42.2365 71.9226 42.267 71.882 42.3111C71.8414 42.3551 71.8231 42.4094 71.8308 42.4634C71.8443 42.5171 71.8829 42.5648 71.939 42.5971C71.9951 42.6295 72.0646 42.6441 72.1337 42.6381Z" fill="white" stroke="#263238" stroke-width="0.5" stroke-miterlimit="10" stroke-linecap="round"/>
<path d="M71.4453 44.8283C71.4751 44.9789 71.561 45.1193 71.6921 45.2316C71.8232 45.344 71.9937 45.4234 72.1821 45.4599C72.3705 45.4963 72.5684 45.4882 72.7509 45.4365C72.9334 45.3848 73.0924 45.2919 73.2079 45.1694C73.3234 45.0469 73.3902 44.9003 73.3999 44.7481C73.4097 44.5958 73.3619 44.4447 73.2626 44.3137C73.1633 44.1828 73.017 44.0778 72.842 44.012C72.667 43.9462 72.4711 43.9225 72.279 43.944C72.15 43.9584 72.0259 43.9928 71.9139 44.0452C71.802 44.0975 71.7043 44.1669 71.6268 44.2492C71.5492 44.3314 71.4932 44.425 71.4621 44.5244C71.4309 44.6239 71.4252 44.7272 71.4453 44.8283Z" fill="#263238" stroke="#263238" stroke-width="0.5" stroke-miterlimit="10" stroke-linecap="round"/>
<path d="M72.5226 44.5881L75.4602 44.2278C75.5284 44.2172 75.5891 44.1868 75.6303 44.1428C75.6714 44.0987 75.6901 44.0441 75.6825 43.9898C75.6684 43.9366 75.6295 43.8894 75.5735 43.8575C75.5175 43.8256 75.4483 43.8112 75.3796 43.8173L72.4392 44.1754C72.3715 44.1865 72.3114 44.217 72.2708 44.261C72.2302 44.305 72.212 44.3594 72.2196 44.4134C72.2331 44.467 72.2718 44.5147 72.3278 44.5471C72.3839 44.5794 72.4534 44.594 72.5226 44.5881Z" fill="white" stroke="#263238" stroke-width="0.5" stroke-miterlimit="10" stroke-linecap="round"/>
<path d="M72.6309 45.1559L75.5796 44.7978C75.6474 44.7867 75.7074 44.7562 75.748 44.7121C75.7886 44.6681 75.8069 44.6138 75.7992 44.5598C75.7945 44.5327 75.7829 44.5068 75.7651 44.4833C75.7473 44.4599 75.7237 44.4395 75.6957 44.4234C75.6677 44.4074 75.6359 44.3958 75.6021 44.3896C75.5683 44.3834 75.5332 44.3826 75.499 44.3873L72.5504 44.7454C72.4821 44.756 72.4214 44.7863 72.3802 44.8304C72.3391 44.8744 72.3204 44.929 72.328 44.9834C72.3421 45.0366 72.381 45.0838 72.437 45.1157C72.493 45.1476 72.5622 45.1619 72.6309 45.1559Z" fill="white" stroke="#263238" stroke-width="0.5" stroke-miterlimit="10" stroke-linecap="round"/>
<path d="M71.9445 47.3459C71.9723 47.4977 72.0569 47.6395 72.1876 47.7535C72.3183 47.8674 72.4891 47.9482 72.6784 47.9856C72.8677 48.023 73.0669 48.0153 73.2506 47.9635C73.4343 47.9117 73.5943 47.8181 73.7101 47.6947C73.826 47.5713 73.8925 47.4236 73.9012 47.2704C73.9099 47.1172 73.8604 46.9654 73.759 46.8343C73.6576 46.7033 73.5089 46.5989 73.3318 46.5345C73.1547 46.47 72.9572 46.4484 72.7644 46.4724C72.5091 46.5042 72.28 46.6136 72.1266 46.7771C71.9731 46.9405 71.9078 47.1448 71.9445 47.3459Z" fill="#263238" stroke="#263238" stroke-width="0.5" stroke-miterlimit="10" stroke-linecap="round"/>
<path d="M73.0175 47.1079L75.9579 46.7476C76.0256 46.7365 76.0857 46.706 76.1263 46.6619C76.1669 46.6179 76.1851 46.5636 76.1775 46.5096C76.1634 46.4568 76.1249 46.4099 76.0695 46.3781C76.0141 46.3462 75.9456 46.3316 75.8773 46.3371L72.9369 46.6952C72.8687 46.7058 72.808 46.7361 72.7668 46.7802C72.7257 46.8242 72.707 46.8788 72.7146 46.9332C72.7281 46.9868 72.7667 47.0345 72.8228 47.0669C72.8789 47.0992 72.9484 47.1138 73.0175 47.1079Z" fill="white" stroke="#263238" stroke-width="0.5" stroke-miterlimit="10" stroke-linecap="round"/>
<path d="M73.1319 47.6757L76.0695 47.3176C76.1378 47.307 76.1985 47.2766 76.2397 47.2326C76.2808 47.1885 76.2994 47.1339 76.2919 47.0796C76.2784 47.0259 76.2398 46.9782 76.1837 46.9459C76.1276 46.9135 76.0581 46.8989 75.9889 46.9049L73.0513 47.2652C72.9831 47.2758 72.9224 47.3061 72.8812 47.3502C72.8401 47.3942 72.8214 47.4488 72.829 47.5032C72.8431 47.5564 72.882 47.6036 72.938 47.6355C72.994 47.6674 73.0632 47.6817 73.1319 47.6757Z" fill="white" stroke="#263238" stroke-width="0.5" stroke-miterlimit="10" stroke-linecap="round"/>
<path d="M72.4419 49.8657C72.4692 50.0172 72.5531 50.1589 72.6829 50.2729C72.8127 50.3869 72.9827 50.468 73.1712 50.5061C73.3598 50.5441 73.5585 50.5374 73.7422 50.4867C73.9259 50.4359 74.0863 50.3435 74.2031 50.2212C74.3199 50.0988 74.3879 49.9519 74.3984 49.7992C74.4089 49.6465 74.3616 49.4947 74.2623 49.3631C74.163 49.2315 74.0162 49.1261 73.8406 49.0601C73.665 48.994 73.4684 48.9705 73.2757 48.9923C73.0181 49.022 72.786 49.1305 72.6299 49.2941C72.4737 49.4577 72.4061 49.6632 72.4419 49.8657Z" fill="#263238" stroke="#263238" stroke-width="0.5" stroke-miterlimit="10" stroke-linecap="round"/>
<path d="M73.5178 49.6256L76.4554 49.2675C76.5236 49.2569 76.5843 49.2266 76.6255 49.1825C76.6667 49.1384 76.6853 49.0838 76.6777 49.0295C76.6642 48.9759 76.6256 48.9282 76.5695 48.8958C76.5134 48.8635 76.4439 48.8489 76.3748 48.8548L73.4372 49.2151C73.369 49.2257 73.3082 49.2561 73.2671 49.3001C73.2259 49.3442 73.2073 49.3988 73.2149 49.4531C73.229 49.5063 73.2678 49.5535 73.3239 49.5854C73.3799 49.6173 73.449 49.6317 73.5178 49.6256Z" fill="white" stroke="#263238" stroke-width="0.5" stroke-miterlimit="10" stroke-linecap="round"/>
<path d="M73.6347 50.2043L76.5751 49.8462C76.6428 49.8351 76.7029 49.8045 76.7435 49.7605C76.7841 49.7165 76.8023 49.6622 76.7946 49.6081C76.7812 49.5549 76.743 49.5076 76.6875 49.4753C76.632 49.443 76.5632 49.4281 76.4945 49.4335L73.5541 49.7937C73.4864 49.8048 73.4263 49.8354 73.3857 49.8794C73.3451 49.9234 73.3269 49.9777 73.3346 50.0318C73.3396 50.0586 73.3515 50.0845 73.3694 50.1077C73.3872 50.131 73.4108 50.1513 73.4387 50.1673C73.4667 50.1834 73.4984 50.1949 73.532 50.2012C73.5657 50.2076 73.6006 50.2086 73.6347 50.2043Z" fill="white" stroke="#263238" stroke-width="0.5" stroke-miterlimit="10" stroke-linecap="round"/>
<path d="M72.942 52.3879C72.9698 52.5397 73.0544 52.6815 73.1851 52.7954C73.3158 52.9094 73.4866 52.9901 73.6759 53.0275C73.8652 53.0649 74.0644 53.0573 74.2481 53.0055C74.4318 52.9537 74.5918 52.8601 74.7077 52.7367C74.8235 52.6133 74.89 52.4656 74.8987 52.3124C74.9074 52.1591 74.8579 52.0074 74.7565 51.8763C74.6551 51.7453 74.5064 51.6409 74.3293 51.5765C74.1522 51.512 73.9547 51.4904 73.7619 51.5144C73.5066 51.5462 73.2775 51.6556 73.1241 51.8191C72.9707 51.9825 72.9053 52.1868 72.942 52.3879Z" fill="#263238" stroke="#263238" stroke-width="0.5" stroke-miterlimit="10" stroke-linecap="round"/>
<path d="M74.0152 52.1457L76.9694 51.7876C77.0039 51.7836 77.0371 51.7742 77.0669 51.76C77.0967 51.7458 77.1226 51.7271 77.1431 51.7049C77.1635 51.6827 77.1781 51.6576 77.186 51.6309C77.1939 51.6042 77.1949 51.5765 77.189 51.5496C77.1755 51.4963 77.1373 51.449 77.0818 51.4167C77.0263 51.3844 76.9575 51.3695 76.8888 51.3749L73.9346 51.733C73.9001 51.7369 73.8669 51.7463 73.8371 51.7605C73.8073 51.7747 73.7814 51.7934 73.7609 51.8156C73.7405 51.8378 73.7259 51.863 73.718 51.8897C73.7101 51.9163 73.7091 51.944 73.715 51.971C73.7198 51.9981 73.7313 52.0241 73.7491 52.0477C73.7668 52.0712 73.7904 52.0917 73.8183 52.1079C73.8463 52.1242 73.8781 52.1359 73.9119 52.1424C73.9457 52.1489 73.9808 52.15 74.0152 52.1457Z" fill="white" stroke="#263238" stroke-width="0.5" stroke-miterlimit="10" stroke-linecap="round"/>
<path d="M74.1292 52.7155L77.0668 52.3552C77.1012 52.3515 77.1344 52.3424 77.1644 52.3284C77.1943 52.3145 77.2204 52.296 77.2411 52.274C77.2618 52.252 77.2767 52.227 77.285 52.2005C77.2932 52.1739 77.2946 52.1463 77.2891 52.1193C77.2756 52.0657 77.237 52.018 77.1809 51.9857C77.1248 51.9533 77.0553 51.9387 76.9862 51.9447L74.0486 52.305C73.9809 52.3155 73.9206 52.3456 73.8795 52.3891C73.8384 52.4327 73.8194 52.4868 73.8263 52.5408C73.8398 52.5944 73.8784 52.6421 73.9345 52.6745C73.9905 52.7068 74.06 52.7214 74.1292 52.7155Z" fill="white" stroke="#263238" stroke-width="0.5" stroke-miterlimit="10" stroke-linecap="round"/>
<path d="M73.4394 54.9055C73.4667 55.057 73.5506 55.1987 73.6804 55.3127C73.8102 55.4266 73.9802 55.5078 74.1688 55.5459C74.3573 55.5839 74.556 55.5772 74.7397 55.5264C74.9234 55.4757 75.0838 55.3833 75.2006 55.261C75.3174 55.1386 75.3854 54.9917 75.3959 54.839C75.4065 54.6863 75.3591 54.5345 75.2598 54.4029C75.1605 54.2713 75.0137 54.1659 74.8381 54.0999C74.6625 54.0338 74.4659 54.0103 74.2732 54.0321C74.0157 54.0618 73.7835 54.1703 73.6274 54.3339C73.4712 54.4975 73.4037 54.703 73.4394 54.9055Z" fill="#263238" stroke="#263238" stroke-width="0.5" stroke-miterlimit="10" stroke-linecap="round"/>
<path d="M74.5158 54.6654L77.4534 54.3051C77.5211 54.2945 77.5814 54.2645 77.6225 54.2209C77.6636 54.1773 77.6825 54.1233 77.6757 54.0693C77.6622 54.0157 77.6236 53.968 77.5675 53.9356C77.5114 53.9033 77.4419 53.8887 77.3728 53.8946L74.4352 54.2549C74.3675 54.2655 74.3072 54.2955 74.2661 54.3391C74.225 54.3827 74.206 54.4368 74.2128 54.4907C74.2263 54.5444 74.265 54.5921 74.321 54.6244C74.3771 54.6567 74.4466 54.6714 74.5158 54.6654Z" fill="white" stroke="#263238" stroke-width="0.5" stroke-miterlimit="10" stroke-linecap="round"/>
<path d="M74.629 55.2268L77.5666 54.8665C77.6349 54.8559 77.6956 54.8255 77.7367 54.7814C77.7779 54.7374 77.7965 54.6828 77.789 54.6284C77.7749 54.5752 77.736 54.528 77.68 54.4961C77.6239 54.4642 77.5548 54.4499 77.486 54.4559L74.5457 54.814C74.4779 54.8251 74.4179 54.8557 74.3773 54.8997C74.3367 54.9437 74.3184 54.998 74.3261 55.0521C74.3396 55.1057 74.3782 55.1534 74.4343 55.1857C74.4904 55.2181 74.5599 55.2327 74.629 55.2268Z" fill="white" stroke="#263238" stroke-width="0.5" stroke-miterlimit="10" stroke-linecap="round"/>
<path d="M73.9403 57.4255C73.9681 57.5773 74.0527 57.7191 74.1834 57.833C74.3141 57.947 74.4849 58.0277 74.6742 58.0651C74.8635 58.1025 75.0627 58.0949 75.2464 58.0431C75.4301 57.9913 75.5901 57.8977 75.7059 57.7743C75.8218 57.6509 75.8883 57.5032 75.897 57.35C75.9057 57.1967 75.8562 57.045 75.7548 56.9139C75.6534 56.7829 75.5047 56.6785 75.3276 56.614C75.1505 56.5496 74.953 56.528 74.7602 56.552C74.5049 56.5838 74.2758 56.6932 74.1224 56.8567C73.9689 57.0201 73.9036 57.2244 73.9403 57.4255Z" fill="#263238" stroke="#263238" stroke-width="0.5" stroke-miterlimit="10" stroke-linecap="round"/>
<path d="M75.0246 57.1918L77.9622 56.8315C78.0304 56.8209 78.0911 56.7906 78.1323 56.7465C78.1735 56.7025 78.1921 56.6479 78.1845 56.5935C78.1704 56.5403 78.1316 56.4931 78.0755 56.4612C78.0195 56.4293 77.9504 56.415 77.8816 56.421L74.9412 56.7791C74.8735 56.7902 74.8134 56.8208 74.7728 56.8648C74.7322 56.9088 74.714 56.9631 74.7217 57.0172C74.7352 57.0708 74.7738 57.1185 74.8299 57.1508C74.886 57.1832 74.9554 57.1978 75.0246 57.1918Z" fill="white" stroke="#263238" stroke-width="0.5" stroke-miterlimit="10" stroke-linecap="round"/>
<path d="M75.1266 57.7553L78.0808 57.395C78.1486 57.3839 78.2086 57.3534 78.2492 57.3094C78.2898 57.2654 78.3081 57.211 78.3004 57.157C78.2863 57.1038 78.2474 57.0566 78.1914 57.0247C78.1354 56.9928 78.0662 56.9785 77.9974 56.9845L75.0599 57.3426C74.9916 57.3532 74.9309 57.3836 74.8897 57.4276C74.8486 57.4717 74.8299 57.5263 74.8375 57.5806C74.8508 57.6322 74.8874 57.6783 74.9405 57.7104C74.9936 57.7425 75.0597 57.7585 75.1266 57.7553Z" fill="white" stroke="#263238" stroke-width="0.5" stroke-miterlimit="10" stroke-linecap="round"/>
<path d="M74.4408 59.9453C74.4707 60.0959 74.5566 60.2362 74.6877 60.3486C74.8188 60.4609 74.9893 60.5403 75.1776 60.5768C75.366 60.6133 75.5639 60.6051 75.7465 60.5534C75.929 60.5018 76.088 60.4088 76.2035 60.2863C76.319 60.1638 76.3858 60.0173 76.3955 59.865C76.4052 59.7128 76.3575 59.5617 76.2582 59.4307C76.1589 59.2997 76.0125 59.1947 75.8375 59.1289C75.6625 59.0631 75.4667 59.0395 75.2746 59.0609C75.1455 59.0753 75.0214 59.1097 74.9095 59.1621C74.7975 59.2145 74.6999 59.2838 74.6223 59.3661C74.5448 59.4484 74.4888 59.542 74.4576 59.6414C74.4265 59.7408 74.4207 59.8441 74.4408 59.9453Z" fill="#263238" stroke="#263238" stroke-width="0.5" stroke-miterlimit="10" stroke-linecap="round"/>
<path d="M75.5135 59.7051L78.4539 59.3448C78.5216 59.3337 78.5816 59.3032 78.6222 59.2592C78.6628 59.2151 78.6811 59.1608 78.6734 59.1068C78.658 59.0527 78.617 59.0052 78.5587 58.9739C78.5003 58.9427 78.4291 58.9301 78.3594 58.9386L75.4218 59.2968C75.3535 59.3074 75.2928 59.3377 75.2517 59.3818C75.2105 59.4258 75.1919 59.4804 75.1994 59.5348C75.2142 59.5893 75.255 59.6373 75.3134 59.669C75.3718 59.7006 75.4434 59.7136 75.5135 59.7051Z" fill="white" stroke="#263238" stroke-width="0.5" stroke-miterlimit="10" stroke-linecap="round"/>
<path d="M75.6281 60.2728L78.5656 59.9147C78.6339 59.9041 78.6946 59.8738 78.7358 59.8297C78.7769 59.7857 78.7956 59.7311 78.788 59.6767C78.7745 59.6231 78.7359 59.5754 78.6798 59.5431C78.6237 59.5107 78.5542 59.4961 78.4851 59.502L75.5447 59.8623C75.4769 59.8734 75.4169 59.9039 75.3763 59.948C75.3357 59.992 75.3174 60.0463 75.3251 60.1003C75.3392 60.1536 75.3781 60.2007 75.4341 60.2326C75.4901 60.2645 75.5593 60.2789 75.6281 60.2728Z" fill="white" stroke="#263238" stroke-width="0.5" stroke-miterlimit="10" stroke-linecap="round"/>
<path d="M74.9379 62.463C74.9656 62.6148 75.0502 62.7567 75.1809 62.8706C75.3116 62.9845 75.4825 63.0653 75.6717 63.1027C75.861 63.1401 76.0602 63.1324 76.2439 63.0807C76.4276 63.0289 76.5876 62.9353 76.7035 62.8119C76.8193 62.6885 76.8858 62.5407 76.8945 62.3875C76.9032 62.2343 76.8537 62.0826 76.7523 61.9515C76.6509 61.8205 76.5022 61.7161 76.3251 61.6516C76.148 61.5872 75.9505 61.5656 75.7577 61.5896C75.5024 61.6214 75.2733 61.7308 75.1199 61.8943C74.9665 62.0577 74.9011 62.262 74.9379 62.463Z" fill="#263238" stroke="#263238" stroke-width="0.5" stroke-miterlimit="10" stroke-linecap="round"/>
<path d="M76.0139 62.2143L78.9515 61.8561C79.0197 61.8455 79.0804 61.8152 79.1216 61.7711C79.1628 61.7271 79.1814 61.6725 79.1738 61.6181C79.1688 61.591 79.1569 61.565 79.1388 61.5415C79.1207 61.5181 79.0969 61.4978 79.0687 61.4817C79.0404 61.4656 79.0084 61.4541 78.9744 61.4479C78.9405 61.4417 78.9053 61.441 78.8709 61.4456L75.9305 61.8037C75.8628 61.8148 75.8027 61.8454 75.7621 61.8894C75.7215 61.9334 75.7033 61.9877 75.711 62.0417C75.716 62.0688 75.7279 62.0949 75.746 62.1183C75.7641 62.1418 75.7879 62.1621 75.8161 62.1782C75.8444 62.1943 75.8764 62.2057 75.9104 62.2119C75.9443 62.2181 75.9795 62.2189 76.0139 62.2143Z" fill="white" stroke="#263238" stroke-width="0.5" stroke-miterlimit="10" stroke-linecap="round"/>
<path d="M76.1356 62.7929L79.0649 62.4326C79.1326 62.4215 79.1927 62.3909 79.2333 62.3469C79.2739 62.3029 79.2921 62.2486 79.2844 62.1945C79.2709 62.1409 79.2323 62.0932 79.1762 62.0609C79.1202 62.0285 79.0507 62.0139 78.9815 62.0199L76.0439 62.3802C75.9757 62.3908 75.915 62.4211 75.8738 62.4652C75.8326 62.5092 75.814 62.5638 75.8216 62.6182C75.8351 62.6735 75.8754 62.7226 75.9339 62.7551C75.9924 62.7877 76.0647 62.8012 76.1356 62.7929Z" fill="white" stroke="#263238" stroke-width="0.5" stroke-miterlimit="10" stroke-linecap="round"/>
<path d="M75.4381 64.9828C75.4659 65.1346 75.5505 65.2765 75.6812 65.3904C75.8119 65.5043 75.9827 65.5851 76.172 65.6225C76.3613 65.6599 76.5605 65.6522 76.7442 65.6004C76.9279 65.5486 77.0879 65.4551 77.2037 65.3317C77.3196 65.2082 77.3861 65.0605 77.3948 64.9073C77.4035 64.7541 77.354 64.6023 77.2526 64.4713C77.1512 64.3403 77.0025 64.2359 76.8254 64.1714C76.6483 64.107 76.4508 64.0854 76.258 64.1094C76.0027 64.1412 75.7736 64.2506 75.6201 64.414C75.4667 64.5775 75.4013 64.7818 75.4381 64.9828Z" fill="#263238" stroke="#263238" stroke-width="0.5" stroke-miterlimit="10" stroke-linecap="round"/>
<path d="M76.5111 64.7428L79.4515 64.3847C79.5192 64.3736 79.5792 64.3431 79.6198 64.2991C79.6605 64.2551 79.6787 64.2007 79.671 64.1467C79.6575 64.0931 79.6189 64.0454 79.5628 64.013C79.5067 63.9807 79.4372 63.966 79.3681 63.972L76.4305 64.3323C76.3622 64.3429 76.3015 64.3732 76.2604 64.4173C76.2192 64.4614 76.2006 64.516 76.2082 64.5703C76.2223 64.6235 76.2611 64.6707 76.3172 64.7026C76.3732 64.7345 76.4423 64.7489 76.5111 64.7428Z" fill="white" stroke="#263238" stroke-width="0.5" stroke-miterlimit="10" stroke-linecap="round"/>
<path d="M76.6248 65.3126L79.5624 64.9523C79.6301 64.9418 79.6904 64.9118 79.7315 64.8682C79.7726 64.8246 79.7916 64.7705 79.7848 64.7165C79.7713 64.6629 79.7326 64.6152 79.6766 64.5829C79.6205 64.5505 79.551 64.5359 79.4818 64.5418L76.5415 64.9021C76.4737 64.9132 76.4137 64.9437 76.3731 64.9878C76.3325 65.0318 76.3142 65.0861 76.3219 65.1401C76.336 65.1934 76.3749 65.2405 76.4309 65.2724C76.4869 65.3043 76.5561 65.3187 76.6248 65.3126Z" fill="white" stroke="#263238" stroke-width="0.5" stroke-miterlimit="10" stroke-linecap="round"/>
<path d="M75.9358 67.5029C75.9631 67.6544 76.047 67.7961 76.1768 67.9101C76.3067 68.0241 76.4766 68.1052 76.6652 68.1433C76.8537 68.1813 77.0524 68.1746 77.2361 68.1239C77.4198 68.0731 77.5802 67.9808 77.697 67.8584C77.8138 67.736 77.8818 67.5892 77.8923 67.4364C77.9029 67.2837 77.8555 67.1319 77.7562 67.0003C77.6569 66.8688 77.5101 66.7633 77.3345 66.6973C77.1589 66.6313 76.9623 66.6077 76.7696 66.6295C76.5118 66.6587 76.2792 66.767 76.1229 66.9308C75.9666 67.0945 75.8993 67.3003 75.9358 67.5029Z" fill="#263238" stroke="#263238" stroke-width="0.5" stroke-miterlimit="10" stroke-linecap="round"/>
<path d="M77.0114 67.2626L79.949 66.9045C80.0173 66.8939 80.078 66.8635 80.1191 66.8195C80.1603 66.7754 80.1789 66.7208 80.1714 66.6665C80.1579 66.6128 80.1192 66.5651 80.0632 66.5328C80.0071 66.5005 79.9376 66.4858 79.8684 66.4918L76.9281 66.8521C76.8603 66.8632 76.8003 66.8937 76.7597 66.9377C76.7191 66.9817 76.7008 67.0361 76.7085 67.0901C76.7226 67.1433 76.7615 67.1905 76.8175 67.2224C76.8735 67.2543 76.9427 67.2686 77.0114 67.2626Z" fill="white" stroke="#263238" stroke-width="0.5" stroke-miterlimit="10" stroke-linecap="round"/>
<path d="M77.1229 67.8325L80.0632 67.4722C80.131 67.4612 80.191 67.4306 80.2316 67.3866C80.2722 67.3426 80.2905 67.2882 80.2828 67.2342C80.2777 67.2073 80.2659 67.1815 80.248 67.1582C80.2301 67.135 80.2065 67.1147 80.1786 67.0987C80.1507 67.0826 80.119 67.0711 80.0853 67.0648C80.0517 67.0584 80.0168 67.0574 79.9826 67.0617L77.0423 67.422C77.0079 67.4257 76.9748 67.4348 76.945 67.4488C76.9152 67.4628 76.8893 67.4813 76.8688 67.5033C76.8483 67.5253 76.8337 67.5503 76.8257 67.5769C76.8178 67.6034 76.8168 67.631 76.8227 67.6578C76.8362 67.7111 76.8744 67.7584 76.9299 67.7907C76.9854 67.823 77.0542 67.8379 77.1229 67.8325Z" fill="white" stroke="#263238" stroke-width="0.5" stroke-miterlimit="10" stroke-linecap="round"/>
<g opacity="0.3">
<path opacity="0.3" d="M33.915 24.7673L34.646 24.6799" stroke="black" stroke-width="0.5" stroke-miterlimit="10" stroke-linecap="round"/>
<path opacity="0.3" d="M35.3769 24.5905L36.1078 24.501" stroke="black" stroke-width="0.5" stroke-miterlimit="10" stroke-linecap="round"/>
<path opacity="0.3" d="M26.7716 26.4509L27.4998 26.3613" stroke="black" stroke-width="0.5" stroke-miterlimit="10" stroke-linecap="round"/>
<path opacity="0.3" d="M28.2313 26.2719L28.9622 26.1824" stroke="black" stroke-width="0.5" stroke-miterlimit="10" stroke-linecap="round"/>
<path opacity="0.3" d="M29.6931 26.0949L30.4213 26.0054" stroke="black" stroke-width="0.5" stroke-miterlimit="10" stroke-linecap="round"/>
<path opacity="0.3" d="M31.152 25.9159L31.883 25.8264" stroke="black" stroke-width="0.5" stroke-miterlimit="10" stroke-linecap="round"/>
<path opacity="0.3" d="M32.6109 25.7367L33.3419 25.6472" stroke="black" stroke-width="0.5" stroke-miterlimit="10" stroke-linecap="round"/>
<path opacity="0.3" d="M34.0728 25.5578L34.801 25.4683" stroke="black" stroke-width="0.5" stroke-miterlimit="10" stroke-linecap="round"/>
<path opacity="0.3" d="M35.5325 25.3786L36.2634 25.2913" stroke="black" stroke-width="0.5" stroke-miterlimit="10" stroke-linecap="round"/>
<path opacity="0.3" d="M26.9272 27.2414L27.6581 27.1519" stroke="black" stroke-width="0.5" stroke-miterlimit="10" stroke-linecap="round"/>
<path opacity="0.3" d="M28.3868 27.0624L29.1177 26.9729" stroke="black" stroke-width="0.5" stroke-miterlimit="10" stroke-linecap="round"/>
<path opacity="0.3" d="M29.8479 26.8832L30.5789 26.7959" stroke="black" stroke-width="0.5" stroke-miterlimit="10" stroke-linecap="round"/>
<path opacity="0.3" d="M31.3076 26.7065L32.0385 26.6169" stroke="black" stroke-width="0.5" stroke-miterlimit="10" stroke-linecap="round"/>
<path opacity="0.3" d="M32.7695 26.5273L33.4976 26.4377" stroke="black" stroke-width="0.5" stroke-miterlimit="10" stroke-linecap="round"/>
<path opacity="0.3" d="M34.2284 26.3483L34.9593 26.2588" stroke="black" stroke-width="0.5" stroke-miterlimit="10" stroke-linecap="round"/>
<path opacity="0.3" d="M35.688 26.1691L36.4189 26.0796" stroke="black" stroke-width="0.5" stroke-miterlimit="10" stroke-linecap="round"/>
<path opacity="0.3" d="M27.0827 28.0319L27.8136 27.9424" stroke="black" stroke-width="0.5" stroke-miterlimit="10" stroke-linecap="round"/>
<path opacity="0.3" d="M28.5446 27.8527L29.2727 27.7632" stroke="black" stroke-width="0.5" stroke-miterlimit="10" stroke-linecap="round"/>
<path opacity="0.3" d="M30.0042 27.6738L30.7351 27.5842" stroke="black" stroke-width="0.5" stroke-miterlimit="10" stroke-linecap="round"/>
<path opacity="0.3" d="M31.4661 27.4968L32.1942 27.4072" stroke="black" stroke-width="0.5" stroke-miterlimit="10" stroke-linecap="round"/>
<path opacity="0.3" d="M32.9258 27.3178L33.6567 27.2283" stroke="black" stroke-width="0.5" stroke-miterlimit="10" stroke-linecap="round"/>
<path opacity="0.3" d="M34.3839 27.1386L35.1148 27.0491" stroke="black" stroke-width="0.5" stroke-miterlimit="10" stroke-linecap="round"/>
<path opacity="0.3" d="M35.8458 26.9596L36.5739 26.8701" stroke="black" stroke-width="0.5" stroke-miterlimit="10" stroke-linecap="round"/>
<path opacity="0.3" d="M27.242 28.8224L27.9701 28.7329" stroke="black" stroke-width="0.5" stroke-miterlimit="10" stroke-linecap="round"/>
<path opacity="0.3" d="M28.7009 28.6432L29.4318 28.5537" stroke="black" stroke-width="0.5" stroke-miterlimit="10" stroke-linecap="round"/>
<path opacity="0.3" d="M30.159 28.4643L30.8899 28.3748" stroke="black" stroke-width="0.5" stroke-miterlimit="10" stroke-linecap="round"/>
<path opacity="0.3" d="M31.6216 28.2851L32.3526 28.1978" stroke="black" stroke-width="0.5" stroke-miterlimit="10" stroke-linecap="round"/>
<path opacity="0.3" d="M33.0813 28.1083L33.8122 28.0188" stroke="black" stroke-width="0.5" stroke-miterlimit="10" stroke-linecap="round"/>
<path opacity="0.3" d="M34.5432 27.9291L35.2713 27.8396" stroke="black" stroke-width="0.5" stroke-miterlimit="10" stroke-linecap="round"/>
<path opacity="0.3" d="M36.0013 27.7502L36.7322 27.6606" stroke="black" stroke-width="0.5" stroke-miterlimit="10" stroke-linecap="round"/>
<path opacity="0.3" d="M26.4082 24.6232L27.1391 24.5337" stroke="black" stroke-width="0.5" stroke-miterlimit="10" stroke-linecap="round"/>
<path opacity="0.3" d="M27.8693 24.444L28.6003 24.3567" stroke="black" stroke-width="0.5" stroke-miterlimit="10" stroke-linecap="round"/>
<path opacity="0.3" d="M29.329 24.2673L30.0599 24.1777" stroke="black" stroke-width="0.5" stroke-miterlimit="10" stroke-linecap="round"/>
<path opacity="0.3" d="M30.7901 24.0883L31.5183 23.9988" stroke="black" stroke-width="0.5" stroke-miterlimit="10" stroke-linecap="round"/>
<path opacity="0.3" d="M32.2498 23.9091L32.9807 23.8196" stroke="black" stroke-width="0.5" stroke-miterlimit="10" stroke-linecap="round"/>
<path opacity="0.3" d="M33.7117 23.7302L34.4398 23.6428" stroke="black" stroke-width="0.5" stroke-miterlimit="10" stroke-linecap="round"/>
<path opacity="0.3" d="M35.1705 23.5532L35.9015 23.4636" stroke="black" stroke-width="0.5" stroke-miterlimit="10" stroke-linecap="round"/>
<path opacity="0.3" d="M36.0518 23.9004L26.4359 25.0752" stroke="black" stroke-width="0.5" stroke-miterlimit="10" stroke-linecap="round"/>
<path opacity="0.3" d="M29.1039 23.2826L32.8141 22.8284" stroke="black" stroke-width="0.5" stroke-miterlimit="10" stroke-linecap="round"/>
<path opacity="0.3" d="M24.4962 31.4316L65.4139 26.429" stroke="black" stroke-width="0.5" stroke-miterlimit="10" stroke-linecap="round"/>
<path opacity="0.3" d="M25.0099 34.0215L65.9249 29.0188" stroke="black" stroke-width="0.5" stroke-miterlimit="10" stroke-linecap="round"/>
<path opacity="0.3" d="M25.5213 36.6091L66.4391 31.6064" stroke="black" stroke-width="0.5" stroke-miterlimit="10" stroke-linecap="round"/>
<path opacity="0.3" d="M26.0358 39.199L66.9508 34.1963" stroke="black" stroke-width="0.5" stroke-miterlimit="10" stroke-linecap="round"/>
<path opacity="0.3" d="M26.5473 41.7886L67.465 36.7859" stroke="black" stroke-width="0.5" stroke-miterlimit="10" stroke-linecap="round"/>
<path opacity="0.3" d="M27.061 44.3784L67.976 39.3735" stroke="black" stroke-width="0.5" stroke-miterlimit="10" stroke-linecap="round"/>
<path opacity="0.3" d="M27.5725 46.966L68.4902 41.9634" stroke="black" stroke-width="0.5" stroke-miterlimit="10" stroke-linecap="round"/>
<path opacity="0.3" d="M28.0862 49.5556L69.0012 44.553" stroke="black" stroke-width="0.5" stroke-miterlimit="10" stroke-linecap="round"/>
<path opacity="0.3" d="M28.5984 52.1455L69.5162 47.1428" stroke="black" stroke-width="0.5" stroke-miterlimit="10" stroke-linecap="round"/>
<path opacity="0.3" d="M29.1121 54.7353L70.0271 49.7305" stroke="black" stroke-width="0.5" stroke-miterlimit="10" stroke-linecap="round"/>
<path opacity="0.3" d="M29.6236 57.323L70.5414 52.3203" stroke="black" stroke-width="0.5" stroke-miterlimit="10" stroke-linecap="round"/>
<path opacity="0.3" d="M30.1373 59.9126L71.0551 54.9099" stroke="black" stroke-width="0.5" stroke-miterlimit="10" stroke-linecap="round"/>
<path opacity="0.3" d="M30.6488 62.5024L71.5666 57.4998" stroke="black" stroke-width="0.5" stroke-miterlimit="10" stroke-linecap="round"/>
<path opacity="0.3" d="M31.8684 68.6513L72.7834 63.6487" stroke="black" stroke-width="0.5" stroke-miterlimit="10" stroke-linecap="round"/>
<path opacity="0.3" d="M32.2752 70.7019L73.1902 65.697" stroke="black" stroke-width="0.5" stroke-miterlimit="10" stroke-linecap="round"/>
<path opacity="0.3" d="M32.6805 72.75L73.5955 67.7473" stroke="black" stroke-width="0.5" stroke-miterlimit="10" stroke-linecap="round"/>
</g>
<path d="M30.3321 33.9232C30.3321 33.9232 26.8414 36.8908 28.8591 36.4235C30.8768 35.9562 33.6365 32.8555 33.0501 34.1438C32.4637 35.4321 32.4943 36.3099 33.442 35.4212C34.3897 34.5325 34.9205 34.3556 34.7287 34.8207C34.5369 35.2858 35.3207 34.9692 35.3207 34.9692C35.3207 34.9692 37.2661 34.0695 37.0632 34.5325C36.8603 34.9954 36.7381 35.015 37.2883 34.9474L39.0726 34.729C39.0726 34.729 38.9558 34.8556 40.6039 34.6526C42.2519 34.4495 42.8939 34.1525 43.7193 34.0521" stroke="#263238" stroke-width="0.5" stroke-miterlimit="10" stroke-linecap="round"/>
<path d="M28.7479 37.9759C28.7479 37.9759 31.4382 36.6527 31.7772 36.9431C32.1163 37.2335 31.6522 37.7314 32.8667 37.4737C34.0812 37.216 35.1873 36.4168 35.2734 36.847C35.3596 37.2772 36.1405 36.9627 36.1405 36.9627L36.827 36.8776C36.827 36.8776 38.0832 36.8361 38.475 36.6767C38.8669 36.5173 39.2727 35.0324 38.9725 37.0588C38.6724 39.0852 37.6191 37.3339 40.1231 36.4758C42.6271 35.6176 43.0913 36.5544 43.0913 36.5544C43.3684 36.5052 43.6378 36.432 43.8944 36.336C44.4197 36.1592 44.8838 35.6613 45.3813 36.0434C45.8788 36.4256 46.7709 35.2115 46.7709 35.2115C47.118 35.2624 47.4606 35.3309 47.7964 35.4167C48.1182 35.5051 48.4602 35.5386 48.7997 35.515C49.2192 35.5276 49.6394 35.513 50.0559 35.4713C50.6117 35.4036 51.0703 34.9058 51.5233 35.0717C51.9763 35.2377 52.6627 33.7157 52.3181 35.5259C51.9735 37.3361 49.7446 38.1615 50.6506 37.0544C51.4503 36.0874 52.4775 35.2492 53.6771 34.5848C54.6915 34.0192 54.9861 34.0935 55.2084 34.5083C55.4308 34.9232 55.7059 34.8883 56.234 34.7136C56.762 34.5389 56.309 34.373 56.762 34.5389C56.9128 34.6063 57.079 34.6496 57.2512 34.6665C57.4233 34.6834 57.598 34.6734 57.7653 34.6372C58.1794 34.587 56.2479 35.4866 58.1794 34.587C60.1109 33.6873 60.8001 30.0669 59.7885 32.0692C58.7769 34.0716 59.1604 34.5782 60.5139 34.3009" stroke="#263238" stroke-width="0.5" stroke-miterlimit="10" stroke-linecap="round"/>
<path d="M29.0396 41.5943C29.0396 41.5943 32.3412 39.0919 32.1383 38.784C31.9355 38.4761 30.8822 38.8277 30.1123 39.9151C29.3425 41.0026 29.8844 41.6009 31.9549 40.6859C34.0254 39.771 31.0128 40.9043 33.1388 40.9829C35.2649 41.0615 35.893 39.9828 35.9569 40.306C36.0208 40.6292 35.3122 40.6052 36.9824 40.5244C38.6527 40.4436 37.8357 39.8693 39.5476 39.9894C41.2596 40.1095 42.0211 39.6859 42.0211 39.6859L43.1189 39.5526C43.1189 39.5526 40.8955 39.7121 43.7831 39.3605C46.6706 39.0089 47.9379 36.2008 46.5484 37.6966C45.1588 39.1924 45.8119 39.6618 47.2376 39.0482L48.6633 38.4325C48.6633 38.4325 50.4642 36.8865 49.6138 38.9784C48.7634 41.0703 47.7573 39.5374 50.9228 38.487C54.0883 37.4367 54.0077 38.4412 55.0637 38.0918C56.1198 37.7424 55.9475 36.8777 56.6479 37.5656C57.3482 38.2534 57.3038 38.0394 58.4015 37.904C59.4993 37.7686 59.2047 37.6857 60.1663 37.5787L62.2396 37.321" stroke="#263238" stroke-width="0.5" stroke-miterlimit="10" stroke-linecap="round"/>
<path d="M29.5959 49.3724C29.5959 49.3724 31.8971 48.2064 32.2639 46.5032C32.6308 44.8 30.816 47.012 31.0133 49.4183C31.2106 51.8246 30.1323 48.5318 33.3422 47.6976C36.5522 46.8635 33.0643 48.3964 33.42 48.7894C33.7758 49.1825 36.4077 47.5404 36.3771 48.095C36.3465 48.6497 36.9329 48.8003 38.5504 47.7195C40.1679 46.6386 37.536 46.846 37.4109 47.6387C37.2859 48.4313 38.0668 48.1103 40.0623 47.5338C42.0577 46.9574 40.104 47.7522 41.3407 47.5994C42.5774 47.4465 45.2982 45.5686 44.7619 46.4071C44.2255 47.2456 44.7424 47.7369 45.3427 47.2216C45.943 46.7063 47.2214 45.3328 47.327 45.8721C47.3907 46.1906 47.3026 46.5164 47.0797 46.787" stroke="#263238" stroke-width="0.5" stroke-miterlimit="10" stroke-linecap="round"/>
<path opacity="0.3" d="M16.6961 28.8249C16.6425 28.7802 16.5849 28.7387 16.5238 28.7004C16.3475 28.5925 16.1541 28.5029 15.9485 28.434L15.8262 28.3991H15.7957C14.7007 28.1327 10.9571 28.006 9.70093 27.9623C9.38758 27.9538 9.07976 28.0287 8.82748 28.175C8.5752 28.3213 8.39331 28.5303 8.31135 28.7681V28.7921C8.04455 29.5935 4.23708 49.3639 4.23708 49.3639C4.23708 49.3639 4.20929 49.8007 4.17038 50.4841C4.1537 50.7833 4.13703 51.1392 4.1148 51.4995C4.1148 51.5934 4.1148 51.6873 4.1148 51.7834C4.1148 51.9755 4.09534 52.1721 4.08423 52.3708C4.0481 53.0717 4.01475 53.8098 3.98974 54.4845C3.97028 54.9649 3.95638 55.4147 3.94805 55.7947C3.94805 56.0982 3.94805 56.3559 3.94805 56.5524C3.94483 57.0099 3.97732 57.4671 4.04532 57.9215C4.15371 58.4849 4.40383 58.7447 5.02081 58.8299C5.17366 58.8517 5.396 58.8779 5.66558 58.9042L5.83233 58.9194L6.5966 58.9849L6.80782 59.0002L7.46092 59.0417L7.91115 59.0636L8.36415 59.081C8.66152 59.0919 8.95612 59.0963 9.23681 59.0963C9.64556 59.101 10.0542 59.0828 10.4596 59.0417H10.4958L10.5986 59.0264L10.7126 59.0046H10.7348L10.8487 58.9762L11.0405 58.9194L11.2156 58.8627C11.4514 58.7885 11.6761 58.6941 11.8854 58.581C11.953 58.543 12.018 58.5022 12.0799 58.4587C12.1392 58.4179 12.1948 58.3743 12.2467 58.3277L12.3189 58.26C12.4202 58.16 12.513 58.055 12.5968 57.9455C12.6107 57.9285 12.6219 57.9101 12.6302 57.891L12.6469 57.8582L12.6747 57.8014C12.6808 57.7844 12.6882 57.7676 12.6969 57.7512C12.6969 57.7272 12.7136 57.7075 12.7247 57.6813L12.7497 57.6202C12.7497 57.5918 12.7691 57.5656 12.7803 57.535C12.7914 57.5045 12.7997 57.487 12.808 57.463C12.8164 57.4389 12.8303 57.3975 12.8442 57.3625C12.8581 57.3276 12.8636 57.3036 12.8748 57.2752C12.8859 57.2468 12.897 57.2053 12.9109 57.166C12.9248 57.1267 12.9331 57.1005 12.9442 57.0677C12.9553 57.035 12.9692 56.9891 12.9831 56.9454L13.0165 56.8428L13.0582 56.7096C13.0582 56.6725 13.0832 56.631 13.0971 56.5917L13.1388 56.452C13.1527 56.4126 13.1638 56.369 13.1777 56.3275C13.1916 56.286 13.2083 56.2292 13.2221 56.179L13.2638 56.0458C13.2638 55.9956 13.2944 55.9454 13.3083 55.8929C13.3222 55.8405 13.3361 55.7969 13.3528 55.7488C13.3694 55.7008 13.3833 55.644 13.3972 55.5894C13.3985 55.5742 13.3985 55.5588 13.3972 55.5436C13.3972 55.513 13.4167 55.4824 13.425 55.4519C13.4334 55.4213 13.4584 55.3339 13.4778 55.2728C13.4973 55.2117 13.5028 55.1811 13.5167 55.1331C13.5306 55.085 13.5501 55.0129 13.5695 54.9518L13.6112 54.8077L13.6613 54.6264C13.6613 54.574 13.6918 54.5195 13.7057 54.467L13.7557 54.2945C13.7557 54.24 13.7863 54.1832 13.8002 54.1286L13.8502 53.9561C13.8502 53.9299 13.8502 53.9037 13.8697 53.8775C13.8891 53.8513 13.8891 53.8163 13.8975 53.7858C13.9058 53.7552 13.9281 53.6722 13.942 53.6154C13.9558 53.5587 13.9725 53.5041 13.9892 53.4473C14.0059 53.3905 14.0198 53.3294 14.0364 53.2726C14.0531 53.2158 14.067 53.1591 14.0837 53.1023C14.1004 53.0455 14.1115 52.9931 14.1282 52.9385C14.1448 52.8839 14.1587 52.8184 14.1754 52.7573L14.2171 52.6001C14.2338 52.5433 14.2477 52.4887 14.2616 52.4341C14.2755 52.3795 14.2921 52.3184 14.3088 52.2616L14.3505 52.0978C14.3505 52.0476 14.3783 51.9974 14.3894 51.9472C14.4005 51.8969 14.4089 51.8729 14.42 51.8358L14.4366 51.7725C14.4366 51.7244 14.4617 51.6764 14.4728 51.6283C14.4839 51.5803 14.5033 51.5192 14.5172 51.4646C14.5311 51.41 14.5395 51.3707 14.5534 51.3248L14.5951 51.1567C14.5951 51.1196 14.6145 51.0803 14.6228 51.0431L14.6562 50.9165C14.6562 50.9012 14.6562 50.8859 14.6562 50.8685C14.6562 50.851 14.6757 50.7964 14.684 50.7593L14.7257 50.5999L14.7507 50.4907C14.7646 50.4405 14.7757 50.3902 14.7868 50.3444L14.8118 50.2483L14.8452 50.102C14.8452 50.0758 14.8452 50.0518 14.8646 50.0278L14.898 49.8858L14.9147 49.8159C14.9147 49.7723 14.9341 49.7308 14.9425 49.6915C14.9425 49.6391 14.9647 49.5867 14.9758 49.5408C15.0231 49.3224 15.087 48.8399 15.1648 48.1651C15.1954 47.9118 15.2259 47.6323 15.2593 47.3266C15.3788 46.213 15.5177 44.7805 15.665 43.2083C15.665 43.0664 15.6901 42.9223 15.7039 42.7716C16.2598 36.8278 16.8768 29.2004 16.8768 29.2004C16.8803 29.1315 16.8662 29.0627 16.8351 28.9982C16.8041 28.9337 16.7568 28.8747 16.6961 28.8249Z" fill="black"/>
<path d="M2.9404 49.1454C2.9404 49.1454 2.59856 54.7704 2.63747 56.3295C2.67638 57.8886 2.72362 58.4716 3.70745 58.6092C4.69128 58.7468 8.48763 59.0459 9.54372 58.7446C10.5998 58.4432 10.9333 58.1768 11.289 57.7161C11.6448 57.2553 13.3178 51.0408 13.6958 49.2961C14.0738 47.5514 15.5995 28.9622 15.5995 28.9622C15.5995 28.9622 15.6579 28.567 14.6435 28.2155C13.8097 27.9207 9.7188 27.7787 8.39592 27.7438C8.0806 27.7326 7.76983 27.8061 7.51474 27.9521C7.25965 28.0982 7.07544 28.3081 6.99243 28.5474C6.99243 28.5474 6.99243 28.5648 6.99243 28.5714C6.73953 29.3728 2.9404 49.1454 2.9404 49.1454Z" fill="#FFD942"/>
<path opacity="0.5" d="M8.98181 58.8364C9.17092 58.8225 9.3574 58.7918 9.53765 58.7447C10.6048 58.4434 10.9272 58.177 11.283 57.7162C11.6387 57.2555 13.3118 51.0409 13.6897 49.2962C14.0677 47.5515 15.5935 28.9624 15.5935 28.9624C15.5935 28.9624 15.6518 28.5672 14.6374 28.2156C14.5394 28.1834 14.4381 28.1578 14.3345 28.1392C14.1149 32.4518 13.3729 37.5724 12.0695 43.6559C10.8522 49.4119 9.47095 56.3689 8.98181 58.8364Z" fill="black"/>
<path d="M2.9404 49.1454C2.9404 49.1454 2.59856 54.7704 2.63747 56.3295C2.67638 57.8886 2.72362 58.4716 3.70745 58.6092C4.69128 58.7468 8.48763 59.0459 9.54372 58.7446C10.5998 58.4432 10.9333 58.1768 11.289 57.7161C11.6448 57.2553 13.3178 51.0408 13.6958 49.2961C14.0738 47.5514 15.5995 28.9622 15.5995 28.9622C15.5995 28.9622 15.6579 28.567 14.6435 28.2155C13.8097 27.9207 9.7188 27.7787 8.39592 27.7438C8.0806 27.7326 7.76983 27.8061 7.51474 27.9521C7.25965 28.0982 7.07544 28.3081 6.99243 28.5474C6.99243 28.5474 6.99243 28.5648 6.99243 28.5714C6.73953 29.3728 2.9404 49.1454 2.9404 49.1454Z" stroke="#263238" stroke-width="0.5" stroke-linecap="round" stroke-linejoin="round"/>
<path d="M10.7049 49.7984C9.51821 49.7984 4.40731 49.3748 3.61524 49.2416C3.38979 49.2047 3.16711 49.1581 2.94824 49.1018V49.1455C2.94824 49.1455 2.6064 54.7705 2.64531 56.3296C2.68422 57.8887 2.73147 58.4717 3.71529 58.6093C4.69912 58.7468 8.49547 59.046 9.55156 58.7446C10.6076 58.4433 10.9411 58.1769 11.2969 57.7162C11.6526 57.2554 13.2423 51.3837 13.6703 49.449C12.6698 49.8573 11.6804 49.7918 10.7049 49.7984Z" fill="#263238"/>
<path opacity="0.5" d="M8.98138 58.8364C9.17049 58.8225 9.35697 58.7918 9.53722 58.7447C10.6044 58.4434 10.9268 58.177 11.2825 57.7162C11.6383 57.2555 13.3113 51.0409 13.6893 49.2962C14.0673 47.5515 15.593 28.9624 15.593 28.9624C15.593 28.9624 15.6514 28.5672 14.637 28.2156C14.539 28.1834 14.4376 28.1578 14.3341 28.1392C14.1145 32.4518 13.3725 37.5724 12.069 43.6559C10.8518 49.4119 9.47052 56.3689 8.98138 58.8364Z" fill="black"/>
<path opacity="0.26" d="M10.7155 50.3181C11.496 50.2919 12.2705 50.1982 13.0249 50.0386" stroke="white" stroke-width="0.5" stroke-linecap="round" stroke-linejoin="round"/>
<path d="M3.34546 49.6738C3.34546 49.6738 9.61805 50.3486 10.7158 50.318" stroke="white" stroke-width="0.5" stroke-linecap="round" stroke-linejoin="round"/>
<path d="M10.7049 49.7984C9.51821 49.7984 4.40731 49.3748 3.61524 49.2416C3.38979 49.2047 3.16711 49.1581 2.94824 49.1018V49.1455C2.94824 49.1455 2.6064 54.7705 2.64531 56.3296C2.68422 57.8887 2.73147 58.4717 3.71529 58.6093C4.69912 58.7468 8.49547 59.046 9.55156 58.7446C10.6076 58.4433 10.9411 58.1769 11.2969 57.7162C11.6526 57.2554 13.2423 51.3837 13.6703 49.449C12.6698 49.8573 11.6804 49.7918 10.7049 49.7984Z" stroke="#263238" stroke-width="0.5" stroke-linecap="round" stroke-linejoin="round"/>
<path d="M92.4433 26.7338C98.2848 24.3435 100.554 18.6851 97.5119 14.0954C94.4697 9.50566 87.2681 7.72266 81.4265 10.1129C75.585 12.5032 73.3157 18.1616 76.3579 22.7514C79.4001 27.3411 86.6018 29.1241 92.4433 26.7338Z" fill="#263238" stroke="#263238" stroke-width="0.5" stroke-linecap="round" stroke-linejoin="round"/>
<path d="M97.8773 18.6498C98.6902 13.5145 94.0508 8.83375 87.515 8.19503C80.9791 7.55631 75.0217 11.2015 74.2088 16.3368C73.3959 21.472 78.0352 26.1528 84.5711 26.7915C91.107 27.4302 97.0644 23.7851 97.8773 18.6498Z" fill="white" stroke="#263238" stroke-width="0.5" stroke-linecap="round" stroke-linejoin="round"/>
<path d="M96.6447 18.8628C97.6065 14.2634 93.6406 9.92221 87.7867 9.16654C81.9328 8.41088 76.4077 11.5269 75.4459 16.1263C74.4841 20.7258 78.45 25.0669 84.3039 25.8226C90.1578 26.5782 95.683 23.4623 96.6447 18.8628Z" fill="#263238" stroke="#263238" stroke-width="0.5" stroke-linecap="round" stroke-linejoin="round"/>
<path d="M84.7876 11.1505C84.7876 11.1505 83.6036 8.82272 81.5276 7.18719C79.4515 5.55166 71.0112 4.51008 71.0112 4.51008C72.3742 5.54386 73.6134 6.6739 74.7131 7.88595C76.639 9.98003 83.0117 14.7534 83.0117 14.7534C83.0117 14.7534 79.899 12.6571 77.0837 12.4257C74.2684 12.1942 67.1593 13.3559 66.7146 13.3559C66.2699 13.3559 69.3798 14.2883 71.6032 15.1028C73.8265 15.9173 82.4169 16.616 82.4169 16.616C82.4169 16.616 78.7151 17.4305 76.1944 18.1293C73.6736 18.828 71.3058 23.9486 71.3058 23.9486C71.3058 23.9486 74.5658 21.6209 77.3811 21.0379C80.1964 20.4548 84.1956 19.4154 84.1956 19.4154C84.1956 19.4154 81.6777 21.6274 81.0857 23.1407C80.4937 24.6539 80.9356 28.1455 80.9356 28.1455C80.9356 28.1455 82.2696 24.8854 83.8982 23.6058C85.5268 22.3262 87.3055 20.112 87.3055 20.112C88.1262 21.1633 88.8686 22.2511 89.5288 23.37C90.7128 25.3505 91.4548 28.2591 91.4548 28.2591C91.4548 28.2591 93.3808 25.0011 93.2335 23.37C93.0862 21.7388 90.8656 18.8324 90.8656 18.8324C90.8656 18.8324 92.3469 18.0179 94.5675 18.7167C96.788 19.4154 100.643 22.3262 100.643 22.3262C100.643 22.3262 99.7534 18.4852 98.2721 16.972C96.7908 15.4587 90.4209 14.9914 90.4209 14.9914C90.4209 14.9914 93.9755 13.3625 96.1988 13.0131C98.4222 12.6637 101.385 13.4782 101.385 13.4782C101.385 13.4782 97.9747 9.76604 95.3095 9.52147C92.6443 9.27691 88.6395 12.548 88.6395 12.548C88.6395 12.548 89.5288 9.05418 89.8262 7.8925C90.1236 6.73081 89.5288 3.81787 89.5288 3.81787C89.5288 3.81787 87.9002 4.51663 85.9743 6.72863C85.4092 7.36549 85.0129 8.08515 84.8091 8.8448C84.6052 9.60444 84.5979 10.3885 84.7876 11.1505Z" fill="#FFD942"/>
<path opacity="0.5" d="M84.7876 11.1505C84.7876 11.1505 83.6036 8.82272 81.5276 7.18719C79.4515 5.55166 71.0112 4.51008 71.0112 4.51008C72.3742 5.54386 73.6134 6.6739 74.7131 7.88595C76.639 9.98003 83.0117 14.7534 83.0117 14.7534C83.0117 14.7534 79.899 12.6571 77.0837 12.4257C74.2684 12.1942 67.1593 13.3559 66.7146 13.3559C66.2699 13.3559 69.3798 14.2883 71.6032 15.1028C73.8265 15.9173 82.4169 16.616 82.4169 16.616C82.4169 16.616 78.7151 17.4305 76.1944 18.1293C73.6736 18.828 71.3058 23.9486 71.3058 23.9486C71.3058 23.9486 74.5658 21.6209 77.3811 21.0379C80.1964 20.4548 84.1956 19.4154 84.1956 19.4154C84.1956 19.4154 81.6777 21.6274 81.0857 23.1407C80.4937 24.6539 80.9356 28.1455 80.9356 28.1455C80.9356 28.1455 82.2696 24.8854 83.8982 23.6058C85.5268 22.3262 87.3055 20.112 87.3055 20.112C88.1262 21.1633 88.8686 22.2511 89.5288 23.37C90.7128 25.3505 91.4548 28.2591 91.4548 28.2591C91.4548 28.2591 93.3808 25.0011 93.2335 23.37C93.0862 21.7388 90.8656 18.8324 90.8656 18.8324C90.8656 18.8324 92.3469 18.0179 94.5675 18.7167C96.788 19.4154 100.643 22.3262 100.643 22.3262C100.643 22.3262 99.7534 18.4852 98.2721 16.972C96.7908 15.4587 90.4209 14.9914 90.4209 14.9914C90.4209 14.9914 93.9755 13.3625 96.1988 13.0131C98.4222 12.6637 101.385 13.4782 101.385 13.4782C101.385 13.4782 97.9747 9.76604 95.3095 9.52147C92.6443 9.27691 88.6395 12.548 88.6395 12.548C88.6395 12.548 89.5288 9.05418 89.8262 7.8925C90.1236 6.73081 89.5288 3.81787 89.5288 3.81787C89.5288 3.81787 87.9002 4.51663 85.9743 6.72863C85.4092 7.36549 85.0129 8.08515 84.8091 8.8448C84.6052 9.60444 84.5979 10.3885 84.7876 11.1505Z" fill="black"/>
<path d="M87.7049 7.60851C87.8078 7.27223 87.9217 6.94032 88.0468 6.6106" stroke="#263238" stroke-width="0.5" stroke-linecap="round" stroke-linejoin="round"/>
<path d="M77.803 7.60645C79.1926 8.40346 80.924 9.49746 81.8161 10.4451C83.4447 12.192 86.7047 15.9173 86.7047 15.9173C86.612 13.4161 86.8646 10.9143 87.4578 8.45587" stroke="#263238" stroke-width="0.5" stroke-linecap="round" stroke-linejoin="round"/>
<path d="M75.7526 6.49487C75.7526 6.49487 76.1834 6.71323 76.8309 7.06043" stroke="#263238" stroke-width="0.5" stroke-linecap="round" stroke-linejoin="round"/>
<path d="M86.7134 15.9217C86.7134 15.9217 92.344 11.4977 94.7146 11.1484C97.0853 10.799 99.1613 12.1965 99.1613 12.1965" stroke="#263238" stroke-width="0.5" stroke-linecap="round" stroke-linejoin="round"/>
<path d="M76.6526 19.6338C75.2825 20.3194 75.1574 20.7059 75.1574 20.7059" stroke="#263238" stroke-width="0.5" stroke-linecap="round" stroke-linejoin="round"/>
<path d="M99.011 19.9984C99.011 19.9984 98.1216 18.2515 95.009 17.437C91.8963 16.6226 87.0105 16.5046 87.0105 16.5046C87.0105 16.5046 80.1543 18.269 77.6475 19.1883" stroke="#263238" stroke-width="0.5" stroke-linecap="round" stroke-linejoin="round"/>
<path d="M84.0169 15.8408C85.6844 16.2186 87.0101 16.4959 87.0101 16.4959" stroke="#263238" stroke-width="0.5" stroke-linecap="round" stroke-linejoin="round"/>
<path d="M73.5818 13.7729C75.191 13.8494 77.2643 14.0219 78.4176 14.4106C79.357 14.7272 81.2107 15.1857 82.956 15.5941" stroke="#263238" stroke-width="0.5" stroke-linecap="round" stroke-linejoin="round"/>
<path d="M71.3056 13.7119C71.3056 13.7119 71.8476 13.7119 72.648 13.7359" stroke="#263238" stroke-width="0.5" stroke-linecap="round" stroke-linejoin="round"/>
<path d="M86.7136 17.2034C86.7136 17.2034 82.5671 22.0925 82.2669 23.2564C82.0887 23.9468 81.9892 24.6483 81.9696 25.3526" stroke="#263238" stroke-width="0.5" stroke-linecap="round" stroke-linejoin="round"/>
<path d="M88.5581 18.7429C89.3558 19.553 90.3146 20.6317 90.712 21.5117C91.1805 22.5714 91.5283 23.6617 91.7514 24.7697" stroke="#263238" stroke-width="0.5" stroke-linecap="round" stroke-linejoin="round"/>
<path d="M87.3049 17.5527C87.3049 17.5527 87.6356 17.841 88.0942 18.2842" stroke="#263238" stroke-width="0.5" stroke-linecap="round" stroke-linejoin="round"/>
<path d="M82.9062 12.1549C82.9062 12.1549 82.1392 9.72017 82.6144 7.44484C83.0896 5.16952 89.1733 0.457275 89.1733 0.457275C88.8321 1.92173 88.6638 3.4078 88.6702 4.89656C88.6702 7.48197 87.0277 14.2861 87.0277 14.2861C87.0277 14.2861 88.0004 11.157 90.1154 9.67868C92.2303 8.20037 98.867 5.87701 99.2283 5.65865C99.5896 5.44028 97.7553 7.637 96.5547 9.31839C95.3541 10.9998 88.8926 15.5024 88.8926 15.5024C88.8926 15.5024 92.5055 14.4673 95.0707 13.88C97.6358 13.2926 103.372 16.3758 103.372 16.3758C103.372 16.3758 98.9976 15.9784 96.2796 16.7951C93.5616 17.6118 89.5345 18.5944 89.5345 18.5944C89.5345 18.5944 93.2225 19.2386 94.815 20.195C96.4074 21.1514 98.6474 24.1932 98.6474 24.1932C98.6474 24.1932 95.1457 22.1559 92.8723 21.8633C90.599 21.5707 87.5113 20.588 87.5113 20.588C87.6269 21.8183 87.832 23.0424 88.1255 24.2543C88.6313 26.4052 90.1904 29.1085 90.1904 29.1085C90.1904 29.1085 86.2079 27.3441 85.1184 25.951C84.029 24.5578 83.6733 21.1776 83.6733 21.1776C83.6733 21.1776 81.864 21.1951 80.5773 22.7804C79.2905 24.3657 78.3234 28.4949 78.3234 28.4949C78.3234 28.4949 76.1917 24.9684 76.2723 23.0599C76.3529 21.1514 81.1831 17.8541 81.1831 17.8541C81.1831 17.8541 77.0838 18.1598 75.0189 18.8935C72.954 19.6272 71.1531 21.6493 71.1531 21.6493C71.1531 21.6493 71.1531 17.0637 73.1485 15.6509C75.144 14.2381 80.8135 15.0482 80.8135 15.0482L76.3946 11.8077C75.2829 10.9998 73.6154 8.36414 73.6154 8.36414C73.6154 8.36414 75.4552 8.18291 78.6624 9.09784C79.5949 9.35725 80.4513 9.76165 81.1804 10.2869C81.9096 10.8121 82.4965 11.4475 82.9062 12.1549Z" fill="#FFD942"/>
<path d="M77.9057 10.6133C77.5722 10.3877 77.2331 10.1693 76.8885 9.95825" stroke="#263238" stroke-width="0.5" stroke-linecap="round" stroke-linejoin="round"/>
<path d="M85.9404 6.07788C85.404 7.35966 84.8092 9.04323 84.7926 10.2267C84.7648 12.3907 84.8843 16.9108 84.8843 16.9108C83.1036 14.8359 81.0414 12.9191 78.734 11.1941" stroke="#263238" stroke-width="0.5" stroke-linecap="round" stroke-linejoin="round"/>
<path d="M86.7906 4.23047C86.7906 4.23047 86.5961 4.60387 86.332 5.18471" stroke="#263238" stroke-width="0.5" stroke-linecap="round" stroke-linejoin="round"/>
<path d="M84.8839 16.9129C84.8839 16.9129 77.0272 15.8997 74.8428 16.6945C72.6583 17.4893 72.0108 19.5812 72.0108 19.5812" stroke="#263238" stroke-width="0.5" stroke-linecap="round" stroke-linejoin="round"/>
<path d="M95.804 15.306C97.4271 15.2361 97.8134 15.4938 97.8134 15.4938" stroke="#263238" stroke-width="0.5" stroke-linecap="round" stroke-linejoin="round"/>
<path d="M77.9203 25.8571C77.9203 25.8571 77.3477 24.0316 79.2682 21.944C81.1886 19.8565 85.0766 17.5222 85.0766 17.5222C85.0766 17.5222 91.9523 15.8124 94.6731 15.4106" stroke="#263238" stroke-width="0.5" stroke-linecap="round" stroke-linejoin="round"/>
<path d="M87.0137 15.6116C85.9493 16.6772 85.0683 17.5222 85.0683 17.5222" stroke="#263238" stroke-width="0.5" stroke-linecap="round" stroke-linejoin="round"/>
<path d="M93.9559 9.15234C92.7025 9.95155 91.149 11.0412 90.4987 11.8862C89.9706 12.5741 88.8089 13.7969 87.6945 14.928" stroke="#263238" stroke-width="0.5" stroke-linecap="round" stroke-linejoin="round"/>
<path d="M95.7568 8.06055C95.7568 8.06055 95.3177 8.3073 94.6868 8.6938" stroke="#263238" stroke-width="0.5" stroke-linecap="round" stroke-linejoin="round"/>
<path d="M85.8355 17.9524C85.8355 17.9524 92.8335 20.0225 93.9396 20.8326C94.5953 21.3121 95.1961 21.836 95.7349 22.3982" stroke="#263238" stroke-width="0.5" stroke-linecap="round" stroke-linejoin="round"/>
<path d="M85.4796 20.0464C85.4324 21.0727 85.4546 22.3894 85.7826 23.2847C86.1899 24.3603 86.7182 25.4052 87.3611 26.4073" stroke="#263238" stroke-width="0.5" stroke-linecap="round" stroke-linejoin="round"/>
<path d="M85.6127 18.5093C85.6127 18.5093 85.5572 18.8914 85.5155 19.4635" stroke="#263238" stroke-width="0.5" stroke-linecap="round" stroke-linejoin="round"/>
<path opacity="0.3" d="M88.4224 65.78C87.8888 64.5987 87.7943 58.4016 87.9138 53.9885L91.0348 54.5191C91.5767 54.6113 92.1428 54.5453 92.6273 54.3335C92.7451 54.2819 92.8567 54.222 92.9608 54.1544C93.0625 54.0892 93.1557 54.0161 93.2387 53.9361C93.5345 53.679 93.7277 53.3593 93.7945 53.0168C93.806 52.956 93.8134 52.8948 93.8167 52.8334C93.838 52.4792 93.7249 52.128 93.4916 51.8245C93.4159 51.7258 93.3284 51.6329 93.2303 51.5472C92.8744 51.2368 92.3918 51.0337 91.8658 50.9729L88.0972 50.5362C88.1306 50.1519 88.1695 49.8527 88.2084 49.6627C88.2758 49.3748 88.3038 49.082 88.2918 48.7893L88.5502 48.1342C88.931 47.1756 88.6419 45.765 87.6053 44.9636C86.5687 44.1622 82.8807 42.7516 81.8024 42.0114C80.7241 41.2711 72.6506 36.7532 71.2026 37.0196C69.7547 37.286 68.0427 38.9084 66.5836 39.8059C65.1246 40.7034 59.8692 44.0902 59.8692 44.0902C59.8858 43.9482 57.1678 44.8108 56.5064 45.6471C56.4566 45.6845 56.418 45.7302 56.3935 45.7808C56.369 45.8314 56.3591 45.8857 56.3646 45.9397C56.4423 46.1777 56.5928 46.3972 56.803 46.5791C57.0132 46.761 57.2768 46.8998 57.5708 46.9835L55.214 46.7105C55.0806 46.6951 54.9444 46.7099 54.8213 46.7533C54.6982 46.7966 54.5934 46.8666 54.5192 46.9551C53.6855 46.8568 51.9846 46.7105 50.7562 46.9747C50.7562 46.9747 52.76 47.7455 54.258 48.0032C54.2976 48.0943 54.3665 48.1757 54.4581 48.2397C54.5496 48.3036 54.6607 48.3477 54.7805 48.3679L57.9071 48.8941C57.8497 49.0368 57.8069 49.1828 57.7792 49.3308C57.7571 49.4658 57.781 49.603 57.8487 49.7283C57.8626 49.8112 57.882 49.8964 57.9071 49.9859C58.3517 51.4708 60.7529 53.2744 62.5038 54.4667C64.2547 55.659 65.9305 57.7006 66.9699 60.0677C68.0093 62.4347 68.6597 64.6161 70.972 67.0181C71.3653 67.4241 71.7934 67.8085 72.2531 68.1689L93.8112 78.8686C93.8112 78.8686 89.1978 67.516 88.4224 65.78ZM60.2944 47.1581C60.2582 47.2018 60.2221 47.2455 60.1915 47.2913L59.5968 47.2215C59.8309 47.2133 60.064 47.1921 60.2944 47.1581Z" fill="black"/>
<path d="M81.1824 84.6857L67.4199 65.994C67.4199 65.994 65.8802 57.5019 62.598 54.0845C59.3158 50.6672 54.7135 48.1735 57.3843 46.4266C60.0551 44.6797 66.8335 41.3388 68.2231 41.5528C69.6127 41.7668 78.9674 45.4833 81.6104 46.0838C84.2533 46.6843 85.1788 47.5665 84.7842 49.3592C84.3895 51.1519 84.2283 63.723 85.0093 65.459C85.7902 67.195 94.4779 79.5673 94.4779 79.5673" fill="white"/>
<path d="M85.0296 65.4634C84.2431 63.7275 84.4099 51.1608 84.8045 49.3636C85.0463 48.2718 84.7906 47.5098 83.9485 46.9617C83.9786 47.9575 83.7722 48.9491 83.3399 49.8855C82.5979 51.5385 82.2282 52.7046 82.2282 52.7046C82.2282 52.7046 82.1059 58.6331 82.6006 61.6574C83.0953 64.6817 85.5688 70.0163 87.92 72.9336C89.6597 75.091 92.1415 77.0344 93.3171 77.9013C90.8992 74.4425 85.6188 66.7998 85.0296 65.4634Z" fill="#FFD942"/>
<path opacity="0.5" d="M85.0296 65.4634C84.2431 63.7275 84.4099 51.1608 84.8045 49.3636C85.0463 48.2718 84.7906 47.5098 83.9485 46.9617C83.9786 47.9575 83.7722 48.9491 83.3399 49.8855C82.5979 51.5385 82.2282 52.7046 82.2282 52.7046C82.2282 52.7046 82.1059 58.6331 82.6006 61.6574C83.0953 64.6817 85.5688 70.0163 87.92 72.9336C89.6597 75.091 92.1415 77.0344 93.3171 77.9013C90.8992 74.4425 85.6188 66.7998 85.0296 65.4634Z" fill="white"/>
<path d="M81.1824 84.6857L67.4199 65.994C67.4199 65.994 65.8802 57.5019 62.598 54.0845C59.3158 50.6672 54.7135 48.1735 57.3843 46.4266C60.0551 44.6797 66.8335 41.3388 68.2231 41.5528C69.6127 41.7668 78.9674 45.4833 81.6104 46.0838C84.2533 46.6843 85.1788 47.5665 84.7842 49.3592C84.3895 51.1519 84.2283 63.723 85.0093 65.459C85.7902 67.195 94.4779 79.5673 94.4779 79.5673" stroke="#263238" stroke-width="0.5" stroke-miterlimit="10" stroke-linecap="round"/>
<path d="M53.7586 46.763C55.9171 46.6693 58.0068 46.1333 59.8199 45.2082C62.9132 43.6535 61.9238 43.3609 61.9238 43.3609C61.9238 43.3609 63.5301 42.9722 64.5195 42.6818C65.3489 42.391 66.137 42.0324 66.8707 41.6118C66.8707 41.6118 70.831 43.6535 72.6847 44.2322C73.5725 44.5284 74.4865 44.7736 75.4194 44.9659L78.0068 47.6342C76.5521 48.1733 75.3118 49.0135 74.4189 50.0646C72.9349 51.8115 71.0839 54.1458 70.2113 54.4318C69.3386 54.7179 69.7166 55.0148 65.8813 53.8488C62.0461 52.6827 53.5112 48.5142 53.7586 46.763Z" fill="#FFD942"/>
<path opacity="0.5" d="M53.7586 46.763C55.9171 46.6693 58.0068 46.1333 59.8199 45.2082C62.9132 43.6535 61.9238 43.3609 61.9238 43.3609C61.9238 43.3609 63.5301 42.9722 64.5195 42.6818C65.3489 42.391 66.137 42.0324 66.8707 41.6118C66.8707 41.6118 70.831 43.6535 72.6847 44.2322C73.5725 44.5284 74.4865 44.7736 75.4194 44.9659L78.0068 47.6342C76.5521 48.1733 75.3118 49.0135 74.4189 50.0646C72.9349 51.8115 71.0839 54.1458 70.2113 54.4318C69.3386 54.7179 69.7166 55.0148 65.8813 53.8488C62.0461 52.6827 53.5112 48.5142 53.7586 46.763Z" fill="white"/>
<path d="M60.6118 47.6604C60.6118 47.6604 63.5855 47.3721 65.681 44.374C65.681 44.374 68.1489 45.1951 70.7169 44.6688" stroke="#263238" stroke-width="0.5" stroke-miterlimit="10" stroke-linecap="round"/>
<path d="M68.6738 45.4919C68.6738 45.4919 67.2398 48.4748 70.2635 52.4205" stroke="#263238" stroke-width="0.5" stroke-miterlimit="10" stroke-linecap="round"/>
<path d="M65.4977 45.7649C65.4977 45.7649 66.9957 47.2126 67.2403 48.4748" stroke="#263238" stroke-width="0.5" stroke-miterlimit="10" stroke-linecap="round"/>
<path d="M68.3011 53.816C68.3011 53.816 70.8024 52.5735 72.1336 51.2808C73.4648 49.9881 74.0651 48.6255 76.1634 48.0818" stroke="#263238" stroke-width="0.5" stroke-miterlimit="10" stroke-linecap="round"/>
<path d="M65.6809 44.3739L65.0723 43.8083" stroke="#263238" stroke-width="0.5" stroke-miterlimit="10" stroke-linecap="round"/>
<path d="M51.6182 46.7105C51.6182 46.7105 49.0336 46.3 47.3494 46.6625C47.3494 46.6625 49.8284 47.6167 51.332 47.7543L51.6182 46.7105Z" fill="#263238" stroke="#263238" stroke-width="0.5" stroke-miterlimit="10" stroke-linecap="round"/>
<path d="M88.4474 50.6715L51.8068 46.3938C51.632 46.3734 51.4538 46.4047 51.3069 46.4818C51.16 46.5589 51.0549 46.6762 51.0119 46.8109L50.8452 47.3655C50.8213 47.4382 50.8165 47.514 50.8309 47.5883C50.8453 47.6626 50.8787 47.7338 50.9291 47.7976C50.9795 47.8615 51.0458 47.9167 51.124 47.9599C51.2023 48.0031 51.2908 48.0334 51.3843 48.049L87.6386 54.2068C87.9448 54.2587 88.2613 54.2608 88.5685 54.2128C88.8758 54.1649 89.1672 54.0679 89.4248 53.9279C89.6825 53.7879 89.9008 53.6079 90.0663 53.3989C90.2319 53.19 90.3411 52.9566 90.3872 52.7132C90.4309 52.479 90.4153 52.2403 90.3414 52.0109C90.2675 51.7815 90.1367 51.5657 89.9565 51.3761C89.7763 51.1864 89.5502 51.0266 89.2913 50.9057C89.0323 50.7848 88.7455 50.7052 88.4474 50.6715Z" fill="#FFD942" stroke="#263238" stroke-width="0.5" stroke-miterlimit="10" stroke-linecap="round"/>
<path d="M88.4478 50.6714L82.9089 50.0164C82.4032 50.2572 82.0084 50.6185 81.782 51.0477C81.5556 51.4769 81.5093 51.9517 81.65 52.403C81.7434 52.7216 81.9257 53.0199 82.1836 53.2765L87.628 54.2002C87.9342 54.2521 88.2506 54.2542 88.5579 54.2062C88.8651 54.1583 89.1565 54.0613 89.4142 53.9213C89.6718 53.7813 89.8901 53.6013 90.0557 53.3923C90.2212 53.1834 90.3304 52.95 90.3766 52.7066C90.4625 52.2359 90.3079 51.7577 89.9465 51.3764C89.5851 50.9951 89.0463 50.7416 88.4478 50.6714Z" fill="#263238" stroke="#263238" stroke-width="0.5" stroke-miterlimit="10" stroke-linecap="round"/>
<path d="M73.6187 53.3574C73.6187 53.3574 70.4671 53.9382 69.058 53.6762C67.649 53.4141 64.7725 50.2348 62.7966 49.1889C60.8206 48.1429 59.6172 47.894 57.5495 47.6494C55.4818 47.4048 54.0533 48.1888 54.4924 49.6758C54.9315 51.1628 57.3355 52.9643 59.0891 54.1566C60.8428 55.3488 62.5159 57.3883 63.5553 59.7576C64.5947 62.1268 65.245 64.3038 67.5573 66.6971C69.8695 69.0903 72.7543 70.0751 73.7243 70.2083" fill="white"/>
<path d="M72.0535 53.709L71.8311 53.6195C70.8751 53.7287 69.7551 53.8051 69.052 53.6762C67.6457 53.4142 64.7665 50.2349 62.7932 49.1889C60.82 48.143 59.6139 47.894 57.5462 47.6495C57.2162 47.6092 56.8816 47.5975 56.5484 47.6145C58.1423 47.9289 59.6493 48.4699 60.9951 49.2108C63.1962 50.4598 64.7859 53.6282 67.2288 54.2047C69.6717 54.7812 72.0535 53.709 72.0535 53.709Z" fill="#FFD942"/>
<path opacity="0.5" d="M72.0535 53.709L71.8311 53.6195C70.8751 53.7287 69.7551 53.8051 69.052 53.6762C67.6457 53.4142 64.7665 50.2349 62.7932 49.1889C60.82 48.143 59.6139 47.894 57.5462 47.6495C57.2162 47.6092 56.8816 47.5975 56.5484 47.6145C58.1423 47.9289 59.6493 48.4699 60.9951 49.2108C63.1962 50.4598 64.7859 53.6282 67.2288 54.2047C69.6717 54.7812 72.0535 53.709 72.0535 53.709Z" fill="white"/>
<path d="M73.6186 53.3574C73.6186 53.3574 70.4671 53.9382 69.058 53.6762C67.649 53.4141 64.7725 50.2348 62.7966 49.1889C60.8206 48.1429 59.6172 47.894 57.5495 47.6494C55.4818 47.4048 54.0533 48.1888 54.4924 49.6758C54.9315 51.1628 57.3355 52.9643 59.0891 54.1566C60.8428 55.3488 62.5159 57.3883 63.5553 59.7576C64.5947 62.1268 65.245 64.3038 67.5573 66.6971C69.8695 69.0903 72.7543 70.0751 73.7243 70.2083" stroke="#263238" stroke-width="0.5" stroke-miterlimit="10" stroke-linecap="round"/>
<path d="M56.0817 50.7414C56.0817 50.7414 56.2318 49.4596 58.4662 48.2652C58.4662 48.2652 56.9738 47.4944 55.9511 47.6319C54.9283 47.7695 54.5253 48.2084 54.3697 49.0207C54.2141 49.833 56.0817 50.7414 56.0817 50.7414Z" fill="white" stroke="#263238" stroke-width="0.5" stroke-miterlimit="10" stroke-linecap="round"/>
<path d="M57.5482 52.1018C57.7199 52.2377 57.9122 52.3565 58.1207 52.4556" stroke="#263238" stroke-width="0.5" stroke-miterlimit="10" stroke-linecap="round"/>
<path d="M59.1829 49.0732C59.1829 49.0732 56.8095 50.034 57.1903 51.532" stroke="#263238" stroke-width="0.5" stroke-miterlimit="10" stroke-linecap="round"/>
<path d="M84.7509 48.7959L85.1289 47.8373C85.5069 46.8809 85.2206 45.4702 84.184 44.6689C83.1473 43.8675 79.4594 42.4569 78.3811 41.7166C77.3027 40.9764 69.232 36.4475 67.798 36.7249C66.3639 37.0022 64.638 38.6137 63.1762 39.509C61.7144 40.4043 56.4728 43.7758 56.4728 43.7758C56.4728 43.7758 52.7904 45.0291 52.9572 45.6187C53.1239 46.2083 53.8882 46.9616 56.1977 46.9027C58.5072 46.8437 62.3563 45.0357 62.94 44.7693C63.5236 44.5029 67.156 42.6337 67.156 42.6337C68.0967 43.365 69.1769 43.9765 70.3576 44.4461C72.0723 45.0706 72.303 45.134 72.303 45.134C72.303 45.134 72.7505 46.4114 74.0094 47.0665" fill="white"/>
<path d="M82.7061 44.7213C84.0401 45.5445 84.1263 47.1757 83.7567 48.6365L84.7544 48.7959L85.1323 47.8373C85.5103 46.8809 85.2241 45.4703 84.1874 44.6689C83.1508 43.8675 79.4628 42.4569 78.3845 41.7166C78.1066 41.5245 77.3395 41.0725 76.3474 40.5178L76.1501 40.5418C76.1501 40.5418 80.9747 43.6535 82.7061 44.7213Z" fill="#FFD942"/>
<path opacity="0.5" d="M82.7061 44.7213C84.0401 45.5445 84.1263 47.1757 83.7567 48.6365L84.7544 48.7959L85.1323 47.8373C85.5103 46.8809 85.2241 45.4703 84.1874 44.6689C83.1508 43.8675 79.4628 42.4569 78.3845 41.7166C78.1066 41.5245 77.3395 41.0725 76.3474 40.5178L76.1501 40.5418C76.1501 40.5418 80.9747 43.6535 82.7061 44.7213Z" fill="white"/>
<path d="M53.7589 46.763C55.9175 46.6693 58.0072 46.1333 59.8203 45.2082C62.9135 43.6535 61.9241 43.3609 61.9241 43.3609C61.9241 43.3609 63.5305 42.9722 64.5199 42.6818C65.3493 42.391 66.1373 42.0324 66.8711 41.6118C66.8711 41.6118 70.8314 43.6535 72.6851 44.2322C73.5729 44.5284 74.4868 44.7736 75.4198 44.9659L78.0072 47.6342C76.5525 48.1733 75.3121 49.0135 74.4193 50.0646C72.9352 51.8115 71.0843 54.1458 70.2116 54.4318C69.339 54.7179 69.7169 55.0148 65.8817 53.8488C62.0464 52.6827 53.5116 48.5142 53.7589 46.763Z" fill="#FFD942"/>
<path opacity="0.5" d="M53.7589 46.763C55.9175 46.6693 58.0072 46.1333 59.8203 45.2082C62.9135 43.6535 61.9241 43.3609 61.9241 43.3609C61.9241 43.3609 63.5305 42.9722 64.5199 42.6818C65.3493 42.391 66.1373 42.0324 66.8711 41.6118C66.8711 41.6118 70.8314 43.6535 72.6851 44.2322C73.5729 44.5284 74.4868 44.7736 75.4198 44.9659L78.0072 47.6342C76.5525 48.1733 75.3121 49.0135 74.4193 50.0646C72.9352 51.8115 71.0843 54.1458 70.2116 54.4318C69.339 54.7179 69.7169 55.0148 65.8817 53.8488C62.0464 52.6827 53.5116 48.5142 53.7589 46.763Z" fill="white"/>
<path d="M84.7509 48.7959L85.1289 47.8373C85.5069 46.8809 85.2206 45.4702 84.184 44.6689C83.1473 43.8675 79.4594 42.4569 78.3811 41.7166C77.3027 40.9764 69.232 36.4475 67.798 36.7249C66.3639 37.0022 64.638 38.6137 63.1762 39.509C61.7144 40.4043 56.4728 43.7758 56.4728 43.7758C56.4728 43.7758 52.7904 45.0291 52.9572 45.6187C53.1239 46.2083 53.8882 46.9616 56.1977 46.9027C58.5072 46.8437 62.3563 45.0357 62.94 44.7693C63.5236 44.5029 67.156 42.6337 67.156 42.6337C68.0967 43.365 69.1769 43.9765 70.3576 44.4461C72.0723 45.0706 72.303 45.134 72.303 45.134C72.303 45.134 72.7505 46.4114 74.0094 47.0665" stroke="#263238" stroke-width="0.5" stroke-miterlimit="10" stroke-linecap="round"/>
<path d="M52.9569 45.6185C52.9569 45.6185 53.3293 45.7583 54.1186 45.5093C54.9079 45.2604 56.442 43.9328 56.4587 43.7624C56.4754 43.5921 53.082 44.7123 52.9569 45.6185Z" fill="white" stroke="#263238" stroke-width="0.5" stroke-miterlimit="10" stroke-linecap="round"/>
<path d="M67.009 40.5198C67.0441 40.3893 67.0877 40.2603 67.1396 40.1333" stroke="#263238" stroke-width="0.5" stroke-miterlimit="10" stroke-linecap="round"/>
<path d="M67.1563 42.638C66.9444 42.1136 66.8642 41.5619 66.92 41.0134" stroke="#263238" stroke-width="0.5" stroke-miterlimit="10" stroke-linecap="round"/>
</svg>
