<svg width="102" height="85" viewBox="0 0 102 85" fill="none" xmlns="http://www.w3.org/2000/svg">
<path d="M21.2806 4.68403C21.2806 4.68403 22.5223 3.84514 22.8404 3.30658C23.1116 2.8481 23.3081 2.19942 23.0275 1.7049C22.9658 1.58861 22.8762 1.48473 22.7646 1.4C22.653 1.31527 22.5218 1.25158 22.3795 1.21306C22.2373 1.17455 22.0872 1.16207 21.939 1.17644C21.7907 1.19081 21.6477 1.2317 21.5191 1.29647C20.7544 1.69689 20.6726 3.09836 20.8667 3.75905C20.8831 3.81712 21.2689 4.70004 21.2806 4.68403Z" fill="#FFD942"/>
<path d="M9.80573 11.6775C9.85483 11.7175 10.7411 12.2661 10.7411 12.2521C10.7411 12.2381 11.2439 10.9667 11.1597 10.3681C11.0896 9.85757 10.8347 9.22291 10.2875 8.94862C10.1612 8.88004 10.0194 8.83498 9.87145 8.81635C9.72348 8.79773 9.5726 8.80596 9.42859 8.84051C9.28458 8.87506 9.15067 8.93516 9.03556 9.01691C8.92044 9.09866 8.8267 9.20022 8.76042 9.31501C8.38627 10.0157 9.21175 11.211 9.80573 11.6775Z" fill="#FFD942"/>
<path d="M35.8144 5.95532C35.8144 5.95532 31.2707 9.97154 31.2941 14.9107C31.3175 19.8499 35.9056 23.8261 35.9056 23.8261C35.9056 23.8261 40.4493 19.8099 40.4235 14.8767C40.3978 9.94351 35.8144 5.95532 35.8144 5.95532Z" fill="#FFD942"/>
<path d="M29.3344 17.8599C29.3949 17.8042 29.4504 17.7447 29.5004 17.6817C29.8301 17.2533 30.1131 16.6286 29.9003 16.1161C29.8551 15.9942 29.7805 15.8818 29.6813 15.7861C29.5821 15.6905 29.4606 15.6138 29.3246 15.5609C29.1885 15.5081 29.041 15.4803 28.8917 15.4793C28.7423 15.4784 28.5944 15.5043 28.4574 15.5555C27.8401 15.8058 27.5361 16.6526 27.4706 17.3454C27.2367 17.2973 27.0029 17.2593 26.8135 17.2333C26.7316 17.0751 26.6498 16.9169 26.5656 16.7588C26.4814 16.6006 26.4136 16.4284 26.3318 16.2622C26.2218 16.016 26.1236 15.7577 26.0254 15.4994C26.3855 15.3613 27.4285 14.9429 27.8214 14.5725C28.2142 14.2021 28.6141 13.6115 28.4949 13.0769C28.4721 12.9503 28.4183 12.8293 28.3372 12.7217C28.2561 12.6141 28.1494 12.5223 28.024 12.4524C27.8987 12.3825 27.7575 12.336 27.6098 12.316C27.4621 12.296 27.311 12.3028 27.1666 12.3361C26.3037 12.5543 25.7962 13.8757 25.7799 14.5625C25.7799 14.5845 25.7799 14.7306 25.8103 14.9048C25.7237 14.6485 25.6349 14.3963 25.5577 14.136C25.3356 13.3972 25.1368 12.6384 24.9333 11.8796C24.8912 11.7215 24.8468 11.5633 24.8024 11.4051C25.1064 11.291 26.2452 10.8445 26.6545 10.4581C27.0637 10.0717 27.4449 9.49713 27.3256 8.96257C27.3032 8.83585 27.2497 8.71464 27.1686 8.60687C27.0876 8.49911 26.9809 8.40723 26.8554 8.33728C26.73 8.26732 26.5887 8.22087 26.4408 8.20096C26.2929 8.18106 26.1418 8.18816 25.9974 8.22179C25.1368 8.44002 24.6293 9.76141 24.6106 10.4481C24.6106 10.4742 24.627 10.6483 24.6481 10.8486C24.5311 10.4361 24.4142 10.0277 24.2716 9.62527C24.0419 8.93439 23.7583 8.25749 23.4227 7.59914C23.5303 7.5591 24.8772 7.06057 25.3309 6.63012C25.7331 6.24772 26.1236 5.66711 26.0044 5.13255C25.9812 5.00611 25.9273 4.88526 25.8461 4.77783C25.7649 4.67039 25.6582 4.57878 25.5329 4.50893C25.4077 4.43907 25.2667 4.39255 25.1191 4.37236C24.9715 4.35218 24.8205 4.35879 24.6761 4.39177C23.8132 4.612 23.3058 5.93138 23.2894 6.62011C23.2894 6.66816 23.3549 7.29682 23.3876 7.52105V7.49703C23.0391 6.85699 22.6252 6.24463 22.1505 5.66711C21.7296 5.15015 21.2736 4.65478 20.7849 4.18355C20.3382 3.74108 19.8962 3.36068 19.501 3.02633C19.2882 2.84614 19.0871 2.68597 18.8977 2.53782H18.9164C18.9328 2.53782 18.4955 1.67892 18.4628 1.62686C18.0582 1.02623 16.8703 0.0832395 15.991 0.247412C15.8454 0.278112 15.709 0.334762 15.5907 0.413663C15.4724 0.492564 15.3748 0.591941 15.3044 0.705306C15.234 0.81867 15.1923 0.943473 15.1821 1.07157C15.1719 1.19966 15.1933 1.32816 15.245 1.44867C15.4414 1.96522 16.1102 2.31558 16.6785 2.48176C17.2467 2.64793 18.5306 2.57185 18.8439 2.54783C19.038 2.70399 19.2415 2.87417 19.4613 3.06637C19.8448 3.40873 20.2751 3.79514 20.71 4.24361C20.827 4.36374 20.9439 4.49588 21.0632 4.62201C20.8129 4.44382 20.4645 4.20557 20.4271 4.18555C19.7489 3.81516 18.1845 3.44277 17.4923 3.93529C17.3801 4.01991 17.29 4.12379 17.2277 4.24018C17.1654 4.35657 17.1325 4.48287 17.1309 4.61088C17.1294 4.73889 17.1593 4.86574 17.2187 4.98321C17.2782 5.10067 17.3658 5.20612 17.4759 5.29271C17.9272 5.67311 18.7083 5.71916 19.3023 5.64508C19.8962 5.57101 21.0304 4.97438 21.2689 4.84424C21.5262 5.12854 21.7834 5.42485 22.0289 5.74719C22.4814 6.32551 22.8727 6.93725 23.1982 7.57511C23.2169 7.61315 23.2309 7.65319 23.2473 7.68923C23.1421 7.58312 22.5107 7.03655 22.4592 7.00251C21.8325 6.57206 20.3265 6.05551 19.5759 6.47996C19.4532 6.55323 19.3499 6.64784 19.2727 6.75761C19.1956 6.86737 19.1464 6.98983 19.1283 7.11698C19.1102 7.24414 19.1237 7.37313 19.1677 7.49554C19.2118 7.61794 19.2855 7.73102 19.3841 7.82738C19.784 8.24782 20.5534 8.36794 21.1544 8.34792C21.8559 8.3279 23.2075 7.74729 23.259 7.71726C23.5657 8.36083 23.8227 9.02094 24.0284 9.69334C24.1827 10.1899 24.316 10.6944 24.4446 11.2109C24.3043 11.0748 23.715 10.5683 23.6682 10.5342C23.0415 10.1038 21.5355 9.58723 20.7825 10.0117C20.6601 10.0851 20.5571 10.1798 20.4802 10.2896C20.4033 10.3994 20.3542 10.5218 20.3361 10.6488C20.318 10.7759 20.3314 10.9048 20.3752 11.0271C20.4191 11.1495 20.4925 11.2626 20.5908 11.3591C20.993 11.7795 21.76 11.8997 22.3634 11.8796C23.0368 11.8596 24.3464 11.301 24.468 11.253C24.5264 11.4852 24.5849 11.7175 24.641 11.9517C24.8258 12.7125 25.0058 13.4773 25.2093 14.2261C25.2818 14.4864 25.3613 14.7406 25.4431 14.9949C25.2233 14.7947 24.8141 14.4443 24.7767 14.4183C24.15 13.9858 22.6416 13.4693 21.891 13.8937C21.7683 13.967 21.665 14.0616 21.5878 14.1714C21.5107 14.2812 21.4615 14.4036 21.4434 14.5308C21.4253 14.6579 21.4388 14.7869 21.4828 14.9093C21.5269 15.0317 21.6006 15.1448 21.6992 15.2412C22.0991 15.6636 22.8685 15.7817 23.4695 15.7637C24.0704 15.7457 25.1836 15.2952 25.4946 15.1631C25.6326 15.5855 25.7775 16.002 25.9459 16.4064C26.0231 16.5786 26.0862 16.7588 26.1798 16.9209L26.3084 17.1792L26.133 17.1652C26.133 17.1652 26.133 17.4074 26.1494 17.7979C25.4876 17.3974 24.5335 17.0471 23.9138 17.2913C23.7797 17.3481 23.6611 17.4283 23.5656 17.5269C23.4701 17.6254 23.3999 17.7401 23.3595 17.8634C23.3192 17.9867 23.3096 18.1159 23.3313 18.2425C23.3531 18.3692 23.4057 18.4906 23.4858 18.5987C23.5257 18.6564 23.5719 18.7107 23.6238 18.7609C23.7414 19.3585 24.0361 19.9203 24.4797 20.3926C24.5124 20.4246 24.9614 20.781 25.1976 20.9572C24.9637 20.8531 24.7439 20.757 24.5101 20.6348C24.1733 20.4747 23.8226 20.2965 23.4811 20.1243L22.9363 19.826C22.7562 19.7319 22.5972 19.6258 22.4242 19.5217C22.1739 19.3675 21.9261 19.1993 21.6782 19.0291C21.8886 18.7448 22.492 17.902 22.5808 17.4094C22.6697 16.9169 22.6206 16.2322 22.1763 15.8438C22.0763 15.7486 21.954 15.6725 21.8174 15.6205C21.6809 15.5684 21.533 15.5414 21.3835 15.5414C21.234 15.5414 21.0862 15.5684 20.9496 15.6205C20.813 15.6725 20.6908 15.7486 20.5908 15.8438C20.0132 16.4444 20.4411 17.7758 20.8691 18.3584C20.8831 18.3765 20.9883 18.4926 21.1029 18.6267C20.8691 18.4565 20.6352 18.2864 20.4014 18.1062C19.7419 17.5936 19.0871 17.0551 18.4277 16.5185L18.0255 16.1922C18.2055 15.9539 18.8673 15.045 18.9609 14.5304C19.0544 14.0159 19.0006 13.3532 18.5586 12.9628C18.4586 12.8676 18.3364 12.7915 18.1998 12.7394C18.0632 12.6873 17.9154 12.6604 17.7659 12.6604C17.6164 12.6604 17.4685 12.6873 17.332 12.7394C17.1954 12.7915 17.0731 12.8676 16.9731 12.9628C16.3955 13.5634 16.8235 14.8928 17.2514 15.4754C17.2655 15.4974 17.3917 15.6336 17.5344 15.7857C17.1719 15.4994 16.8071 15.2151 16.433 14.9449C15.7962 14.4771 15.1235 14.0463 14.4195 13.6555C14.4827 13.5714 15.2848 12.5183 15.3877 11.9457C15.4765 11.4372 15.4274 10.7685 14.9831 10.3801C14.8833 10.2849 14.7613 10.2089 14.6249 10.1568C14.4885 10.1047 14.3408 10.0778 14.1915 10.0778C14.0422 10.0778 13.8945 10.1047 13.7582 10.1568C13.6218 10.2089 13.4997 10.2849 13.3999 10.3801C12.82 10.9807 13.2479 12.3121 13.6759 12.8947C13.7063 12.9347 14.1693 13.4293 14.34 13.5994L14.3143 13.5854C13.6121 13.2152 12.8725 12.8996 12.1044 12.6424C11.417 12.4076 10.7143 12.2071 9.99979 12.0418C9.34034 11.8836 8.72765 11.7755 8.18513 11.6814C7.88814 11.6334 7.61921 11.5953 7.36432 11.5593H7.38069C7.39238 11.5593 6.47569 11.0408 6.41255 11.0147C5.69464 10.7084 4.09278 10.4802 3.46373 11.0307C3.3625 11.125 3.28555 11.2363 3.23787 11.3577C3.19019 11.479 3.17284 11.6076 3.18695 11.735C3.20106 11.8624 3.24632 11.9859 3.31979 12.0974C3.39326 12.2089 3.49329 12.3059 3.61339 12.3822C4.11149 12.7205 4.89254 12.6965 5.48418 12.5684C6.07581 12.4402 7.08604 11.7675 7.33158 11.5993C7.59349 11.6394 7.87411 11.6854 8.18279 11.7415C8.72298 11.8436 9.33098 11.9637 9.98108 12.1419C10.1565 12.188 10.3412 12.242 10.5213 12.2901C10.1962 12.262 9.75191 12.226 9.70748 12.226C8.90538 12.24 7.36899 12.6665 7.10007 13.4052C7.06039 13.5286 7.05158 13.6578 7.07422 13.7843C7.09686 13.9107 7.15043 14.0317 7.23145 14.1392C7.31246 14.2468 7.41908 14.3385 7.54434 14.4083C7.66959 14.4781 7.81065 14.5245 7.95829 14.5444C8.58267 14.6485 9.26317 14.3182 9.70982 13.9758C10.1565 13.6335 10.7177 12.6004 10.8346 12.3742C11.2322 12.4883 11.6367 12.6144 12.0483 12.7746C12.7999 13.043 13.5222 13.368 14.2067 13.7456C14.2465 13.7676 14.2839 13.7956 14.3236 13.8177C14.167 13.7796 13.2877 13.6175 13.2246 13.6175C12.4248 13.5534 10.8346 13.8337 10.4815 14.5424C10.4261 14.661 10.4005 14.7883 10.4065 14.9159C10.4124 15.0436 10.4496 15.1687 10.5158 15.2832C10.582 15.3977 10.6757 15.4989 10.7906 15.5803C10.9056 15.6618 11.0393 15.7215 11.1831 15.7557C11.7911 15.9179 12.509 15.6536 12.9977 15.3553C13.5613 15.0109 14.3166 13.8757 14.3447 13.8337C15.0151 14.226 15.6549 14.6554 16.2599 15.119C16.7089 15.4614 17.1485 15.8218 17.5858 16.1882C17.38 16.1421 16.5639 15.988 16.5031 15.988C15.7033 15.9239 14.1132 16.2042 13.7601 16.9129C13.705 17.0317 13.6797 17.159 13.6858 17.2867C13.6919 17.4144 13.7292 17.5395 13.7953 17.6541C13.8614 17.7686 13.9549 17.87 14.0697 17.9517C14.1845 18.0334 14.318 18.0935 14.4616 18.1282C15.0696 18.2904 15.7875 18.0261 16.2763 17.7278C16.8258 17.3914 17.5554 16.3083 17.6186 16.2162L18.2125 16.7167C18.8556 17.2653 19.4987 17.8179 20.1535 18.3464C20.3873 18.5286 20.6212 18.7028 20.841 18.877C20.53 18.8169 19.9617 18.7148 19.9056 18.7108C19.1035 18.6487 17.5157 18.929 17.1602 19.6378C17.1052 19.7564 17.0799 19.8836 17.086 20.0112C17.0921 20.1387 17.1294 20.2637 17.1956 20.3781C17.2617 20.4925 17.3552 20.5937 17.47 20.6752C17.5847 20.7567 17.7182 20.8166 17.8618 20.8511C18.4674 21.0132 19.1877 20.749 19.6764 20.4506C20.1652 20.1523 20.8036 19.2494 20.979 18.9951C21.3648 19.2814 21.7553 19.5597 22.1482 19.818C22.3236 19.9261 22.4943 20.0462 22.6697 20.1423L23.1865 20.4386C23.5466 20.6388 23.888 20.809 24.2248 20.9792C24.3955 21.0673 24.5592 21.1454 24.7276 21.2295C24.4236 21.1273 23.9395 20.9732 23.8927 20.9632C23.114 20.797 21.4911 20.8671 21.0164 21.5218C20.941 21.6323 20.8937 21.7553 20.8776 21.8826C20.8615 22.0098 20.8768 22.1386 20.9227 22.2604C20.9686 22.3823 21.044 22.4945 21.144 22.5897C21.2439 22.6849 21.3662 22.7611 21.5028 22.8131C22.0734 23.0534 22.831 22.8852 23.3736 22.653C23.9629 22.3967 24.8515 21.4517 24.9591 21.3396C25.373 21.5398 25.7775 21.74 26.1587 21.9082C27.1783 22.3767 28.0692 22.7491 28.7591 23.0253C31.004 24.6871 34.1633 24.8713 34.1633 24.8713C34.1633 24.8713 34.3294 21.6319 32.1031 19.4996C31.3307 18.787 30.3857 18.2274 29.3344 17.8599ZM25.3285 21.0172C25.3987 20.8851 25.9366 19.856 25.974 19.2754C26.0979 19.2554 26.2242 19.2334 26.3458 19.2093C26.5761 20.2337 27.0541 21.2054 27.7489 22.0623C27.3396 21.8962 26.8977 21.712 26.43 21.5077C26.0698 21.3556 25.7027 21.1914 25.3285 21.0172Z" fill="#FFD942"/>
<path d="M45.8887 17.2393C45.8887 17.2393 42.1027 17.3394 39.7853 19.3995C37.4678 21.4597 37.4982 24.7031 37.4982 24.7031C37.4982 24.7031 41.2843 24.603 43.5994 22.5428C45.9144 20.4827 45.8887 17.2393 45.8887 17.2393Z" fill="#FFD942"/>
<g opacity="0.5">
<path opacity="0.5" d="M21.2806 4.68403C21.2806 4.68403 22.5223 3.84514 22.8404 3.30658C23.1116 2.8481 23.3081 2.19942 23.0275 1.7049C22.9658 1.58861 22.8762 1.48473 22.7646 1.4C22.653 1.31527 22.5218 1.25158 22.3795 1.21306C22.2373 1.17455 22.0872 1.16207 21.939 1.17644C21.7907 1.19081 21.6477 1.2317 21.5191 1.29647C20.7544 1.69689 20.6726 3.09836 20.8667 3.75905C20.8831 3.81712 21.2689 4.70004 21.2806 4.68403Z" fill="white"/>
<path opacity="0.5" d="M9.80573 11.6775C9.85483 11.7175 10.7411 12.2661 10.7411 12.2521C10.7411 12.2381 11.2439 10.9667 11.1597 10.3681C11.0896 9.85757 10.8347 9.22291 10.2875 8.94862C10.1612 8.88004 10.0194 8.83498 9.87145 8.81635C9.72348 8.79773 9.5726 8.80596 9.42859 8.84051C9.28458 8.87506 9.15067 8.93516 9.03556 9.01691C8.92044 9.09866 8.8267 9.20022 8.76042 9.31501C8.38627 10.0157 9.21175 11.211 9.80573 11.6775Z" fill="white"/>
<path opacity="0.5" d="M35.8144 5.95532C35.8144 5.95532 31.2707 9.97154 31.2941 14.9107C31.3175 19.8499 35.9056 23.8261 35.9056 23.8261C35.9056 23.8261 40.4493 19.8099 40.4235 14.8767C40.3978 9.94351 35.8144 5.95532 35.8144 5.95532Z" fill="white"/>
<path opacity="0.5" d="M29.3344 17.8599C29.3949 17.8042 29.4504 17.7447 29.5004 17.6817C29.8301 17.2533 30.1131 16.6286 29.9003 16.1161C29.8551 15.9942 29.7805 15.8818 29.6813 15.7861C29.5821 15.6905 29.4606 15.6138 29.3246 15.5609C29.1885 15.5081 29.041 15.4803 28.8917 15.4793C28.7423 15.4784 28.5944 15.5043 28.4574 15.5555C27.8401 15.8058 27.5361 16.6526 27.4706 17.3454C27.2367 17.2973 27.0029 17.2593 26.8135 17.2333C26.7316 17.0751 26.6498 16.9169 26.5656 16.7588C26.4814 16.6006 26.4136 16.4284 26.3318 16.2622C26.2218 16.016 26.1236 15.7577 26.0254 15.4994C26.3855 15.3613 27.4285 14.9429 27.8214 14.5725C28.2142 14.2021 28.6141 13.6115 28.4949 13.0769C28.4721 12.9503 28.4183 12.8293 28.3372 12.7217C28.2561 12.6141 28.1494 12.5223 28.024 12.4524C27.8987 12.3825 27.7575 12.336 27.6098 12.316C27.4621 12.296 27.311 12.3028 27.1666 12.3361C26.3037 12.5543 25.7962 13.8757 25.7799 14.5625C25.7799 14.5845 25.7799 14.7306 25.8103 14.9048C25.7237 14.6485 25.6349 14.3963 25.5577 14.136C25.3356 13.3972 25.1368 12.6384 24.9333 11.8796C24.8912 11.7215 24.8468 11.5633 24.8024 11.4051C25.1064 11.291 26.2452 10.8445 26.6545 10.4581C27.0637 10.0717 27.4449 9.49713 27.3256 8.96257C27.3032 8.83585 27.2497 8.71464 27.1686 8.60687C27.0876 8.49911 26.9809 8.40723 26.8554 8.33728C26.73 8.26732 26.5887 8.22087 26.4408 8.20096C26.2929 8.18106 26.1418 8.18816 25.9974 8.22179C25.1368 8.44002 24.6293 9.76141 24.6106 10.4481C24.6106 10.4742 24.627 10.6483 24.6481 10.8486C24.5311 10.4361 24.4142 10.0277 24.2716 9.62527C24.0419 8.93439 23.7583 8.25749 23.4227 7.59914C23.5303 7.5591 24.8772 7.06057 25.3309 6.63012C25.7331 6.24772 26.1236 5.66711 26.0044 5.13255C25.9812 5.00611 25.9273 4.88526 25.8461 4.77783C25.7649 4.67039 25.6582 4.57878 25.5329 4.50893C25.4077 4.43907 25.2667 4.39255 25.1191 4.37236C24.9715 4.35218 24.8205 4.35879 24.6761 4.39177C23.8132 4.612 23.3058 5.93138 23.2894 6.62011C23.2894 6.66816 23.3549 7.29682 23.3876 7.52105V7.49703C23.0391 6.85699 22.6252 6.24463 22.1505 5.66711C21.7296 5.15015 21.2736 4.65478 20.7849 4.18355C20.3382 3.74108 19.8962 3.36068 19.501 3.02633C19.2882 2.84614 19.0871 2.68597 18.8977 2.53782H18.9164C18.9328 2.53782 18.4955 1.67892 18.4628 1.62686C18.0582 1.02623 16.8703 0.0832395 15.991 0.247412C15.8454 0.278112 15.709 0.334762 15.5907 0.413663C15.4724 0.492564 15.3748 0.591941 15.3044 0.705306C15.234 0.81867 15.1923 0.943473 15.1821 1.07157C15.1719 1.19966 15.1933 1.32816 15.245 1.44867C15.4414 1.96522 16.1102 2.31558 16.6785 2.48176C17.2467 2.64793 18.5306 2.57185 18.8439 2.54783C19.038 2.70399 19.2415 2.87417 19.4613 3.06637C19.8448 3.40873 20.2751 3.79514 20.71 4.24361C20.827 4.36374 20.9439 4.49588 21.0632 4.62201C20.8129 4.44382 20.4645 4.20557 20.4271 4.18555C19.7489 3.81516 18.1845 3.44277 17.4923 3.93529C17.3801 4.01991 17.29 4.12379 17.2277 4.24018C17.1654 4.35657 17.1325 4.48287 17.1309 4.61088C17.1294 4.73889 17.1593 4.86574 17.2187 4.98321C17.2782 5.10067 17.3658 5.20612 17.4759 5.29271C17.9272 5.67311 18.7083 5.71916 19.3023 5.64508C19.8962 5.57101 21.0304 4.97438 21.2689 4.84424C21.5262 5.12854 21.7834 5.42485 22.0289 5.74719C22.4814 6.32551 22.8727 6.93725 23.1982 7.57511C23.2169 7.61315 23.2309 7.65319 23.2473 7.68923C23.1421 7.58312 22.5107 7.03655 22.4592 7.00251C21.8325 6.57206 20.3265 6.05551 19.5759 6.47996C19.4532 6.55323 19.3499 6.64784 19.2727 6.75761C19.1956 6.86737 19.1464 6.98983 19.1283 7.11698C19.1102 7.24414 19.1237 7.37313 19.1677 7.49554C19.2118 7.61794 19.2855 7.73102 19.3841 7.82738C19.784 8.24782 20.5534 8.36794 21.1544 8.34792C21.8559 8.3279 23.2075 7.74729 23.259 7.71726C23.5657 8.36083 23.8227 9.02094 24.0284 9.69334C24.1827 10.1899 24.316 10.6944 24.4446 11.2109C24.3043 11.0748 23.715 10.5683 23.6682 10.5342C23.0415 10.1038 21.5355 9.58723 20.7825 10.0117C20.6601 10.0851 20.5571 10.1798 20.4802 10.2896C20.4033 10.3994 20.3542 10.5218 20.3361 10.6488C20.318 10.7759 20.3314 10.9048 20.3752 11.0271C20.4191 11.1495 20.4925 11.2626 20.5908 11.3591C20.993 11.7795 21.76 11.8997 22.3634 11.8796C23.0368 11.8596 24.3464 11.301 24.468 11.253C24.5264 11.4852 24.5849 11.7175 24.641 11.9517C24.8258 12.7125 25.0058 13.4773 25.2093 14.2261C25.2818 14.4864 25.3613 14.7406 25.4431 14.9949C25.2233 14.7947 24.8141 14.4443 24.7767 14.4183C24.15 13.9858 22.6416 13.4693 21.891 13.8937C21.7683 13.967 21.665 14.0616 21.5878 14.1714C21.5107 14.2812 21.4615 14.4036 21.4434 14.5308C21.4253 14.6579 21.4388 14.7869 21.4828 14.9093C21.5269 15.0317 21.6006 15.1448 21.6992 15.2412C22.0991 15.6636 22.8685 15.7817 23.4695 15.7637C24.0704 15.7457 25.1836 15.2952 25.4946 15.1631C25.6326 15.5855 25.7775 16.002 25.9459 16.4064C26.0231 16.5786 26.0862 16.7588 26.1798 16.9209L26.3084 17.1792L26.133 17.1652C26.133 17.1652 26.133 17.4074 26.1494 17.7979C25.4876 17.3974 24.5335 17.0471 23.9138 17.2913C23.7797 17.3481 23.6611 17.4283 23.5656 17.5269C23.4701 17.6254 23.3999 17.7401 23.3595 17.8634C23.3192 17.9867 23.3096 18.1159 23.3313 18.2425C23.3531 18.3692 23.4057 18.4906 23.4858 18.5987C23.5257 18.6564 23.5719 18.7107 23.6238 18.7609C23.7414 19.3585 24.0361 19.9203 24.4797 20.3926C24.5124 20.4246 24.9614 20.781 25.1976 20.9572C24.9637 20.8531 24.7439 20.757 24.5101 20.6348C24.1733 20.4747 23.8226 20.2965 23.4811 20.1243L22.9363 19.826C22.7562 19.7319 22.5972 19.6258 22.4242 19.5217C22.1739 19.3675 21.9261 19.1993 21.6782 19.0291C21.8886 18.7448 22.492 17.902 22.5808 17.4094C22.6697 16.9169 22.6206 16.2322 22.1763 15.8438C22.0763 15.7486 21.954 15.6725 21.8174 15.6205C21.6809 15.5684 21.533 15.5414 21.3835 15.5414C21.234 15.5414 21.0862 15.5684 20.9496 15.6205C20.813 15.6725 20.6908 15.7486 20.5908 15.8438C20.0132 16.4444 20.4411 17.7758 20.8691 18.3584C20.8831 18.3765 20.9883 18.4926 21.1029 18.6267C20.8691 18.4565 20.6352 18.2864 20.4014 18.1062C19.7419 17.5936 19.0871 17.0551 18.4277 16.5185L18.0255 16.1922C18.2055 15.9539 18.8673 15.045 18.9609 14.5304C19.0544 14.0159 19.0006 13.3532 18.5586 12.9628C18.4586 12.8676 18.3364 12.7915 18.1998 12.7394C18.0632 12.6873 17.9154 12.6604 17.7659 12.6604C17.6164 12.6604 17.4685 12.6873 17.332 12.7394C17.1954 12.7915 17.0731 12.8676 16.9731 12.9628C16.3955 13.5634 16.8235 14.8928 17.2514 15.4754C17.2655 15.4974 17.3917 15.6336 17.5344 15.7857C17.1719 15.4994 16.8071 15.2151 16.433 14.9449C15.7962 14.4771 15.1235 14.0463 14.4195 13.6555C14.4827 13.5714 15.2848 12.5183 15.3877 11.9457C15.4765 11.4372 15.4274 10.7685 14.9831 10.3801C14.8833 10.2849 14.7613 10.2089 14.6249 10.1568C14.4885 10.1047 14.3408 10.0778 14.1915 10.0778C14.0422 10.0778 13.8945 10.1047 13.7582 10.1568C13.6218 10.2089 13.4997 10.2849 13.3999 10.3801C12.82 10.9807 13.2479 12.3121 13.6759 12.8947C13.7063 12.9347 14.1693 13.4293 14.34 13.5994L14.3143 13.5854C13.6121 13.2152 12.8725 12.8996 12.1044 12.6424C11.417 12.4076 10.7143 12.2071 9.99979 12.0418C9.34034 11.8836 8.72765 11.7755 8.18513 11.6814C7.88814 11.6334 7.61921 11.5953 7.36432 11.5593H7.38069C7.39238 11.5593 6.47569 11.0408 6.41255 11.0147C5.69464 10.7084 4.09278 10.4802 3.46373 11.0307C3.3625 11.125 3.28555 11.2363 3.23787 11.3577C3.19019 11.479 3.17284 11.6076 3.18695 11.735C3.20106 11.8624 3.24632 11.9859 3.31979 12.0974C3.39326 12.2089 3.49329 12.3059 3.61339 12.3822C4.11149 12.7205 4.89254 12.6965 5.48418 12.5684C6.07581 12.4402 7.08604 11.7675 7.33158 11.5993C7.59349 11.6394 7.87411 11.6854 8.18279 11.7415C8.72298 11.8436 9.33098 11.9637 9.98108 12.1419C10.1565 12.188 10.3412 12.242 10.5213 12.2901C10.1962 12.262 9.75191 12.226 9.70748 12.226C8.90538 12.24 7.36899 12.6665 7.10007 13.4052C7.06039 13.5286 7.05158 13.6578 7.07422 13.7843C7.09686 13.9107 7.15043 14.0317 7.23145 14.1392C7.31246 14.2468 7.41908 14.3385 7.54434 14.4083C7.66959 14.4781 7.81065 14.5245 7.95829 14.5444C8.58267 14.6485 9.26317 14.3182 9.70982 13.9758C10.1565 13.6335 10.7177 12.6004 10.8346 12.3742C11.2322 12.4883 11.6367 12.6144 12.0483 12.7746C12.7999 13.043 13.5222 13.368 14.2067 13.7456C14.2465 13.7676 14.2839 13.7956 14.3236 13.8177C14.167 13.7796 13.2877 13.6175 13.2246 13.6175C12.4248 13.5534 10.8346 13.8337 10.4815 14.5424C10.4261 14.661 10.4005 14.7883 10.4065 14.9159C10.4124 15.0436 10.4496 15.1687 10.5158 15.2832C10.582 15.3977 10.6757 15.4989 10.7906 15.5803C10.9056 15.6618 11.0393 15.7215 11.1831 15.7557C11.7911 15.9179 12.509 15.6536 12.9977 15.3553C13.5613 15.0109 14.3166 13.8757 14.3447 13.8337C15.0151 14.226 15.6549 14.6554 16.2599 15.119C16.7089 15.4614 17.1485 15.8218 17.5858 16.1882C17.38 16.1421 16.5639 15.988 16.5031 15.988C15.7033 15.9239 14.1132 16.2042 13.7601 16.9129C13.705 17.0317 13.6797 17.159 13.6858 17.2867C13.6919 17.4144 13.7292 17.5395 13.7953 17.6541C13.8614 17.7686 13.9549 17.87 14.0697 17.9517C14.1845 18.0334 14.318 18.0935 14.4616 18.1282C15.0696 18.2904 15.7875 18.0261 16.2763 17.7278C16.8258 17.3914 17.5554 16.3083 17.6186 16.2162L18.2125 16.7167C18.8556 17.2653 19.4987 17.8179 20.1535 18.3464C20.3873 18.5286 20.6212 18.7028 20.841 18.877C20.53 18.8169 19.9617 18.7148 19.9056 18.7108C19.1035 18.6487 17.5157 18.929 17.1602 19.6378C17.1052 19.7564 17.0799 19.8836 17.086 20.0112C17.0921 20.1387 17.1294 20.2637 17.1956 20.3781C17.2617 20.4925 17.3552 20.5937 17.47 20.6752C17.5847 20.7567 17.7182 20.8166 17.8618 20.8511C18.4674 21.0132 19.1877 20.749 19.6764 20.4506C20.1652 20.1523 20.8036 19.2494 20.979 18.9951C21.3648 19.2814 21.7553 19.5597 22.1482 19.818C22.3236 19.9261 22.4943 20.0462 22.6697 20.1423L23.1865 20.4386C23.5466 20.6388 23.888 20.809 24.2248 20.9792C24.3955 21.0673 24.5592 21.1454 24.7276 21.2295C24.4236 21.1273 23.9395 20.9732 23.8927 20.9632C23.114 20.797 21.4911 20.8671 21.0164 21.5218C20.941 21.6323 20.8937 21.7553 20.8776 21.8826C20.8615 22.0098 20.8768 22.1386 20.9227 22.2604C20.9686 22.3823 21.044 22.4945 21.144 22.5897C21.2439 22.6849 21.3662 22.7611 21.5028 22.8131C22.0734 23.0534 22.831 22.8852 23.3736 22.653C23.9629 22.3967 24.8515 21.4517 24.9591 21.3396C25.373 21.5398 25.7775 21.74 26.1587 21.9082C27.1783 22.3767 28.0692 22.7491 28.7591 23.0253C31.004 24.6871 34.1633 24.8713 34.1633 24.8713C34.1633 24.8713 34.3294 21.6319 32.1031 19.4996C31.3307 18.787 30.3857 18.2274 29.3344 17.8599ZM25.3285 21.0172C25.3987 20.8851 25.9366 19.856 25.974 19.2754C26.0979 19.2554 26.2242 19.2334 26.3458 19.2093C26.5761 20.2337 27.0541 21.2054 27.7489 22.0623C27.3396 21.8962 26.8977 21.712 26.43 21.5077C26.0698 21.3556 25.7027 21.1914 25.3285 21.0172Z" fill="white"/>
<path opacity="0.5" d="M45.8887 17.2393C45.8887 17.2393 42.1027 17.3394 39.7853 19.3995C37.4678 21.4597 37.4982 24.7031 37.4982 24.7031C37.4982 24.7031 41.2843 24.603 43.5994 22.5428C45.9144 20.4827 45.8887 17.2393 45.8887 17.2393Z" fill="white"/>
</g>
<path d="M36.0016 19.3274L39.7198 16.4664L39.5608 16.3142L35.9993 19.0551L35.9805 15.3031L36.0016 15.3152L39.1445 11.379L38.9481 11.2629L35.9805 14.9788L35.9338 5.95532H35.6953L35.7257 12.0818L33.3591 10.3279L33.2048 10.4821L35.728 12.352L35.749 16.7326L32.1618 14.0138L32.0051 14.168L35.7514 17.0049L35.7701 20.9931L33.0738 19.1812L32.9288 19.3434L35.7724 21.2534L35.7865 23.8201H36.025L36.0016 19.3274Z" fill="white"/>
<path d="M32.5755 20.4325L32.3393 20.4085L32.04 22.6748L30.4428 21.1472H30.4475L30.0406 18.4043L29.8044 18.4304L30.1669 20.883L26.1984 17.085L26.0207 17.2211L28.7147 19.7978L27.0099 19.8158L27.0122 20.02L28.9251 20L30.8123 21.8079L28.1464 21.8099V22.0141L31.0251 22.0121L32.7415 23.6539L30.8614 23.752L30.8778 23.9542L32.945 23.8481L34.0885 24.9432L34.2662 24.8071L32.2528 22.879L32.5755 20.4325Z" fill="white"/>
<path d="M41.56 21.2395L44.7263 20.6909L44.6772 20.4907L41.8476 20.9812L45.9727 17.3113L45.802 17.1692L43.0028 19.6598L42.8532 18.2063L42.617 18.2243L42.783 19.856L40.8187 21.6018L40.6176 19.3255L40.379 19.3415L40.5965 21.8001L38.8123 23.3877L38.5597 21.79L38.3212 21.8161L38.6018 23.5759L37.4115 24.633L37.5822 24.7732L39.6775 22.9112L42.5515 23.0053L42.5608 22.8011L39.8996 22.715L41.56 21.2375V21.2395Z" fill="white"/>
<path d="M47.4668 79.1262L19.6155 35.5945L0.37207 41.1703L6.61348 51.5613L6.21828 50.9806L5.04904 51.313C4.93262 51.3464 4.82602 51.4009 4.73653 51.4728C4.64703 51.5448 4.57678 51.6324 4.53057 51.7298C4.48437 51.8272 4.46331 51.9319 4.46885 52.0369C4.47438 52.1419 4.50637 52.2447 4.56263 52.3381L7.64008 57.4615C7.83624 57.7891 8.14911 58.0547 8.53338 58.2199C8.91765 58.3852 9.35338 58.4414 9.77745 58.3804L10.631 58.2583L25.6207 83.2145L47.4668 79.1262Z" fill="#2E353A"/>
<path d="M65.4588 16.7987C65.1594 16.9387 64.8074 16.9714 64.48 16.8896C64.1525 16.8078 63.8763 16.6181 63.7119 16.3622L62.9987 15.2471L19.6151 35.5944L47.4665 79.1262L90.8524 58.7808L75.6896 35.0819C75.5262 34.8259 75.4881 34.5249 75.5836 34.2448C75.6792 33.9648 75.9007 33.7287 76.1994 33.5883C76.3476 33.5188 76.4784 33.425 76.5843 33.3122C76.6901 33.1994 76.769 33.0699 76.8163 32.931C76.8637 32.7921 76.8786 32.6466 76.8602 32.5028C76.8418 32.3589 76.7905 32.2196 76.7092 32.0928L67.2033 17.2352C67.0393 16.9794 66.7636 16.7898 66.4365 16.7079C66.1094 16.6261 65.7578 16.6588 65.4588 16.7987Z" fill="#FFD942" stroke="#2E353A" stroke-width="0.5" stroke-linecap="round" stroke-linejoin="round"/>
<path d="M67.6178 18.4049L32.3832 29.1584L49.2065 69.563L84.4411 58.8095L67.6178 18.4049Z" fill="white" stroke="#2E353A" stroke-width="0.5" stroke-linecap="round" stroke-linejoin="round"/>
<path d="M67.6193 18.4063L32.3848 29.1599L38.5825 44.045L73.8171 33.2914L67.6193 18.4063Z" fill="white" stroke="#2E353A" stroke-width="0.5" stroke-linecap="round" stroke-linejoin="round"/>
<path d="M64.8923 33.6986C67.5233 32.2686 68.3021 29.2833 66.6318 27.0308C64.9615 24.7782 61.4746 24.1115 58.8436 25.5415C56.2126 26.9716 55.4338 29.9569 57.1041 32.2094C58.7745 34.4619 62.2614 35.1287 64.8923 33.6986Z" fill="#2E353A" stroke="#2E353A" stroke-width="0.5" stroke-linecap="round" stroke-linejoin="round"/>
<path d="M63.7609 34.177C64.5432 33.939 65.2543 33.5558 65.8433 33.055C66.4323 32.5542 66.8847 31.948 67.1681 31.2799C66.1883 29.402 63.7937 28.4229 61.6376 29.0776C59.4815 29.7323 58.352 31.7925 58.9811 33.7766C59.6941 34.1408 60.4923 34.3655 61.3187 34.4347C62.145 34.504 62.979 34.4159 63.7609 34.177Z" fill="white" stroke="#2E353A" stroke-width="0.5" stroke-linecap="round" stroke-linejoin="round"/>
<path d="M63.3834 30.5581C64.5671 29.6627 64.6789 28.1153 63.6331 27.1019C62.5873 26.0885 60.78 25.9927 59.5962 26.8881C58.4125 27.7834 58.3007 29.3308 59.3465 30.3443C60.3923 31.3577 62.1997 31.4535 63.3834 30.5581Z" fill="white" stroke="#2E353A" stroke-width="0.5" stroke-linecap="round" stroke-linejoin="round"/>
<path d="M50.0194 29.7491L37.6887 33.5125L38.1936 34.7251L50.5243 30.9617L50.0194 29.7491Z" fill="white" stroke="#2E353A" stroke-width="0.5" stroke-linecap="round" stroke-linejoin="round"/>
<path d="M51.2346 32.6624L38.9038 36.4258L39.4087 37.6384L51.7395 33.875L51.2346 32.6624Z" fill="white" stroke="#2E353A" stroke-width="0.5" stroke-linecap="round" stroke-linejoin="round"/>
<path d="M52.2426 35.0875L39.9118 38.8508L40.1646 39.4581L52.4954 35.6947L52.2426 35.0875Z" fill="#2E353A"/>
<path d="M52.849 36.5445L40.5182 40.3079L40.7711 40.9151L53.1019 37.1518L52.849 36.5445Z" fill="#2E353A"/>
<path d="M55.9306 43.9466L43.5998 47.71L43.8526 48.3172L56.1834 44.5539L55.9306 43.9466Z" fill="#2E353A"/>
<path d="M56.4854 45.2828L44.1546 49.0461L44.4074 49.6534L56.7382 45.89L56.4854 45.2828Z" fill="#2E353A"/>
<path d="M57.0417 46.6168L44.7109 50.3801L44.9638 50.9874L57.2946 47.224L57.0417 46.6168Z" fill="#2E353A"/>
<path d="M72.6551 38.8416L60.3243 42.605L60.5772 43.2122L72.908 39.4489L72.6551 38.8416Z" fill="#2E353A"/>
<path d="M73.2115 40.1776L60.8807 43.9409L61.1335 44.5482L73.4643 40.7848L73.2115 40.1776Z" fill="#2E353A"/>
<path d="M73.7671 41.5125L61.4363 45.2759L61.6891 45.8831L74.0199 42.1198L73.7671 41.5125Z" fill="#2E353A"/>
<path d="M42.8087 46.5879L72.5752 37.5063" stroke="#2E353A" stroke-width="0.5" stroke-linecap="round" stroke-linejoin="round"/>
<path d="M58.8109 50.8631L46.4802 54.6265L46.733 55.2337L59.0638 51.4704L58.8109 50.8631Z" fill="#2E353A"/>
<path d="M59.3658 52.2L47.035 55.9634L47.2879 56.5706L59.6187 52.8073L59.3658 52.2Z" fill="#2E353A"/>
<path d="M59.9229 53.5343L47.5921 57.2976L47.8449 57.9049L60.1757 54.1415L59.9229 53.5343Z" fill="#2E353A"/>
<path d="M75.5348 45.7589L63.204 49.5222L63.4569 50.1295L75.7877 46.3661L75.5348 45.7589Z" fill="#2E353A"/>
<path d="M76.0919 47.095L63.7611 50.8584L64.0139 51.4656L76.3447 47.7023L76.0919 47.095Z" fill="#2E353A"/>
<path d="M76.646 48.4298L64.3152 52.1931L64.568 52.8004L76.8988 49.037L76.646 48.4298Z" fill="#2E353A"/>
<path d="M45.6868 53.5054L75.4534 44.4238" stroke="#2E353A" stroke-width="0.5" stroke-linecap="round" stroke-linejoin="round"/>
<path d="M77.7581 51.0972L48.559 60.0088L51.085 66.0756L80.2842 57.164L77.7581 51.0972Z" fill="#2E353A" stroke="#2E353A" stroke-width="0.5" stroke-linecap="round" stroke-linejoin="round"/>
<path d="M63.0054 20.9055L28.6265 33.5269L48.3718 72.9503L82.7507 60.3289L63.0054 20.9055Z" fill="white" stroke="#2E353A" stroke-width="0.5" stroke-linecap="round" stroke-linejoin="round"/>
<path d="M63.0069 20.9062L28.628 33.5276L35.9022 48.0512L70.2811 35.4298L63.0069 20.9062Z" fill="white" stroke="#2E353A" stroke-width="0.5" stroke-linecap="round" stroke-linejoin="round"/>
<path d="M62.8566 34.9904C64.52 32.7342 63.7321 29.7506 61.0968 28.3265C58.4614 26.9023 54.9766 27.5769 53.3132 29.8331C51.6497 32.0894 52.4376 35.073 55.073 36.4971C57.7083 37.9212 61.1932 37.2467 62.8566 34.9904Z" fill="#2E353A" stroke="#2E353A" stroke-width="0.5" stroke-linecap="round" stroke-linejoin="round"/>
<path d="M60.3103 36.8538C61.0735 36.5741 61.755 36.1534 62.3061 35.6217C62.8571 35.0901 63.264 34.4607 63.4977 33.7786C62.3845 31.9587 59.9221 31.1078 57.8198 31.8806C55.7175 32.6534 54.74 34.7656 55.5117 36.7117C56.25 37.0364 57.0629 37.2176 57.8925 37.2422C58.722 37.2667 59.5476 37.1341 60.3103 36.8538Z" fill="white" stroke="#2E353A" stroke-width="0.5" stroke-linecap="round" stroke-linejoin="round"/>
<path d="M59.5934 33.3177C60.7484 32.3953 60.8113 30.8458 59.7339 29.857C58.6564 28.8681 56.8467 28.8143 55.6917 29.7367C54.5367 30.6592 54.4738 32.2086 55.5513 33.1975C56.6287 34.1863 58.4384 34.2402 59.5934 33.3177Z" fill="white" stroke="#2E353A" stroke-width="0.5" stroke-linecap="round" stroke-linejoin="round"/>
<path d="M46.2713 33.1723L34.24 37.5894L34.8326 38.7725L46.8639 34.3555L46.2713 33.1723Z" fill="white" stroke="#2E353A" stroke-width="0.5" stroke-linecap="round" stroke-linejoin="round"/>
<path d="M47.6943 36.0137L35.663 40.4307L36.2556 41.6138L48.2869 37.1968L47.6943 36.0137Z" fill="white" stroke="#2E353A" stroke-width="0.5" stroke-linecap="round" stroke-linejoin="round"/>
<path d="M48.8817 38.3806L36.8504 42.7976L37.1472 43.3901L49.1785 38.9731L48.8817 38.3806Z" fill="#2E353A"/>
<path d="M49.5929 39.8015L37.5616 44.2185L37.8583 44.811L49.8897 40.394L49.5929 39.8015Z" fill="#2E353A"/>
<path d="M53.2121 47.0239L41.1808 51.4409L41.4775 52.0334L53.5089 47.6164L53.2121 47.0239Z" fill="#2E353A"/>
<path d="M53.8642 48.3259L41.8328 52.7429L42.1296 53.3354L54.1609 48.9184L53.8642 48.3259Z" fill="#2E353A"/>
<path d="M54.5132 49.6306L42.4819 54.0476L42.7786 54.6401L54.81 50.2231L54.5132 49.6306Z" fill="#2E353A"/>
<path d="M69.5276 41.0359L57.4963 45.4529L57.793 46.0454L69.8244 41.6284L69.5276 41.0359Z" fill="#2E353A"/>
<path d="M70.1789 42.3359L58.1476 46.7529L58.4443 47.3454L70.4757 42.9284L70.1789 42.3359Z" fill="#2E353A"/>
<path d="M70.834 43.6399L58.8027 48.0569L59.0994 48.6494L71.1308 44.2324L70.834 43.6399Z" fill="#2E353A"/>
<path d="M40.3066 50.3638L69.3506 39.7026" stroke="#2E353A" stroke-width="0.5" stroke-linecap="round" stroke-linejoin="round"/>
<path d="M56.5905 53.7744L44.5591 58.1914L44.8559 58.7839L56.8872 54.3669L56.5905 53.7744Z" fill="#2E353A"/>
<path d="M57.2433 55.0744L45.212 59.4915L45.5087 60.084L57.5401 55.6669L57.2433 55.0744Z" fill="#2E353A"/>
<path d="M57.8969 56.3786L45.8655 60.7957L46.1623 61.3882L58.1936 56.9711L57.8969 56.3786Z" fill="#2E353A"/>
<path d="M72.9106 47.7832L60.8792 52.2002L61.176 52.7927L73.2073 48.3757L72.9106 47.7832Z" fill="#2E353A"/>
<path d="M73.5619 49.0835L61.5305 53.5005L61.8273 54.093L73.8586 49.676L73.5619 49.0835Z" fill="#2E353A"/>
<path d="M74.2116 50.3887L62.1803 54.8057L62.4771 55.3982L74.5084 50.9812L74.2116 50.3887Z" fill="#2E353A"/>
<path d="M43.6858 57.1131L72.7298 46.4519" stroke="#2E353A" stroke-width="0.5" stroke-linecap="round" stroke-linejoin="round"/>
<path d="M75.5176 52.9913L47.0275 63.4507L49.9923 69.3702L78.4824 58.9108L75.5176 52.9913Z" fill="#2E353A" stroke="#2E353A" stroke-width="0.5" stroke-linecap="round" stroke-linejoin="round"/>
<path d="M55.1442 20.645L23.769 38.0828L51.0492 74.0617L82.4243 56.6239L55.1442 20.645Z" fill="white" stroke="#2E353A" stroke-width="0.5" stroke-linecap="round" stroke-linejoin="round"/>
<path d="M55.1457 20.6465L23.7705 38.0842L33.8205 51.3389L65.1957 33.9012L55.1457 20.6465Z" fill="white" stroke="#2E353A" stroke-width="0.5" stroke-linecap="round" stroke-linejoin="round"/>
<path d="M53.4794 37.4631C56.5555 37.0351 58.6439 34.5532 58.144 31.9197C57.6442 29.2861 54.7453 27.4981 51.6692 27.926C48.5932 28.354 46.5048 30.8359 47.0046 33.4695C47.5045 36.103 50.4034 37.891 53.4794 37.4631Z" fill="#2E353A" stroke="#2E353A" stroke-width="0.5" stroke-linecap="round" stroke-linejoin="round"/>
<path d="M55.652 36.7336C56.3487 36.3471 56.9371 35.8334 57.3749 35.2294C57.8127 34.6255 58.0892 33.9461 58.1845 33.24C56.7253 31.6063 54.1296 31.1298 52.2121 32.1949C50.2945 33.26 49.7473 35.4863 50.8955 37.2922C51.6874 37.5053 52.5245 37.5657 53.3468 37.4691C54.1692 37.3725 54.9564 37.1214 55.652 36.7336Z" fill="#FFD942" stroke="#2E353A" stroke-width="0.5" stroke-linecap="round" stroke-linejoin="round"/>
<path d="M53.8196 33.7467C55.0219 32.8697 55.1662 31.3243 54.1418 30.2949C53.1175 29.2655 51.3124 29.142 50.1101 30.019C48.9078 30.896 48.7635 32.4414 49.7878 33.4708C50.8122 34.5002 52.6173 34.6237 53.8196 33.7467Z" fill="white" stroke="#2E353A" stroke-width="0.5" stroke-linecap="round" stroke-linejoin="round"/>
<path d="M41.0842 35.1667L30.1041 41.2693L30.9228 42.3491L41.9029 36.2465L41.0842 35.1667Z" fill="white" stroke="#2E353A" stroke-width="0.5" stroke-linecap="round" stroke-linejoin="round"/>
<path d="M43.0508 37.76L32.0707 43.8625L32.8894 44.9423L43.8695 38.8398L43.0508 37.76Z" fill="white" stroke="#2E353A" stroke-width="0.5" stroke-linecap="round" stroke-linejoin="round"/>
<path d="M44.4923 40.1871L33.496 46.2393L33.9026 46.7808L44.8989 40.7286L44.4923 40.1871Z" fill="#2E353A"/>
<path d="M45.674 41.2163L34.6938 47.3188L35.1038 47.8596L46.084 41.757L45.674 41.2163Z" fill="#2E353A"/>
<path d="M50.6721 47.8074L39.692 53.9099L40.102 54.4506L51.0821 48.3481L50.6721 47.8074Z" fill="#2E353A"/>
<path d="M51.5739 48.9978L40.5938 55.1003L41.0037 55.6411L51.9839 49.5385L51.5739 48.9978Z" fill="#2E353A"/>
<path d="M52.4749 50.1882L41.4948 56.2908L41.9048 56.8315L52.8849 50.729L52.4749 50.1882Z" fill="#2E353A"/>
<path d="M65.5661 39.5295L54.586 45.6321L54.996 46.1728L65.9761 40.0703L65.5661 39.5295Z" fill="#2E353A"/>
<path d="M66.4695 40.719L55.4893 46.8215L55.8993 47.3623L66.8794 41.2597L66.4695 40.719Z" fill="#2E353A"/>
<path d="M67.3697 41.9092L56.3896 48.0117L56.7996 48.5525L67.7797 42.4499L67.3697 41.9092Z" fill="#2E353A"/>
<path d="M38.6226 52.9666L65.127 38.2332" stroke="#2E353A" stroke-width="0.5" stroke-linecap="round" stroke-linejoin="round"/>
<path d="M55.3434 53.969L44.3633 60.0715L44.7733 60.6123L55.7534 54.5097L55.3434 53.969Z" fill="#2E353A"/>
<path d="M56.2437 55.1577L45.2635 61.2603L45.6735 61.801L56.6537 55.6984L56.2437 55.1577Z" fill="#2E353A"/>
<path d="M57.1463 56.345L46.1661 62.4475L46.5761 62.9882L57.5563 56.8857L57.1463 56.345Z" fill="#2E353A"/>
<path d="M70.2359 45.6909L59.2558 51.7935L59.6658 52.3342L70.6459 46.2316L70.2359 45.6909Z" fill="#2E353A"/>
<path d="M71.1393 46.8787L60.1591 52.9812L60.5691 53.5219L71.5493 47.4194L71.1393 46.8787Z" fill="#2E353A"/>
<path d="M72.0381 48.0691L61.0579 54.1716L61.4679 54.7124L72.4481 48.6098L72.0381 48.0691Z" fill="#2E353A"/>
<path d="M43.2917 59.1253L69.7961 44.3938" stroke="#2E353A" stroke-width="0.5" stroke-linecap="round" stroke-linejoin="round"/>
<path d="M73.8442 50.446L47.8434 64.8967L51.9395 70.299L77.9404 55.8482L73.8442 50.446Z" fill="#2E353A" stroke="#2E353A" stroke-width="0.5" stroke-linecap="round" stroke-linejoin="round"/>
<path d="M19.6161 35.5944L2.98477 24.5708L12.8812 40.4655C13.1151 40.8499 12.4954 40.922 11.864 40.5816C11.2256 40.2393 10.5965 40.3153 10.8468 40.7038L15.9797 48.6921C16.0613 48.806 16.1686 48.9047 16.2954 48.9824L18.8023 50.6001C18.9327 50.6789 19.0419 50.7806 19.1226 50.8985L29.5079 67.7862L47.4697 79.1261L19.6161 35.5944Z" fill="#FFD942" stroke="#2E353A" stroke-width="0.5" stroke-linecap="round" stroke-linejoin="round"/>
<path opacity="0.25" d="M19.6161 35.5944L2.98477 24.5708L12.8812 40.4655C13.1151 40.8499 12.4954 40.922 11.864 40.5816C11.2256 40.2393 10.5965 40.3153 10.8468 40.7038L15.9797 48.6921C16.0613 48.806 16.1686 48.9047 16.2954 48.9824L18.8023 50.6001C18.9327 50.6789 19.0419 50.7806 19.1226 50.8985L29.5079 67.7862L47.4697 79.1261L19.6161 35.5944Z" fill="#2E353A" stroke="#2E353A" stroke-width="0.5" stroke-linecap="round" stroke-linejoin="round"/>
<path d="M90.4545 59.862C90.451 59.8547 90.4442 59.849 90.4358 59.8459C90.1622 59.7438 87.8635 59.7619 87.8027 59.878C87.8027 59.892 87.8144 59.91 87.8494 59.93C87.8985 59.9565 87.9502 59.9792 88.0038 59.9981C88.0693 60.0221 88.1488 60.0482 88.2376 60.0742C88.3265 60.1002 88.4107 60.1262 88.5019 60.1503L88.8924 60.2544L89.0982 60.3064L89.2338 60.3385L86.8532 62.3105C86.3574 62.6981 85.8366 63.0617 85.2935 63.3997L85.1859 63.3076C85.0303 63.1788 84.8655 63.0585 84.6925 62.9472V62.8951C84.491 63.005 84.2808 63.1026 84.0634 63.1875C83.2496 63.5378 80.9673 64.4147 80.1535 65.8202C79.7456 66.5334 79.2928 67.2272 78.7972 67.8984V67.9905H78.7317C77.9436 67.9324 76.4423 68.3809 75.3385 68.8474C74.396 69.2936 73.4883 69.7919 72.6212 70.339L71.7653 70.5972C71.4543 70.6353 70.8837 70.6973 70.8042 70.7794C70.7247 70.8615 70.1705 70.7794 69.925 70.8315C69.6794 70.8835 69.7496 71.0317 69.7496 71.0317L70.2173 71.0697L67.1328 71.9887L69.6139 73.6745L72.979 72.6054L73.1591 72.6434C73.5179 72.7378 73.9057 72.7083 74.2395 72.5613C74.3582 72.5232 74.4745 72.4797 74.5879 72.4312C75.2099 72.3611 77.1018 72.0047 77.7589 71.8806C78.2523 72.4532 79.6601 73.4162 79.9009 73.8326C79.9123 73.8547 79.9217 73.8774 79.929 73.9007C79.929 73.9007 79.929 73.9107 79.929 73.9167C79.9339 73.9338 79.9339 73.9517 79.929 73.9688C79.8176 74.2018 79.6722 74.4217 79.4964 74.6235C79.1759 74.5102 78.8451 74.4198 78.5072 74.3532C77.228 74.1009 76.5288 75.2381 76.3067 75.2942C76.0845 75.3502 75.8133 75.5184 76.0728 75.6786C76.3324 75.8387 75.9395 75.9869 75.7805 76.2031C75.6817 76.374 75.6146 76.5571 75.5818 76.7457C74.7376 76.8078 74.015 77.1061 73.8279 77.5465C73.594 78.1091 75.7244 78.5216 75.7244 78.5216C75.7244 78.5216 78.6732 79.5086 80.9228 78.89C83.1725 78.2713 83.0859 77.2402 83.2613 76.6876C83.4367 76.1351 85.2724 74.7756 87.3326 73.8286C89.3928 72.8816 90.2885 72.0267 88.3288 70.7434C87.0427 69.9005 85.9108 69.4961 84.9778 69.4641C85.0012 69.416 85.0269 69.3679 85.0526 69.3219L85.0994 69.2338C85.1274 69.1838 85.1602 69.1357 85.1906 69.0856L85.2374 69.0136C85.2865 68.9415 85.3379 68.8714 85.394 68.8014C85.4917 68.6825 85.577 68.5566 85.6489 68.425C85.8762 68.0181 85.9364 67.5574 85.8196 67.1176C85.7797 66.9908 85.7577 66.8604 85.7542 66.7292C85.8009 66.4669 86.3107 65.4358 86.4417 64.9773C86.4465 64.9454 86.4465 64.9131 86.4417 64.8812C86.4229 64.7519 86.3753 64.6268 86.3014 64.5128C86.8275 64.2446 87.8868 63.7561 88.3733 63.2936C88.8597 62.8311 89.9237 61.1833 90.3212 60.3385C90.3376 60.3044 90.3516 60.2704 90.3656 60.2384C90.3797 60.2083 90.3914 60.1763 90.4031 60.1483C90.4124 60.1202 90.4218 60.0942 90.4311 60.0702V60.0602C90.4311 60.0401 90.4451 60.0181 90.4498 60.0001C90.4487 59.9968 90.4487 59.9934 90.4498 59.9901C90.4498 59.9721 90.4498 59.9561 90.4498 59.942V59.928C90.4509 59.9174 90.4509 59.9067 90.4498 59.896V59.88C90.4498 59.88 90.4568 59.868 90.4545 59.862ZM78.0301 71.1318C77.3076 71.304 75.6426 71.7545 74.7563 72.0067L73.1193 70.7234C73.5169 70.5472 74.3985 70.2188 75.3994 69.8505C76.3275 69.5529 77.2902 69.3415 78.271 69.2198C78.3523 69.3486 78.4054 69.4891 78.4277 69.6342C78.5212 69.8824 78.6385 70.1234 78.7785 70.355C78.5905 70.6532 78.3363 70.917 78.0301 71.1318Z" fill="#2E353A"/>
<path d="M87.6523 50.2238C88.1422 51.5002 88.552 52.798 88.88 54.1119C89.2097 55.6595 89.8996 58.8809 89.8996 58.8809C89.8996 58.8809 88.1644 58.965 88.134 59.2072C88.1036 59.4495 90.4234 60.4085 90.7695 60.3144C91.1156 60.2203 91.3143 54.176 91.1062 52.8025C90.8981 51.4291 89.7897 49.5991 89.7031 49.1867C89.6166 48.7743 89.4272 47.9714 89.4272 47.9714L87.6523 50.2238Z" fill="white" stroke="#2E353A" stroke-width="0.5" stroke-linecap="round" stroke-linejoin="round"/>
<path d="M90.7705 60.3145C90.857 60.2925 90.9342 59.9141 91.0043 59.3135C90.3238 59.7419 89.8351 59.3135 89.8351 59.3135L89.8982 58.885C89.8982 58.885 88.1631 58.9691 88.1327 59.2113C88.1023 59.4536 90.4244 60.4066 90.7705 60.3145Z" fill="#FFD942" stroke="#2E353A" stroke-width="0.5" stroke-linecap="round" stroke-linejoin="round"/>
<path d="M86.6216 32.1149C86.6216 32.1149 83.8669 29.6844 83.4577 29.5122C83.0484 29.34 82.9058 29.7124 83.0227 29.9226C83.1396 30.1328 85.9411 33.3122 86.4158 33.7266C86.8905 34.1411 86.6216 32.1149 86.6216 32.1149Z" fill="white" stroke="#2E353A" stroke-width="0.5" stroke-linecap="round" stroke-linejoin="round"/>
<path d="M79.4755 25.2295L75.783 27.5079L80.1513 32.9036L83.5281 30.471L79.4755 25.2295Z" fill="#2E353A" stroke="#2E353A" stroke-width="0.5" stroke-linecap="round" stroke-linejoin="round"/>
<path d="M79.5009 25.8162L76.3767 27.7442L80.0739 32.311L82.9315 30.2528L79.5009 25.8162Z" fill="#FFD942" stroke="#2E353A" stroke-width="0.5" stroke-linecap="round" stroke-linejoin="round"/>
<path d="M83.7871 29.9424C83.6672 29.6896 83.52 29.447 83.3474 29.2176C83.0434 28.8172 82.8493 28.603 82.3138 28.629C81.9159 28.639 81.5179 28.6142 81.1259 28.5549C80.8195 28.5269 80.8148 28.9053 80.9762 29.0355C81.1376 29.1656 82.0285 29.1336 82.0285 29.1336C81.9373 29.0314 82.0051 29.1976 82.5944 29.8924C82.7605 30.0926 83.3427 30.1266 83.4737 30.1386" fill="white"/>
<path d="M83.7871 29.9424C83.6672 29.6896 83.52 29.447 83.3474 29.2176C83.0434 28.8172 82.8493 28.603 82.3138 28.629C81.9159 28.639 81.5179 28.6142 81.1259 28.5549C80.8195 28.5269 80.8148 28.9053 80.9762 29.0355C81.1376 29.1656 82.0285 29.1336 82.0285 29.1336C81.9373 29.0314 82.0051 29.1976 82.5944 29.8924C82.7605 30.0926 83.3427 30.1266 83.4737 30.1386" stroke="#2E353A" stroke-width="0.5" stroke-linecap="round" stroke-linejoin="round"/>
<path d="M87.7393 21.2672C87.5994 21.7617 87.5079 22.2653 87.4657 22.7728C87.4657 23.2533 87.7697 23.7018 87.3909 23.906C87.0121 24.1102 87.1711 24.5467 87.3558 24.7429C87.5406 24.9391 87.4447 27.4237 88.9156 27.4417C90.3865 27.4597 91.8013 26.8111 92.1006 26.1183C92.3999 25.4256 93.1412 23.4535 92.2082 22.5246C91.2751 21.5956 88.5999 20.0259 87.7393 21.2672Z" fill="white" stroke="#2E353A" stroke-width="0.5" stroke-linecap="round" stroke-linejoin="round"/>
<path d="M87.7956 23.5679L88.0271 23.9323L87.7465 23.9403" stroke="#2E353A" stroke-width="0.5" stroke-linecap="round" stroke-linejoin="round"/>
<path d="M87.7488 22.9832C87.7488 22.9832 88.1884 22.9832 88.2165 23.6078" stroke="#2E353A" stroke-width="0.5" stroke-linecap="round" stroke-linejoin="round"/>
<path d="M90.0846 27.0694C90.1404 27.629 90.1404 28.1916 90.0846 28.7512C90.067 28.8424 90.0246 28.9289 89.9607 29.0035C90.6912 28.574 91.4755 28.2161 92.2992 27.9363L92.533 27.8602C92.4134 27.0105 92.354 26.1554 92.3553 25.2996L90.0846 27.0694Z" fill="white" stroke="#2E353A" stroke-width="0.5" stroke-linecap="round" stroke-linejoin="round"/>
<path d="M83.8115 51.0347C83.8115 51.0347 83.6852 53.7475 83.9518 54.6745C84.2184 55.6015 85.2029 63.2696 85.1608 63.9623C85.1187 64.655 85.086 64.9393 85.086 64.9393C85.086 64.9393 82.6516 65.2436 82.4037 65.3037C82.1558 65.3638 82.074 65.642 83.421 65.9724C84.7679 66.3027 85.8039 66.8093 86.0915 66.4269C86.3791 66.0445 86.7697 64.625 86.8842 63.5899C87.1532 61.1874 87.6139 58.4885 87.3379 57.2753C87.062 56.062 86.3441 54.5524 86.4423 54.152C86.5405 53.7516 88.0605 49.3469 88.0605 49.3469L83.8115 51.0347Z" fill="white" stroke="#2E353A" stroke-width="0.5" stroke-linecap="round" stroke-linejoin="round"/>
<path d="M86.0915 66.4268C86.24 66.1629 86.3417 65.8815 86.3932 65.5919C85.6799 65.9142 84.803 65.4578 84.803 65.4578L85.086 64.9392C85.086 64.9392 82.6516 65.2435 82.4037 65.3036C82.1558 65.3637 82.074 65.6419 83.421 65.9723C84.7679 66.3026 85.8039 66.8092 86.0915 66.4268Z" fill="#FFD942" stroke="#2E353A" stroke-width="0.5" stroke-linecap="round" stroke-linejoin="round"/>
<path d="M90.0847 27.0694C90.1405 27.629 90.1405 28.1916 90.0847 28.7512C89.9864 29.522 85.9105 31.7824 86.0134 32.6333C86.1163 33.4842 86.5956 34.6694 86.3267 35.6645C86.0578 36.6595 84.5658 40.1231 84.2689 41.3564C83.9719 42.5897 82.8424 51.9676 83.3522 52.38C83.862 52.7924 85.9245 52.6183 86.9628 52.1157C88.0011 51.6132 90.1455 49.7132 90.3349 48.7702C90.5243 47.8272 90.7371 45.6249 90.8751 45.0964C91.013 44.5678 92.0864 43.2945 91.9671 40.936C91.8479 38.5775 92.8417 35.7305 93.0756 33.8946C93.3094 32.0587 93.0756 29.57 92.7038 28.575C92.3319 27.58 92.3507 25.2996 92.3507 25.2996L90.0847 27.0694Z" fill="#FFD942" stroke="#2E353A" stroke-width="0.5" stroke-linecap="round" stroke-linejoin="round"/>
<path d="M90.3305 48.7704C90.5223 47.8274 90.7328 45.6251 90.8707 45.0966C91.0087 44.568 92.0821 43.2947 91.9628 40.9362C91.895 39.6428 92.1663 38.2013 92.4632 36.8579C91.6845 37.4906 89.6571 38.9641 87.494 39.1363C85.9295 39.2624 85.4197 38.872 85.2724 38.5076C84.8398 39.6248 84.4095 40.756 84.2645 41.3566C83.9652 42.5899 82.838 51.9678 83.3478 52.3802C83.8576 52.7927 85.9202 52.6185 86.9585 52.1159C87.9967 51.6134 90.1411 49.7134 90.3305 48.7704Z" fill="#2E353A" stroke="#2E353A" stroke-width="0.5" stroke-linecap="round" stroke-linejoin="round"/>
<path d="M89.888 46.0356L86.7311 50.7446" stroke="white" stroke-width="0.5" stroke-linecap="round" stroke-linejoin="round"/>
<path d="M88.4461 49.0466L87.0032 51.5172" stroke="white" stroke-width="0.5" stroke-linecap="round" stroke-linejoin="round"/>
<path d="M100.258 30.409C99.6475 28.1446 97.9194 27.3618 96.3947 26.579C95.6931 26.2206 95.4593 25.608 95.4265 25.0474L95.3494 25.648C95.311 25.364 95.311 25.0771 95.3494 24.7931C95.3751 24.661 95.4078 24.5188 95.4453 24.3647C95.4121 24.5884 95.4043 24.8144 95.4219 25.0394L95.5786 23.7861V23.8001C95.8124 22.6769 95.9176 21.1813 94.5426 19.6137C92.7069 17.5195 89.0355 18.2583 89.0355 18.2583C89.0355 18.2583 86.5871 18.2082 86.4351 19.3955C86.2831 20.5827 87.1951 21.6879 88.4275 21.9241C88.4275 21.9241 88.6777 22.3806 88.963 23.0633C88.8336 23.1675 88.7336 23.2955 88.6707 23.4377C88.6707 23.4377 89.0776 23.6119 89.281 24.7431C89.4845 25.8743 87.45 27.9645 87.6441 29.3479C87.8382 30.7314 89.5757 30.7494 89.4728 31.5242C89.3699 32.299 88.1515 32.1248 88.2544 33.0898C88.3269 33.7766 89.709 34.6435 90.5929 35.2721C90.5383 35.9385 90.5329 36.6072 90.5765 37.2742C90.0313 38.0316 89.7529 38.9075 89.7744 39.7969C89.8352 41.0862 91.2266 41.5447 92.5479 41.2424C92.9112 41.1575 93.265 41.0449 93.6049 40.9061C94.8489 41.3345 97.8749 41.0042 99.3295 38.928C100.854 36.7517 99.43 36.055 99.3295 34.4893C99.2289 32.9237 100.868 32.6714 100.258 30.409Z" fill="#2E353A" stroke="#2E353A" stroke-width="0.5" stroke-linecap="round" stroke-linejoin="round"/>
<path d="M88.2468 20.1582C88.9856 21.0006 89.8843 21.7309 90.9056 22.3185C92.8372 23.3636 91.516 26.4969 89.9913 27.8883C88.4666 29.2798 88.7706 30.5872 90.4987 31.2819C92.2269 31.9766 95.2762 32.7614 93.5388 35.2861C91.8013 37.8108 91.6072 39.8109 94.1491 40.4215" stroke="white" stroke-width="0.5" stroke-linecap="round" stroke-linejoin="round"/>
<path d="M87.6523 19.4436C87.6523 19.4436 87.7926 19.6438 88.0498 19.9341" stroke="white" stroke-width="0.5" stroke-linecap="round" stroke-linejoin="round"/>
<path d="M96.3219 40.1231C96.4895 40.1573 96.6634 40.1624 96.8333 40.138C97.0033 40.1136 97.1657 40.0602 97.3111 39.981" stroke="white" stroke-width="0.5" stroke-linecap="round" stroke-linejoin="round"/>
<path d="M94.4562 30.571C96.0324 31.0556 97.7301 31.464 97.9195 32.8454C98.2259 35.1078 94.6667 36.1529 94.6667 37.9788C94.6667 38.8377 95.0479 39.4464 95.546 39.7967" stroke="white" stroke-width="0.5" stroke-linecap="round" stroke-linejoin="round"/>
<path d="M90.9058 22.3186C90.9058 22.3186 93.3449 23.1014 93.9459 24.4068C94.5468 25.7122 90.7959 27.6282 92.0143 29.2819C92.3908 29.7905 93.0642 30.1088 93.8289 30.3731" stroke="white" stroke-width="0.5" stroke-linecap="round" stroke-linejoin="round"/>
<path d="M94.306 20.4805C94.306 20.4805 96.4106 22.3204 95.4495 24.3726C94.4884 26.4247 94.0464 27.3517 94.7479 27.8923C95.4495 28.4328 99.17 28.6651 100.077 31.1277" stroke="white" stroke-width="0.5" stroke-linecap="round" stroke-linejoin="round"/>
<path d="M85.7565 37.7727C85.7565 37.7727 83.6285 36.4273 82.6229 34.9377C81.6174 33.4482 80.7708 32.1828 80.7919 32.0207C80.8129 31.8585 80.9158 31.0476 80.6212 30.7333C80.3265 30.419 79.321 30.0366 79.19 29.9425C79.0591 29.8484 78.7855 30.1107 79.0895 30.3429C79.3935 30.5752 79.6951 30.8514 79.6951 30.8514L77.7402 30.423C77.6917 30.493 77.6693 30.574 77.676 30.6552C77.6827 30.7364 77.7181 30.8139 77.7776 30.8775C77.9927 31.0617 78.6077 31.1177 78.6288 31.3259C78.6498 31.5342 79.2719 31.9266 79.5361 32.1068C79.6485 32.2023 79.7879 32.2713 79.9407 32.307C79.9407 32.307 81.0608 35.5284 81.8489 36.8738C82.637 38.2192 83.8366 39.6767 84.6714 39.8769C85.5063 40.0771 86.5305 38.8198 86.5305 38.8198L85.7565 37.7727Z" fill="white" stroke="#2E353A" stroke-width="0.5" stroke-linecap="round" stroke-linejoin="round"/>
<path d="M89.4536 31.3138C89.4536 31.3138 88.3148 31.9865 87.9593 32.8955C87.6039 33.8045 85.7892 36.0128 85.5273 36.5633C85.4084 36.8378 85.2463 37.0972 85.0456 37.3342C85.0456 37.3342 85.2794 38.5354 86.2476 39.1681C87.2157 39.8008 87.515 39.7387 87.515 39.7387C87.515 39.7387 91.0228 34.8576 91.5887 33.7224C92.1546 32.5872 90.962 30.7572 89.4536 31.3138Z" fill="#FFD942" stroke="#2E353A" stroke-width="0.5" stroke-linecap="round" stroke-linejoin="round"/>
</svg>
