<svg width="104" height="86" viewBox="0 0 104 86" fill="none" xmlns="http://www.w3.org/2000/svg">
<path d="M49.6369 77.0222C60.209 77.0222 68.7793 75.8425 68.7793 74.3874C68.7793 72.9323 60.209 71.7527 49.6369 71.7527C39.0648 71.7527 30.4944 72.9323 30.4944 74.3874C30.4944 75.8425 39.0648 77.0222 49.6369 77.0222Z" fill="#FFD942"/>
<path opacity="0.5" d="M49.6369 77.0222C60.209 77.0222 68.7793 75.8425 68.7793 74.3874C68.7793 72.9323 60.209 71.7527 49.6369 71.7527C39.0648 71.7527 30.4944 72.9323 30.4944 74.3874C30.4944 75.8425 39.0648 77.0222 49.6369 77.0222Z" fill="white"/>
<path d="M91.7006 83.2138C97.6393 83.2138 102.454 82.0342 102.454 80.5791C102.454 79.124 97.6393 77.9443 91.7006 77.9443C85.7619 77.9443 80.9477 79.124 80.9477 80.5791C80.9477 82.0342 85.7619 83.2138 91.7006 83.2138Z" fill="#FFD942"/>
<path opacity="0.5" d="M91.7006 83.2138C97.6393 83.2138 102.454 82.0342 102.454 80.5791C102.454 79.124 97.6393 77.9443 91.7006 77.9443C85.7619 77.9443 80.9477 79.124 80.9477 80.5791C80.9477 82.0342 85.7619 83.2138 91.7006 83.2138Z" fill="white"/>
<path d="M0.42413 19.924C0.370272 19.7365 0.358032 19.5401 0.388205 19.3477C0.418379 19.1553 0.490289 18.9712 0.599255 18.8073C0.708222 18.6435 0.8518 18.5036 1.02064 18.3967C1.18949 18.2898 1.37981 18.2184 1.57921 18.1871C2.78496 18.0285 4.26681 19.5874 4.73543 20.5315C4.77596 20.612 5.25724 21.9586 5.24205 21.9586C5.22685 21.9586 3.10413 22.005 2.23275 21.6391C1.48042 21.3244 0.634376 20.7267 0.42413 19.924ZM31.3961 16.3452C31.2188 17.1551 30.3828 17.7748 29.6457 18.1066C28.9086 18.4384 27.1709 18.4969 26.7428 18.5042C26.5123 18.7701 26.2666 19.0531 26.0032 19.3751C25.5421 19.9436 25.0305 20.5949 24.5213 21.3268C24.3845 21.5244 24.2477 21.7391 24.1084 21.9465C24.4174 21.6439 24.8455 21.2341 24.8911 21.1975C25.7397 20.5461 27.7788 19.7679 28.7921 20.4144C28.9575 20.5263 29.0966 20.6705 29.2003 20.8377C29.304 21.0049 29.3699 21.1912 29.3938 21.3845C29.4177 21.5779 29.3991 21.7739 29.339 21.9599C29.279 22.1458 29.1789 22.3175 29.0454 22.4636C28.5008 23.1028 27.4571 23.2809 26.6466 23.2492C25.836 23.2175 24.2148 22.4758 23.8602 22.3099C23.5613 22.7735 23.2674 23.2565 22.9888 23.7737C22.4773 24.7114 22.0534 25.6911 21.7223 26.7012L21.783 26.7305C22.0364 26.4182 22.5683 25.7717 22.619 25.7229C23.3789 24.991 25.3268 23.9957 26.4186 24.5324C26.5957 24.6263 26.7503 24.755 26.8722 24.9103C26.9942 25.0655 27.0808 25.2438 27.1265 25.4335C27.1721 25.6231 27.1758 25.8199 27.1372 26.011C27.0986 26.2021 27.0186 26.3833 26.9024 26.5426C26.4338 27.2354 25.418 27.5184 24.6226 27.577C23.6905 27.6404 21.7602 26.9378 21.6893 26.911C21.3856 27.9271 21.1512 28.9612 20.9877 30.0068C20.861 30.7777 20.7673 31.5657 20.6812 32.3585C20.8483 32.1341 21.5525 31.2851 21.6108 31.229C22.3707 30.4971 24.3187 29.5018 25.4104 30.0385C25.5875 30.1324 25.7421 30.2611 25.8641 30.4164C25.986 30.5717 26.0727 30.7499 26.1183 30.9396C26.164 31.1292 26.1676 31.326 26.129 31.5171C26.0904 31.7083 26.0104 31.8894 25.8942 32.0487C25.4256 32.7416 24.4098 33.0245 23.6145 33.0831C22.7026 33.1441 20.8509 32.4805 20.6964 32.4244C20.6584 32.783 20.6153 33.1416 20.5798 33.5027C20.4608 34.6786 20.3468 35.8593 20.1973 37.0206C20.1467 37.4231 20.0783 37.8183 20.015 38.2135C20.2683 37.8842 20.7749 37.2962 20.8154 37.2499C21.5753 36.518 23.5233 35.5227 24.615 36.0594C24.7921 36.1532 24.9467 36.282 25.0687 36.4373C25.1907 36.5925 25.2773 36.7708 25.3229 36.9604C25.3686 37.1501 25.3722 37.3469 25.3336 37.538C25.295 37.7291 25.215 37.9102 25.0988 38.0696C24.6302 38.7624 23.6145 39.0454 22.8064 39.1015C21.9984 39.1576 20.4228 38.6307 19.9846 38.477C19.8706 39.1357 19.7313 39.7846 19.5869 40.4286C19.5134 40.7019 19.4577 40.9824 19.3716 41.241C19.2854 41.4996 19.2094 41.7606 19.1182 42.0168C18.9333 42.5389 18.7661 43.0268 18.5812 43.5098C18.49 43.7538 18.3989 43.9831 18.3051 44.2197C18.5204 43.8489 18.87 43.2659 18.9105 43.2171C19.5539 42.3754 21.3144 41.1142 22.4568 41.4874C22.6466 41.5543 22.8195 41.6589 22.9645 41.7944C23.1095 41.93 23.2232 42.0934 23.2982 42.274C23.3732 42.4547 23.4079 42.6485 23.4 42.843C23.3921 43.0374 23.3417 43.228 23.2522 43.4025C22.8976 44.1563 21.9376 44.5857 21.1472 44.7589C20.2759 44.9492 18.4039 44.5832 18.1734 44.5369C17.9454 45.1151 17.72 45.6762 17.4971 46.1982C16.7954 47.8474 16.1469 49.1989 15.6783 50.1357C15.653 50.1894 15.6277 50.2357 15.6023 50.2869H19.0144L17.8365 72.4065C17.7954 73.2233 17.4283 73.9931 16.8119 74.5554C16.1954 75.1177 15.3773 75.429 14.5283 75.4243C13.687 75.4223 12.8784 75.1104 12.2684 74.5524C11.6584 73.9944 11.2933 73.2327 11.248 72.4236L10.0726 50.2967H13.7329C13.7152 50.143 13.6975 49.982 13.6747 49.8088C13.5531 48.7866 13.3555 47.3253 13.0363 45.5859C12.9477 45.0833 12.8413 44.554 12.7298 44.0099C12.4917 44.0392 10.602 44.2685 9.74839 44.0099C8.97074 43.7806 8.0487 43.2781 7.75486 42.5072C7.67884 42.3268 7.64313 42.133 7.65005 41.9385C7.65697 41.744 7.70637 41.553 7.79504 41.3781C7.8837 41.2032 8.00963 41.0482 8.16463 40.9233C8.31963 40.7984 8.50022 40.7063 8.69463 40.6531C9.87251 40.3628 11.5317 41.746 12.1092 42.634C12.1447 42.6901 12.5044 43.4074 12.6792 43.7782C12.6108 43.4488 12.5424 43.1219 12.4639 42.7804C12.3549 42.2925 12.2105 41.7728 12.0991 41.2727C12.0231 41.0166 11.9496 40.7555 11.8736 40.4945C11.7977 40.2335 11.7014 39.9822 11.6203 39.7212C11.4861 39.343 11.3265 38.9576 11.1694 38.5746C10.6628 38.7112 9.14299 39.0869 8.36786 38.9795C7.59274 38.8722 6.57444 38.5087 6.16155 37.7842C6.05823 37.6168 5.99263 37.4303 5.96902 37.2369C5.94542 37.0435 5.96433 36.8474 6.02454 36.6615C6.08474 36.4756 6.18489 36.304 6.31847 36.1578C6.45205 36.0116 6.61608 35.8941 6.79989 35.813C7.91951 35.3568 9.77372 36.4814 10.4855 37.2767C10.5083 37.3011 10.64 37.4841 10.7946 37.7012C10.6299 37.3304 10.4653 36.9693 10.2879 36.5912C9.78132 35.5422 9.22151 34.4883 8.6693 33.4198C8.55531 33.2002 8.44386 32.9782 8.32987 32.7562C7.89671 32.8733 6.26288 33.2953 5.44976 33.1807C4.63664 33.066 3.65634 32.7098 3.24345 31.9853C3.13975 31.8182 3.07385 31.6319 3.05006 31.4385C3.02626 31.2452 3.04511 31.0492 3.10536 30.8634C3.16561 30.6776 3.26591 30.5061 3.39971 30.3602C3.5335 30.2142 3.69778 30.0971 3.88178 30.0166C4.99887 29.5579 6.85562 30.685 7.56741 31.4803C7.59274 31.5096 7.74979 31.7243 7.92457 31.9682C7.63327 31.3876 7.34957 30.807 7.08613 30.2239C6.63124 29.2224 6.24538 28.1931 5.93104 27.1427C5.77906 27.1867 3.87418 27.7185 2.96987 27.5916C2.16689 27.4794 1.17645 27.1208 0.763563 26.3962C0.661368 26.2299 0.596482 26.0449 0.573086 25.853C0.54969 25.6611 0.568305 25.4666 0.627728 25.282C0.687152 25.0974 0.786067 24.9269 0.918098 24.7814C1.05013 24.6359 1.21235 24.5187 1.3943 24.4373C2.51392 23.9786 4.36813 25.1057 5.07993 25.901C5.13059 25.9571 5.69293 26.75 5.88545 27.0378C5.88437 27.0257 5.88437 27.0134 5.88545 27.0012C5.60324 25.9621 5.41843 24.9007 5.33324 23.8298C5.25037 22.8741 5.22668 21.9144 5.26231 20.956C5.28257 20.068 5.35857 19.2483 5.43456 18.5384C5.47762 18.148 5.52322 17.7943 5.57135 17.465L5.55108 17.4772C5.53082 17.4772 5.12299 16.1232 5.10779 16.0329C4.92794 15.001 5.21418 12.9054 6.29327 12.3736C6.47511 12.2886 6.67352 12.2416 6.87552 12.2355C7.07753 12.2295 7.27859 12.2646 7.46555 12.3385C7.65252 12.4124 7.82118 12.5235 7.96052 12.6645C8.09985 12.8055 8.20672 12.9732 8.27414 13.1567C8.59078 13.9251 8.24628 14.8888 7.82325 15.5572C7.40023 16.2257 5.98424 17.1966 5.63214 17.4284C5.58908 17.7723 5.54855 18.1407 5.51309 18.5506C5.45482 19.2678 5.39656 20.0777 5.39403 20.9633C5.39403 21.2073 5.39403 21.4512 5.40669 21.6952C5.49029 21.2804 5.61188 20.7193 5.62961 20.6559C5.96397 19.6606 7.21785 17.9285 8.43626 17.9285C8.63819 17.9345 8.83654 17.9814 9.01844 18.0661C9.20035 18.1507 9.36174 18.2713 9.49215 18.4199C9.62257 18.5685 9.71908 18.7418 9.77544 18.9287C9.83181 19.1155 9.84676 19.3117 9.81932 19.5044C9.73066 20.3266 8.96314 21.0292 8.26907 21.4341C7.57501 21.8391 5.79679 22.0806 5.4143 22.1245C5.42949 22.671 5.46242 23.2297 5.52828 23.8127C5.63865 24.8709 5.84633 25.9175 6.14889 26.9403H6.21728C6.24514 26.5475 6.32367 25.7205 6.33634 25.6546C6.55671 24.63 7.60288 22.7759 8.81622 22.649C9.01766 22.6336 9.22023 22.6591 9.41077 22.7239C9.60132 22.7888 9.77558 22.8914 9.92224 23.0253C10.0689 23.1592 10.1847 23.3213 10.2621 23.5011C10.3395 23.6809 10.3768 23.8743 10.3715 24.0689C10.3715 24.8959 9.69266 25.6741 9.04926 26.1498C8.29694 26.6792 6.28567 27.1208 6.20715 27.1354C6.53579 28.1441 6.93264 29.131 7.39516 30.0897C7.727 30.7997 8.10696 31.512 8.48692 32.2146C8.48692 31.9365 8.59837 30.8558 8.61611 30.7777C8.83648 29.7531 9.88264 27.899 11.0935 27.7721C11.2948 27.7563 11.4973 27.7815 11.6878 27.846C11.8784 27.9106 12.0527 28.013 12.1994 28.1467C12.3461 28.2804 12.4619 28.4424 12.5394 28.6221C12.6168 28.8017 12.6541 28.9951 12.6488 29.1895C12.6488 30.0166 11.9724 30.7948 11.329 31.2705C10.6046 31.8072 8.67943 32.2463 8.51732 32.2732C8.6921 32.5927 8.86181 32.9148 9.03913 33.2343C9.61414 34.2785 10.1942 35.3226 10.7338 36.3716C10.9212 36.7351 11.0935 37.1035 11.2657 37.4646C11.2961 37.0498 11.3696 36.2985 11.3822 36.2326C11.6026 35.2104 12.6488 33.3539 13.8596 33.227C14.061 33.2116 14.2636 33.2371 14.4541 33.3019C14.6447 33.3667 14.8189 33.4694 14.9656 33.6033C15.1123 33.7372 15.2281 33.8993 15.3055 34.0791C15.3829 34.2589 15.4201 34.4523 15.4149 34.6469C15.4149 35.4739 14.7386 36.2521 14.0952 36.7278C13.4518 37.2035 11.8382 37.6012 11.3822 37.7036C11.6659 38.3111 11.9319 38.9234 12.1649 39.5333C12.2587 39.7992 12.3727 40.0651 12.4487 40.3262L12.702 41.0995C12.8489 41.6338 12.9882 42.129 13.1098 42.6316C13.1756 42.8755 13.2288 43.1195 13.2871 43.3634C13.2542 42.9414 13.2136 42.2681 13.2162 42.2071C13.2719 41.163 14.0166 39.1747 15.192 38.8746C15.3895 38.8272 15.5953 38.8208 15.7956 38.8558C15.9959 38.8908 16.1862 38.9664 16.3538 39.0775C16.5215 39.1887 16.6627 39.333 16.7681 39.5007C16.8735 39.6685 16.9407 39.8559 16.9651 40.0505C16.982 40.1513 16.9888 40.2534 16.9854 40.3555C17.466 41.1523 17.7276 42.0541 17.7453 42.9756C17.7453 43.0414 17.6313 43.8318 17.5655 44.2319C17.6972 43.9221 17.8188 43.6123 17.9556 43.2878C18.1455 42.8194 18.333 42.312 18.5154 41.8241C18.599 41.5801 18.6851 41.3118 18.7687 41.0532C18.8523 40.7946 18.9181 40.5335 18.9941 40.2725C19.1005 39.8846 19.1892 39.4797 19.2778 39.0747C18.7712 38.9185 17.2944 38.4282 16.7093 37.9256C16.1241 37.4231 15.4833 36.579 15.5517 35.7544C15.5617 35.5601 15.614 35.3699 15.7053 35.1963C15.7965 35.0227 15.9246 34.8695 16.0813 34.7467C16.238 34.6239 16.4198 34.5341 16.6148 34.4833C16.8098 34.4325 17.0137 34.4217 17.2134 34.4517C18.409 34.6639 19.3108 36.5888 19.4526 37.6231C19.4526 37.6549 19.4526 37.8671 19.4526 38.1428C19.5286 37.7451 19.6046 37.3499 19.6654 36.9449C19.8402 35.7983 19.9795 34.6225 20.1264 33.449C20.1543 33.2051 20.1897 32.9611 20.2201 32.7172C19.7946 32.5854 18.1937 32.0682 17.5756 31.5413C16.9575 31.0143 16.3496 30.1946 16.4205 29.3725C16.4298 29.1781 16.4816 28.9877 16.5724 28.8138C16.6632 28.6399 16.7911 28.4864 16.9476 28.3633C17.1041 28.2401 17.2859 28.1501 17.4809 28.0991C17.676 28.0482 17.88 28.0373 18.0797 28.0673C19.2778 28.2796 20.1796 30.2068 20.3189 31.2388C20.3189 31.2754 20.3189 31.5413 20.3341 31.8389C20.4228 31.1997 20.5216 30.5655 20.6356 29.9385C20.8295 28.8655 21.0969 27.8061 21.436 26.767C21.2866 26.7207 19.3918 26.1523 18.7104 25.5668C18.105 25.0447 17.4844 24.2201 17.5528 23.3956C17.5628 23.2012 17.6151 23.0111 17.7064 22.8375C17.7976 22.6639 17.9258 22.5107 18.0824 22.3878C18.2391 22.265 18.4209 22.1752 18.6159 22.1244C18.8109 22.0736 19.0149 22.0628 19.2145 22.0928C20.4101 22.3051 21.3119 24.2299 21.4537 25.2643C21.4537 25.3375 21.4791 26.2962 21.4715 26.6402V26.6036C21.8323 25.5914 22.285 24.6118 22.8241 23.6761C23.3039 22.8339 23.8342 22.0193 24.4124 21.2365C24.9393 20.5047 25.4687 19.8704 25.9322 19.3117C26.1855 19.0092 26.4388 18.7384 26.6618 18.4871H26.6339C26.6136 18.4871 27.0569 17.1283 27.0949 17.0454C27.5357 16.0915 28.9719 14.4936 30.1827 14.6204C30.3861 14.6446 30.5817 14.7103 30.7565 14.8133C30.9313 14.9163 31.0812 15.054 31.1961 15.2174C31.3111 15.3808 31.3884 15.5659 31.4229 15.7605C31.4573 15.955 31.4482 16.1544 31.3961 16.3452ZM17.4464 44.4539C17.2412 44.3564 15.6454 43.5952 15.0223 42.9463C14.4847 43.2325 13.9298 43.4875 13.3606 43.7099C13.5024 44.3124 13.6341 44.9028 13.7456 45.4566C14.1078 47.2058 14.3383 48.6744 14.4852 49.7063C14.5182 49.9259 14.5435 50.1235 14.5688 50.3016H14.6499L14.9032 49.8015C15.387 48.8842 16.0583 47.5619 16.7903 45.9421C17.0133 45.4664 17.2311 44.9662 17.4464 44.4539ZM23.8196 22.0904C23.8399 22.1026 24.2072 20.7242 24.2224 20.6266C24.3719 19.5898 24.0274 17.504 22.9331 16.9941C22.7474 16.9147 22.5464 16.8741 22.3432 16.875C22.1401 16.8758 21.9394 16.918 21.7544 16.9989C21.5695 17.0798 21.4044 17.1975 21.27 17.3443C21.1357 17.491 21.0351 17.6635 20.975 17.8504C20.6812 18.6262 21.0535 19.5801 21.4816 20.2363C22.011 20.995 23.8196 22.0904 23.8196 22.0904Z" fill="#FFD942"/>
<path opacity="0.3" d="M0.42413 19.924C0.370272 19.7365 0.358032 19.5401 0.388205 19.3477C0.418379 19.1553 0.490289 18.9712 0.599255 18.8073C0.708222 18.6435 0.8518 18.5036 1.02064 18.3967C1.18949 18.2898 1.37981 18.2184 1.57921 18.1871C2.78496 18.0285 4.26681 19.5874 4.73543 20.5315C4.77596 20.612 5.25724 21.9586 5.24205 21.9586C5.22685 21.9586 3.10413 22.005 2.23275 21.6391C1.48042 21.3244 0.634376 20.7267 0.42413 19.924ZM31.3961 16.3452C31.2188 17.1551 30.3828 17.7748 29.6457 18.1066C28.9086 18.4384 27.1709 18.4969 26.7428 18.5042C26.5123 18.7701 26.2666 19.0531 26.0032 19.3751C25.5421 19.9436 25.0305 20.5949 24.5213 21.3268C24.3845 21.5244 24.2477 21.7391 24.1084 21.9465C24.4174 21.6439 24.8455 21.2341 24.8911 21.1975C25.7397 20.5461 27.7788 19.7679 28.7921 20.4144C28.9575 20.5263 29.0966 20.6705 29.2003 20.8377C29.304 21.0049 29.3699 21.1912 29.3938 21.3845C29.4177 21.5779 29.3991 21.7739 29.339 21.9599C29.279 22.1458 29.1789 22.3175 29.0454 22.4636C28.5008 23.1028 27.4571 23.2809 26.6466 23.2492C25.836 23.2175 24.2148 22.4758 23.8602 22.3099C23.5613 22.7735 23.2674 23.2565 22.9888 23.7737C22.4773 24.7114 22.0534 25.6911 21.7223 26.7012L21.783 26.7305C22.0364 26.4182 22.5683 25.7717 22.619 25.7229C23.3789 24.991 25.3268 23.9957 26.4186 24.5324C26.5957 24.6263 26.7503 24.755 26.8722 24.9103C26.9942 25.0655 27.0808 25.2438 27.1265 25.4335C27.1721 25.6231 27.1758 25.8199 27.1372 26.011C27.0986 26.2021 27.0186 26.3833 26.9024 26.5426C26.4338 27.2354 25.418 27.5184 24.6226 27.577C23.6905 27.6404 21.7602 26.9378 21.6893 26.911C21.3856 27.9271 21.1512 28.9612 20.9877 30.0068C20.861 30.7777 20.7673 31.5657 20.6812 32.3585C20.8483 32.1341 21.5525 31.2851 21.6108 31.229C22.3707 30.4971 24.3187 29.5018 25.4104 30.0385C25.5875 30.1324 25.7421 30.2611 25.8641 30.4164C25.986 30.5717 26.0727 30.7499 26.1183 30.9396C26.164 31.1292 26.1676 31.326 26.129 31.5171C26.0904 31.7083 26.0104 31.8894 25.8942 32.0487C25.4256 32.7416 24.4098 33.0245 23.6145 33.0831C22.7026 33.1441 20.8509 32.4805 20.6964 32.4244C20.6584 32.783 20.6153 33.1416 20.5798 33.5027C20.4608 34.6786 20.3468 35.8593 20.1973 37.0206C20.1467 37.4231 20.0783 37.8183 20.015 38.2135C20.2683 37.8842 20.7749 37.2962 20.8154 37.2499C21.5753 36.518 23.5233 35.5227 24.615 36.0594C24.7921 36.1532 24.9467 36.282 25.0687 36.4373C25.1907 36.5925 25.2773 36.7708 25.3229 36.9604C25.3686 37.1501 25.3722 37.3469 25.3336 37.538C25.295 37.7291 25.215 37.9102 25.0988 38.0696C24.6302 38.7624 23.6145 39.0454 22.8064 39.1015C21.9984 39.1576 20.4228 38.6307 19.9846 38.477C19.8706 39.1357 19.7313 39.7846 19.5869 40.4286C19.5134 40.7019 19.4577 40.9824 19.3716 41.241C19.2854 41.4996 19.2094 41.7606 19.1182 42.0168C18.9333 42.5389 18.7661 43.0268 18.5812 43.5098C18.49 43.7538 18.3989 43.9831 18.3051 44.2197C18.5204 43.8489 18.87 43.2659 18.9105 43.2171C19.5539 42.3754 21.3144 41.1142 22.4568 41.4874C22.6466 41.5543 22.8195 41.6589 22.9645 41.7944C23.1095 41.93 23.2232 42.0934 23.2982 42.274C23.3732 42.4547 23.4079 42.6485 23.4 42.843C23.3921 43.0374 23.3417 43.228 23.2522 43.4025C22.8976 44.1563 21.9376 44.5857 21.1472 44.7589C20.2759 44.9492 18.4039 44.5832 18.1734 44.5369C17.9454 45.1151 17.72 45.6762 17.4971 46.1982C16.7954 47.8474 16.1469 49.1989 15.6783 50.1357C15.653 50.1894 15.6277 50.2357 15.6023 50.2869H19.0144L17.8365 72.4065C17.7954 73.2233 17.4283 73.9931 16.8119 74.5554C16.1954 75.1177 15.3773 75.429 14.5283 75.4243C13.687 75.4223 12.8784 75.1104 12.2684 74.5524C11.6584 73.9944 11.2933 73.2327 11.248 72.4236L10.0726 50.2967H13.7329C13.7152 50.143 13.6975 49.982 13.6747 49.8088C13.5531 48.7866 13.3555 47.3253 13.0363 45.5859C12.9477 45.0833 12.8413 44.554 12.7298 44.0099C12.4917 44.0392 10.602 44.2685 9.74839 44.0099C8.97074 43.7806 8.0487 43.2781 7.75486 42.5072C7.67884 42.3268 7.64313 42.133 7.65005 41.9385C7.65697 41.744 7.70637 41.553 7.79504 41.3781C7.8837 41.2032 8.00963 41.0482 8.16463 40.9233C8.31963 40.7984 8.50022 40.7063 8.69463 40.6531C9.87251 40.3628 11.5317 41.746 12.1092 42.634C12.1447 42.6901 12.5044 43.4074 12.6792 43.7782C12.6108 43.4488 12.5424 43.1219 12.4639 42.7804C12.3549 42.2925 12.2105 41.7728 12.0991 41.2727C12.0231 41.0166 11.9496 40.7555 11.8736 40.4945C11.7977 40.2335 11.7014 39.9822 11.6203 39.7212C11.4861 39.343 11.3265 38.9576 11.1694 38.5746C10.6628 38.7112 9.14299 39.0869 8.36786 38.9795C7.59274 38.8722 6.57444 38.5087 6.16155 37.7842C6.05823 37.6168 5.99263 37.4303 5.96902 37.2369C5.94542 37.0435 5.96433 36.8474 6.02454 36.6615C6.08474 36.4756 6.18489 36.304 6.31847 36.1578C6.45205 36.0116 6.61608 35.8941 6.79989 35.813C7.91951 35.3568 9.77372 36.4814 10.4855 37.2767C10.5083 37.3011 10.64 37.4841 10.7946 37.7012C10.6299 37.3304 10.4653 36.9693 10.2879 36.5912C9.78132 35.5422 9.22151 34.4883 8.6693 33.4198C8.55531 33.2002 8.44386 32.9782 8.32987 32.7562C7.89671 32.8733 6.26288 33.2953 5.44976 33.1807C4.63664 33.066 3.65634 32.7098 3.24345 31.9853C3.13975 31.8182 3.07385 31.6319 3.05006 31.4385C3.02626 31.2452 3.04511 31.0492 3.10536 30.8634C3.16561 30.6776 3.26591 30.5061 3.39971 30.3602C3.5335 30.2142 3.69778 30.0971 3.88178 30.0166C4.99887 29.5579 6.85562 30.685 7.56741 31.4803C7.59274 31.5096 7.74979 31.7243 7.92457 31.9682C7.63327 31.3876 7.34957 30.807 7.08613 30.2239C6.63124 29.2224 6.24538 28.1931 5.93104 27.1427C5.77906 27.1867 3.87418 27.7185 2.96987 27.5916C2.16689 27.4794 1.17645 27.1208 0.763563 26.3962C0.661368 26.2299 0.596482 26.0449 0.573086 25.853C0.54969 25.6611 0.568305 25.4666 0.627728 25.282C0.687152 25.0974 0.786067 24.9269 0.918098 24.7814C1.05013 24.6359 1.21235 24.5187 1.3943 24.4373C2.51392 23.9786 4.36813 25.1057 5.07993 25.901C5.13059 25.9571 5.69293 26.75 5.88545 27.0378C5.88437 27.0257 5.88437 27.0134 5.88545 27.0012C5.60324 25.9621 5.41843 24.9007 5.33324 23.8298C5.25037 22.8741 5.22668 21.9144 5.26231 20.956C5.28257 20.068 5.35857 19.2483 5.43456 18.5384C5.47762 18.148 5.52322 17.7943 5.57135 17.465L5.55108 17.4772C5.53082 17.4772 5.12299 16.1232 5.10779 16.0329C4.92794 15.001 5.21418 12.9054 6.29327 12.3736C6.47511 12.2886 6.67352 12.2416 6.87552 12.2355C7.07753 12.2295 7.27859 12.2646 7.46555 12.3385C7.65252 12.4124 7.82118 12.5235 7.96052 12.6645C8.09985 12.8055 8.20672 12.9732 8.27414 13.1567C8.59078 13.9251 8.24628 14.8888 7.82325 15.5572C7.40023 16.2257 5.98424 17.1966 5.63214 17.4284C5.58908 17.7723 5.54855 18.1407 5.51309 18.5506C5.45482 19.2678 5.39656 20.0777 5.39403 20.9633C5.39403 21.2073 5.39403 21.4512 5.40669 21.6952C5.49029 21.2804 5.61188 20.7193 5.62961 20.6559C5.96397 19.6606 7.21785 17.9285 8.43626 17.9285C8.63819 17.9345 8.83654 17.9814 9.01844 18.0661C9.20035 18.1507 9.36174 18.2713 9.49215 18.4199C9.62257 18.5685 9.71908 18.7418 9.77544 18.9287C9.83181 19.1155 9.84676 19.3117 9.81932 19.5044C9.73066 20.3266 8.96314 21.0292 8.26907 21.4341C7.57501 21.8391 5.79679 22.0806 5.4143 22.1245C5.42949 22.671 5.46242 23.2297 5.52828 23.8127C5.63865 24.8709 5.84633 25.9175 6.14889 26.9403H6.21728C6.24514 26.5475 6.32367 25.7205 6.33634 25.6546C6.55671 24.63 7.60288 22.7759 8.81622 22.649C9.01766 22.6336 9.22023 22.6591 9.41077 22.7239C9.60132 22.7888 9.77558 22.8914 9.92224 23.0253C10.0689 23.1592 10.1847 23.3213 10.2621 23.5011C10.3395 23.6809 10.3768 23.8743 10.3715 24.0689C10.3715 24.8959 9.69266 25.6741 9.04926 26.1498C8.29694 26.6792 6.28567 27.1208 6.20715 27.1354C6.53579 28.1441 6.93264 29.131 7.39516 30.0897C7.727 30.7997 8.10696 31.512 8.48692 32.2146C8.48692 31.9365 8.59837 30.8558 8.61611 30.7777C8.83648 29.7531 9.88264 27.899 11.0935 27.7721C11.2948 27.7563 11.4973 27.7815 11.6878 27.846C11.8784 27.9106 12.0527 28.013 12.1994 28.1467C12.3461 28.2804 12.4619 28.4424 12.5394 28.6221C12.6168 28.8017 12.6541 28.9951 12.6488 29.1895C12.6488 30.0166 11.9724 30.7948 11.329 31.2705C10.6046 31.8072 8.67943 32.2463 8.51732 32.2732C8.6921 32.5927 8.86181 32.9148 9.03913 33.2343C9.61414 34.2785 10.1942 35.3226 10.7338 36.3716C10.9212 36.7351 11.0935 37.1035 11.2657 37.4646C11.2961 37.0498 11.3696 36.2985 11.3822 36.2326C11.6026 35.2104 12.6488 33.3539 13.8596 33.227C14.061 33.2116 14.2636 33.2371 14.4541 33.3019C14.6447 33.3667 14.8189 33.4694 14.9656 33.6033C15.1123 33.7372 15.2281 33.8993 15.3055 34.0791C15.3829 34.2589 15.4201 34.4523 15.4149 34.6469C15.4149 35.4739 14.7386 36.2521 14.0952 36.7278C13.4518 37.2035 11.8382 37.6012 11.3822 37.7036C11.6659 38.3111 11.9319 38.9234 12.1649 39.5333C12.2587 39.7992 12.3727 40.0651 12.4487 40.3262L12.702 41.0995C12.8489 41.6338 12.9882 42.129 13.1098 42.6316C13.1756 42.8755 13.2288 43.1195 13.2871 43.3634C13.2542 42.9414 13.2136 42.2681 13.2162 42.2071C13.2719 41.163 14.0166 39.1747 15.192 38.8746C15.3895 38.8272 15.5953 38.8208 15.7956 38.8558C15.9959 38.8908 16.1862 38.9664 16.3538 39.0775C16.5215 39.1887 16.6627 39.333 16.7681 39.5007C16.8735 39.6685 16.9407 39.8559 16.9651 40.0505C16.982 40.1513 16.9888 40.2534 16.9854 40.3555C17.466 41.1523 17.7276 42.0541 17.7453 42.9756C17.7453 43.0414 17.6313 43.8318 17.5655 44.2319C17.6972 43.9221 17.8188 43.6123 17.9556 43.2878C18.1455 42.8194 18.333 42.312 18.5154 41.8241C18.599 41.5801 18.6851 41.3118 18.7687 41.0532C18.8523 40.7946 18.9181 40.5335 18.9941 40.2725C19.1005 39.8846 19.1892 39.4797 19.2778 39.0747C18.7712 38.9185 17.2944 38.4282 16.7093 37.9256C16.1241 37.4231 15.4833 36.579 15.5517 35.7544C15.5617 35.5601 15.614 35.3699 15.7053 35.1963C15.7965 35.0227 15.9246 34.8695 16.0813 34.7467C16.238 34.6239 16.4198 34.5341 16.6148 34.4833C16.8098 34.4325 17.0137 34.4217 17.2134 34.4517C18.409 34.6639 19.3108 36.5888 19.4526 37.6231C19.4526 37.6549 19.4526 37.8671 19.4526 38.1428C19.5286 37.7451 19.6046 37.3499 19.6654 36.9449C19.8402 35.7983 19.9795 34.6225 20.1264 33.449C20.1543 33.2051 20.1897 32.9611 20.2201 32.7172C19.7946 32.5854 18.1937 32.0682 17.5756 31.5413C16.9575 31.0143 16.3496 30.1946 16.4205 29.3725C16.4298 29.1781 16.4816 28.9877 16.5724 28.8138C16.6632 28.6399 16.7911 28.4864 16.9476 28.3633C17.1041 28.2401 17.2859 28.1501 17.4809 28.0991C17.676 28.0482 17.88 28.0373 18.0797 28.0673C19.2778 28.2796 20.1796 30.2068 20.3189 31.2388C20.3189 31.2754 20.3189 31.5413 20.3341 31.8389C20.4228 31.1997 20.5216 30.5655 20.6356 29.9385C20.8295 28.8655 21.0969 27.8061 21.436 26.767C21.2866 26.7207 19.3918 26.1523 18.7104 25.5668C18.105 25.0447 17.4844 24.2201 17.5528 23.3956C17.5628 23.2012 17.6151 23.0111 17.7064 22.8375C17.7976 22.6639 17.9258 22.5107 18.0824 22.3878C18.2391 22.265 18.4209 22.1752 18.6159 22.1244C18.8109 22.0736 19.0149 22.0628 19.2145 22.0928C20.4101 22.3051 21.3119 24.2299 21.4537 25.2643C21.4537 25.3375 21.4791 26.2962 21.4715 26.6402V26.6036C21.8323 25.5914 22.285 24.6118 22.8241 23.6761C23.3039 22.8339 23.8342 22.0193 24.4124 21.2365C24.9393 20.5047 25.4687 19.8704 25.9322 19.3117C26.1855 19.0092 26.4388 18.7384 26.6618 18.4871H26.6339C26.6136 18.4871 27.0569 17.1283 27.0949 17.0454C27.5357 16.0915 28.9719 14.4936 30.1827 14.6204C30.3861 14.6446 30.5817 14.7103 30.7565 14.8133C30.9313 14.9163 31.0812 15.054 31.1961 15.2174C31.3111 15.3808 31.3884 15.5659 31.4229 15.7605C31.4573 15.955 31.4482 16.1544 31.3961 16.3452ZM17.4464 44.4539C17.2412 44.3564 15.6454 43.5952 15.0223 42.9463C14.4847 43.2325 13.9298 43.4875 13.3606 43.7099C13.5024 44.3124 13.6341 44.9028 13.7456 45.4566C14.1078 47.2058 14.3383 48.6744 14.4852 49.7063C14.5182 49.9259 14.5435 50.1235 14.5688 50.3016H14.6499L14.9032 49.8015C15.387 48.8842 16.0583 47.5619 16.7903 45.9421C17.0133 45.4664 17.2311 44.9662 17.4464 44.4539ZM23.8196 22.0904C23.8399 22.1026 24.2072 20.7242 24.2224 20.6266C24.3719 19.5898 24.0274 17.504 22.9331 16.9941C22.7474 16.9147 22.5464 16.8741 22.3432 16.875C22.1401 16.8758 21.9394 16.918 21.7544 16.9989C21.5695 17.0798 21.4044 17.1975 21.27 17.3443C21.1357 17.491 21.0351 17.6635 20.975 17.8504C20.6812 18.6262 21.0535 19.5801 21.4816 20.2363C22.011 20.995 23.8196 22.0904 23.8196 22.0904Z" fill="white"/>
<path d="M88.5522 76.4636C87.6348 77.1085 86.6678 77.685 85.6594 78.1884C84.4663 78.7178 84.2358 78.7178 84.2814 79.0276C84.327 79.3374 85.705 79.8229 88.2305 79.2496C90.756 78.6763 91.9491 78.8056 92.3164 77.6566C92.6837 76.5075 92.0884 76.8174 91.3538 76.8174C90.4141 76.7469 89.479 76.6288 88.5522 76.4636Z" fill="#2E353A" stroke="#2E353A" stroke-width="0.5" stroke-linecap="round" stroke-linejoin="round"/>
<path d="M92.1798 77.9614C91.1033 78.2347 89.1629 78.6933 87.5417 78.9373C86.4773 79.1229 85.3832 79.0762 84.3399 78.8006C84.3117 78.8305 84.2916 78.8666 84.2814 78.9058C84.2713 78.945 84.2713 78.986 84.2817 79.0251C84.3273 79.3349 85.7053 79.8204 88.2307 79.2471C90.5054 78.7323 91.696 78.7836 92.1798 77.9614Z" fill="white" stroke="#2E353A" stroke-width="0.5" stroke-linecap="round" stroke-linejoin="round"/>
<path d="M100.944 55.3491C100.944 55.3491 101.038 56.8982 99.9306 59.0206C98.8236 61.1431 95.5762 61.3187 94.7048 61.3187C93.8335 61.3187 94.107 60.4356 94.107 60.4356L94.2438 59.6378L92.7746 59.2841C92.7746 59.2841 88.8737 64.2828 88.8737 64.6804C88.8737 65.0781 92.9063 74.207 93.1369 75.2682C93.3674 76.3294 93.5042 76.5953 92.9975 76.9929C92.6222 77.2479 92.191 77.4164 91.7373 77.4854C91.2836 77.5543 90.8195 77.5219 90.3809 77.3906C89.6989 77.1852 89.0383 76.9189 88.4076 76.5953C88.3819 76.198 88.3819 75.7996 88.4076 75.4024C88.4532 75.0047 89.1422 75.3145 88.8205 74.651C88.4988 73.9874 88.3139 73.8093 88.1315 73.3678C87.9491 72.9262 83.6049 65.9539 83.7898 64.3169C83.9747 62.68 88.0479 56.9982 88.0479 56.8665C88.2195 56.4522 88.4183 56.0489 88.6432 55.6589C88.6432 55.6589 88.8256 55.0832 89.2866 54.9953C89.7476 54.9075 96.7693 54.9953 98.5602 54.7758C100.351 54.5562 101.222 54.6416 100.944 55.3491Z" fill="#FFD942" stroke="#2E353A" stroke-width="0.5" stroke-linecap="round" stroke-linejoin="round"/>
<path d="M89.4977 67.9033L89.7586 68.4376" stroke="#2E353A" stroke-width="0.5" stroke-linecap="round" stroke-linejoin="round"/>
<path d="M90.3184 61.8359L88.3376 64.3292C88.3376 64.3292 85.8045 64.6244 86.5644 64.6732C87.3243 64.722 88.0842 64.722 88.0842 64.722C88.0842 64.722 87.4231 64.9171 87.5776 65.0147C87.7556 65.083 87.9459 65.1162 88.1374 65.1123L89.2191 67.3274" stroke="#2E353A" stroke-width="0.5" stroke-linecap="round" stroke-linejoin="round"/>
<path d="M86.4478 36.7328C86.4478 36.7328 85.807 37.0743 84.8419 37.6037C83.8768 38.1331 83.322 38.399 83.1903 38.843C83.0586 39.287 80.2494 44.8248 80.2494 44.8248C80.2494 44.8248 81.3513 45.4445 82.362 45.886C83.13 46.1901 83.9301 46.4126 84.7481 46.5496L85.6676 44.6931C85.6676 44.6931 87.4408 47.9182 88.2007 49.0697C89.5534 51.1262 89.1177 52.3875 88.9353 53.095C88.7529 53.8024 88.2463 55.1296 88.3831 55.3052C88.5199 55.4809 92.1017 57.03 94.3992 56.8982C96.6967 56.7665 100.633 56.5616 100.909 56.2518C101.185 55.9419 101.231 54.1562 101.231 54.022C101.231 53.8878 100.826 50.4407 100.413 48.3622C99.9998 46.2837 97.7504 40.7117 97.0158 39.2089C96.2812 37.7061 95.5922 37.2182 93.7228 36.601C91.8534 35.9838 89.0848 35.8496 87.9373 35.9814C86.7898 36.1131 86.4478 36.7328 86.4478 36.7328Z" fill="#2E353A" stroke="#2E353A" stroke-width="0.5" stroke-linecap="round" stroke-linejoin="round"/>
<path d="M94.1758 42.6633L97.0204 43.544L94.6343 43.788" stroke="white" stroke-width="0.5" stroke-linecap="round" stroke-linejoin="round"/>
<path d="M89.5045 49.6577C89.5045 49.6577 92.2453 51.8094 95.5991 51.8094" stroke="white" stroke-width="0.5" stroke-linecap="round" stroke-linejoin="round"/>
<path d="M90.4197 51.6143C90.4197 51.6143 92.6995 52.6413 95.0401 52.2998" stroke="white" stroke-width="0.5" stroke-linecap="round" stroke-linejoin="round"/>
<path d="M84.5274 41.9802L85.6673 44.693L83.2584 41.3435" stroke="white" stroke-width="0.5" stroke-linecap="round" stroke-linejoin="round"/>
<path d="M86.2527 37.0425C86.1907 37.5411 86.1755 38.044 86.2071 38.5452C86.2527 39.4747 86.5744 40.1383 86.2983 40.8018C86.0222 41.4654 86.3464 41.7777 86.62 41.4654C86.8936 41.1531 87.3546 39.9602 87.4483 39.7406C87.542 39.5211 89.4748 39.121 89.7433 39.121C90.0118 39.121 90.8908 40.4481 91.3037 40.6238C91.7165 40.7994 91.6253 40.4481 91.3492 39.7406C91.0731 39.0331 90.754 36.5692 90.1106 35.8032C89.4672 35.0371 86.9062 35.2299 86.2527 37.0425Z" fill="white" stroke="#2E353A" stroke-width="0.5" stroke-linecap="round" stroke-linejoin="round"/>
<path d="M86.7238 37.8379C86.4705 37.7525 88.0537 40.0945 88.6971 41.2875C89.3405 42.4804 89.9357 42.173 90.0295 41.2436C90.1232 40.3141 89.7078 37.2183 89.7078 37.2183C89.7078 37.2183 88.0537 38.2819 86.7238 37.8379Z" fill="white" stroke="#2E353A" stroke-width="0.5" stroke-linecap="round" stroke-linejoin="round"/>
<path d="M90.0111 40.1311C89.4188 40.3758 88.7631 40.4405 88.1316 40.3165C88.3469 40.6727 88.547 41.0118 88.6965 41.2923C89.3399 42.4853 89.9351 42.1779 90.0289 41.2484C90.0486 40.876 90.0427 40.5028 90.0111 40.1311Z" fill="#FFD942" stroke="#2E353A" stroke-width="0.5" stroke-linecap="round" stroke-linejoin="round"/>
<path d="M91.3589 56.603V62.0701" stroke="#2E353A" stroke-width="0.5" stroke-linecap="round" stroke-linejoin="round"/>
<path d="M96.2274 57.8351C96.2013 57.8375 96.175 57.8375 96.1489 57.8351L87.6099 56.8593C87.4407 56.8334 87.2884 56.7455 87.1849 56.614C87.0815 56.4824 87.0349 56.3175 87.0548 56.1536C87.0748 55.9897 87.1598 55.8396 87.292 55.7347C87.4243 55.6298 87.5935 55.5782 87.7644 55.5907L96.3034 56.5665C96.4756 56.5799 96.6355 56.6576 96.7489 56.7831C96.8623 56.9085 96.9202 57.0717 96.9103 57.2378C96.9004 57.4039 96.8234 57.5596 96.6957 57.6717C96.5681 57.7838 96.4 57.8433 96.2274 57.8376V57.8351Z" fill="white" stroke="#2E353A" stroke-width="0.5" stroke-linecap="round" stroke-linejoin="round"/>
<path d="M96.2652 57.6326C96.4932 57.6326 96.6781 57.4229 96.6781 57.1642C96.6781 56.9055 96.4932 56.6958 96.2652 56.6958C96.0372 56.6958 95.8523 56.9055 95.8523 57.1642C95.8523 57.4229 96.0372 57.6326 96.2652 57.6326Z" fill="white" stroke="#2E353A" stroke-width="0.5" stroke-linecap="round" stroke-linejoin="round"/>
<path d="M88.5121 80.6964L93.6314 83.1238C93.6609 83.1364 93.6929 83.1429 93.7252 83.1429C93.7575 83.1429 93.7894 83.1364 93.8189 83.1238L96.8915 82.0284C96.9353 82.0128 96.9734 81.985 97.0008 81.9485C97.0281 81.912 97.0436 81.8685 97.0452 81.8235C97.0469 81.7785 97.0346 81.7341 97.0099 81.6958C96.9852 81.6576 96.9493 81.6273 96.9067 81.6088L92.1091 79.4693C92.06 79.4473 92.0046 79.4422 91.952 79.4546L88.5627 80.2719C88.5154 80.2825 88.4727 80.307 88.4404 80.3419C88.408 80.3768 88.3877 80.4205 88.3822 80.467C88.3766 80.5134 88.3861 80.5604 88.4094 80.6015C88.4326 80.6426 88.4685 80.6757 88.5121 80.6964Z" fill="white" stroke="#2E353A" stroke-width="0.5" stroke-linecap="round" stroke-linejoin="round"/>
<path d="M92.5854 81.5039H91.5722C91.342 81.5033 91.1214 81.4149 90.9586 81.2581C90.7958 81.1013 90.704 80.8889 90.7034 80.6671L90.0676 62.7851C90.0676 62.5839 90.1506 62.3909 90.2983 62.2486C90.446 62.1063 90.6464 62.0264 90.8554 62.0264H92.0332C92.2422 62.0264 92.4425 62.1063 92.5903 62.2486C92.738 62.3909 92.821 62.5839 92.821 62.7851L93.4568 80.6671C93.4568 80.7772 93.4343 80.8862 93.3904 80.9879C93.3466 81.0896 93.2824 81.182 93.2015 81.2597C93.1205 81.3374 93.0244 81.399 92.9187 81.4409C92.813 81.4828 92.6998 81.5042 92.5854 81.5039Z" fill="white" stroke="#2E353A" stroke-width="0.5" stroke-linecap="round" stroke-linejoin="round"/>
<path d="M95.0728 80.884C94.3025 81.5808 93.4896 82.2325 92.6385 82.8357C91.6253 83.4993 91.5366 83.4114 91.7671 83.853C91.9976 84.2945 92.6841 84.5605 94.6143 84.1628C96.5445 83.7652 97.1854 83.4553 98.2417 82.8796C99.2979 82.3039 99.6171 82.3039 99.3435 81.9501C99.07 81.5964 95.0728 80.884 95.0728 80.884Z" fill="#2E353A" stroke="#2E353A" stroke-width="0.5" stroke-linecap="round" stroke-linejoin="round"/>
<path d="M98.2413 82.8749C99.295 82.2992 99.6167 82.2992 99.3432 81.9454C99.2706 81.8803 99.1842 81.8312 99.0899 81.8015C97.69 82.5983 96.2077 83.2524 94.6671 83.7532C92.6913 84.3265 91.7287 83.6629 91.7287 83.6629L91.7059 83.6995C91.7259 83.7479 91.7487 83.7951 91.7743 83.841C92.0023 84.2826 92.6913 84.5485 94.6215 84.1508C96.5517 83.7532 97.185 83.4507 98.2413 82.8749Z" fill="white" stroke="#2E353A" stroke-width="0.5" stroke-linecap="round" stroke-linejoin="round"/>
<path d="M102.332 45.5323C102.004 44.8399 101.713 44.1314 101.461 43.4099C100.691 43.7636 98.3374 45.6616 98.3374 45.6616L100.404 48.3574C100.404 48.3574 98.4311 51.0994 97.5116 52.6486C96.8359 53.7056 96.0001 54.6594 95.0317 55.4785L92.7747 55.4516C92.6751 55.5125 92.5912 55.5945 92.5293 55.6913C92.4674 55.7881 92.4292 55.8972 92.4176 56.0103C92.4176 56.3518 92.0174 57.5545 92.1947 57.7692C92.372 57.9839 93.4435 58.0254 93.4435 58.0254C93.4435 58.0254 95.1812 58.1986 95.4927 57.7692C95.4927 57.7692 94.9583 57.2106 95.0013 56.9544C95.0444 56.6983 95.5814 56.525 95.5814 56.525L96.164 56.4836C96.164 56.4836 96.3641 56.6177 96.5313 55.7517C96.9822 55.4638 98.6211 54.4051 99.4874 53.5707C100.501 52.5949 103.482 49.3698 103.71 48.7501C103.938 48.1305 102.93 46.8156 102.332 45.5323Z" fill="white" stroke="#2E353A" stroke-width="0.5" stroke-linecap="round" stroke-linejoin="round"/>
<path d="M102.12 45.0615C101.671 44.0491 101.461 43.4099 101.461 43.4099C100.691 43.7636 98.3379 45.6616 98.3379 45.6616L99.3207 46.9424C100.421 46.5857 101.392 45.933 102.12 45.0615Z" fill="#FFD942" stroke="#2E353A" stroke-width="0.5" stroke-linecap="round" stroke-linejoin="round"/>
<path d="M95.7672 42.3487L98.2015 46.496L99.6251 45.5665C100.429 44.9927 101.141 44.3079 101.738 43.5343C100.749 42.0261 99.6441 40.5917 98.432 39.2431C96.5018 37.1207 95.5848 36.989 94.759 37.0329" fill="#2E353A"/>
<path d="M95.7672 42.3487L98.2015 46.496L99.6251 45.5665C100.429 44.9927 101.141 44.3079 101.738 43.5343C100.749 42.0261 99.6441 40.5917 98.432 39.2431C96.5018 37.1207 95.5848 36.989 94.759 37.0329" stroke="#2E353A" stroke-width="0.5" stroke-linecap="round" stroke-linejoin="round"/>
<path d="M89.8339 56.7446C89.8339 56.5714 89.074 54.7709 89.074 54.7709L86.7942 53.5634C85.8545 51.7434 84.4106 48.8306 84.1624 48.3183C83.9771 47.9629 83.8229 47.5932 83.7013 47.2132L84.0889 46.4179C83.5005 46.2923 82.9256 46.1142 82.3715 45.886C81.9434 45.7006 81.5026 45.4835 81.1353 45.2932C80.9327 46.0397 80.5856 47.3254 80.7174 47.9645C80.8491 48.6037 83.8457 52.2582 85.3428 54.1049C85.3428 54.1049 85.9684 56.6592 86.2369 57.0446L86.5054 57.4301C86.5054 57.4301 86.9487 57.9034 87.1716 57.8594C87.363 57.8014 87.5435 57.7141 87.7061 57.6009C87.8644 57.6508 88.0324 57.6658 88.1975 57.6448C88.4148 57.5547 88.6112 57.4236 88.7751 57.2593C88.7751 57.2593 88.998 57.5033 89.535 57.3886C90.072 57.274 89.8339 56.9153 89.8339 56.7446Z" fill="white" stroke="#2E353A" stroke-width="0.5" stroke-linecap="round" stroke-linejoin="round"/>
<path d="M80.8566 46.3544C81.7158 46.9149 82.7048 47.2634 83.7367 47.3693C83.7037 47.2742 83.6911 47.2254 83.6911 47.2254L84.0786 46.4301C83.4903 46.3045 82.9153 46.1264 82.3612 45.8982C81.9331 45.7128 81.4924 45.4957 81.1251 45.3054C81.044 45.5884 80.9326 45.9641 80.8566 46.3544Z" fill="#FFD942" stroke="#2E353A" stroke-width="0.5" stroke-linecap="round" stroke-linejoin="round"/>
<path d="M48.0026 58.0643V56.5713" stroke="#2E353A" stroke-width="0.5" stroke-linecap="round" stroke-linejoin="round"/>
<path d="M91.4272 77.954L89.5096 78.2614C89.5096 78.2614 88.3394 78.5688 88.1266 79.5934C87.6149 82.0598 84.9653 82.9869 82.7058 83.4748C79.5085 84.1868 76.2646 84.688 72.9965 84.9751C68.0114 85.402 62.9478 85.3215 58.0108 84.4872C55.1763 83.9993 50.8549 83.4723 48.7423 81.3938C48.564 81.2366 48.4298 81.0386 48.3522 80.8181C48.1825 80.218 48.76 79.6715 49.3173 79.3543C50.3408 78.8267 51.4317 78.4305 52.5622 78.176C55.4625 77.41 59.0848 77.2636 61.7876 76.0487C62.578 75.695 63.0542 75.129 62.2487 74.4459C59.7409 72.3064 48.0026 71.9283 48.0026 67.9054V58.0642" stroke="#2E353A" stroke-width="0.5" stroke-linecap="round" stroke-linejoin="round"/>
<path d="M84.3981 34.8128C84.3075 34.3503 84.1489 33.9026 83.9269 33.4833C83.6128 32.9685 82.749 32.1391 82.592 31.3535C82.4349 30.568 83.6458 29.6458 83.6458 29.6458C83.6458 29.6458 82.9846 29.6458 83.1391 29.3726C83.2937 29.0994 84.0511 29.2213 84.0511 29.2213C83.9997 29.0791 83.9871 28.9265 84.0146 28.7783C84.0421 28.63 84.1088 28.4911 84.2081 28.3748C84.5526 27.982 84.6793 28.7383 84.6793 28.7383C85.0505 28.006 85.6269 27.3883 86.3435 26.955C87.4732 26.3182 89.4845 27.1989 89.7049 27.7405C89.9253 28.2821 89.3933 28.0967 89.3933 28.0967C89.3933 28.0967 92.0936 29.275 92.281 31.0242C92.4685 32.7734 90.9005 32.4757 90.9005 32.4757C90.9005 32.4757 90.9942 33.5052 90.7738 33.8687C90.5535 34.2322 90.4597 34.3566 89.3604 33.5052C88.261 32.6538 86.0015 32.9612 85.8749 33.6272C85.7482 34.2932 85.3683 35.2886 84.8084 35.169C84.2486 35.0495 84.3981 34.8128 84.3981 34.8128Z" fill="#2E353A" stroke="#2E353A" stroke-width="0.5" stroke-linecap="round" stroke-linejoin="round"/>
<path d="M85.9507 30.829C85.9507 30.829 84.864 29.9264 86.0495 29.7385C87.235 29.5507 87.6757 31.5901 88.9093 32.0171C89.6713 32.2645 90.5037 32.2137 91.2271 31.8756" stroke="white" stroke-width="0.5" stroke-linecap="round" stroke-linejoin="round"/>
<path d="M85.7661 30.6704C85.7661 30.6704 84.5224 29.8897 84.6288 29.3676C84.7352 28.8456 86.7414 28.1674 87.823 28.7943C88.9046 29.4213 88.9603 30.724 90.313 31.0363C91.6657 31.3486 91.4504 30.6191 91.2882 30.4093" stroke="white" stroke-width="0.5" stroke-linecap="round" stroke-linejoin="round"/>
<path d="M83.3854 31.5584C83.1676 31.2973 83.1144 30.3069 83.9807 30.1507C84.847 29.9946 85.5512 30.8826 85.5512 30.8826C85.3866 30.9851 84.4139 31.2461 84.2517 32.0292C84.0896 32.8123 84.9002 32.8099 84.5228 33.493" stroke="white" stroke-width="0.5" stroke-linecap="round" stroke-linejoin="round"/>
<path d="M84.5558 34.8322C84.5558 34.8322 84.5102 34.7761 84.4418 34.7078C84.2747 34.5419 83.8035 34.4223 83.6591 34.7541C83.4565 35.225 84.0087 36.1178 84.419 36.2349C84.5313 36.271 84.651 36.2799 84.7677 36.2607C84.8843 36.2416 84.9943 36.195 85.0878 36.1252C85.0878 36.1252 86.2175 38.3208 87.6386 38.8355C89.0596 39.3503 89.7613 37.7304 90.2097 36.6399C90.658 35.5494 90.4934 35.1542 90.4934 35.1542C90.4934 35.1542 91.2533 35.3274 91.4889 34.4663C91.7244 33.6051 91.347 33.2757 91.1038 33.3148C90.8748 33.3766 90.6558 33.4686 90.4528 33.588L90.0881 32.6488C90.0881 32.6488 89.3965 33.0415 88.2187 32.6097C87.0408 32.1779 86.4708 31.124 86.1922 31.2021C85.9136 31.2802 85.9389 31.9828 85.9389 31.9828C85.9389 31.9828 85.412 31.7095 85.2094 31.9437C85.0067 32.1779 85.5336 32.4536 85.2904 33.3148C85.0473 34.1759 84.7585 34.4394 84.7585 34.4394C84.7585 34.4394 84.9611 34.8298 84.799 34.8298L84.5558 34.8322Z" fill="white" stroke="#2E353A" stroke-width="0.5" stroke-linecap="round" stroke-linejoin="round"/>
<path d="M86.9064 34.259C86.9444 34.4249 86.8937 34.5737 86.7974 34.5932C86.7012 34.6127 86.5897 34.4981 86.5441 34.3322C86.4985 34.1663 86.5568 34.0175 86.6556 33.998C86.7544 33.9785 86.8709 34.0956 86.9064 34.259Z" fill="#2E353A"/>
<path d="M88.8545 34.0442C88.8545 34.2126 88.7836 34.3541 88.6822 34.3565C88.5809 34.3589 88.4973 34.2248 88.4923 34.0564C88.4872 33.8881 88.5606 33.7491 88.662 33.7466C88.7633 33.7442 88.8469 33.8759 88.8545 34.0442Z" fill="#2E353A"/>
<path d="M85.8808 33.7298C85.9514 33.5667 86.0649 33.4243 86.2102 33.3164C86.3555 33.2086 86.5274 33.1392 86.7091 33.115" stroke="#2E353A" stroke-width="0.5" stroke-linecap="round" stroke-linejoin="round"/>
<path d="M88.317 33.0026C88.4991 32.9604 88.69 32.9701 88.8664 33.0308C89.0427 33.0915 89.1969 33.2004 89.31 33.3442" stroke="#2E353A" stroke-width="0.5" stroke-linecap="round" stroke-linejoin="round"/>
<path d="M88.6469 36.4862C88.6469 36.4862 87.2537 36.9864 86.5673 36.052" stroke="#2E353A" stroke-width="0.5" stroke-linecap="round" stroke-linejoin="round"/>
<path d="M87.0129 36.4644C87.0129 36.4644 87.0611 37.3743 87.5575 37.5573C88.054 37.7403 88.2896 36.5815 88.2896 36.5815C87.8605 36.6425 87.4224 36.6023 87.0129 36.4644Z" fill="#2E353A" stroke="#2E353A" stroke-width="0.5" stroke-linecap="round" stroke-linejoin="round"/>
<path d="M87.1266 37.0183C87.1544 37.1329 87.2075 37.2403 87.2822 37.3333C87.3569 37.4263 87.4516 37.5028 87.5597 37.5575C87.813 37.6526 88.0081 37.3769 88.1297 37.0939C87.8099 36.976 87.4615 36.9497 87.1266 37.0183Z" fill="white" stroke="#2E353A" stroke-width="0.5" stroke-linecap="round" stroke-linejoin="round"/>
<path d="M88.2463 33.3198C88.0974 33.8094 88.0886 34.3286 88.221 34.8226C88.4591 35.5301 88.8137 35.5545 88.6719 35.6423C88.53 35.7301 87.912 35.8472 87.7726 35.735" fill="white"/>
<path d="M88.2463 33.3198C88.0974 33.8094 88.0886 34.3286 88.221 34.8226C88.4591 35.5301 88.8137 35.5545 88.6719 35.6423C88.53 35.7301 87.912 35.8472 87.7726 35.735" stroke="#2E353A" stroke-width="0.5" stroke-linecap="round" stroke-linejoin="round"/>
<path d="M94.0155 58.7134C94.0155 58.7134 91.4039 64.7245 91.3177 66.0516C91.2316 67.3787 95.168 78.7178 95.2592 79.2057C95.3504 79.6937 94.6183 79.6034 94.6183 80.0889C94.6277 80.4253 94.7052 80.7568 94.8463 81.0647C94.8919 81.1964 98.5193 82.2577 99.1171 82.3016C99.7149 82.3455 99.9885 82.2137 99.9885 81.8137C99.9885 81.4136 99.7149 80.1767 99.7149 80.045C99.7149 79.9132 100.449 79.0691 100.173 77.8786C99.8973 76.6881 97.3287 69.1474 97.007 68.3497C96.6853 67.5519 96.318 66.7151 96.318 66.7151C96.4593 66.516 96.5535 66.2895 96.5941 66.0516C96.622 65.8459 96.622 65.6376 96.5941 65.4319C96.5941 65.4319 100.574 59.2915 100.579 57.3813" fill="#FFD942"/>
<path d="M94.0155 58.7134C94.0155 58.7134 91.4039 64.7245 91.3177 66.0516C91.2316 67.3787 95.168 78.7178 95.2592 79.2057C95.3504 79.6937 94.6183 79.6034 94.6183 80.0889C94.6277 80.4253 94.7052 80.7568 94.8463 81.0647C94.8919 81.1964 98.5193 82.2577 99.1171 82.3016C99.7149 82.3455 99.9885 82.2137 99.9885 81.8136C99.9885 81.4136 99.7149 80.1767 99.7149 80.045C99.7149 79.9132 100.449 79.0691 100.173 77.8786C99.8973 76.6881 97.3287 69.1474 97.007 68.3497C96.6853 67.5519 96.318 66.7151 96.318 66.7151C96.4593 66.516 96.5535 66.2895 96.5941 66.0516C96.622 65.8459 96.622 65.6376 96.5941 65.4319C96.5941 65.4319 100.574 59.2915 100.579 57.3813" stroke="#2E353A" stroke-width="0.5" stroke-linecap="round" stroke-linejoin="round"/>
<path d="M96.8035 71.426C97.842 74.5633 99.068 78.2983 99.1542 78.8545C99.3061 79.8304 99.0022 80.0304 99.1035 80.5183C99.2048 81.0062 99.4075 81.6917 99.4075 81.6917" stroke="#2E353A" stroke-width="0.5" stroke-linecap="round" stroke-linejoin="round"/>
<path d="M99.0998 58.1033C98.3094 59.9598 96.8554 63.3849 96.5667 64.09C96.1589 65.0658 95.4471 65.8514 95.6016 65.9489C95.7561 66.0465 96.1589 66.0465 95.8549 66.3881C95.5509 66.7296 95.3483 66.8296 95.3483 66.976C95.3483 67.0272 95.8144 68.4275 96.4172 70.2499" stroke="#2E353A" stroke-width="0.5" stroke-linecap="round" stroke-linejoin="round"/>
<path d="M99.6089 56.8958L99.3556 57.5081" stroke="#2E353A" stroke-width="0.5" stroke-linecap="round" stroke-linejoin="round"/>
<path d="M92.7827 57.901C92.7827 57.901 92.9296 56.3324 93.0791 56.1421" stroke="#2E353A" stroke-width="0.5" stroke-linecap="round" stroke-linejoin="round"/>
<path d="M93.9678 56.1516C93.9678 56.1516 93.3142 58.1691 93.4434 58.0398" stroke="#2E353A" stroke-width="0.5" stroke-linecap="round" stroke-linejoin="round"/>
<path d="M94.4619 56.2834L94.1656 57.8057C94.1656 57.8057 94.1149 57.9497 94.5607 57.996" stroke="#2E353A" stroke-width="0.5" stroke-linecap="round" stroke-linejoin="round"/>
<path d="M88.7654 57.2593L88.4868 56.9495" stroke="#2E353A" stroke-width="0.5" stroke-linecap="round" stroke-linejoin="round"/>
<path d="M87.698 57.6016L87.4489 57.4253" stroke="#2E353A" stroke-width="0.5" stroke-linecap="round" stroke-linejoin="round"/>
<path d="M87.1619 57.8595L86.8073 57.3301" stroke="#2E353A" stroke-width="0.5" stroke-linecap="round" stroke-linejoin="round"/>
<path d="M71.813 51.68C73.4016 50.0218 74.7941 48.1989 75.9648 46.2446" stroke="#2E353A" stroke-width="0.5" stroke-linecap="round" stroke-linejoin="round"/>
<path d="M51.2958 61.3237C58.5968 60.7539 65.4593 57.7368 70.6891 52.7974" stroke="#2E353A" stroke-width="0.5" stroke-linecap="round" stroke-linejoin="round"/>
<path d="M44.0612 61.0967C45.0771 61.2437 46.1001 61.3414 47.1262 61.3894" stroke="#2E353A" stroke-width="0.5" stroke-linecap="round" stroke-linejoin="round"/>
<path d="M34.4792 57.6155C35.1294 57.9408 35.7888 58.2441 36.4576 58.5254" stroke="#2E353A" stroke-width="0.5" stroke-linecap="round" stroke-linejoin="round"/>
<path d="M17.7375 33.4929C18.1843 38.2366 19.7845 42.8122 22.4086 46.8496C25.0327 50.887 28.6071 54.2725 32.8422 56.7323" stroke="#2E353A" stroke-width="0.5" stroke-linecap="round" stroke-linejoin="round"/>
<path d="M66.4133 6.38441C61.941 3.4056 56.7441 1.59281 51.3285 1.12254C45.9129 0.652273 40.4631 1.54055 35.5097 3.70088" stroke="#2E353A" stroke-width="0.5" stroke-linecap="round" stroke-linejoin="round"/>
<path d="M77.4976 18.9604C77.1852 18.2773 76.8474 17.6089 76.4844 16.9551" stroke="#2E353A" stroke-width="0.5" stroke-linecap="round" stroke-linejoin="round"/>
<path d="M65.3748 52.1995C67.0697 50.9871 68.6186 49.5961 69.9926 48.0522" stroke="#2E353A" stroke-width="0.5" stroke-linecap="round" stroke-linejoin="round"/>
<path d="M45.5156 57.4666C52.0883 58.13 58.6944 56.5528 64.1844 53.0095" stroke="#2E353A" stroke-width="0.5" stroke-linecap="round" stroke-linejoin="round"/>
<path d="M39.1371 56.1077C40.0051 56.3955 40.8942 56.6452 41.8044 56.8566" stroke="#2E353A" stroke-width="0.5" stroke-linecap="round" stroke-linejoin="round"/>
<path d="M21.2632 38.1453C21.454 38.7552 21.666 39.3569 21.899 39.9505" stroke="#2E353A" stroke-width="0.5" stroke-linecap="round" stroke-linejoin="round"/>
<path d="M26.8891 12.5371C23.9902 15.8036 21.9306 19.6815 20.8771 23.8571C19.8236 28.0326 19.8057 32.3883 20.8249 36.5718" stroke="#2E353A" stroke-width="0.5" stroke-linecap="round" stroke-linejoin="round"/>
<path d="M60.3876 5.53053C55.9361 3.54387 51.0261 2.7019 46.1362 3.08669C41.2463 3.47148 36.5433 5.0699 32.4857 7.72614" stroke="#2E353A" stroke-width="0.5" stroke-linecap="round" stroke-linejoin="round"/>
<path d="M74.8305 20.3191C72.5052 14.6329 68.2738 9.85798 62.8085 6.75269" stroke="#2E353A" stroke-width="0.5" stroke-linecap="round" stroke-linejoin="round"/>
<path d="M76.0545 24.0957C75.8974 23.4395 75.7125 22.793 75.5048 22.1562" stroke="#2E353A" stroke-width="0.5" stroke-linecap="round" stroke-linejoin="round"/>
<path d="M74.8893 30.5874C74.8893 30.2653 75.1882 29.9384 75.1755 29.6115C75.1629 29.2846 74.8386 28.9846 74.8158 28.6674C74.793 28.3503 75.0691 27.999 75.0286 27.6916C74.9881 27.3842 74.6436 27.0915 74.5955 26.7743C74.5473 26.4572 74.793 26.0912 74.7297 25.7765C74.6664 25.4618 74.3016 25.2057 74.2231 24.8934C74.1446 24.5811 74.3649 24.1981 74.2813 23.8883C74.1978 23.5785 73.8077 23.3516 73.7089 23.0442C73.6101 22.7368 73.7975 22.3392 73.6886 22.0391C73.5797 21.739 73.182 21.5365 73.0528 21.2389C72.9236 20.9413 73.0857 20.529 72.954 20.2363C72.8223 19.9435 72.4018 19.7727 72.2574 19.4849C72.113 19.197 72.2346 18.775 72.0801 18.492C71.9256 18.209 71.495 18.0724 71.3202 17.7942C71.1454 17.5161 71.2442 17.0892 71.0669 16.8184C70.8896 16.5476 70.4488 16.4403 70.2614 16.1768C70.0739 15.9133 70.1296 15.4791 69.9321 15.2205C69.7345 14.9619 69.2887 14.8887 69.0809 14.6374C68.8732 14.3862 68.896 13.9519 68.6782 13.708C68.4603 13.464 68.0094 13.4225 67.784 13.1883C67.5586 12.9541 67.5459 12.5175 67.3103 12.2906C67.0747 12.0637 66.6213 12.0466 66.3781 11.8344C66.135 11.6221 66.0894 11.183 65.8386 10.9732C65.5878 10.7634 65.1319 10.7854 64.8735 10.5853C64.6151 10.3853 64.5341 9.9559 64.2681 9.76562C64.0021 9.57533 63.5512 9.629 63.2751 9.44847C62.999 9.26794 62.8901 8.84346 62.6064 8.67269C62.3227 8.50192 61.8819 8.58974 61.5932 8.42873C61.3044 8.26772 61.1625 7.85543 60.8687 7.69686C60.5749 7.53829 60.1366 7.66515 59.8377 7.52609C59.5388 7.38704 59.3641 6.98451 59.0576 6.85521C58.7511 6.72591 58.328 6.87717 58.0165 6.76007C57.7049 6.64297 57.5098 6.25507 57.1856 6.14773C56.8614 6.04039 56.4611 6.22336 56.142 6.12822C55.8228 6.03307 55.5872 5.66226 55.2655 5.57931C54.9438 5.49637 54.5487 5.70617 54.2219 5.63298C53.8951 5.5598 53.6342 5.2085 53.3049 5.14507C52.9756 5.08164 52.6007 5.32316 52.2689 5.27437C51.9371 5.22557 51.6508 4.89379 51.319 4.8572C50.9872 4.82061 50.6275 5.08652 50.3058 5.06212C49.9841 5.03773 49.6573 4.7279 49.3229 4.71571C48.9886 4.70351 48.6542 4.99382 48.3097 4.99382C47.9652 4.99382 47.6384 4.70351 47.2965 4.71571C46.9545 4.7279 46.6455 5.04017 46.3136 5.06212C45.9818 5.08408 45.6221 4.81817 45.3004 4.8572C44.9787 4.89623 44.6773 5.22801 44.3505 5.27437C44.0237 5.32072 43.6412 5.08408 43.3145 5.14507C42.9877 5.20606 42.7217 5.55736 42.3975 5.63298C42.0733 5.70861 41.6756 5.49637 41.3539 5.57931C41.0322 5.66226 40.7941 6.03307 40.4774 6.12822C40.1608 6.22336 39.7454 6.04283 39.4313 6.14773C39.1172 6.25263 38.9246 6.63565 38.6029 6.76007C38.2812 6.88448 37.8658 6.72835 37.5618 6.85521C37.2579 6.98207 37.0806 7.38704 36.7817 7.52609C36.4828 7.66515 36.0445 7.54805 35.7507 7.69686C35.4569 7.84567 35.3125 8.2604 35.0262 8.42873C34.74 8.59706 34.2916 8.50436 34.013 8.67269C33.7344 8.84102 33.6204 9.26551 33.3468 9.44603C33.0732 9.62656 32.6223 9.57289 32.3538 9.76318C32.0853 9.95346 32.0093 10.3828 31.7484 10.5853C31.4875 10.7878 31.0366 10.761 30.7833 10.9708C30.53 11.1806 30.487 11.6148 30.2438 11.8319C30.0006 12.0491 29.5472 12.0613 29.3116 12.2881C29.076 12.515 29.0583 12.9517 28.8379 13.1859C28.6175 13.4201 28.1692 13.4591 27.9513 13.7031C27.7335 13.947 27.7563 14.3813 27.5486 14.6326C27.3409 14.8838 26.8951 14.957 26.6975 15.2156C26.4999 15.4742 26.5556 15.906 26.3682 16.1695C26.1807 16.433 25.74 16.5403 25.5627 16.8135C25.3853 17.0868 25.4765 17.5113 25.3094 17.7894C25.1422 18.0675 24.7115 18.2041 24.5494 18.4895C24.3873 18.775 24.5165 19.1921 24.3721 19.48C24.2277 19.7679 23.8098 19.9386 23.6755 20.2314C23.5413 20.5241 23.6983 20.934 23.5767 21.234C23.4551 21.5341 23.0498 21.722 22.9409 22.0342C22.832 22.3465 23.0169 22.7319 22.9207 23.0393C22.8244 23.3467 22.4343 23.5736 22.3482 23.8834C22.2621 24.1932 22.4799 24.5763 22.4064 24.8885C22.333 25.2008 21.9657 25.4545 21.8998 25.7716C21.834 26.0888 22.0873 26.4523 22.0366 26.7694C21.986 27.0866 21.6415 27.3647 21.6035 27.6867C21.5655 28.0087 21.8416 28.3503 21.8162 28.6625C21.7909 28.9748 21.4667 29.2846 21.4565 29.6067C21.4464 29.9287 21.7428 30.2531 21.7428 30.5825C21.7428 30.9118 21.4439 31.229 21.4565 31.5583C21.4692 31.8877 21.7934 32.1853 21.8162 32.5049C21.839 32.8244 21.5629 33.1709 21.6035 33.4807C21.644 33.7905 21.9885 34.0808 22.0366 34.3955C22.0847 34.7102 21.839 35.081 21.8998 35.3958C21.9606 35.7105 22.3304 35.9642 22.4064 36.2764C22.4824 36.5887 22.2621 36.9742 22.3482 37.2815C22.4343 37.5889 22.8219 37.8207 22.9207 38.1256C23.0194 38.4306 22.832 38.8307 22.9409 39.1332C23.0498 39.4357 23.4475 39.6333 23.5767 39.9334C23.7059 40.2334 23.5438 40.6408 23.6755 40.9336C23.8072 41.2263 24.2277 41.3971 24.3721 41.685C24.5165 41.9728 24.3924 42.3949 24.5494 42.6779C24.7065 42.9609 25.1346 43.0999 25.3094 43.378C25.4841 43.6561 25.3853 44.0831 25.5627 44.3539C25.74 44.6246 26.1807 44.732 26.3682 44.9955C26.5556 45.2589 26.4999 45.6932 26.6975 45.9518C26.8951 46.2104 27.3409 46.2836 27.5486 46.5348C27.7563 46.7861 27.7335 47.2228 27.9513 47.4643C28.1692 47.7058 28.6201 47.7497 28.8455 47.9864C29.071 48.223 29.0836 48.6573 29.3192 48.8841C29.5548 49.111 30.0082 49.1281 30.2514 49.3379C30.4946 49.5477 30.5402 49.9917 30.7909 50.1991C31.0417 50.4064 31.4951 50.3869 31.756 50.587C32.0169 50.787 32.0955 51.2164 32.3614 51.4067C32.6274 51.5969 33.0783 51.5433 33.3544 51.7238C33.6305 51.9043 33.7394 52.3288 34.0231 52.4996C34.3068 52.6704 34.7476 52.5825 35.0364 52.7435C35.3251 52.9046 35.467 53.3193 35.7608 53.4754C36.0547 53.6315 36.4904 53.5071 36.7918 53.6462C37.0932 53.7852 37.2655 54.1878 37.572 54.3171C37.8785 54.4464 38.3015 54.2951 38.6131 54.4122C38.9246 54.5293 39.1197 54.9196 39.4439 55.0245C39.7682 55.1294 40.1684 54.9514 40.4876 55.0441C40.8067 55.1368 41.0423 55.5125 41.364 55.5954C41.6857 55.6783 42.0809 55.4685 42.4076 55.5393C42.7344 55.61 42.9953 55.9638 43.3246 56.0272C43.6539 56.0906 44.0288 55.8467 44.3606 55.8955C44.6925 55.9443 44.9787 56.276 45.3105 56.3126C45.6424 56.3492 46.0021 56.0833 46.3238 56.1077C46.6455 56.1321 46.9722 56.4444 47.3066 56.4566C47.641 56.4688 47.9753 56.1785 48.3198 56.1785C48.6643 56.1785 48.9936 56.4663 49.3331 56.4566C49.6725 56.4468 49.9841 56.1321 50.3134 56.1077C50.6427 56.0833 51.0074 56.3517 51.3266 56.3126C51.6458 56.2736 51.9497 55.9418 52.279 55.8955C52.6083 55.8491 52.9883 56.0858 53.3151 56.0272C53.6418 55.9687 53.9078 55.6125 54.232 55.5393C54.5563 55.4661 54.954 55.6783 55.2757 55.5954C55.5974 55.5125 55.8355 55.1392 56.1521 55.0441C56.4687 54.9489 56.8842 55.1294 57.1983 55.0245C57.5124 54.9196 57.7176 54.5366 58.0266 54.4122C58.3356 54.2878 58.7637 54.4464 59.0677 54.3171C59.3717 54.1878 59.549 53.7852 59.8479 53.6462C60.1468 53.5071 60.585 53.6267 60.8788 53.4754C61.1727 53.3242 61.3171 52.9119 61.6033 52.7435C61.8895 52.5752 62.3354 52.6704 62.6165 52.4996C62.8977 52.3288 63.0092 51.9043 63.2827 51.7238C63.5563 51.5433 64.0072 51.5969 64.2757 51.4067C64.5442 51.2164 64.6202 50.787 64.8811 50.587C65.142 50.3869 65.5929 50.4089 65.8462 50.1991C66.0995 49.9893 66.1426 49.555 66.3857 49.3379C66.6289 49.1208 67.0823 49.1086 67.3179 48.8817C67.5535 48.6548 67.5712 48.2206 67.7916 47.9839C68.012 47.7473 68.4679 47.7058 68.6858 47.4643C68.9036 47.2228 68.8808 46.7861 69.0885 46.5348C69.2962 46.2836 69.7421 46.2104 69.9397 45.9518C70.1372 45.6932 70.0815 45.2614 70.269 44.9955C70.4564 44.7295 70.8972 44.6246 71.0745 44.3539C71.2518 44.0831 71.1606 43.6537 71.3278 43.378C71.495 43.1024 71.923 42.9633 72.0877 42.6803C72.2523 42.3973 72.1206 41.9777 72.265 41.6874C72.4094 41.3971 72.8274 41.2312 72.9616 40.936C73.0959 40.6408 72.9388 40.2334 73.0604 39.9334C73.182 39.6333 73.5848 39.4454 73.6962 39.1356C73.8077 38.8258 73.6177 38.4355 73.7165 38.1281C73.8153 37.8207 74.2028 37.5962 74.2889 37.284C74.3751 36.9717 74.1572 36.5936 74.2307 36.2789C74.3041 35.9642 74.6714 35.7129 74.7373 35.3982C74.8032 35.0835 74.5524 34.7176 74.6031 34.398C74.6537 34.0784 74.9982 33.8027 75.0362 33.4831C75.0742 33.1635 74.7981 32.8171 74.8234 32.5073C74.8488 32.1975 75.1705 31.8828 75.1831 31.5607C75.1958 31.2387 74.8893 30.9094 74.8893 30.5874Z" fill="#FFD942" stroke="#2E353A" stroke-width="0.5" stroke-linecap="round" stroke-linejoin="round"/>
<path d="M40.3627 6.22827L40.8313 7.49197" stroke="#2E353A" stroke-width="0.5" stroke-linecap="round" stroke-linejoin="round"/>
<path d="M38.5793 6.90649L39.0023 7.8994" stroke="#2E353A" stroke-width="0.5" stroke-linecap="round" stroke-linejoin="round"/>
<path d="M71.2189 17.8357C70.4525 18.4686 69.5807 18.9726 68.6403 19.3263" stroke="#2E353A" stroke-width="0.5" stroke-linecap="round" stroke-linejoin="round"/>
<path d="M72.1556 19.5068C71.8065 19.7196 71.4464 19.915 71.0765 20.0923" stroke="#2E353A" stroke-width="0.5" stroke-linecap="round" stroke-linejoin="round"/>
<path d="M33.235 51.7604C33.235 51.7604 34.3597 50.5406 34.5471 49.6379" stroke="#2E353A" stroke-width="0.5" stroke-linecap="round" stroke-linejoin="round"/>
<path d="M30.0914 49.2673C30.0914 49.2673 31.0311 48.1402 31.2186 47.9597" stroke="#2E353A" stroke-width="0.5" stroke-linecap="round" stroke-linejoin="round"/>
<path d="M54.1959 55.4101L53.821 53.4243" stroke="#2E353A" stroke-width="0.5" stroke-linecap="round" stroke-linejoin="round"/>
<path d="M56.258 55.005L55.9769 53.8755" stroke="#2E353A" stroke-width="0.5" stroke-linecap="round" stroke-linejoin="round"/>
<path d="M64.8407 50.5334L63.2474 48.8159" stroke="#2E353A" stroke-width="0.5" stroke-linecap="round" stroke-linejoin="round"/>
<path d="M72.3439 41.6802L69.9526 40.4629" stroke="#2E353A" stroke-width="0.5" stroke-linecap="round" stroke-linejoin="round"/>
<path d="M21.9332 30.6167L23.9496 30.6606" stroke="#2E353A" stroke-width="0.5" stroke-linecap="round" stroke-linejoin="round"/>
<path d="M24.7927 30.707L25.778 30.7509" stroke="#2E353A" stroke-width="0.5" stroke-linecap="round" stroke-linejoin="round"/>
<path d="M24.5115 41.8168C24.7471 41.7265 26.2847 41.3289 26.2847 41.3289" stroke="#2E353A" stroke-width="0.5" stroke-linecap="round" stroke-linejoin="round"/>
<path d="M54.2115 5.67212C54.0696 5.94535 53.7859 7.51887 53.7859 7.51887" stroke="#2E353A" stroke-width="0.5" stroke-linecap="round" stroke-linejoin="round"/>
<path d="M56.0558 6.28687L55.843 7.31392" stroke="#2E353A" stroke-width="0.5" stroke-linecap="round" stroke-linejoin="round"/>
<path d="M63.3661 9.63623L62.7987 10.3193" stroke="#2E353A" stroke-width="0.5" stroke-linecap="round" stroke-linejoin="round"/>
<path d="M26.3189 16.1987L27.7374 16.9501" stroke="#2E353A" stroke-width="0.5" stroke-linecap="round" stroke-linejoin="round"/>
<path d="M28.5921 17.3601L29.7269 17.9749" stroke="#2E353A" stroke-width="0.5" stroke-linecap="round" stroke-linejoin="round"/>
<path d="M55.8275 23.1296C55.8275 23.1296 55.3944 22.4831 53.2058 21.1536C51.0172 19.824 45.3532 18.5603 43.1216 17.3991C40.8899 16.2012 38.4025 13.9422 37.5336 12.8566C36.6648 11.771 36.799 10.9513 36.0999 10.8854C35.4008 10.8196 34.7016 11.1294 34.2153 12.5395C33.7289 13.9495 34.3242 17.482 34.7219 18.5676C35.1196 19.6532 36.2873 20.3412 37.0295 20.6291C37.7717 20.9169 39.4309 21.6756 39.4284 22.3563C39.4258 23.0369 39.3372 23.1711 39.0307 23.2223C38.7242 23.2736 31.9862 24.2348 30.9476 24.5251C29.9091 24.8154 29.4607 26.6377 29.7571 28.0746C30.0534 29.5116 31.2288 29.9629 30.8742 30.9826C30.5195 32.0024 29.9091 33.1977 30.5119 34.5517C31.1148 35.9057 32.2471 35.6959 31.8063 36.7473C31.3656 37.7988 31.3605 39.0283 31.9229 39.8187C32.4852 40.6092 33.2274 41.1215 33.2223 42.0802C33.2173 43.039 34.9549 45.1492 36.0467 45.4493C36.5863 45.6054 41.4852 46.1226 46.255 46.1689C51.0223 46.286 55.6603 45.925 55.6527 45.925C55.7101 38.3217 55.7684 30.7232 55.8275 23.1296Z" fill="white" stroke="#2E353A" stroke-width="0.5" stroke-linecap="round" stroke-linejoin="round"/>
<path d="M65.3474 45.2126C62.5103 45.6257 59.6632 45.9299 56.8059 46.125C56.6211 46.1329 56.4367 46.1032 56.2646 46.038C56.0925 45.9728 55.9366 45.8735 55.8069 45.7466C55.6772 45.6196 55.5767 45.4678 55.5118 45.301C55.4469 45.1342 55.4192 44.9562 55.4304 44.7784C55.4591 37.9134 55.4878 31.0517 55.5165 24.1933C55.5094 24.013 55.5399 23.8332 55.6064 23.6645C55.6728 23.4958 55.7738 23.3417 55.9032 23.2113C56.0327 23.0809 56.1881 22.9769 56.3601 22.9054C56.5321 22.834 56.7173 22.7966 56.9046 22.7954C59.762 22.8735 62.6091 22.9849 65.4462 23.1296C65.8158 23.1549 66.1619 23.3137 66.4151 23.5743C66.6683 23.8348 66.8099 24.1779 66.8115 24.5348C66.7811 30.9086 66.7516 37.2873 66.7229 43.6708C66.7117 44.0407 66.569 44.3956 66.3186 44.6763C66.0682 44.9569 65.7254 45.1463 65.3474 45.2126Z" fill="#2E353A" stroke="#2E353A" stroke-width="0.5" stroke-linecap="round" stroke-linejoin="round"/>
<path d="M59.0039 43.6683C59.0108 43.5343 58.9884 43.4004 58.9383 43.2753C58.8881 43.1502 58.8113 43.0366 58.7127 42.9419C58.6141 42.8471 58.4959 42.7734 58.3659 42.7254C58.2358 42.6774 58.0968 42.6562 57.9577 42.6632C57.6646 42.6935 57.3939 42.8282 57.1985 43.0407C57.0031 43.2532 56.8972 43.5284 56.9014 43.8122C56.893 43.9469 56.9142 44.0817 56.9637 44.2079C57.0133 44.3341 57.0899 44.4487 57.1887 44.5444C57.2875 44.64 57.4062 44.7144 57.537 44.7627C57.6678 44.811 57.8077 44.8321 57.9476 44.8246C58.2401 44.79 58.5093 44.6531 58.704 44.4399C58.8987 44.2268 59.0054 43.9522 59.0039 43.6683Z" fill="white" stroke="#2E353A" stroke-width="0.5" stroke-linecap="round" stroke-linejoin="round"/>
<path d="M55.7391 20.6169C58.5483 20.6169 60.8256 18.4237 60.8256 15.7182C60.8256 13.0128 58.5483 10.8196 55.7391 10.8196C52.93 10.8196 50.6527 13.0128 50.6527 15.7182C50.6527 18.4237 52.93 20.6169 55.7391 20.6169Z" fill="white"/>
<path d="M64.312 22.9702C65.05 22.2595 65.05 21.1072 64.312 20.3965C63.5741 19.6857 62.3776 19.6857 61.6396 20.3965C60.9016 21.1072 60.9016 22.2595 61.6396 22.9702C62.3776 23.681 63.574 23.681 64.312 22.9702Z" fill="white"/>
<path opacity="0.2" d="M46.4174 55.3343C46.7366 55.3563 47.0405 55.6588 47.3648 55.671C47.689 55.6832 48.0133 55.4026 48.335 55.4026C48.6567 55.4026 48.986 55.6807 49.3077 55.671C49.6294 55.6612 49.9359 55.3563 50.255 55.3343C50.5742 55.3123 50.9238 55.5783 51.2429 55.5319C51.5621 55.4856 51.8458 55.1757 52.1624 55.1294C52.4791 55.083 52.8489 55.3123 53.1757 55.2562C53.5024 55.2001 53.7481 54.8561 54.0597 54.7878C54.3713 54.7195 54.7588 54.922 55.0729 54.8415C55.387 54.761 55.6125 54.4024 55.919 54.3097C56.2255 54.217 56.6257 54.3926 56.9322 54.2902C57.2387 54.1877 57.4388 53.8023 57.7352 53.6998C58.0316 53.5973 58.447 53.7315 58.7484 53.6071C59.0499 53.4827 59.212 53.0948 59.5084 52.9582C59.8047 52.8215 60.2202 52.9386 60.5039 52.7947C60.7876 52.6508 60.9269 52.2482 61.2055 52.0946C61.4842 51.9409 61.9148 52.0214 62.1858 51.8506C62.4569 51.6798 62.5658 51.2749 62.8318 51.1016C63.0977 50.9284 63.5309 50.9797 63.7893 50.7943C64.0476 50.6089 64.1236 50.1941 64.3744 50.0014C64.6252 49.8087 65.0634 49.8306 65.3066 49.6282C65.5497 49.4257 65.5928 49.0061 65.8284 48.7963C66.064 48.5865 66.5022 48.5743 66.7302 48.3547C66.9581 48.1351 66.9683 47.7155 67.1861 47.4886C67.404 47.2618 67.8422 47.2203 68.0524 46.9837C68.2627 46.747 68.2399 46.3298 68.44 46.0859C68.6401 45.8419 69.0707 45.7712 69.2632 45.5223C69.4558 45.2735 69.4 44.8563 69.5824 44.6002C69.7648 44.344 70.1878 44.2416 70.3575 43.9781C70.5272 43.7146 70.4437 43.3023 70.6108 43.034C70.778 42.7656 71.1884 42.6339 71.3378 42.3607C71.4873 42.0874 71.3708 41.68 71.5101 41.4019C71.6494 41.1238 72.0547 40.9604 72.1839 40.67C72.3131 40.3797 72.1611 39.9918 72.2801 39.6942C72.3992 39.3966 72.7868 39.2063 72.8931 38.9209C72.9995 38.6354 72.8172 38.2451 72.9134 37.945C73.0097 37.645 73.382 37.4303 73.4656 37.1302C73.5492 36.8302 73.3364 36.4618 73.4099 36.1544C73.4833 35.847 73.8354 35.6079 73.8962 35.303C73.957 34.998 73.7164 34.6467 73.7645 34.3272C73.8127 34.0076 74.147 33.749 74.1825 33.4416C74.2179 33.1342 73.952 32.8 73.9773 32.4877C74.0026 32.1755 74.3142 31.8876 74.3243 31.5753C74.3345 31.2631 74.0457 30.9508 74.0457 30.641C74.0457 30.3311 74.337 30.014 74.3243 29.7042C74.3117 29.3943 74.0001 29.0992 73.9773 28.7918C73.9545 28.4844 74.2179 28.1477 74.1825 27.8403C74.147 27.5329 73.8101 27.2597 73.7645 26.9548C73.7189 26.6498 73.9545 26.2937 73.8962 25.9789C73.838 25.6642 73.4808 25.4276 73.4099 25.1275C73.3954 25.061 73.3912 24.9928 73.3972 24.925C55.5644 39.5625 33.3746 38.433 23.2701 36.918C23.2657 36.9811 23.2717 37.0445 23.2879 37.1058C23.3715 37.4059 23.7438 37.6255 23.8401 37.9206C23.9363 38.2158 23.754 38.6013 23.8603 38.8965C23.9667 39.1917 24.367 39.3844 24.4734 39.6674C24.5797 39.9504 24.4404 40.3529 24.5696 40.6432C24.6988 40.9335 25.1016 41.0921 25.2434 41.3751C25.3853 41.6581 25.2637 42.0606 25.4131 42.3338C25.5626 42.6071 25.9805 42.7412 26.1401 43.0096C26.2997 43.2779 26.2161 43.6902 26.3934 43.9513C26.5707 44.2123 26.9912 44.3172 27.1711 44.5734C27.3509 44.8295 27.2977 45.2467 27.4903 45.4979C27.6828 45.7492 28.1134 45.8175 28.3135 46.0615C28.5136 46.3055 28.4908 46.7226 28.7011 46.9593C28.9113 47.1959 29.347 47.2349 29.5648 47.4618C29.7827 47.6887 29.7954 48.1107 30.0233 48.3303C30.2513 48.5499 30.687 48.5572 30.9226 48.7694C31.1581 48.9817 31.2012 49.3988 31.4469 49.6013C31.6926 49.8038 32.1258 49.7818 32.3791 49.9746C32.6324 50.1673 32.7059 50.5845 32.9642 50.7674C33.2226 50.9504 33.6558 50.8992 33.9217 51.0748C34.1877 51.2505 34.2941 51.6579 34.5677 51.8238C34.8412 51.9897 35.2693 51.9043 35.548 52.0677C35.8266 52.2312 35.9634 52.6215 36.2471 52.7679C36.5308 52.9143 36.9538 52.7971 37.2426 52.9338C37.5314 53.0704 37.7011 53.4558 38.0025 53.5803C38.304 53.7047 38.7067 53.5583 39.0158 53.673C39.3248 53.7876 39.5224 54.1609 39.8187 54.2633C40.1151 54.3658 40.5204 54.1926 40.832 54.2828C41.1435 54.3731 41.3665 54.7342 41.678 54.8147C41.9896 54.8952 42.3721 54.6927 42.6913 54.761C43.0104 54.8293 43.2612 55.1709 43.5778 55.2294C43.8945 55.288 44.2592 55.0562 44.5784 55.1025C44.8976 55.1489 45.1787 55.4709 45.4979 55.5051C45.8171 55.5392 46.0932 55.3123 46.4174 55.3343Z" fill="black"/>
</svg>
